<?xml version="1.0" encoding="UTF-8"?>
<svg id="Layer_1" data-name="Layer 1" xmlns="http://www.w3.org/2000/svg" viewBox="0 0 512 512">
  <g>
    <path d="m247.61,75.489c-.663,12.938-1.326,37.322-1.989,50.26-6.872,4.119-14.042,9.566-19.874,15.199-4.119,3.979-7.972,8.35-10.781,13.447-2.516,4.566-4.141,9.617-5.493,14.705-3.848,14.485,6.233,30.329,6.653,45.368.215,7.696-7.524-3.776-8.467,3.895-3.264,26.55-3.819,72.088,1.144,98.219,6.397,33.681,15.349,76.545,19.134,110.664l-23.767-.159-13.956-80.87-9.226-124.016-6.538-17.888,2.777-47.833,7.614-23.217,42.074-21.67.563-36.237,20.13.134Z" fill="#4380af" stroke-width="0"/>
    <path d="m164.011,182.964c-.026.011.039.007,0,0h0Z" fill="#2a2e28" stroke-width="0"/>
    <path d="m290.841,137.343c-3.333.228-6.758.181-9.889,1.41-.731.287-1.545.801-1.575,1.624-.034.951.976,1.517,1.838,1.792,4.311,1.38,8.887,1.438,13.391,1.486,6.576.069,13.175.137,19.704-.698,3.153-.404,6.811-1.457,7.917-4.605.72-2.05.037-4.429-1.278-6.116-4.051-5.198-8.188-.611-12.91,1.234-5.517,2.155-11.328,3.472-17.198,3.873Z" fill="#ef9437" stroke-width="0"/>
    <path d="m312.246,152.294c-7.499.316-15.414-1.058-22.22,2.286-.469.23-.97.53-1.135,1.048-.126.394-.025.828.119,1.214.748,2.01,2.599,3.377,4.557,3.997s4.037.602,6.08.578c6.527-.074,13.054-.148,19.581-.222,2.976-.034,5.988-.073,8.864-.879.762-.214,1.565-.522,2.012-1.209.312-.481.404-1.081.452-1.663.373-4.55-.573-8.929-5.087-7.822-4.482,1.099-8.553,2.475-13.223,2.672Z" fill="#ef9437" stroke-width="0"/>
    <path d="m319.098,170.543c-16.021.266-32.046.242-48.066-.073-1.357-.027-2.764-.045-4.005.537s-2.262,1.95-2.041,3.365c.332,2.132,2.886,2.79,4.923,2.965,21.051,1.811,42.175,2.656,63.295,2.532,1.011-.006,2.222-.136,2.689-1.084.282-.572.183-1.264.052-1.894-.621-3.001-1.57-7.355-4.702-7.869-3.333-.547-8.543,1.46-12.146,1.52Z" fill="#ef9437" stroke-width="0"/>
    <path d="m292.667,190.621c-.549.02-1.119.051-1.601.329-1.417.817-1.163,3.109-.277,4.536,2.664,4.295,8.245,5.039,13.102,5.18,7.9.23,15.813-.023,23.685-.755,2.176-.202,4.411-.46,6.345-1.533,2.557-1.419,6.394-7.198,4.319-10.427-1.48-2.303-10.306,1.688-13.245,2.117-10.716,1.564-21.564.162-32.328.554Z" fill="#ef9437" stroke-width="0"/>
    <path d="m308.235,232.307c-4.539-.107-9.152-.575-13.566.548-1.023.26-2.242.913-2.168,2.023.081,1.205,1.553,1.597,2.693,1.667,5.297.326,10.594.652,15.89.978,2.563.158,5.126.315,7.689.473,1.336.082,6.029,1.152,7.03.269,2.214-1.952-.215-6.723-2.638-6.929-4.766-.405-10.057,1.085-14.932.972Z" fill="#ef9437" stroke-width="0"/>
    <path d="m283.397,249.021c-1.09.063-2.222.143-3.175.706s-1.663,1.762-1.347,2.867c.425,1.487,2.228,1.849,3.696,1.931,1.844.102,3.69.179,5.535.256,12.921.538,25.842,1.077,38.762,1.615.026.001-.237-5.388-.472-5.962-.534-1.305-1.217-1.79-2.492-2.168-3.615-1.073-8.415-.227-12.137-.195-9.462.083-18.923.4-28.371.95Z" fill="#ef9437" stroke-width="0"/>
    <path d="m282.306,267.577c-.8-.006-1.669.012-2.296.538-1.077.903-.758,2.85.276,3.808s2.483,1.189,3.847,1.361c11.901,1.503,23.9,1.558,35.869,1.536,3.149-.006,4.399-.183,3.707-3.954-.39-2.126-1.067-2.692-3.055-3.017-5.749-.941-12.299-.087-18.125-.128-6.741-.048-13.482-.099-20.223-.143Z" fill="#ef9437" stroke-width="0"/>
    <path d="m299.433,280.508c-.774-.021-1.586-.033-2.277.336-1.304.697-1.702,2.631-1.081,4.029s2.009,2.273,3.433,2.623,2.906.252,4.366.195c6.326-.247,12.68.298,18.887,1.619,1.085.231,2.636.167,2.789-.992.145-1.092-1.196-5.552-2.004-6.4-1.338-1.405-4.311-.883-5.99-.927-6.041-.161-12.082-.322-18.124-.483Z" fill="#ef9437" stroke-width="0"/>
    <path d="m284.302,299.205c-2.019-.014-4.453.223-5.372,2.124-.806,1.668.142,3.804,1.62,4.838s3.322,1.242,5.087,1.408c12.056,1.133,24.156,1.629,36.251,2.124-.036-.002.025-5.433.027-5.92.011-2.265.658-3.653-1.261-4.325-3.245-1.137-8.677-.057-12.124-.081-8.076-.056-16.151-.112-24.227-.168Z" fill="#ef9437" stroke-width="0"/>
    <path d="m275.128,317.441c-.951.049-2.081.222-2.492,1.129-.341.753.031,1.694.646,2.218.615.524,1.413.729,2.184.912,12.517,2.981,25.404,4.217,38.224,3.675,1.132-.048,3.781.309,4.761-.261,1.091-.636,1.227-2.481,1.137-3.983-.135-2.262-.977-3.35-3.074-3.834-5.917-1.367-13.194-.446-19.242-.441-7.384.007-14.768.202-22.144.585Z" fill="#ef9437" stroke-width="0"/>
    <path d="m278.713,337.339c-.728-.006-1.482-.006-2.146.309-1.98.939-2.013,3.852-1.732,6.126,3.238.724,6.568.82,9.876.913,11.571.327,23.142.654,34.713.981.257-1.833.588-4.578-.052-6.354-.694-1.927-1.301-1.648-3.297-1.673-4.208-.053-8.417-.068-12.626-.102-8.245-.067-16.491-.133-24.736-.2Z" fill="#ef9437" stroke-width="0"/>
    <path d="m283.797,354.402c-.516-.046-1.089-.075-1.494.267-.461.39-.516,1.097-.534,1.721-.036,1.267-.073,2.534-.109,3.801-.008.296-.011.615.149.857.209.317.615.392.977.44,10.159,1.359,20.349,2.464,30.558,3.314.111.012,1.035-6.532.078-7.457-1.46-1.411-7.327-.883-9.309-1.071-6.77-.641-13.542-1.265-20.315-1.873Z" fill="#ef9437" stroke-width="0"/>
    <path d="m280.007,372.745c-1.867-.006-4.208.332-4.77,2.214-.4,1.34.429,2.789,1.517,3.596,1.826,1.355,4.212,1.418,6.443,1.431,9.535.056,19.07.112,28.606.168.336.002.701-.005.967-.222.318-.259.392-.726.435-1.148.285-2.786.949-5.368-2.043-5.861-3.375-.556-7.233-.054-10.653-.076-6.833-.044-13.667-.078-20.5-.102Z" fill="#ef9437" stroke-width="0"/>
    <path d="m265.111,387.604c-1.62-.044-3.356-.055-4.707.89s-1.962,3.236-.753,4.377c.629.593,1.529.704,2.368.785,13.338,1.288,26.741,1.828,40.133,1.619,2.591-.04,6.444.982,7.264-2.057.589-2.185-.09-3.862-2.087-4.459-2.868-.858-6.926-.202-9.918-.282-3.359-.091-6.719-.182-10.078-.272-7.408-.2-14.815-.396-22.223-.601Z" fill="#ef9437" stroke-width="0"/>
    <path d="m275.615,411.194c-1.287-.022-2.611-.038-3.814.448s-2.271,1.599-2.35,2.957c-.083,1.419.938,2.702,2.157,3.302s2.605.661,3.949.707c4.589.157,9.18.26,13.771.308,4.264.045,9.621.935,13.784-.018,2.004-.459,2.224-1.5,2.085-3.773-.08-1.308-.181-2.42-1.323-3.155-1.434-.923-4.221-.36-5.836-.388-2.32-.04-4.64-.08-6.959-.121-5.155-.089-10.31-.177-15.465-.268Z" fill="#ef9437" stroke-width="0"/>
    <g>
      <path d="m278.338,138.722l17.094-1.14c3.157-.21,5.433,4.722,4.369,9.465-.012.053-.024.106-.035.158-.632,2.818-2.301,4.716-4.178,4.755-6.653.138-13.255-.564-19.897-.447-2.26.04-4.202-2.594-4.463-6.164-.131-1.787-.04-3.555.471-5.184.906-2.886,2.946-3.941,4.391-2.509.682.675,1.444,1.119,2.249,1.065Z" fill="#2a2e28" stroke-width="0"/>
      <path d="m286.991,158.445l14.174-.367c2.002-.052,3.391,3.144,2.649,6.108-.024.095-.048.19-.071.286-.428,1.728-1.479,2.849-2.644,2.85-4.656.005-9.376.352-14.027.355-1.079,0-2.063-.997-2.516-2.552-.025-.088-.051-.175-.077-.261-.886-2.942.459-6.365,2.513-6.418Z" fill="#2a2e28" stroke-width="0"/>
      <path d="m298.012,175.488l10.587.071c1.922.013,3.064,3.383,2.032,5.972-.01.026-.021.052-.031.077-.441,1.116-1.206,1.789-2.032,1.807-3.264.073-7.152.415-10.449.504-1.082.029-2.055-1.082-2.356-2.733-.046-.251-.089-.501-.132-.752-.425-2.492.756-4.957,2.381-4.946Z" fill="#2a2e28" stroke-width="0"/>
      <path d="m304.534,191.82l3.915-.064c.997-.016,1.809,1.227,1.86,2.812.009.292.024.582.037.873.075,1.709-.78,3.159-1.857,3.163-1.26.004-2.519.018-3.779.022-.819.002-1.534-.86-1.771-2.106-.054-.287-.11-.576-.167-.866-.367-1.887.518-3.813,1.762-3.833Z" fill="#2a2e28" stroke-width="0"/>
    </g>
    <g>
      <path d="m282.071,233.653l16.613-.287c2.27-.039,3.852,3.912,3.07,7.671-.391,1.878-.787,3.786-1.151,5.515-.481,2.282-1.729,3.822-3.109,3.774-6.679-.231-13.17-1.678-19.74-1.981-1.784-.082-3.147-2.736-3.117-5.876.025-2.669.296-5.301,1.144-7.595,1.175-3.182,3.147-4.204,4.266-2.433.545.862,1.289,1.225,2.024,1.212Z" fill="#2a2e28" stroke-width="0"/>
      <path d="m282.93,257.525l17.025.776c1.396.064,2.311,2.571,1.772,4.845-.442,1.862-.891,3.672-1.325,5.624-.312,1.406-1.11,2.276-1.964,2.195-4.998-.472-10.093-.368-15.038-.816-.958-.087-1.707-1.396-1.851-3.063-.164-1.9-.437-3.601-.644-5.412-.25-2.184.758-4.207,2.026-4.149Z" fill="#2a2e28" stroke-width="0"/>
      <path d="m286.545,276.592l11.836,1.234c2.028.211,3.153,4.201,2.028,7.192-.341.907-.676,1.817-.98,2.732-.498,1.498-1.402,2.42-2.385,2.355-3.362-.221-7.337-.12-10.754-.298-1.399-.073-2.5-2.071-2.536-4.533-.019-1.312-.014-2.61-.025-3.913-.023-2.726,1.269-4.929,2.816-4.768Z" fill="#2a2e28" stroke-width="0"/>
      <path d="m294.301,295.591l5.543.466c1.011.085,1.76,1.712,1.566,3.462-.243,2.195-.202,4.401-.54,6.607-.212,1.388-.946,2.332-1.76,2.238-1.648-.19-3.294-.348-4.936-.534-.869-.098-1.551-1.353-1.564-2.886-.019-2.076-.066-4.237-.089-6.315-.019-1.727.8-3.122,1.78-3.039Z" fill="#2a2e28" stroke-width="0"/>
      <path d="m297.674,316.572l2.824.381c.871.118,1.336,1.843.844,3.121-1.002,2.602-1.989,5.21-3.008,7.827-.19.488-.494.821-.828.871-.425.065-.852.228-1.274.168.199-3.452.103-7.032.204-10.497.033-1.117.604-1.956,1.238-1.871Z" fill="#2a2e28" stroke-width="0"/>
      <path d="m297.232,336.065l3.163,1.104c.002,2.975-1.359,6.769-2.649,7.611-1.038.677-2.017-.134-2.792-1.336.391-1.855,1.891-5.535,2.279-7.379Z" fill="#2a2e28" stroke-width="0"/>
    </g>
  </g>
  <path d="m353.896,178.479c-1.303-4.273-8.519-2.376-10.384-6.354-3.11-6.635-1.388-14.906-2.88-22.267-1.657-8.175-7.117-14.52-12.78-19.713-10.03-9.2-21.331-18.518-33.488-23.061-.959-5.107.139-21.847.267-27.075.129-5.228-1.151-11.182-5.12-13.614-2.175-1.333-4.75-1.341-7.209-1.318l-51.381-.343c-2.458-.056-5.033-.082-7.224,1.222-3.998,2.379-5.349,8.315-5.283,13.544.066,5.229,1.101,21.983.081,27.077-12.21,4.381-23.622,13.546-33.761,22.612-5.724,5.117-11.259,11.389-13.014,19.541-1.58,7.34.044,15.633-3.145,22.226-1.912,3.953-9.105,1.96-10.459,6.215-.985,3.096,2.408,5.788,5.24,5.777.469-.002.615.007.654.014.028-.011.164-.039.662-.101-.101,13.732,2.802,27.041,2.701,40.773,1.818.012,3.636.024,5.454.036,5.837,66.31,11.893,131.352,22.719,196.767,1.663,10.045,9.922,17.374,19.569,17.438l79.788.532c9.661.065,18.021-7.173,19.783-17.215,11.447-65.256,17.321-130.207,23.948-196.423l4.161.028c.47-13.759,2.579-27.328,2.066-41.084,1.922.027,1.777.438,3.728.471,2.832.048,6.256-2.598,5.308-5.707Zm-56.164-51.986c.205-.203.384-.382.55-.549.497.302.992.611,1.486.928-.285.111-.554.215-.752.289-.252-.111-.589-.248-1.043-.433-.103-.043-.22-.09-.339-.139.034-.033.066-.066.098-.097Zm-66.73-13.012l.202-1.01c.39-.356.452-.592.393-.888l.467,1.433c2.692-2.082,2.745-2.141,2.45-3.037-.08-.214-.164-.377-.266-.494,1.74-1.576,1.747-1.701,1.507-2.417-.098-.288-.298-.524-.559-.656-.396-.2-.443-.209-2.027.402.139-1.177.229-2.33.27-3.45,3.362-2.064,3.325-2.205,3.026-3.089-.097-.288-.3-.523-.562-.654-.389-.197-.43-.208-2.446.562-.044-1.917-.169-15.162-.286-16.798-.052-.72-.098-6.178-.137-6.846.669-.492,1.187-.874,1.591-1.183l4.494.03c.003.142.048.291.112.483.098.292.302.531.567.662.442.22.465.226,3.904-1.115l2.356.016c.099.294.307.536.576.666q.451.219,2.618-.641s.006-.002.009-.004l22.638.151c-.021.273.003.356.053.509.097.293.303.534.569.666.446.221.458.224,3.978-1.145l2.536.017c.004.012.008.024.012.037.098.288.299.522.559.653.13.065.225.108.415.092-.042.631-.091,1.287-.147,1.973-1.905,1.718-1.93,6.591-1.679,7.332.097.286.296.52.555.652.093.047.166.083.261.098-.416.422-.337.654-.177,1.12.013.04.028,11.526.045,11.563.067.174.139.289.321.422.062.051.129.095.2.132.031.018.076.042.111.061-.013.284-.023.57-.032.859-3.193,2.178-3.256,2.234-2.941,3.159.098.285.297.518.554.649.339.172.417.205,2.374-.528.053,1.773.219,3.626.542,5.534-.288.394-.229.609-.099,1.003.098.295.306.536.575.666.202.098.338.14.548.106-.158.479-.25,1.53-.297,2.65l-48.59.369c-.434-.226-.862-.464-1.276-.725l.135-.048Zm-43.172,114.764c-.006-.067-.012-.133-.018-.2.025.019.043.046.07.063-.02.051-.034.089-.053.137Zm-.164-1.848c-.011-.123-.022-.245-.032-.368.017-.007.031-.012.049-.019.099-.037.197-.075.294-.112-.129.199-.226.357-.311.498Zm2.625,29.227c-.005-.061-.011-.122-.017-.183.006.002.011.003.017.005.049.014.098.03.149.044-.052.047-.098.087-.15.133Zm8.544,83.286c-.012-.102-.024-.205-.036-.307.085.057.157.106.259.174-.073.044-.149.089-.223.133Zm103.522,67.951c-.014.005-.026.01-.04.015-.321.122-.651.248-.973.371.018-.042.034-.082.048-.119.3-.212.666-.466,1.039-.723-.025.152-.049.304-.074.457Zm9.85-69.757c-.03.012-.057.022-.088.033-.102.04-.208.079-.315.121.244-.417.397-.696.494-.907-.03.251-.061.502-.091.753Zm.178-1.473c-.012-.039-.025-.078-.041-.123-.055-.156-.142-.296-.256-.409.142-.453.218-.707.247-.883.074-.047.161-.102.238-.151-.062.522-.126,1.044-.189,1.566Zm9.24-86.778c-.048-.013-.098-.027-.143-.039.067-.116.122-.212.178-.31-.012.116-.023.233-.035.349Zm2.197-22.105c-1.572,1.696-1.638,1.843-1.423,2.476.092.275.289.498.542.615.018.008.035.016.053.023.01,1.118.012,1.124.078,1.313.055.158.154.288.27.4-.126,1.267-.252,2.533-.378,3.799-.183.131-.364.261-.532.382-3.237,2.318-3.299,2.363-3.007,3.234.347.991,1.084.712,2.196.29l.992-.379c-.146,1.471-.293,2.947-.439,4.416-.031.313-.062.623-.093.936-.243.211-.485.42-.708.612q-3.072,2.655-2.81,3.434c.09.268.279.487.524.607-.477.855-.471.987-.335,1.386.09.268.278.486.523.605.398.195.666.087,1.203-.133.023-.01.048-.02.073-.03.222.07.504.148.864.246-.053.531-.106,1.065-.159,1.596-.268.19-.532.378-.766.543-2.883,2.039-2.938,2.079-2.651,2.92.089.261.272.475.509.595.321.164.385.193,2.567-.631-.343,3.446-.686,6.883-1.03,10.31-3.958,2.34-3.954,2.389-3.642,3.313.089.267.278.485.521.605q.392.193,2.178-.5c.22-.085.428-.166.621-.241-.569,5.649-1.141,11.276-1.721,16.88-.114.081-.233.167-.339.243q-3.581,2.564-3.29,3.418c.088.261.271.475.508.595.308.156.38.187,2.751-.702-.059.566-.119,1.129-.178,1.695-.066.06-.137.125-.2.182q-2.79,2.537-2.535,3.289c.091.268.281.487.525.606.383.184.567.125,1.37-.196.083.127.179.273.292.444.027.042.053.082.08.123-.138,1.307-.276,2.616-.415,3.921-1.61,1.199-1.569,1.347-1.342,2.023.211.597.556.73,1.054.646-.236,2.191-.47,4.382-.71,6.568-4.454,2.52-4.453,2.566-4.141,3.49.088.264.273.48.512.6.317.163.393.186,3.274-.899-.321,2.905-.644,5.81-.974,8.708-.312.249-.626.498-.913.726q-3.357,2.666-3.085,3.473c.089.264.274.48.513.602.399.2.425.189,1.864-.374.313-.123.627-.246.826-.321.094.008.202.013.317.018-.237,2.051-.471,4.103-.713,6.151-4.064,2.534-4.032,2.652-3.738,3.518.09.262.273.477.511.597.057.029.11.051.162.069-.16.54-.143.623-.056.889.015.047.034.092.055.136-.116.193-.231.387-.332.555q-1.159,1.936-.982,2.458c.088.262.272.476.509.597.358.182.402.196,2.9-.755-.313,2.568-.632,5.134-.955,7.699-4.5,2.839-4.502,2.881-4.195,3.795.089.266.277.483.518.604.387.193.409.193,3.235-.891-.587,4.599-1.185,9.195-1.808,13.789-.258.18-.516.359-.752.524-3.652,2.538-3.721,2.586-3.418,3.48.302.882.348.988,3.65-.257-.114.823-.228,1.646-.343,2.469-.488.671-.611.933-.566,1.228-.003.002-.005.003-.008.005-3.763,2.409-3.835,2.455-3.529,3.369.089.266.275.483.516.604.313.156.373.187,2.565-.637-.032.179.017.361.098.604.045.126.097.226.154.313-1.07,7.478-2.199,14.958-3.391,22.448-.38.295-.761.591-1.093.847q-3.168,2.446-2.89,3.264c.087.257.265.468.496.589.296.155.371.195,1.616-.264-.785.813-.734.96-.563,1.466.016.048.035.092.057.136-2.55,1.754-2.521,1.843-2.256,2.634.003.008.006.017.009.026-.026.052-.051.103-.077.154-.759,1.51-.787,1.569-.622,2.056.325.894.367.967,3.582-.252-.51,3.041-1.025,6.083-1.56,9.13-.476,2.713-2.747,4.669-5.399,4.652l-41.595-.278c-.097-.032-.204-.038-.379-.003l-37.814-.252c-2.646-.018-4.893-2.003-5.343-4.722-.747-4.513-1.465-9.019-2.167-13.521,1.622-2.052,1.632-2.103,1.428-2.71-.335-.975-1.16-.688-1.905-.408-.158-1.031-.317-2.063-.473-3.094,1.835-2.25,1.838-2.26,1.62-2.896-.089-.262-.273-.476-.51-.595-.365-.185-.413-.193-1.603.268-.458-3.066-.901-6.131-1.341-9.196,1.999-1.899,2.123-2.028,1.877-2.76-.343-1-1.115-.706-2.177-.304l-.137.052c-.244-1.722-.477-3.445-.716-5.167.121-.11.248-.226.361-.328q2.543-2.302,2.292-3.049c-.14-.409-.367-.595-.638-.654.906-.833.85-1.003.666-1.554-.354-.996-1.102-.704-2.234-.263-.131.051-.26.102-.379.147-.163-.133-.367-.298-.622-.504-.114-.093-.227-.184-.337-.273-.006-.04-.011-.08-.017-.12.094-.074.187-.148.272-.216,2.341-1.851,2.432-1.924,2.162-2.715-.09-.266-.278-.483-.521-.602-.397-.196-.45-.174-1.787.352-.118.046-.235.092-.342.134-.062-.049-.136-.106-.21-.163-.22-1.653-.434-3.308-.649-4.963.248-.223.493-.443.709-.637q2.645-2.371,2.392-3.123c-.096-.29-.312-.525-.583-.636-.27-.112-.512-.077-.688-.017-.488-.025-1.242-.004-2.403.033-.127-.997-.248-1.996-.374-2.993,3.116-2.566,3.116-2.603,2.849-3.403-.353-.993-.823-.812-2.809-.047-.154.06-.3.116-.448.172-.396-3.192-.788-6.387-1.169-9.587.392-.702.382-.845.251-1.225-.027-.079-.063-.153-.105-.222,4.075-2.419,4.044-2.511,3.744-3.402-.09-.268-.28-.487-.525-.606-.394-.193-.507-.146-1.594.281-.101.041-.202.08-.295.117-.157-.109-.351-.238-.591-.398-.317-.213-.627-.418-.753-.511-.069-.064-.147-.118-.231-.159-.209-.103-.308-.151-.632-.066-.121-1.036-.243-2.071-.363-3.108,3.127-1.816,3.093-1.937,2.797-2.816-.304-.814-.359-.943-3.105.08-.001-.011-.003-.022-.004-.033.912-.861.859-1.045.677-1.586-.194-.543-.412-.736-.931-.662-.083-.735-.167-1.47-.249-2.206,2.584-1.693,2.548-1.827,2.288-2.6-.089-.265-.273-.482-.514-.603-.342-.173-.425-.179-1.263.143.043-.448.028-.493-.025-.641-.085-.289-.284-.527-.543-.651-.088-.042-.172-.067-.254-.081-.064-.103-.14-.226-.225-.361-.293-2.668-.58-5.346-.866-8.024,2.681-1.78,2.661-1.873,2.391-2.676-.09-.269-.279-.487-.523-.607-.392-.193-.566-.122-1.395.205-.015.006-.028.011-.042.017-.16-.148-.362-.331-.615-.561-.076-.07-.152-.138-.226-.206-.106-1.002-.208-2.012-.312-3.016.017-.019.036-.04.053-.058,2.168-2.348,2.209-2.393,1.966-3.111-.265-.73-.339-.912-2.368-.195-.201-1.945-.405-3.886-.602-5.838.365-.271.735-.544,1.055-.78q3.062-2.253,2.781-3.083c-.09-.265-.277-.482-.518-.602q-.385-.191-2.622.665c-.36.137-.717.274-1.036.397-.364-3.633-.726-7.277-1.082-10.936.199-.477.169-.591.073-.88-.042-.126-.11-.238-.191-.337-.051-.522-.101-1.045-.151-1.568.036-.036.079-.078.113-.113,2.144-2.129,2.228-2.212,1.98-2.946-.256-.733-.329-.925-2.406-.193-.038-.401-.077-.799-.116-1.2.041-.035.087-.075.125-.108,2.226-1.911,2.269-1.948,2.011-2.701-.09-.263-.276-.477-.514-.596-.3-.151-.372-.182-1.897.384.018-.125-.01-.259-.052-.408-.097-1.02-.192-2.05-.288-3.073.025-.029.054-.062.078-.091,2.016-2.343,2.055-2.387,1.825-3.06-.088-.259-.269-.471-.502-.591-.263-.134-.362-.177-1.723.313-.047-.505-.095-1.008-.142-1.513.378-.605.396-.799.264-1.197-.075-.228-.234-.407-.427-.534-.077-.826-.154-1.649-.231-2.476,4.299-2.687,4.29-2.758,3.987-3.657-.09-.265-.275-.481-.515-.601-.223-.112-.322-.158-.861.011.272-.365.219-.562.093-.93-.024-.073-.056-.142-.092-.206-.053-.122-.12-.212-.261-.3-.123-.097-.267-.164-.42-.193-.353-.131-.899-.295-1.771-.556-.242-.073-.509-.153-.769-.231-.018-.198-.037-.396-.054-.594.676-.995.926-1.383.973-1.66.298-.283.642-.603.917-.86,1.792-1.67,1.9-1.77,1.656-2.507-.354-.996-.719-.851-3.062.05-.32.123-.632.243-.906.349-.034-.374-.067-.753-.101-1.127.967-1.333.972-1.429.795-1.966-.209-.586-.531-.733-1.03-.652-.076-.844-.152-1.691-.228-2.537,2.159-1.864,2.291-1.979,2.023-2.779-.31-.836-.619-.851-2.168-.274.044-.192.017-.335-.052-.539-.033-.097-.091-.177-.147-.259-.05-.552-.099-1.097-.148-1.649,1.208-1.251,1.311-1.427,1.103-2.048-.09-.272-.282-.493-.531-.612-.271-.129-.452-.13-.81-.011-.039-.435-.077-.876-.116-1.312,4.322-2.687,4.302-2.745,3.995-3.662-.319-.878-.754-.819-2.19-.273.534-1.398.521-1.438.396-1.815-.034-.101-.082-.196-.141-.28.004-.007.009-.013.013-.02q1.401-2.125,1.21-2.686c-.343-.998-1.062-.724-2.259-.273l-1.761.67c-.002-.026-.005-.052-.007-.078.821-.905,1.006-1.206.964-1.527l135.78.906c-.12,1.2-.238,2.394-.357,3.593Zm6.468-33.267c-.046-.047-.078-.08-.13-.131-.033-.033-.065-.067-.098-.1.078-.049.164-.103.245-.154-.004.128-.012.257-.017.385Zm.085-2.863c-3.86,2.39-3.847,2.477-3.56,3.328.088.263.273.478.512.597.352.177.593.117,1.069-.073.11.111.239.241.391.396.211.214.423.427.574.582-3.439,1.846-3.396,1.974-3.107,2.834.348.988,1.046.718,2.315.223.298-.116.601-.234.813-.315.172.054.398.116.652.186-.065,1.022-.135,2.049-.211,3.083-.956.677-.888.902-.692,1.479.088.258.267.469.499.589.013.007.024.01.036.016-.078,1.008-.157,2.023-.24,3.044-.289.23-.58.462-.845.673-1.275,1.012-2.057,1.632-2.525,2.061l-.492-.003v.008s-1.796-.012-1.796-.012c-.767-.133-1.797-.313-2.11-.393h0c-.394-.193-.507-.166-1.828.367l-2.454-.016c-.504-.135-1.134-.306-1.347-.376-.01-.005-.019-.01-.028-.015-.4-.194-.536-.153-1.823.369l-2.111-.014c-.119-.039-.238-.079-.372-.123-.601-.199-1.49-.493-1.745-.596-.023-.014-.046-.027-.071-.039q-.408-.202-2.768.72s-.009.003-.013.005l-.799-.005c-.089-.893-.096-.918-.142-1.05-.089-.261-.273-.475-.511-.593-.401-.201-.426-.207-5.127,1.604l-1.146-.008c.45-.667.426-.832.293-1.227-.089-.265-.275-.482-.516-.601q-.415-.205-4.386,1.333c-.382.147-.789.304-1.184.457l-3.43-.023c-.27-.122-.525-.238-.638-.296-.048-.035-.099-.065-.152-.091-.398-.191-.541-.151-1.826.37l-2.508-.017c-.496-.132-1.155-.307-1.372-.378-.009-.005-.018-.009-.026-.013-.403-.195-.534-.151-1.818.369l-2.04-.014c-.112-.042-.226-.083-.353-.13-.488-.18-1.143-.422-1.355-.512-.044-.028-.091-.052-.14-.073-.394-.165-.724-.026-.944.088-.473-.052-1.198-.074-2.339-.109-.883-.027-2.184-.067-2.586-.113-.344-.157-.517-.103-2.756.779l-4.191-.028c-.355-.133-.679-.257-.819-.319-.04-.026-.08-.05-.123-.07-.397-.193-.556-.153-1.845.371l-1.38-.009c-.096-.066-.186-.128-.298-.205-.383-.262-.751-.512-.89-.617-.071-.067-.151-.122-.238-.166-.405-.201-.432-.205-3.404.955l-1.306-.009c.071-.71.056-.767-.012-.965-.09-.26-.274-.472-.511-.59-.415-.207-.428-.206-4.887,1.518l-.306-.002c.114-.247.085-.434-.012-.718-.089-.262-.273-.476-.51-.595q-.413-.204-3.629,1.045c-.192.075-.398.155-.606.236l-2.814-.019c-.108-.079-.202-.149-.257-.193-.078-.078-.168-.144-.268-.192-.336-.163-.465-.174-1.3.153.211-.669.195-.75.089-1.045-.09-.255-.272-.464-.505-.58q-.417-.21-4.295,1.296c-.424.164-.879.341-1.314.509l-1.224-.008c-.048-.22-.085-.381-.089-.392-.09-.265-.279-.482-.521-.6q-.411-.198-2.959.804c-.13.051-.272.107-.413.162l-4.048-.027c-.545-.15-1.114-.309-1.313-.375-.01-.006-.022-.012-.035-.018-.4-.193-.567-.142-1.818.372l-1.081-.007c-.007-.008-.011-.013-.019-.022-.26-.294-.515-.581-.602-.687-.142-.201-.35-.352-.58-.409-.118-.029-.304-.051-.517.016-.432-.043-1.063-.066-2.005-.1-.837-.03-2.071-.075-2.453-.12-.377-.159-.613-.058-1.767.416-.284.116-.558.231-.715.289-.68.01-1.875.187-4,.533l-5.827-.039c-.012-.076-.033-.152-.064-.243-.089-.262-.273-.476-.511-.595-.372-.185-.416-.205-3.041.814l-.242-.002c.424-.517.371-.695.231-1.106-.089-.261-.271-.475-.508-.593-.408-.207-.441-.205-5.283,1.662l-6.039-.04c-.079-.021-.167-.023-.291-.002l-2.481-.017c-.101-.186-.24-.346-.426-.438-.058-.029-.107-.053-.157-.071.144-.26.095-.469-.014-.789-.068-.2-.191-.372-.351-.496,2.424-1.546,2.376-1.688,2.117-2.457-.345-.978-1.105-.69-2.07-.325l-1.784.68s-.003.001-.005.002c-.098-.967-.19-1.949-.29-2.907-.243-2.342-.479-4.635-.682-6.892.019-.018.042-.04.061-.058q2.48-2.371,2.229-3.115c-.35-.966-1.11-.678-2.071-.313l-.486.185c-.207-2.848-.335-5.643-.314-8.401l.006-.879c.491-.346,1.011-.709,1.475-1.032q3.87-2.693,3.572-3.581c-.092-.265-.284-.481-.527-.597-.406-.19-.678-.078-1.334.196-.056.024-.113.047-.165.069-.094-.026-.2-.054-.316-.084,1.85-4.138,2.657-8.253,3.048-12.063.382-.32.779-.65,1.135-.945q3.331-2.761,3.054-3.575c-.091-.265-.28-.482-.522-.599-.398-.193-.704-.066-1.091.097l-.059.024c-.375-.014-.899.004-1.643.035,3.72-2.064,3.695-2.136,3.394-3.033-.088-.263-.272-.478-.511-.597-.381-.19-.4-.191-3.306.919.023-.556.048-1.1.078-1.624.093-.105.194-.22.278-.315q1.999-2.257,1.78-2.918c-.089-.265-.274-.483-.516-.602-.3-.149-.37-.183-1.093.085.027-.113.066-.229.098-.343.301-.198.605-.398.881-.579q3.447-2.26,3.149-3.142c-.223-.651-.302-.878-1.938-.346,1.828-1.21,1.768-1.393,1.537-2.072-.007-.022-.017-.034-.025-.055,1.2-1.409,2.68-2.901,4.474-4.505.116-.103.234-.208.35-.311.35-.278.593-.491.75-.667.563-.499,1.131-.998,1.705-1.499.499-.28.994-.555,1.453-.812q6.741-3.758,6.383-4.82c-.086-.247-.151-.433-.283-.542.455-.297.696-.513.811-.709.965-.738,1.94-1.456,2.921-2.158,1.793-1.039,2.534-1.529,2.781-1.916.948-.628,1.221-.873,1.299-.987.033.123.076.244.141.36.202.36.54.622.934.725.364.095.632.068.963-.08.387,1.428.394,1.439.501,1.63.198.349.522.605.902.711q.633.177,4.963-2.413c.802-.48,1.734-1.038,2.551-1.524.032.817.072.889.23,1.168.2.354.53.612.916.716.646.173.687.148,2.751-1.114.229-.14.458-.28.667-.408.16.146.346.316.562.515.48.44.946.864,1.091,1.006.205.225.473.385.768.455.405.095.734.015,1.016-.123.205.106.448.228.737.374.513.26,1.024.516,1.23.633.146.103.309.181.483.226.615.163.98-.045,1.651-.47.197.086.427.184.697.3.529.227,1.073.456,1.294.564.122.077.256.136.396.175.126.035.228.063.347.063.483,0,1.254-.461,5.151-2.795.192-.115.39-.233.59-.353-.587,1.442-.528,1.605-.21,2.165.199.351.527.608.911.712q.646.174,4.69-2.256c.759-.456,1.628-.978,2.253-1.35.146.125.315.268.51.433.468.397.926.785,1.078.923.188.195.425.337.688.407q.638.171,3.708-1.68c.088-.053.179-.108.272-.165.1.988.13,1.04.277,1.299.201.353.532.61.919.712q.634.171,3.185-1.376c.482-.292,1.068-.647,1.515-.913.144.087.307.185.491.296.42.252.854.51,1.101.665.745.877,1.682.301,3.258-.661.271-.166.546-.334.782-.477.299.155.679.347,1.165.594.623.316,1.231.621,1.461.752.149.107.318.187.498.233.642.163.981-.046,1.981-.677.135-.086.271-.172.39-.246.538.044,1.299.074,2.401.117,1.011.04,2.506.098,2.947.146.01.003.021.006.03.008q.635.169,3.187-1.374c.103-.063.211-.128.32-.194.304,1.575.312,1.591.446,1.825.226.407.625.691,1.076.764.21.033.479.033.777-.086.599.01,1.479-.025,2.788-.077,1.147-.046,2.841-.117,3.354-.094.617.162.646.146,2.917-1.24.252-.154.541-.33.808-.492-1.377,1.38-1.453,1.549-1.242,2.179.091.269.281.489.528.607.385.183.68.075,1.073-.092.263.116.618.261,1.1.457.372.152.74.3.979.403.359.476.972.237,2.692-.432.304-.118.6-.234.833-.323.136.103.301.226.501.375.029.022.059.044.089.066-.194.188-.388.377-.557.54-1.817,1.763-1.925,1.868-1.683,2.572.089.258.269.47.503.588.32.162.383.191,1.707-.308-.048.189-.015.347.059.568.088.26.269.474.504.594.375.191.405.196,4.181-1.243.318.249.635.499.95.751.102.157.228.294.393.374.048.023.091.033.135.048.515.415,1.027.833,1.536,1.254.101.156.229.292.396.372.034.016.062.02.094.032.149.124.296.25.445.374.081,1.024.085,1.046.128,1.173.027.084.064.164.109.237-.025.168-.053.348-.081.527q-.219,1.428-.114,1.745c.306.824.354.942,3.21-.128-.434.486-.37.673-.227,1.098.089.261.271.474.508.593.103.052.18.09.291.097-1.53,1.257-1.484,1.397-1.274,2.015.09.266.279.483.521.601.391.188.618.098,1.29-.172.095-.038.19-.077.27-.108.652.042,1.769-.034,3.791-.165,3.652,3.514,5.825,6.497,6.697,9.22-1.412,1.666-1.504,1.798-1.291,2.434.315.907,1.031.716,1.819.424.022.25.042.507.059.772-.251.217-.505.436-.735.635q-3.226,2.777-2.957,3.582c.339.992,1.047.722,2.216.28l1.132-.43c-.287.391-.249.594-.123.969.088.259.268.472.501.592.064.033.118.058.17.078.062,1.831.163,3.779.392,5.806-.59.5-.52.725-.353,1.216.089.262.273.477.512.596.01.005.018.009.028.014-2.19,1.745-2.16,1.836-1.919,2.546.089.259.269.472.504.591.293.149.383.179,1.973-.411.228,1.034.507,2.08.839,3.133-3.632,2.241-3.611,2.324-3.32,3.186.343.984,1.126.688,2.035.343l1.684-.643c.193-.074.381-.146.568-.217.078.19.151.381.234.571l.026.685c-.12.072-.245.147-.355.213q-3.964,2.374-3.653,3.293c.088.259.267.471.5.591.315.161.375.196,3.242-.883-1.54,1.152-1.476,1.341-1.266,1.963.088.26.27.473.504.592.235.119.33.166,1.236-.146.075,2.056.079,4.129.037,6.22Z" fill="#2a2e28" stroke-width="0"/>
</svg>