<?xml version="1.0" encoding="UTF-8"?>
<svg id="Layer_1" data-name="Layer 1" xmlns="http://www.w3.org/2000/svg" viewBox="0 0 512 512">
  <defs>
    <style>
      .cls-1 {
        fill: #4380af;
      }

      .cls-1, .cls-2, .cls-3, .cls-4 {
        stroke-width: 0px;
      }

      .cls-2 {
        fill: #2a2e28;
      }

      .cls-3 {
        fill: #fff;
      }

      .cls-4 {
        fill: #ef9437;
      }
    </style>
  </defs>
  <path class="cls-4" d="m337,107.84c-19.55-.1-39.09-.2-58.64-.3-2.52-.01-5.17,0-7.38,1.01s-3.73,3.38-2.6,5.25c1.2,1.98,4.39,2.29,7.06,2.35,19.22.39,38.44.77,57.66,1.16"/>
  <path class="cls-4" d="m330.04,122.08c-16.53.42-33.06.83-49.59,1.25-3.19.08-7.16.62-8.09,3.16-.69,1.89.93,3.94,3.06,4.84s4.61.92,6.99.93c13.76.05,27.53.11,41.29.16"/>
  <path class="cls-4" d="m321.08,135.63c-11.86-.24-23.72-.48-35.58-.72-2.36-.05-4.86-.06-6.88.95s-3.14,3.48-1.64,4.99c12.18,1.56,24.57,2.07,36.88,1.5"/>
  <path class="cls-4" d="m313.29,147.58l-37.05-.57c-2.22-.03-4.85.11-6.02,1.67-1.02,1.36-.33,3.24,1.06,4.34s3.31,1.6,5.18,2c8.49,1.81,17.39,2.29,26.1,1.41"/>
  <path class="cls-4" d="m298.25,161.95c-7.28-.05-14.55-.09-21.83-.14-3.38-.02-6.96,0-9.87,1.43s-4.7,4.83-2.79,7.15c1.68,2.05,5.16,2.28,8.15,2.31,7.24.06,20.05.15,27.29.22"/>
  <path class="cls-4" d="m288.87,178.42c-7.29-.14-16.19.18-23.48.04-3.26-.06-6.62-.12-9.66.47s-5.72,1.98-5.72,3.63c0,1.36,1.84,2.6,4.16,3.3s5.04.97,7.72,1.14c6.01.4,22.26,1.55,28.28,1.23"/>
  <path class="cls-4" d="m285.88,196.32c-5.83-.38-22.47-1.31-28.23-.24-1.65.31-3.34.69-4.72,1.7-1.37,1-2.37,2.77-2.03,4.48.27,1.37,1.34,2.46,2.55,3.07s2.56.82,3.89,1.02c4.61.69,9.22,1.38,13.83,2.08"/>
  <path class="cls-1" d="m203.76,114.55c-11.93-15.08-36.74-50.83-36.74-50.83l-29.72-1.61c42.64,52.63,81.77,109.01,110.1,170.54-2.09-41.25-17.36-84.88-43.65-118.1Z"/>
  <path class="cls-4" d="m155.56,93.94c65.28-.31,130.56-.62,195.84-.93-1.86,2.96-2.72,6.12-4.58,9.08-61.12.7-122.95,1.16-184.07,1.85-1.35-3.44-5.84-6.56-7.19-10Z"/>
  <path class="cls-1" d="m240.61,432.4c11.88,1.78,23.31,6.48,32.99,13.58,1.84,1.35,3.66,2.81,5.8,3.61,2.47.93,5.18.93,7.82.91,12.03-.07,24.07-.15,36.1-.22,1.63-5.9-2.48-12.3-7.54-15.74s-11.28-4.62-17.3-5.71c-9.51-1.71-19.1-3.36-28.76-3.3s-20.79,1.93-29.1,6.86Z"/>
  <g>
    <path class="cls-2" d="m294.66,76.68l22.17-1.02c4.09-.19,7.09,3.82,5.74,7.69-.01.04-.03.09-.04.13-.8,2.3-2.95,3.86-5.38,3.9-8.63.15-17.2-.39-25.82-.26-2.93.04-5.47-2.09-5.84-5-.18-1.46-.08-2.9.57-4.23,1.15-2.36,3.79-3.23,5.68-2.07.89.55,1.88.9,2.93.86Z"/>
    <path class="cls-2" d="m292,94.96l18.39-.38c2.6-.05,4.42,2.54,3.48,4.97-.03.08-.06.16-.09.23-.54,1.41-1.9,2.33-3.41,2.34-6.04.03-12.16.34-18.2.37-1.4,0-2.68-.8-3.28-2.07-.03-.07-.07-.14-.1-.21-1.17-2.39.55-5.19,3.21-5.25Z"/>
    <path class="cls-2" d="m290.79,108.79h13.74c2.49,0,4,2.74,2.68,4.86-.01.02-.03.04-.04.06-.56.91-1.55,1.46-2.62,1.48-4.23.08-9.28.38-13.55.47-1.4.03-2.68-.87-3.08-2.22-.06-.2-.12-.41-.18-.61-.57-2.03.94-4.04,3.05-4.04Z"/>
    <path class="cls-2" d="m291.24,122.07l5.08-.07c1.29-.02,2.36.99,2.43,2.28.01.24.04.47.05.71.11,1.39-.99,2.58-2.38,2.59-1.63.01-3.27.03-4.9.04-1.06,0-2-.69-2.31-1.71-.07-.23-.15-.47-.22-.71-.49-1.54.64-3.11,2.26-3.13Z"/>
    <path class="cls-2" d="m290.79,132.78h2.17c1.11,0,1.75,1.26,1.1,2.16-.53.73-1.05,1.46-1.58,2.18-.22.3-.56.5-.93.55,0,0-.01,0-.02,0-.7.08-1.33-.36-1.49-1.05s-.38-1.42-.57-2.14c-.22-.86.43-1.71,1.32-1.71Z"/>
    <path class="cls-2" d="m289.92,141.83l1.08.07c1,.07,1.54,1.23.92,2.02-.35.45-.84.81-1.37.97-.38.11-.77.15-1.16.13-.96-.05-1.54-1.1-1.03-1.92.13-.21.26-.43.38-.63.24-.43.7-.68,1.19-.65Z"/>
  </g>
  <g>
    <path class="cls-4" d="m227.57,108.02c.98-.02,1.99-.03,2.91.32s1.74,1.15,1.81,2.13c.07,1.03-.71,1.97-1.65,2.41s-2,.49-3.04.53c-3.62.14-29.89,2.76-29.13-1.74.64-3.85,8.96-3.26,11.34-3.31,5.92-.11,11.85-.22,17.77-.33Z"/>
    <path class="cls-4" d="m234.04,120.25c.85.03,1.76.08,2.42.62s.81,1.74.07,2.16c-7.12,1.19-14.34,1.74-21.56,1.65-3.29-.04-6.72-.25-9.55-1.93-.75-.44-1.5-1.07-1.65-1.93-.49-2.83,11.85-1.23,13.83-1.16,5.47.19,10.95.39,16.42.58Z"/>
    <path class="cls-4" d="m233.85,129.09c1.5-.03,3.26.05,4.13,1.28.95,1.34.15,3.33-1.21,4.24s-3.1,1.01-4.74,1.1c-4,.2-8,.4-12,.6-1.62.08-3.29.15-4.81-.4-4.6-1.68-2.96-6.17,1.1-6.5,5.77-.46,11.73-.19,17.52-.32Z"/>
    <path class="cls-4" d="m240.45,142.05c.73,1.35-.07,3.11-1.34,3.97s-2.86,1.05-4.39,1.21c-3.8.4-7.6.8-11.4,1.2-1.12.12-2.26.24-3.37.03-1.95-.37-4.2-2.7-2.71-4.75,1.1-1.52,3.04-.75,4.63-.7,6.13.2,12.45-.62,18.57-.96Z"/>
    <path class="cls-4" d="m226.14,152.53l10.23-.34c.95-.03,1.92-.06,2.82.24s1.73,1.01,1.9,1.94c.21,1.14-.63,2.27-1.68,2.77s-2.25.53-3.41.55c-1.93.03-3.85.05-5.78.08-.86.01-1.73.02-2.55-.21s-1.61-.75-1.96-1.53c-.41-.9-.12-2.05.65-2.66s1.97-.6,2.74.01"/>
    <path class="cls-4" d="m239.71,163.74c.74.1,1.57.33,1.89,1,.28.58.03,1.31-.42,1.77s-1.08.7-1.7.9c-1.47.48-3,.8-4.54.95-1.27.12-2.73.05-3.53-.94-3.48-4.32,6.91-3.86,8.31-3.66Z"/>
  </g>
  <path class="cls-1" d="m266.29,254.76c-3.88,2.71-8.55,3.78-13.05,3.18.06,4.1.61,8.61.6,10.8-.03,14.96-.07,29.92-.1,44.87-.03,14.36-.08,28.72-.13,43.07,1.08,18.68,1.84,37.72,1.93,55.01.08.12.17.23.26.34-.13-67.62,10.49-157.28,10.49-157.28Z"/>
  <path class="cls-3" d="m254.62,431.4c.47,0,.91.01,1.38.01.46,0,.91-.01,1.38-.01h-2.75Z"/>
  <path class="cls-2" d="m272.75,423.18h-.7c-3.79-76.39-10.61-147.68,24.04-218.78,23.77-48.77,63.74-104.86,97.67-147.2H118.24c33.93,42.34,73.9,98.42,97.67,147.2.34.7.67,1.39,1,2.09.05.23.15.44.3.62,33.17,70.2,26.49,140.65,22.75,216.07h-.7s-39.71-1.91-84.95,31.62h203.41c-45.24-33.54-84.95-31.62-84.95-31.62Zm-7.31-167.17c.01.12.03.23.06.34l-10.53,7.31c-.43.3-.65,1.07-.52,1.81.13.73.57,1.18,1.03,1.05l9.44-2.75-9.56,5.86c-.44.27-.68,1.05-.56,1.8.12.75.57,1.22,1.03,1.08l8.79-2.56c0,.07-.01.14-.02.21l-4.97,4.36c-.39.35-.58,1.12-.43,1.81.15.7.58,1.11,1.02.99l3.76-1.1c-.02.21-.04.43-.07.65l-5.06,3.94c-.41.32-.62,1.09-.48,1.81.14.72.58,1.15,1.02,1.02l3.96-1.15c0,.06-.01.12-.02.18l-7.2,5.01c-.43.3-.65,1.07-.52,1.81.13.73.57,1.19,1.03,1.05l6.11-1.78c-.03.3-.06.6-.09.91l-3.15,3.19c-.37.38-.53,1.14-.37,1.81.15.67.58,1.06,1.01.95l2.01-.59c-.07.78-.14,1.57-.22,2.36l-1.46,1.24c-.4.34-.59,1.11-.45,1.81.14.7.58,1.12,1.02,1l.54-.16c0,.08-.01.17-.02.25l-5.33,4.42c-.4.33-.6,1.11-.45,1.81.14.71.58,1.13,1.02,1.01l4.24-1.23c-.06.68-.12,1.36-.18,2.06l-1.7,1.63c-.38.37-.55,1.13-.4,1.81s.58,1.08,1.01.96l.73-.21c-.04.47-.08.95-.12,1.42l-3.42,2.71c-.41.32-.61,1.1-.47,1.81.14.71.57,1.15,1.02,1.02l2.48-.72c-.2,2.56-.4,5.15-.6,7.78l-2.42,2.33c-.38.37-.55,1.13-.4,1.81.15.68.58,1.08,1.01.96l1.46-.43c-.06.82-.12,1.65-.18,2.48l-1.26,1.05c-.4.34-.59,1.11-.45,1.81.14.71.57,1.13,1.02,1l.43-.13c-.03.46-.06.92-.09,1.38l-3.12,2.67c-.4.34-.59,1.11-.44,1.81.14.7.57,1.12,1.02,1l2.23-.65c-.45,6.93-.85,13.98-1.2,21.06l-1.56,1.11c-.42.3-.64,1.08-.51,1.81.13.73.57,1.17,1.03,1.05l.86-.25c-.04.84-.08,1.67-.11,2.51l-1.35,1.01c-.42.31-.63,1.09-.49,1.81.14.72.57,1.16,1.03,1.03l.66-.19c-.54,13.32-.84,26.55-.76,38.97h-.26c0-59.33-11.28-144.71-13-160.68l2.52.6.43.28c6.06,4,13.86,4.05,19.97.24-.05.23-.06.47-.04.73Zm-23.67-38.11l8.72,1.54c.76.14,1.51-.34,1.71-1.09.2-.75-.2-1.53-.94-1.8l-16.02-5.84s-.02-.04-.02-.06l12.68,2.24c.76.13,1.5-.33,1.71-1.08.21-.74-.19-1.52-.91-1.8l-14.71-5.67,3.95.7c.73.13,1.45-.3,1.69-1.01.23-.71-.09-1.48-.77-1.81l-9.65-4.74s-.03-.05-.04-.08l9.49,1.67c.76.13,1.5-.33,1.7-1.07.21-.74-.18-1.52-.9-1.8l-13.52-5.26c-.04-.07-.07-.15-.11-.22l10.95,1.93c.76.13,1.5-.33,1.71-1.08.21-.75-.19-1.52-.91-1.8l-14.97-5.71,12.9,2.27c.75.14,1.49-.32,1.7-1.06.21-.73-.16-1.51-.86-1.81l-12.86-5.35,5.29.93c.76.14,1.51-.34,1.71-1.09.2-.75-.2-1.53-.93-1.8l-14.43-5.32c-.06-.11-.12-.22-.19-.33l13.6,2.4c.76.14,1.5-.33,1.7-1.07s-.18-1.52-.9-1.8l-14.42-5.62,8.22,1.45c.76.14,1.5-.33,1.71-1.08.21-.75-.19-1.52-.91-1.8l-14.84-5.69,12.12,2.14c.76.13,1.5-.33,1.71-1.08.21-.75-.19-1.53-.91-1.8l-15.07-5.73,2.94.52c.76.14,1.5-.33,1.71-1.07.21-.74-.18-1.52-.9-1.8l-11.66-4.52c-.14-.23-.29-.46-.43-.69l8.33,1.47c.75.13,1.49-.32,1.7-1.06.21-.73-.16-1.51-.86-1.81l-12.89-5.35,13.1,2.31c.76.14,1.51-.34,1.71-1.09s-.21-1.53-.94-1.8l-16.59-5.99,11.15,1.97c.76.14,1.51-.34,1.71-1.09s-.21-1.53-.94-1.8l-16.54-5.98,8.38,1.48c.77.14,1.51-.34,1.71-1.09.2-.75-.21-1.53-.95-1.8l-16.15-5.78c-.04-.05-.07-.11-.11-.16l13.67,2.41c.75.14,1.5-.33,1.71-1.07.21-.74-.18-1.52-.9-1.8l-14.62-5.65,5.09.9c.76.14,1.5-.33,1.71-1.08.21-.74-.19-1.52-.91-1.8l-14.86-5.69,7.98,1.41c.76.13,1.5-.33,1.71-1.08.21-.75-.19-1.53-.91-1.8l-14.17-5.38c-.05-.08-.11-.15-.16-.22l10.15,1.79c.76.14,1.51-.34,1.71-1.09.2-.75-.21-1.53-.94-1.8l-15.88-5.72c-.04-.06-.08-.11-.12-.17l10.08,1.78c.76.14,1.49-.33,1.7-1.07.21-.74-.17-1.52-.89-1.8l-13.9-5.53,3.86.68c.74.13,1.46-.31,1.69-1.02.23-.72-.11-1.49-.79-1.81l-10.58-4.96,12,2.12c.81.14,1.59-.4,1.74-1.22.14-.82-.4-1.59-1.22-1.74l-12.52-5.94h207.11l-12.52,5.94c-.82.14-1.36.92-1.22,1.74.14.82.93,1.36,1.74,1.22l12-2.12-10.58,4.96c-.68.32-1.02,1.09-.79,1.81.23.72.95,1.16,1.69,1.02l3.86-.68-13.9,5.53c-.71.28-1.1,1.06-.89,1.8.21.74.95,1.21,1.7,1.07l10.75-1.9-16.67,6.01c-.73.26-1.14,1.04-.94,1.8.2.75.95,1.23,1.71,1.09l10.95-1.93-15.14,5.74c-.72.27-1.12,1.05-.91,1.8.21.75.95,1.21,1.71,1.08l7.98-1.41-14.86,5.69c-.72.28-1.12,1.06-.91,1.8.21.74.95,1.21,1.71,1.08l5.09-.9-14.62,5.65c-.72.28-1.11,1.06-.9,1.8.21.74.95,1.21,1.71,1.07l14.33-2.53-16.92,6.05c-.73.26-1.14,1.04-.95,1.8.2.75.95,1.23,1.71,1.09l8.38-1.48-16.54,5.98c-.73.27-1.14,1.05-.94,1.8s.95,1.23,1.71,1.09l11.15-1.97-16.59,5.99c-.73.26-1.14,1.04-.94,1.8s.95,1.23,1.71,1.09l13.1-2.31-12.89,5.35c-.71.29-1.08,1.07-.86,1.81.21.73.95,1.19,1.7,1.06l9.72-1.71c-.06.1-.12.2-.19.3l-13.3,5.16c-.72.28-1.11,1.06-.9,1.8.21.74.95,1.21,1.71,1.07l2.94-.52-15.07,5.73c-.72.27-1.12,1.05-.91,1.8.21.75.94,1.21,1.71,1.08l12.12-2.14-14.84,5.69c-.72.28-1.11,1.06-.91,1.8.21.74.95,1.21,1.71,1.08l8.22-1.45-14.42,5.62c-.72.28-1.11,1.06-.9,1.8s.95,1.21,1.7,1.07l14.95-2.64-15.97,5.89c-.73.27-1.13,1.05-.93,1.8.2.75.95,1.22,1.71,1.09l5.29-.93-12.86,5.35c-.71.29-1.08,1.07-.86,1.81.21.73.95,1.19,1.7,1.06l12.9-2.27-14.97,5.71c-.72.28-1.12,1.06-.91,1.8.21.75.94,1.21,1.71,1.08l11.79-2.08-14.47,5.63c-.72.28-1.11,1.06-.9,1.8.21.74.95,1.21,1.7,1.07l9.68-1.71-9.88,4.85c-.67.33-1,1.1-.77,1.81.23.71.96,1.14,1.69,1.01l3.95-.7-14.71,5.67c-.72.28-1.11,1.06-.91,1.8.21.74.95,1.21,1.71,1.08l12.96-2.28-16.32,5.95c-.73.27-1.14,1.05-.94,1.8.2.75.95,1.22,1.71,1.09l8.72-1.54-13.28,5.42h-.66l-13.28-5.42Zm-45.05,224.81l39.4-6.95c.17.78.93,1.3,1.72,1.15l28.52-5.03-3.28,1.66c-.66.34-.98,1.11-.75,1.81.24.71.95,1.13,1.68,1l18.03-3.18-2.86,1.61c-.64.36-.92,1.12-.68,1.81s.95,1.1,1.67.97l7.5-1.32-3.47,1.69c-.67.33-1,1.1-.77,1.81.23.71.95,1.14,1.69,1.01l12.5-2.21-2.27,1.55c-.58.4-.81,1.15-.54,1.8.27.66.96,1.03,1.65.91l9.25-1.63-4.52,1.85c-.71.29-1.09,1.07-.87,1.8.21.74.94,1.19,1.7,1.06l14.45-2.55s0,0,0,0l-2.66,1.58c-.62.37-.89,1.13-.64,1.81,0,0,0,0,0,0h-122.63s1.83-1.74,6.19-4.05Z"/>
  <g>
    <path class="cls-2" d="m212.19,76.08l-11.84-.16c-1.62-.02-2.76,1.57-2.22,3.1.27.76.54,1.54.8,2.24.33.93,1.22,1.55,2.2,1.54,4.76-.08,9.39-.64,14.08-.75,1.27-.03,2.25-1.1,2.25-2.37,0-1.08-.19-2.15-.78-3.08-.82-1.29-2.22-1.71-3.03-1-.39.35-.92.49-1.45.49Z"/>
    <path class="cls-2" d="m216.83,86.95l-12.14.27c-1,.02-1.66,1.04-1.28,1.96.31.76.62,1.49.92,2.28.22.57.78.92,1.39.89,3.56-.18,7.19-.12,10.72-.29.68-.03,1.22-.56,1.33-1.24.13-.77.33-1.46.48-2.19.19-.88-.52-1.71-1.43-1.69Z"/>
    <path class="cls-2" d="m218.19,96.57l-8.44.47c-1.45.08-2.26,1.69-1.48,2.91.24.37.47.74.69,1.11.35.61.99.98,1.69.96,2.4-.08,5.23-.03,7.67-.09,1-.03,1.79-.83,1.83-1.83.02-.53.02-1.06.03-1.59.03-1.1-.88-2-1.99-1.94Z"/>
    <path class="cls-2" d="m220.12,107.21l-3.95.17c-.72.03-1.26.69-1.13,1.4.16.89.13,1.78.36,2.68.15.56.66.95,1.24.91,1.18-.07,2.35-.13,3.52-.2.62-.04,1.11-.54,1.13-1.16.02-.84.07-1.72.09-2.56.02-.7-.56-1.27-1.26-1.24Z"/>
    <path class="cls-2" d="m221.71,116.99l-2.01.15c-.62.05-.96.74-.61,1.26.7,1.06,1.4,2.12,2.11,3.18.13.2.35.33.59.36.3.03.61.09.91.07-.13-1.4-.04-2.85-.1-4.25-.02-.45-.42-.79-.87-.76Z"/>
    <path class="cls-2" d="m224.25,126.12l-2.26.44c-.01,1.21.94,2.75,1.86,3.09.74.28,1.44-.05,2-.53-.27-.75-1.32-2.25-1.59-3Z"/>
  </g>
</svg>