<?xml version="1.0" encoding="UTF-8"?>
<svg id="Layer_1" data-name="Layer 1" xmlns="http://www.w3.org/2000/svg" viewBox="0 0 512 512">
  <g>
    <path d="m314.446,67.439c-7.203-2.474-15.92.64-19.926,7.117-.761,1.23-1.377,2.575-2.382,3.615-1.006,1.04-2.555,1.73-3.912,1.229-.884-.327-1.658-1.13-2.593-1.009-.697.09-1.219.681-1.583,1.282-.951,1.574-1.275,3.435-1.894,5.166-.619,1.732-1.695,3.482-3.439,4.068-.587.197-1.225.252-1.776.536-1.19.615-1.623,2.101-1.698,3.438s.077,2.731-.429,3.971c-1.291,3.159-5.963,3.578-7.628,6.557-1.384,2.477-.201,5.914-1.9,8.187-.755,1.01-1.945,1.581-2.935,2.363-3.464,2.737-4.129,7.688-4.075,12.102-5.278-3.343-8.301-9.926-7.395-16.108.312-2.129,1.483-4.556,3.627-4.741,2.131-1.87,2.661-4.802,3.618-7.47.957-2.668,2.862-5.499,5.694-5.621.048-2.254.167-4.544.911-6.672s2.201-4.104,4.276-4.986c.885-.376,1.885-.563,2.604-1.202.61-.542.926-1.33,1.254-2.076,1.484-3.375,3.593-6.431,5.689-9.464.534-.773,1.095-1.571,1.91-2.038.76-.435,1.658-.535,2.5-.774,2.727-.773,4.776-2.952,7.028-4.673,2.252-1.721,5.291-3.061,7.859-1.862.761.355,1.411.908,2.131,1.34,3.679,2.206,8.358.953,12.636,1.28.516.039,1.071.122,1.441.484.387.379.47.963.514,1.503.133,1.618.055,2.848-.128,4.46Z" fill="#76a861" stroke-width="0"/>
    <path d="m323.533,83.361c.522-.523,1.075-1.211,1.514-2.092,1.008-2.02.863-3.94.8-4.767l-.234-3.036c-.073-.982-.297-3.969-2.803-6.146-.986-.857-2.155-1.442-3.475-1.738-.169-.038-.336-.07-.498-.096-.001-.028-.003-.056-.005-.084-.179-3.083-1.519-4.979-2.611-6.024-1.069-1.024-2.421-1.742-3.911-2.077-1.653-.371-3.133-.211-4.102-.059-1.377.217-2.774.466-4.164.79-.812-2.25-2.38-3.389-3.377-3.912-.538-.281-1.113-.491-1.707-.625-1.968-.442-3.57.082-4.093.253-5.096,1.667-9.423,4.73-12.401,8.567-1.495.045-2.991.508-4.463,1.386-2.735,1.63-5.013,4.234-6.771,7.738-1.053,2.099-1.869,4.191-2.447,6.264-2.168.572-3.822,1.712-4.842,2.416-.776.534-2.592,1.786-3.567,4.102-.824,1.946-.68,3.738-.612,4.603.069.86.129,1.712.184,2.559-1.656.752-3.133,1.919-4.235,3.426-1.655,2.262-2.473,5.051-2.444,8.319l-4.559.983-.228,4.889c-.465,9.999,4.024,20.189,11.715,26.593,1.953,1.628,4.395,3.392,7.68,4.129.429.096.869.174,1.318.232,3.071.394,5.905.032,8.406-.287,2.449-.314,5.225-.668,8.045-1.723,1.926-.721,3.625-1.683,5.033-2.528,2.36-1.418,4.667-2.972,6.851-4.616.721-.542,2.917-2.192,3.464-5.254.046-.26.08-.518.101-.772,1.395-.489,2.894-1.186,4.306-2.294,3.664-2.873,5.181-7.537,3.776-11.6-.11-.319-.235-.629-.377-.929,2.829-2.156,5.085-4.842,6.543-7.843.877-1.809,1.154-3.673.846-5.383,1.047-.643,2.062-1.338,3.038-2.083,4.052-3.089,5.665-7.418,4.304-11.281Zm-22.054,34.116c-1.352,1.06-3.067,1.515-4.731,1.944-1.636.422-3.272.844-4.908,1.267.37,1.656,3.192,2.076,2.894,3.747-.098.551-.574.944-1.021,1.281-2.026,1.525-4.132,2.944-6.306,4.25-1.279.769-2.589,1.501-3.987,2.024-2.117.792-4.382,1.084-6.624,1.371-1.937.248-3.895.473-5.839.354.999-2.757,2.174-5.61,3.477-8.507,11.804-1.516,19.686-9.849,19.686-9.849-7.356,4.783-14.292,5.619-17.75,5.698,1.075-2.229,2.21-4.467,3.383-6.693,5.816-.293,10.803-2.324,14.544-4.487,2.289.32,4.562.769,6.782,1.386.461.128.932.268,1.312.56.367.283.624.693.775,1.131.561,1.624-.336,3.464-1.688,4.524Zm13.895-27.891c-3.823,2.914-8.337,4.913-13.064,5.787,2.312.131,4.598.625,6.712,1.569.257.115.52.242.699.459.435.527.201,1.318-.098,1.932-1.619,3.334-4.562,5.913-7.893,7.539-1.793.875-3.697,1.484-5.648,1.908,3.547-2.316,5.582-4.467,5.582-4.467-9.046,5.882-17.473,5.799-19.549,5.674,1.612-2.922,3.263-5.793,4.903-8.557,9.946-1.665,16.127-9.372,16.127-9.372-5.652,4.378-11.225,5.475-13.947,5.748,1.615-2.65,3.193-5.166,4.685-7.498,8.523-2.15,13.083-9.607,13.083-9.607-4.201,4.21-8.684,5.686-10.871,6.186,4.769-7.297,8.202-12.066,8.202-12.066-3.96,3.544-7.783,7.604-11.405,11.904-.6-2.394-1.378-7.487.629-13.654,0,0-4.677,7.623-3.054,16.605-1.674,2.085-3.298,4.21-4.867,6.346-.94-1.384-4.59-7.37-4.208-16.335,0,0-2.885,10.06,1.912,19.523-1.941,2.75-3.783,5.492-5.513,8.167-1.448-2.336-4.809-8.802-4.415-18.065,0,0-3.212,11.208,1.977,21.908-1.826,2.932-3.498,5.738-4.992,8.328-1.518-2.437-5.107-9.291-4.689-19.128,0,0-3.456,12.058,2.24,23.457-1.487,2.681-2.721,5-3.662,6.815-6.199-5.173-9.788-13.329-9.413-21.394,2.391-.516,5.051.648,6.294,2.755-.774-1.894-1.042-4.897-1.335-6.922-.326-2.251-.291-4.73,1.051-6.566,1.343-1.836,4.386-2.508,5.895-.806-.257-3.187-.38-6.258-.637-9.445-.044-.543-.084-1.111.128-1.613.248-.587.796-.983,1.321-1.345,1.191-.821,2.491-1.656,3.937-1.642,1.169.011,2.364.855,2.619,1.922-.115-3.922,1.045-7.828,2.808-11.343,1.018-2.029,2.392-3.964,4.342-5.127.517-.308,1.11-.565,1.704-.472,1.534.24,1.794,2.319,1.666,3.866.984-6.132,6.312-10.835,12.215-12.765.286-.094.61-.177.877-.037.337.176.419.613.462.99l.714,6.193c2.935-2.072,6.75-2.857,10.299-3.416.909-.143,1.958-.192,2.623.445.473.453.624,1.146.662,1.8.11,1.903-.576,3.839-1.858,5.248,2.082-.061,4.127.765,6.21.704.631-.019,1.327-.015,1.804.399.498.433.583,1.163.633,1.821l.233,3.05c.037.487.069,1.002-.149,1.439-.192.384-.551.653-.9.903-2.326,1.67-4.769,3.177-7.305,4.508,1.167.152,2.072-.069,3.249-.075,1.177-.006,2.497.389,3.021,1.443.78,1.57-.653,3.314-2.048,4.377Z" fill="#2a2e28" stroke-width="0"/>
  </g>
  <g>
    <path d="m386.31,123.037c-3.506-6.761-11.962-10.524-19.332-8.601-1.4.365-2.773.913-4.219.972s-3.043-.511-3.679-1.81c-.414-.847-.42-1.962-1.18-2.52-.567-.416-1.352-.349-2.03-.164-1.774.482-3.293,1.606-4.936,2.431s-3.63,1.35-5.296.571c-.561-.263-1.06-.664-1.655-.838-1.285-.376-2.625.401-3.602,1.316s-1.829,2.03-3.051,2.577c-3.114,1.395-6.785-1.526-10.045-.519-2.711.837-4.227,4.141-7.025,4.613-1.244.21-2.499-.198-3.755-.316-4.396-.41-8.294,2.714-11.301,5.946-1.513-6.062.843-12.912,5.765-16.76,1.695-1.325,4.217-2.273,5.896-.928,2.832.117,5.24-1.639,7.774-2.909s5.866-2.004,8-.138c1.591-1.598,3.257-3.173,5.264-4.2s4.425-1.451,6.536-.658c.9.338,1.753.893,2.714.927.815.029,1.588-.323,2.34-.637,3.403-1.418,7.038-2.174,10.648-2.923.92-.191,1.877-.381,2.789-.157.85.209,1.569.757,2.344,1.165,2.507,1.323,5.494,1.16,8.311,1.468s5.941,1.436,6.973,4.076c.306.782.394,1.631.618,2.44,1.14,4.136,5.391,6.458,8.261,9.647.346.385.691.827.709,1.345.019.541-.324,1.021-.665,1.442-1.02,1.262-1.925,2.099-3.17,3.14Z" fill="#76a861" stroke-width="0"/>
    <path d="m381.898,140.831c.739-.019,1.614-.135,2.539-.469,2.124-.766,3.343-2.256,3.869-2.898l1.926-2.358c.625-.761,2.524-3.077,2.214-6.382-.122-1.301-.565-2.531-1.315-3.657-.096-.144-.195-.282-.294-.414.018-.021.036-.043.055-.064,1.999-2.354,2.337-4.651,2.268-6.161-.067-1.478-.55-2.932-1.397-4.202-.94-1.41-2.121-2.315-2.928-2.873-1.146-.793-2.329-1.577-3.559-2.302.965-2.189.617-4.095.256-5.161-.196-.575-.466-1.124-.804-1.63-1.119-1.678-2.641-2.404-3.137-2.642-4.838-2.311-10.083-3.08-14.887-2.358-1.113-1-2.516-1.696-4.187-2.077-3.104-.708-6.549-.396-10.24.927-2.21.793-4.245,1.743-6.094,2.844-1.964-1.083-3.947-1.398-5.171-1.594-.93-.149-3.108-.496-5.412.507-1.94.84-3.072,2.236-3.619,2.909-.544.67-1.088,1.328-1.633,1.979-1.717-.599-3.592-.773-5.43-.443-2.759.495-5.275,1.948-7.51,4.333l-3.978-2.434-3.539,3.381c-7.238,6.915-11.021,17.388-9.874,27.33.29,2.526.84,5.488,2.708,8.289.244.366.508.726.794,1.077,1.951,2.404,4.251,4.098,6.282,5.593,1.989,1.463,4.243,3.123,7.012,4.305,1.891.808,3.785,1.284,5.387,1.644,2.686.602,5.428,1.07,8.144,1.387.896.105,3.624.427,6.132-1.411.213-.157.415-.319.606-.489,1.347.608,2.913,1.139,4.699,1.312,4.634.45,8.951-1.879,10.738-5.789.141-.307.264-.618.368-.933,3.535.392,7.022.005,10.148-1.161,1.883-.704,3.37-1.862,4.327-3.312,1.202.257,2.416.454,3.637.589,5.064.561,9.219-1.458,10.9-5.194Zm-39.504,9.469c-1.71-.165-3.266-1.02-4.766-1.858-1.475-.823-2.951-1.647-4.426-2.471-.875,1.454.877,3.705-.491,4.709-.451.331-1.067.287-1.623.222-2.519-.295-5.022-.721-7.496-1.277-1.456-.327-2.909-.701-4.282-1.287-2.078-.888-3.919-2.24-5.74-3.579-1.573-1.158-3.145-2.346-4.47-3.773,2.625-1.306,5.445-2.559,8.388-3.757,9.588,7.049,21.043,6.458,21.043,6.458-8.624-1.615-14.221-5.797-16.778-8.126,2.316-.871,4.683-1.708,7.067-2.509,4.411,3.802,9.422,5.773,13.622,6.79,1.435,1.811,2.771,3.705,3.952,5.684.245.411.49.837.563,1.311.071.458-.027.932-.22,1.354-.715,1.562-2.634,2.275-4.344,2.109Zm29.304-10.596c-4.777-.529-9.425-2.198-13.448-4.828,1.583,1.69,2.896,3.625,3.775,5.768.107.26.21.534.189.815-.049.681-.764,1.092-1.404,1.331-3.473,1.295-7.383,1.131-10.915.009-1.902-.604-3.7-1.477-5.404-2.517,4.165.772,7.122.619,7.122.619-10.606-1.986-16.647-7.861-18.063-9.385,3.183-1.002,6.36-1.94,9.454-2.809,8.346,5.659,18.139,4.347,18.139,4.347-7.111-.733-11.902-3.784-14.06-5.466,2.997-.803,5.876-1.535,8.565-2.192,7.651,4.326,16.098,2.077,16.098,2.077-5.945.147-10.209-1.878-12.137-3.026,8.488-1.99,14.263-3.071,14.263-3.071-5.312-.168-10.881.132-16.469.743,1.218-2.147,4.17-6.369,9.878-9.447,0,0-8.645,2.289-13.669,9.909-2.65.354-5.292.771-7.902,1.234.275-1.65,1.765-8.501,8.228-14.726,0,0-9.031,5.289-12.09,15.448-3.303.65-6.528,1.363-9.626,2.106.564-2.69,2.594-9.689,9.272-16.121,0,0-10.06,5.894-13.688,17.219-3.344.861-6.491,1.738-9.36,2.582.584-2.811,2.716-10.249,9.808-17.079,0,0-10.823,6.341-14.568,18.521-2.927.914-5.42,1.741-7.353,2.405-.916-8.022,2.115-16.401,7.953-21.978,2.087,1.277,3.208,3.955,2.654,6.338.747-1.905,2.626-4.263,3.811-5.931,1.317-1.854,3.053-3.624,5.292-4.026,2.239-.402,4.905,1.212,4.822,3.485,2.014-2.483,4.044-4.791,6.058-7.274.343-.424.706-.862,1.206-1.079.585-.254,1.255-.162,1.884-.062,1.428.228,2.946.521,3.983,1.529.838.815,1.121,2.25.569,3.198,2.623-2.917,6.159-4.944,9.861-6.271,2.137-.766,4.467-1.218,6.681-.713.587.134,1.193.357,1.559.835.945,1.232-.302,2.916-1.462,3.948,4.944-3.758,12.046-3.485,17.649-.808.271.129.563.293.66.578.122.36-.12.732-.349,1.036-1.252,1.658-2.505,3.317-3.757,4.975,3.554.526,6.857,2.591,9.811,4.636.757.524,1.549,1.212,1.591,2.132.03.654-.34,1.26-.763,1.759-1.234,1.453-3.066,2.381-4.967,2.516,1.549,1.393,2.459,3.402,4.008,4.795.469.422.971.905,1.03,1.533.062.657-.381,1.244-.799,1.755-.645.789-1.291,1.579-1.936,2.368-.309.378-.641.773-1.101.938-.404.146-.849.092-1.274.033-2.836-.397-5.644-.992-8.398-1.779.74.915,1.547,1.38,2.403,2.188.856.808,1.539,2.004,1.19,3.129-.518,1.675-2.76,1.948-4.502,1.754Z" fill="#2a2e28" stroke-width="0"/>
  </g>
  <path d="m163.746,156.301c-2.125,58.186,17.668,116.914,54.58,161.943-9.493,2.165-20.508,4.013-28.087-2.099-1.994-1.608-3.577-3.665-5.039-5.769-7.837-11.27-12.775-24.539-14.212-38.191-.46-4.365-.737-9.172-3.769-12.346-1.119-1.171-2.543-2.024-3.621-3.233-1.556-1.744-2.26-4.067-2.917-6.31-11.067-37.787-21.124-75.869-30.157-114.194,12.581-.071,27.39-2.242,39.63.131-4.76,5.811-6.137,12.668-6.408,20.067Z" fill="#4380af" stroke-width="0"/>
  <path d="m276.719,449.785c-1.462-3.271-4.923-5.086-8.142-6.66-9.411-4.6-18.821-9.2-28.232-13.801-1.89-.924-3.795-1.857-5.459-3.145-2.148-1.662-3.827-3.87-5.145-6.245-4.055-7.311-4.719-16.052-4.04-24.385.538-6.606,2.272-13.812,7.692-17.627.645-.454,1.34-.857,1.863-1.448.785-.887,1.094-2.097,1.229-3.273.987-8.599-5.864-16.48-5.567-25.13.314-9.128-2.575-17.759-4.323-26.703h-4.52c.018,1.228.032,2.454.041,3.673.102,13.31.202,26.661-1.339,39.882-2.376,20.38,2.921,40.965,5.11,61.366.169,1.575.415,3.3,1.595,4.358.723.648,1.715.955,2.388,1.655.537.559.817,1.313,1.04,2.055,2.23,7.417-.79,16.684-7.948,19.642,2.065,1.416,4.725,1.529,7.228,1.592,15.695.392,31.393.676,47.092.852.333-2.234.357-4.597-.565-6.658Z" fill="#4380af" stroke-width="0"/>
  <path d="m297.47,188.06c.211-.853.389-1.713.547-2.577-.117.537-.12.105-.005-1.329.036-1.142.208-2.255.477-3.331-16.671-.057-33.342-.114-50.013-.171-3.113-.011-6.383,0-9.109.837-2.726.837-4.603,2.801-3.208,4.35,1.479,1.641,5.42,1.9,8.718,1.944,17.492.236,34.985.472,52.477.707.037-.144.081-.286.116-.43Z" fill="#ef9437" stroke-width="0"/>
  <path d="m296.055,192.927c-15.433.264-30.866.527-46.298.791-3.888.066-8.719.515-9.848,2.616-.842,1.568,1.138,3.263,3.727,4.005,2.588.742,5.614.765,8.517.773,13.645.037,27.29.074,40.936.111,1.007-2.759,2.062-5.502,2.967-8.297Z" fill="#ef9437" stroke-width="0"/>
  <path d="m290.368,209.593c.543-1.918,1.123-3.823,1.77-5.705.016-.046.033-.091.048-.136l-35.837-.435c-3.251-.039-6.706-.053-9.482.791-2.776.844-4.334,2.886-2.259,4.133,15.123,1.167,30.466,1.615,45.76,1.351Z" fill="#ef9437" stroke-width="0"/>
  <path d="m287.328,221.374c.646-2.568,1.275-5.141,1.938-7.704-13.856-.112-27.712-.224-41.569-.336-3.529-.029-7.711.087-9.575,1.382-1.618,1.124-.53,2.681,1.688,3.594,2.218.913,5.275,1.324,8.242,1.654,11.54,1.281,26.52,1.755,39.276,1.41Z" fill="#ef9437" stroke-width="0"/>
  <path d="m285.464,228.378c.257-.891.502-1.787.744-2.684-10.682-.033-21.363-.067-32.045-.1-5.868-.018-12.071-.003-17.115,1.186-5.044,1.189-8.14,4-4.833,5.922,2.921,1.698,8.939,1.887,14.122,1.909,9.629.041,24.938.094,37.217.141.656-2.119,1.294-4.244,1.91-6.376Z" fill="#ef9437" stroke-width="0"/>
  <path d="m272.317,267.454c-15.433.264-30.866.527-46.298.791-3.888.066-8.719.515-9.848,2.616-.842,1.568,1.138,3.263,3.727,4.005,2.588.742,5.614.765,8.517.773,13.645.037,27.29.074,40.936.111,1.007-2.759,2.062-5.502,2.967-8.297Z" fill="#ef9437" stroke-width="0"/>
  <path d="m266.63,284.12c.543-1.918,1.123-3.823,1.77-5.705.016-.046.033-.091.048-.136l-35.837-.435c-3.251-.039-6.706-.053-9.482.791-2.776.844-4.334,2.886-2.259,4.133,15.123,1.167,30.466,1.615,45.76,1.351Z" fill="#ef9437" stroke-width="0"/>
  <path d="m263.591,295.901c.646-2.568,1.275-5.141,1.938-7.704-13.856-.112-27.712-.224-41.569-.336-3.529-.029-7.711.087-9.575,1.382-1.618,1.124-.53,2.681,1.688,3.594,2.218.913,5.275,1.324,8.242,1.654,11.54,1.281,26.52,1.755,39.276,1.41Z" fill="#ef9437" stroke-width="0"/>
  <path d="m261.726,302.904c.257-.891.502-1.787.744-2.684-10.682-.033-21.363-.067-32.045-.1-5.868-.018-12.071-.003-17.115,1.186-5.044,1.189-8.14,4-4.833,5.922,2.921,1.698,8.939,1.887,14.122,1.909,9.629.041,24.938.094,37.217.141.656-2.119,1.294-4.244,1.91-6.376Z" fill="#ef9437" stroke-width="0"/>
  <path d="m282.1,239.315c-11.673-.005-24.63.158-35.597.061-5.952-.053-12.093-.098-17.66.386-5.566.485-10.459,1.643-10.457,3.005.002,1.129,3.371,2.15,7.597,2.734,4.226.584,9.212.8,14.108.947,7.996.24,25.912.812,39.319,1.001.921-2.704,1.813-5.417,2.69-8.135Z" fill="#ef9437" stroke-width="0"/>
  <path d="m276.254,256.522c.281-.795.563-1.589.842-2.385-10.693-.331-37.089-1.016-46.435-.163-2.782.254-5.634.575-7.95,1.405-2.317.83-3.989,2.291-3.42,3.711.456,1.137,2.252,2.035,4.292,2.539,2.039.504,4.321.676,6.562.841,7.767.573,31.889,1.147,39.656,1.72l6.454-7.667Z" fill="#ef9437" stroke-width="0"/>
  <path d="m142.58,170.183c51.488-.242,102.977-.484,154.465-.727-1.468,2.313-2.144,4.786-3.612,7.099-48.207.545-96.974.906-145.181,1.451-1.063-2.691-4.609-5.132-5.672-7.823Z" fill="#ef9437" stroke-width="0"/>
  <g>
    <path d="m248.512,157.653l24.693-1.473c4.561-.272,7.892,5.505,6.396,11.087-.017.062-.033.124-.05.186-.889,3.316-3.285,5.559-5.997,5.619-9.613.215-19.161-.558-28.758-.369-3.265.064-6.095-3.015-6.503-7.207-.204-2.099-.089-4.177.636-6.095,1.284-3.398,4.223-4.653,6.325-2.982.991.788,2.097,1.303,3.259,1.234Z" fill="#2a2e28" stroke-width="0"/>
    <path d="m245.556,180.76l20.48-.543c2.892-.077,4.928,3.667,3.88,7.156-.034.112-.067.224-.101.336-.604,2.034-2.113,3.359-3.796,3.369-6.728.043-13.546.487-20.268.527-1.559.009-2.99-1.155-3.657-2.978-.038-.103-.076-.205-.114-.307-1.305-3.449.609-7.483,3.577-7.561Z" fill="#2a2e28" stroke-width="0"/>
    <path d="m244.203,200.697h15.3c2.777,0,4.457,3.951,2.988,7.001-.015.03-.029.061-.044.091-.628,1.315-1.727,2.111-2.921,2.139-4.717.111-10.332.544-15.095.674-1.563.043-2.98-1.255-3.428-3.193-.068-.294-.133-.588-.197-.883-.635-2.925,1.05-5.83,3.398-5.83Z" fill="#2a2e28" stroke-width="0"/>
    <path d="m244.711,219.836l5.657-.105c1.441-.027,2.625,1.428,2.712,3.289.016.343.04.684.061,1.025.124,2.007-1.1,3.718-2.656,3.731-1.821.014-3.64.041-5.461.055-1.184.009-2.224-.998-2.577-2.461-.081-.336-.165-.676-.249-1.016-.547-2.214.716-4.484,2.513-4.518Z" fill="#2a2e28" stroke-width="0"/>
    <path d="m244.206,235.276h2.42c1.239,0,1.954,1.817,1.23,3.117-.588,1.056-1.171,2.105-1.763,3.149-.247.436-.625.724-1.04.786-.007.001-.014.002-.02.003-.775.117-1.485-.526-1.665-1.508-.187-1.018-.424-2.05-.632-3.084-.251-1.246.476-2.464,1.471-2.464Z" fill="#2a2e28" stroke-width="0"/>
    <path d="m243.234,248.322l1.199.107c1.113.099,1.717,1.78,1.026,2.914-.394.647-.935,1.171-1.525,1.403-.419.165-.855.216-1.291.185-1.075-.077-1.714-1.586-1.15-2.772.147-.31.293-.618.419-.907.269-.614.778-.979,1.322-.93Z" fill="#2a2e28" stroke-width="0"/>
  </g>
  <g>
    <path d="m190.765,185.633c1.349-.022,2.735-.038,3.997.38,1.262.419,2.385,1.381,2.479,2.563.099,1.245-.977,2.377-2.263,2.907-1.287.53-2.751.587-4.171.635-4.962.168-41.027,3.324-39.991-2.103.885-4.635,12.302-3.932,15.56-3.985,8.13-.133,16.26-.265,24.39-.398Z" fill="#ef9437" stroke-width="0"/>
    <path d="m199.64,200.377c1.165.036,2.422.101,3.327.747.906.646,1.112,2.102.099,2.609-9.773,1.429-19.69,2.096-29.597,1.992-4.509-.047-9.224-.306-13.103-2.325-1.03-.536-2.052-1.287-2.259-2.326-.667-3.408,16.272-1.48,18.99-1.396,7.515.233,15.029.466,22.544.699Z" fill="#ef9437" stroke-width="0"/>
    <path d="m193.366,211.028c2.065-.042,4.479.062,5.671,1.544,1.299,1.616.212,4.02-1.668,5.111s-4.251,1.223-6.5,1.322c-5.49.242-10.98.484-16.471.726-2.219.098-4.509.187-6.596-.484-6.308-2.026-4.06-7.439,1.514-7.829,7.915-.555,16.098-.229,24.05-.39Z" fill="#ef9437" stroke-width="0"/>
    <path d="m203.876,227.241c1.001,1.625-.093,3.753-1.835,4.79-1.742,1.037-3.929,1.26-6.022,1.454-5.217.484-10.434.968-15.651,1.452-1.538.143-3.102.284-4.621.031-2.681-.448-5.762-3.25-3.72-5.728,1.511-1.833,4.171-.903,6.354-.839,8.42.244,17.083-.742,25.495-1.159Z" fill="#ef9437" stroke-width="0"/>
    <path d="m178.108,239.284c4.681-.135,9.361-.27,14.042-.405,1.302-.038,2.637-.071,3.873.292,1.236.363,2.372,1.212,2.607,2.337.287,1.375-.869,2.73-2.304,3.337s-3.085.638-4.677.657c-2.643.033-5.286.065-7.929.098-1.174.015-2.368.027-3.499-.254s-2.208-.902-2.693-1.842c-.558-1.081-.166-2.476.899-3.206,1.065-.73,2.701-.724,3.759.014" fill="#ef9437" stroke-width="0"/>
    <path d="m194.174,252.796c1.01.122,2.153.392,2.591,1.201.382.703.045,1.58-.582,2.131s-1.486.841-2.33,1.082c-2.024.578-4.12.962-6.239,1.141-1.737.147-3.751.056-4.845-1.139-4.772-5.213,9.481-4.648,11.404-4.415Z" fill="#ef9437" stroke-width="0"/>
  </g>
  <g>
    <path d="m173.952,160.9l-13.792-.243c-1.885-.033-3.218,2.373-2.587,4.672.315,1.148.635,2.316.928,3.373.388,1.396,1.417,2.341,2.562,2.317,5.547-.114,10.943-.971,16.4-1.13,1.482-.043,2.627-1.658,2.618-3.576-.008-1.63-.22-3.239-.912-4.643-.96-1.948-2.592-2.58-3.53-1.503-.456.524-1.077.743-1.687.732Z" fill="#2a2e28" stroke-width="0"/>
    <path d="m179.362,173.801l-14.14.404c-1.16.033-1.932,1.561-1.495,2.951.357,1.139.722,2.246,1.072,3.44.252.86.91,1.394,1.62,1.348,4.152-.268,8.382-.184,12.49-.437.796-.049,1.424-.845,1.552-1.863.146-1.16.38-2.198.562-3.302.219-1.333-.609-2.572-1.662-2.542Z" fill="#2a2e28" stroke-width="0"/>
    <path d="m180.951,188.307l-9.834.705c-1.685.121-2.639,2.553-1.72,4.384.279.556.552,1.112.801,1.672.406.917,1.152,1.484,1.968,1.448,2.793-.122,6.092-.043,8.931-.138,1.162-.039,2.086-1.255,2.128-2.758.022-.801.025-1.594.04-2.39.033-1.665-1.03-3.016-2.314-2.923Z" fill="#2a2e28" stroke-width="0"/>
    <path d="m183.193,204.352l-4.604.262c-.84.048-1.47,1.038-1.317,2.108.191,1.342.146,2.688.415,4.037.169.849.774,1.428,1.45,1.374,1.369-.11,2.737-.199,4.101-.306.722-.056,1.294-.82,1.313-1.756.026-1.268.076-2.587.105-3.856.024-1.054-.649-1.91-1.463-1.863Z" fill="#2a2e28" stroke-width="0"/>
    <path d="m185.047,219.089l-2.347.221c-.724.068-1.118,1.12-.716,1.902.819,1.593,1.626,3.19,2.458,4.792.155.299.406.503.683.536.353.041.706.143,1.057.108-.148-2.109-.05-4.295-.117-6.411-.022-.683-.492-1.197-1.019-1.147Z" fill="#2a2e28" stroke-width="0"/>
    <path d="m188.008,232.855l-2.632.661c-.017,1.817,1.095,4.139,2.162,4.659.858.418,1.676-.074,2.325-.805-.315-1.134-1.543-3.388-1.855-4.515Z" fill="#2a2e28" stroke-width="0"/>
  </g>
  <g>
    <path d="m224.478,351.981c.357-3.72-.02-10.899-.301-12.463-.674-3.748-.683-7.58-.689-11.389-.012-6.721.395-8.576.383-15.297-.006-3.514-.009,26.419.767,22.992.848-3.745,1.999-10.058,4.513-12.96-4.094,1.777-13.593,1.022-18.056,1.022,0,0,10.914-9.228,7.559,28.03.334-.004.669-.009.999-.008,1.582.002,3.214.062,4.825.074Z" fill="none" stroke-width="0"/>
    <path d="m210.614,357.326c.718.36,1.529.681,2.459.846.828.146,1.712.162,2.582.174,6.313.085,10.936,1.409,16.519-2.573,1.31-.934,1.602-3.795-.082-4.648-2.257.761-4.907.877-7.614.857-.091.942-.227,1.666-.426,2.016-.982,1.733-5.842,2.384-5.633.403.089-.837.16-1.66.235-2.485-4.049.044-8.35.308-11.639-.923-.75,2.286.456,4.754,3.599,6.333Z" fill="none" stroke-width="0"/>
    <path d="m211.86,372.585c1.037.167,2.145.186,3.236.199,7.912.097,13.706,1.611,20.702-2.942,1.641-1.068,2.008-4.339-.102-5.313-4.512,1.387-10.276.9-15.589.895-5.423-.006-11.377.478-15.839-1.046-.94,2.614.571,5.435,4.511,7.24.899.412,1.916.779,3.082.967Z" fill="none" stroke-width="0"/>
    <path d="m224.127,385.026h-.131c-1.723,0-3.389-14.192-5-14.274-.395-.02-.784-.04-1.169-.058l-2.823,14.898c5.742,11.471,6.835,28.567,1.699,39.658l6.964-1.862c-4.22-11.073-2.947-26.95,2.483-37.796l-2.023-.566Z" fill="none" stroke-width="0"/>
    <path d="m243.003,441.647l2.756-2.032-5.959,1.594c-.573.148-1.135-.343-1.33-1.172s.032-1.753.539-2.185l2.272-1.935-14.329,3.831c-.58.149-1.151-.36-1.338-1.21-.187-.85.066-1.78.593-2.185l2.609-2-22.669,6.062c-.63.174-1.229-.449-1.367-1.388l-31.322,8.374c-3.464,2.784-4.918,4.885-4.918,4.885h97.479s-.003-.006-.004-.01c-.2-.819.014-1.737.508-2.183l2.117-1.909s0,0,0,0l-11.483,3.07c-.602.16-1.183-.392-1.352-1.279-.169-.888.13-1.826.694-2.175l3.593-2.226-7.35,1.966c-.55.145-1.099-.31-1.311-1.099-.212-.789-.032-1.695.432-2.175l1.806-1.869-9.938,2.658c-.586.148-1.158-.365-1.341-1.223-.184-.858.078-1.789.613-2.183Z" fill="none" stroke-width="0"/>
  </g>
  <g>
    <path d="m223.53,324.34c.004-.143.008-.283.012-.422-.037.003-.075.005-.112.007.001.151.003.303.005.454.032-.013.063-.026.095-.04Z" fill="#2a2e28" stroke-width="0"/>
    <path d="m204.217,325.384c-1.662,8.493,8.343,11.89,8.343,11.89,1.246,12.909-6.002-3.134-6.002-3.134-7.247,9.059-1.359,14.154-1.359,14.154-15.287,5.775-7.474,15.966-7.474,15.966-2.491,9.965,4.756,12.456,4.756,12.456,0,0-5.662,1.585,1.019,12.682,6.681,11.097,5.435,30.064,0,34.14-2.353,1.765-3.334,3.082-3.694,4.011-11.161,1.74-32.457,8.127-55.699,31.129h152.937c-23.242-23.002-44.538-29.389-55.699-31.129-.36-.929-1.341-2.246-3.694-4.011-5.435-4.076-6.681-23.043,0-34.14,6.681-11.097,1.019-12.682,1.019-12.682,0,0,7.247-2.491,4.756-12.456,0,0,7.813-10.191-7.474-15.966,0,0,5.888-5.096-1.359-14.154,0,0-7.247,16.043-6.002,3.134,0,0,10.005-3.397,8.343-11.89m-96.815-165.626,83.42,164.161c.423-.029.842-.061,1.247-.102-.42.175-.839.349-1.259.524-.022.836-.037,1.749-.042,2.78.27.002.522.047.718.23-.209.24-.451.437-.712.609-.002-.109-.004-.218-.007-.327,0,.11,0,.219,0,.331-.747.49-1.657.77-2.453,1.206-1.078.59-2.05,1.865-1.511,2.968.538,1.102,2.094,1.145,3.213,1.657-.023.385-.027.771-.02,1.157-.33.125-.646.28-.927.492-.563.426-.963,1.144-.806,1.832.087.383.331.708.569,1.02.706.928,1.45,1.884,2.426,2.496,0,.01-.003-.028-.008-.089.142.336.285.672.431,1.016.105,1.476.192,3.422.216,5.342-.714,1.03-1.818,1.995-1.381,3.108.476-.002.943.27,1.177.685-.485.582-1.414.655-1.861,1.266-.625.854.232,2.144,1.273,2.334,1.041.19,2.067-.33,2.993-.841.092.282.017.612-.188.826.535.165,1.093.253,1.653.262.515.215.262,1.057-.235,1.313-.496.256-1.111.233-1.579.538-.602.392-.727,1.108-.647,1.855-3.162.485-6.356-.011-10.167-.062-.87-.012-1.754-.028-2.582-.174-.931-.164-1.741-.485-2.459-.846-3.143-1.579-4.349-4.047-3.599-6.333,3.289,1.231,7.591.967,11.639.923,1.662-18.455-.178-25.501-2.457-27.916,2.329.055,4.893.078,7.233-.074m.301,10.714c-.011.003-.023.007-.035.01,0-.021-.002-.043-.003-.064.012.019.026.035.037.055Zm-19.464,29.738c4.462,1.523,10.415,1.04,15.839,1.046,3.22.003,6.603.178,9.775.011-.391.181-.815.329-1.198.486-.46.188-.975.602-.816,1.073.104.308.451.452.763.543,1.049.305,2.15.427,3.24.36-2.122.458-4.305.633-6.473.52-.166.271.175.566.464.699,2.115.971,4.331,1.723,6.6,2.241-.068.114-.143.224-.213.337-2.199.879-4.331,1.252-6.513,1.366-.48,1.952-.916,4.263-1.301,6.813-.352.4-.685.81-.967,1.247-.475.737-.909,1.55-.923,2.427-.013.801.434,1.649,1.166,1.927-.009.084-.019.168-.028.253-.554.421-1.251.654-1.947.616.518,1.284,1.046,2.617.981,4-.041.858-.309,1.693-.359,2.551-.055.935.149,1.821.511,2.662-.63,10.743-.467,21.776.799,27.832l-6.964,1.862c4.953-10.694,4.111-40.083-1.103-52.455-.168-.003-.333-.009-.503-.011-1.091-.013-2.199-.032-3.236-.199-1.166-.188-2.182-.555-3.082-.967-3.939-1.805-5.451-4.626-4.51-7.24Zm38.122,79.452c.183.858.755,1.371,1.341,1.223l9.938-2.658-1.806,1.869c-.464.48-.644,1.387-.432,2.175.212.79.762,1.244,1.311,1.099l7.35-1.966-3.593,2.226c-.564.35-.864,1.288-.694,2.175.169.888.751,1.44,1.352,1.279l11.483-3.07s0,0,0,0l-2.117,1.909c-.495.446-.709,1.364-.508,2.183,0,.004.003.006.004.01h-97.479s1.454-2.101,4.918-4.885l31.322-8.374c.138.939.737,1.562,1.367,1.388l22.669-6.062-2.609,2c-.527.405-.78,1.335-.593,2.185.187.85.758,1.359,1.338,1.21l14.329-3.831-2.272,1.935c-.507.432-.734,1.355-.539,2.185.196.83.757,1.321,1.33,1.172l5.959-1.594-2.756,2.032c-.535.394-.796,1.325-.613,2.183Z" fill="#2a2e28" stroke-width="0"/>
    <path d="m223.488,327.632c0-.173,0-.345.001-.512-.004,0-.008,0-.012,0,.003.171.007.342.011.512Z" fill="#2a2e28" stroke-width="0"/>
    <path d="m223.357,324.413c-.56.233-1.15.489-1.506.981-.356.492-.353,1.296.166,1.612.415.253.969.113,1.46.114-.018-.915-.032-1.832-.042-2.74-.026.011-.052.022-.078.033Z" fill="#2a2e28" stroke-width="0"/>
  </g>
  <path d="m118.833,126.505s50.74,152.368,54.481,173.983c3.741,21.615,11.848,17.458,11.848,17.458,0,9.976,12.099,11.223,12.099,11.223l23.51-1.784c-.007-.768-.01-1.527-.01-2.273.071.127.143.256.213.371-.024.604-.046,1.233-.066,1.894l16.39,1.793s12.099-1.247,12.099-11.223c0,0,15.38,4.157,19.121-17.458,3.741-21.615,50.405-173.983,50.405-173.983H118.833Zm13.662,15.165c-.032-.133-.077-.217-.149-.341-.044-.076-.097-.146-.153-.212.238-.188.594-.309,1.097-.355.24-.001.508-.002.774-.003-.383.22-.845.49-1.413.821-.052.03-.104.061-.156.091Zm1.619,2.542c-.343.359-.71.739-1.032,1.072-.058.06-.108.112-.164.17-.077-.18-.152-.357-.225-.528.367-.208.827-.476,1.427-.826,0,0,.001,0,.002-.001-.003.04-.006.077-.008.113Zm26.785,73.664c-.386.491-.709.902-.979,1.254-.082-.197-.163-.392-.246-.589.25-.145.515-.299.799-.464.161-.093.326-.189.493-.285-.022.028-.045.057-.067.084Zm5.713,25.035c-.019-.054-.038-.107-.058-.161.077-.044.152-.086.235-.137.031.002.062.004.095.006-.096.103-.182.196-.272.292Zm52.17,73.287c-.045-.022-.086-.042-.125-.061-.021-.393-.279-1.372.443-.842.125.092-.1.505-.317.903Zm2.037,4.135c.005-.176.011-.348.016-.52.117-.003.236-.006.38-.01-.008.224-.191.382-.396.53Zm.108-.576c.012.002-.025.006-.09.01,0-.012,0-.025.001-.037.03.007.057.022.088.027Zm-.004-2.574c.027-.021.048-.037.077-.06-.012.014-.036.037-.038.045-.003.011-.017.016-.039.015Zm78.537-175.549c-.376.1-.697.346-.891.683-.242.422-.263.53-.057,1.841-.201.126-.371.3-.492.509-.529.918-.484,1.111,1.783,3.477-.005.009-.01.017-.015.026-.262.454-.257.718-.046,1.493-.013.029-.027.057-.04.086-.04.052-.081.103-.114.16-.095.164-.147.298-.172.458-.116.251-.234.504-.35.756-.038.05-.081.096-.112.151-.096.165-.148.276-.176.472-.18.387-.357.771-.538,1.16-.037.049-.083.09-.114.144-.138.241-.221.439-.247.634-.436.94-.874,1.884-1.315,2.833-1.554-.915-1.642-.953-2.235-.798-.375.1-.695.345-.889.681-.519.899-.47,1.084,1.62,3.358-.247.533-.494,1.066-.743,1.6-.061.07-.117.146-.164.228-.117.202-.182.357-.198.552-.428.922-.856,1.845-1.286,2.772-.043.054-.098.095-.133.155-.075.129-.119.212-.152.356l.858-.338c.086-.044.177-.08.271-.107l-.271.107c-.248.127-.457.323-.598.567-.541.935-.363,1.147,1.814,3.741.296.353-5.095,1.543-4.763,1.943-.181.391-.362.783-.543,1.175-.051.062-.11.116-.151.187-.103.181,5.594-.445,5.572-.24-.117.253-.233.506-.35.759-.058.067-.116.134-.161.212-.144.249-.226.452-.241.659-.476,1.032-.952,2.066-1.427,3.102-.064.073-.122.152-.172.237-.093.161-.132.231-.186.542-.048.104-.095.208-.143.312-.059-.034-.116-.068-.176-.102l-1.749-1.018c-.921-.533-2.067-1.196-2.807.056-.666,1.156.18,1.838,1.459,2.871.398.322,2.907,1.044,3.424,1.452l-2.993-.041c-.544.943-.436,1.2,1.907,3.61-.3.659-.599,1.317-.899,1.975-.059.069-.114.142-.16.222-.104.18-.155.279-.184.537-.185.408-.37.816-.555,1.224-.044.056-.097.103-.133.165-.118.204-.173.371-.194.556-.026.058-.053.116-.079.174-2.575-1.494-2.629-1.481-3.178-1.332-.37.101-.685.343-.878.675-.567.976-.257,1.313,1.76,3.504.205.223.443.482.678.739-.159.355-.317.708-.475,1.062-.043.054-.095.101-.129.161-.164.284-.265.497-.268.727-.29.649-.582,1.299-.871,1.947l-.388-.225c-.686,3.554-3.413,8.47-7.55,5.487-.204.603.133,1.093,1.865,2.766-.093.171-.132.303-.146.584-.021.005-.042.01-.064.015-.382.096-.71.344-.907.686-.413.716-.303.941.756,3.089.032.065.066.134.101.205-.075.138-.113.257-.132.454-.154.356-.307.711-.459,1.066-.037.048-.08.09-.111.142-.138.238-.216.429-.226.64-.034.079-.069.159-.103.238l-1.632-.948c-1.306-.755-2.336-1.351-3.073-.093-.334.578-.268,1.049.022,1.495-.114.111-.221.254-.326.433-.214.372-.351.632-.292.938-.278.124-.513.334-.667.601-.282.487-.265.717.017,1.787-.069.076-.13.16-.182.25-.519.902-.353,1.113,1.672,3.691.192.244.416.53.636.812-.007.046-.008.093-.008.141-.312.754-7.412,1.346-7.717,2.093-.135-.011-.282-.005-.439.031-.4.091-.747.347-.949.704-.093.16-.152.3-.192.437.892-.171,6.425.476,6.078.567-.376.1-.697.346-.89.683-.332.577-.357.919.086,1.57-.063.071-.118.149-.166.232-.019.033-.037.065-.055.096-.678-.334-.829-.293-1.146-.209-.373.1-.692.344-.886.679-.43.744-.422,1.107.555,2.143-.011.018-.022.036-.033.054-.37.641-.461.969.154,1.674-.067.075-.127.156-.177.244-.511.885-.511,1.139,1.364,2.887-.046.121-.092.242-.139.363-1.054-.6-1.17-.584-1.644-.458-.377.099-.699.345-.894.683-.492.855-.273,1.181,1.182,3.176-.008.071-.013.161-.018.263-.101.275-.207.556-.308.829-.136.005-.279.01-.426.015-.42.015-.765.027-1.053.046-.105-.062-.226-.134-.35-.207l-.694-.409c-1.423-.829-2.095-.04-2.32.337-.432.748-.486,1.027.734,2.43-.141.11-.273.261-.394.464-.54.94-.329,1.208,1.694,3.772.09.114.186.236.284.36-.005.101-.005.225,0,.38-.077.231-.153.459-.249.702-.121.104-.463.38-.81.662-.122.098-.23.187-.328.266-.121-.006-.255.003-.397.035-.399.089-.744.342-.947.697-.165.286-.256.499-.235.761-.812-.43-.951-.394-1.335-.29-.375.1-.694.346-.887.682-.56.975-.296,1.261,1.768,3.489.229.247.5.54.762.824,0,.15.01.358.024.603-.04.14-.078.278-.117.417-.155.117-.294.256-.393.427-.261.454-.376.725-.138,1.215-.213-.438-.757,1.552-.344,2.369.592,1.171,1.849,2.078,3.113,2.368-.806.283-1.645.586-2.234,1.205-.589.619-.833,1.656-.31,2.331.656.846-2.801.191-2.129,1.025.89,1.103-.283,2.664-1.423,3.508-1.139.843-2.498,2.106-1.935,3.406.373.862,1.404,1.17,2.256,1.565.852.396-1.035.991-1.418,1.849-.479,1.072-2.589,1.274-2.256,2.399.123.415.566.632.965.801,1.569.665,3.137,1.33,4.706,1.995-.864.073-1.802.18-2.42.786-.619.607-.578,1.891.252,2.141.245.074.519.048.748.163.722.363.197,1.534-.551,1.84-.748.306-1.679.303-2.208.914-.518.598-.381,1.56.093,2.193.475.633,1.203,1.016,1.907,1.379-.853.933-1.985,1.607-3.212,1.913-.247,1.063.205,2.254,1.096,2.885.237.168.512.311.651.566.245.45-.083,1.039-.546,1.259-.463.22-1.002.175-1.512.125.281.87.562,1.74.844,2.61-.595.171-1.169-.293-1.607-.73-.438-.436-.984-.918-1.589-.79-.029.006-1.807,3.497-2.336,4.053-.018.019-.036.037-.053.057-.226.235-.457.468-.696.699-.381-.167-.542-.137-.875-.049-.375.099-.696.344-.89.681-.147.255-.194.398-.198.836-.264.126-.486.329-.634.586l-.221.372c-.058.045-.115.09-.173.134-.193-.041-.394-.047-.634.015-.379.097-.705.344-.901.683-.005.009-.037.073-.085.17-.191-.038-.387-.036-.618.022-.384.096-.714.345-.912.688-.006.01-.011.02-.017.029-.53-.25-.682-.209-1.008-.123-.343.092-.641.306-.837.6-.059.084-.301.421-.561.784-.303-.132-.579-.174-.946-.081-.381.097-.708.345-.904.686-.131.228-.204.419-.215.625-.073.025-.142.056-.209.091-.15.062-.465.178-.769.292-.063.023-.122.046-.179.067-.578-.35-.917-.53-1.429-.434-.265.004-.969-.013-1.497-.027-.735-.018-1.281-.035-1.698-.023-.284-.164-.711-.418-1.124-.662-1.758-1.041-1.79-1.064-2.403-.901-.377.099-.699.346-.893.684-.091.158-.161.296-.206.43-.695-.348-.845-.306-1.183-.218-.374.099-.693.343-.888.677-.028.048-.054.095-.078.14-.29-.095-.436-.055-.675.007-.375.099-.696.344-.89.681-.092.159-.162.298-.205.432-3.704-2.158-3.738-2.148-4.311-1.998-.376.1-.698.346-.892.683-.325.566-.29.757.255,2.374-1.54-.212-3.082-.402-4.629-.487-.017-.001-.035-.001-.053-.002l-.063-.134c.089-.265.186-.552.265-.787.649-1.917.702-2.073.357-2.674-.194-.338-.516-.584-.892-.683-.573-.151-.606-.161-4.311,1.998-.043-.134-.113-.273-.205-.432-.194-.336-.515-.581-.891-.681-.239-.062-.386-.103-.675-.007-.024-.046-.05-.092-.078-.14-.195-.334-.514-.578-.888-.677-.338-.088-.488-.13-1.183.218-.045-.133-.115-.272-.206-.43-.194-.338-.516-.585-.893-.684-.612-.163-.645-.14-2.403.901-.413.244-.84.498-1.124.662-.417-.012-.964.005-1.698.023-.528.014-1.231.031-1.496.027-.512-.095-.851.084-1.429.434-.057-.021-.116-.044-.179-.067-.304-.114-.619-.229-.769-.292-.067-.035-.137-.065-.209-.091-.011-.206-.084-.397-.215-.625-.196-.341-.523-.588-.904-.686-.368-.093-.644-.052-.946.081-.26-.362-.502-.7-.561-.784-.196-.294-.494-.508-.837-.6-.326-.086-.478-.127-1.008.123-.006-.009-.011-.019-.016-.028-.198-.343-.528-.592-.912-.688-.231-.057-.427-.06-.618-.022-.048-.097-.08-.161-.085-.17-.196-.339-.522-.586-.901-.683-.275-.071-.502-.064-.72-.003l-.308-.518c-.149-.256-.37-.46-.634-.586-.004-.439-.051-.582-.198-.836-.194-.336-.515-.581-.89-.681-.42-.111-.548-.144-1.217.215,0-.264-.066-.419-.199-.65-.196-.34-.522-.587-.901-.685-.062-.016-.122-.028-.18-.037.106.016-.897-1.441-1.02-1.536-.648-.5-1.501-.675-1.198-1.732.135-.471.481-.852.852-1.173.778-.674,1.715-1.164,2.712-1.42.346-.088.714-.156.989-.383.321-.264.452-.69.56-1.092.866-3.21,1.351-6.523,1.441-9.847-1.372-.369-2.677-.987-3.831-1.815-.424-.304-.868-.723-.83-1.243.023-.304-7.93,1.235-7.716,1.018,1.016-1.026,2.58-1.213,3.897-1.804,1.577-.707,2.849-2.066,3.45-3.686-1.52.01-3.04.019-4.561.029-.726.005-1.524-.016-2.068-.498-.521-.461-.657-1.232-.574-1.923.171-1.429,1.096-2.64,1.606-3.986.51-1.345.418-3.186-.865-3.838-.534-.271-1.22-.303-1.602-.764-.579-.699,0-1.762.697-2.342.698-.58,1.589-1.103,1.759-1.995.03-.159.03-.339-.072-.466-.129-.16-.364-.175-.569-.169-.658.019-1.676.169-2.26-.221-.298-.199-.859-.943-.782-1.306.241-1.14.238-1.324-.026-1.778-.287-.492-.638-.691-1.013-.719.241-.493.126-.764-.136-1.219-.128-.222-.311-.405-.528-.532.026-.416.041-.703.042-.915.262-.285.532-.577.761-.824,2.064-2.228,2.329-2.514,1.768-3.489-.193-.336-.512-.582-.887-.682-.384-.104-.524-.141-1.336.29.021-.262-.07-.474-.235-.761-.204-.355-.548-.608-.948-.697-.142-.032-.276-.04-.397-.035-.098-.08-.206-.168-.328-.266-.347-.282-.688-.558-.81-.662-.082-.08-.174-.15-.273-.208.025-.42.036-.683.026-.873.098-.124.194-.246.284-.36,2.023-2.564,2.234-2.832,1.694-3.772-.121-.203-.254-.355-.394-.464,1.221-1.403,1.167-1.682.734-2.43-.225-.377-.897-1.166-2.32-.337l-.694.409c-.124.073-.245.145-.35.207-.288-.019-.633-.031-1.053-.046-.257-.009-.512-.017-.718-.026-.004-.559-.011-.874-.033-1.081,1.456-1.996,1.674-2.321,1.182-3.176-.195-.338-.517-.585-.894-.683q-.601-.16-2.71,1.078c-.136.08-.273.16-.406.238,3.2-2.902,3.31-3.049,2.698-4.108-.051-.088-.11-.17-.177-.244.615-.705.524-1.033.154-1.674-.011-.019-.022-.037-.033-.054.977-1.036.985-1.399.555-2.143-.193-.335-.513-.579-.886-.679-.316-.084-.468-.125-1.145.209-.018-.031-.036-.064-.055-.096-.048-.083-.104-.161-.166-.232.443-.651.418-.993.086-1.57-.194-.337-.514-.583-.891-.683-.402-.106-.535-.142-1.528.4-.024-.188-.107-.368-.233-.585-.203-.357,7.593-2.419,7.192-2.51-.313-.071-.584-.029-.803.048-.321-.054-.725-.112-1.241-.185-.075-.01-.149-.021-.223-.032.718-1.334-4.903-1.033-4.966-1.456.22-.282.444-.568.637-.812,2.025-2.578,2.191-2.789,1.672-3.691-.052-.09-.114-.174-.182-.25.283-1.07.299-1.3.018-1.787-.154-.267-.389-.477-.667-.601.059-.306-.078-.566-.292-.938-.105-.179-.213-.322-.326-.433.291-.446.357-.917.023-1.495-.737-1.258-1.767-.662-3.073.093l-1.763,1.023c.088-.363.003-.606-.199-.954-.134-.232-.329-.42-.56-.548.017-.716-.008-.871-.141-1.115.035-.071.069-.14.101-.205,1.059-2.149,7.028-3.175,6.615-3.891-.197-.342-.525-.589-.907-.686-.022-.006-.043-.01-.064-.015-.014-.281-.053-.414-.146-.584,2.154-2.08,2.166-2.329,1.639-3.243-.197-.342-.525-.591-.908-.687-.599-.151-.914.037-1.67.49-.133.079-.268.161-.376.225-.565.093-1.342.296-2.456.587-.068.018-.138.036-.211.055.363-.646.504-1.002.487-1.307.115-.135.227-.266.327-.385,1.923-2.261,2.218-2.608,1.664-3.567-.737-1.26-1.829-.628-2.988.042l-.954.553c.055-.319-.036-.546-.219-.864-.135-.235-.332-.426-.566-.553.426-.646.319-.924.007-1.466-.15-.26-.376-.466-.644-.592-.005-.237-.011-.421-.019-.568.254-.278.515-.562.737-.803,2.018-2.191,2.327-2.528,1.76-3.505-.192-.331-.508-.574-.878-.675-.553-.151-.6-.164-3.238,1.367.029-.293-.052-.486-.213-.765-.151-.261-.379-.467-.649-.593-.023-.966-.05-1.033-.223-1.333-.197-.34-.523-.587-.904-.685-.35-.09-.622-.052-.888.057-.013-.013-.026-.026-.039-.039-.123-.125-.248-.252-.362-.368.103-.105.203-.208.297-.304,3.158-3.228,3.347-3.421,2.744-4.467-.193-.335-.511-.579-.884-.68-.466-.127-.572-.155-2.109.72.518-.408.996-.787,1.395-1.108,1.279-1.033,2.124-1.715,1.458-2.871-.74-1.251-1.887-.588-2.807-.056l-1.749,1.018c-.089.052-.177.103-.264.153-.09-.644-.121-.695-.242-.905-.197-.339-.522-.585-.902-.682-.55-.139-.917.04-1.37.312-.154-.334-.307-.667-.461-1,1.233-1.499,1.354-1.832.893-2.628-.122-.211-.295-.387-.5-.513.019-.539-.025-.695-.188-.982-.155-.272-.393-.485-.676-.61-.013-.329-.024-.556-.04-.724.338-.408.706-.847,1.009-1.208,2.177-2.594,2.355-2.805,1.814-3.741-.19-.33-.503-.572-.87-.674.093-.333-.046-.597-.273-.991-.193-.335-.512-.579-.885-.68q-.599-.16-3.305,1.414c-.044.025-.087.05-.131.076-.035-.241-.082-.327-.178-.493-.18-.309-.466-.541-.804-.653-.084-.706-.114-.772-.249-1.004-.115-.198-.274-.364-.462-.487.16-.726.129-.936-.102-1.337-.196-.34-.522-.587-.902-.683-.336-.085-.601-.055-.859.044-.042-.045-.083-.089-.122-.132.102-.11.2-.217.294-.318,2.766-2.993,2.874-3.109,2.303-4.098-.194-.336-.514-.581-.89-.681-.608-.16-.673-.122-2.35.866-.218.129-.431.255-.605.357-.311-.034-.701-.065-1.184-.102-.194-.417-.39-.838-.584-1.254,1.321-1.394,1.396-1.717.927-2.534-.145-.252-.361-.454-.618-.581-.005-.787-.036-.896-.21-1.195-.112-.192-.265-.355-.446-.477.021-.419-.024-.602-.189-.888-.047-.08-.1-.154-.159-.223.218-.795.224-1.056-.041-1.516-.005-.009-.01-.017-.015-.026,2.268-2.366,2.313-2.559,1.783-3.477-.121-.209-.291-.383-.492-.509.181-1.151.187-1.375.021-1.699,30.031-.068,145.301.013,163.645-.003,1.726.049,2.026.706,1.6,2.198-2.522-1.468-2.561-1.46-3.124-1.309Z" fill="#2a2e28" stroke-width="0"/>
</svg>