<?xml version="1.0" encoding="UTF-8"?>
<svg id="Layer_1" data-name="Layer 1" xmlns="http://www.w3.org/2000/svg" viewBox="0 0 512 512">
  <path d="m180.859,207.047c-8.324-22.796-7.859-48.058-2.823-71.798,5.036-23.74,14.435-46.296,23.783-68.692l-22.93-1.995c-3.495,12.383-6.989,24.766-10.484,37.149-7.045,24.964-14.16,50.76-10.882,76.491,4.11,32.259,26.319,60.112,55.787,73.866-14.499-11.845-26.029-27.434-32.451-45.021Z" fill="#4380af" stroke-width="0"/>
  <path d="m348.335,134.987c-13.874-.102-27.749-.204-41.623-.306-1.79-.013-3.669,0-5.236,1.035s-2.646,3.463-1.844,5.378c.85,2.029,3.116,2.349,5.012,2.404,13.642.395,27.285.791,40.927,1.186" fill="#ef9437" stroke-width="0"/>
  <path d="m355.857,149.558c-15.338.425-30.676.851-46.014,1.276-2.962.082-6.642.637-7.502,3.234-.641,1.938.867,4.034,2.839,4.951s4.277.946,6.488.956c12.769.056,25.538.112,38.308.168" fill="#ef9437" stroke-width="0"/>
  <path d="m355,163.438c-13.25-.245-26.501-.49-39.751-.736-2.633-.049-5.433-.066-7.682.977s-3.511,3.567-1.83,5.11c13.611,1.602,27.442,2.118,41.194,1.538" fill="#ef9437" stroke-width="0"/>
  <path d="m351.026,175.673c-14.319-.196-28.638-.392-42.956-.588-2.572-.035-5.619.108-6.977,1.709-1.179,1.389-.386,3.314,1.23,4.443s3.843,1.637,6.006,2.044c9.847,1.855,28.887,2.345,38.978,1.439" fill="#ef9437" stroke-width="0"/>
  <path d="m347.306,190.386c-7.895-.049-28.865-.097-36.761-.146-3.672-.023-7.554-.003-10.71,1.467s-5.094,4.945-3.025,7.321c1.828,2.098,5.594,2.333,8.837,2.36,7.854.066,34.833.158,42.687.224" fill="#ef9437" stroke-width="0"/>
  <path d="m339.42,207.574c-7.208-.145-29.815.184-37.022.039-3.219-.065-6.541-.122-9.552.478s-5.657,2.032-5.656,3.715c0,1.396,1.823,2.658,4.109,3.379s4.983.989,7.631,1.17c5.941.407,35.819,1.591,41.776,1.256" fill="#ef9437" stroke-width="0"/>
  <path d="m329.288,225.903c-6.914-.388-26.643-1.34-33.463-.246-1.957.314-3.963.711-5.593,1.736s-2.806,2.833-2.406,4.587c.321,1.405,1.584,2.516,3.019,3.139s3.039.835,4.616,1.04c5.464.709,22.432,1.417,27.895,2.126" fill="#ef9437" stroke-width="0"/>
  <path d="m153.143,122.693c66.646-.28,133.292-.559,199.938-.839-1.901,2.67-2.775,5.525-4.676,8.195-62.399.629-125.522,1.046-187.92,1.674-1.376-3.106-5.966-5.925-7.342-9.03Z" fill="#ef9437" stroke-width="0"/>
  <g>
    <path d="m292.66,80.907l22.11-1.696c4.084-.313,7.066,6.34,5.727,12.768-.015.072-.03.143-.045.214-.796,3.818-2.941,6.402-5.369,6.471-8.607.247-17.156-.643-25.75-.425-2.924.074-5.457-3.472-5.823-8.3-.183-2.417-.08-4.81.569-7.019,1.15-3.914,3.781-5.359,5.663-3.435.888.908,1.878,1.501,2.918,1.421Z" fill="#2a2e28" stroke-width="0"/>
    <path d="m297.358,107.517l18.337-.625c2.59-.088,4.413,4.223,3.474,8.241-.03.129-.06.258-.09.387-.541,2.342-1.892,3.868-3.399,3.88-6.024.049-12.129.561-18.148.607-1.396.011-2.677-1.331-3.275-3.43-.034-.118-.068-.236-.102-.353-1.169-3.973.545-8.617,3.202-8.708Z" fill="#2a2e28" stroke-width="0"/>
    <path d="m305.288,130.478h13.7c2.487,0,3.991,4.551,2.675,8.063-.013.035-.026.07-.039.105-.562,1.514-1.546,2.431-2.615,2.464-4.223.128-9.251.626-13.516.776-1.399.049-2.668-1.445-3.07-3.677-.061-.339-.119-.678-.177-1.017-.569-3.368.94-6.714,3.042-6.714Z" fill="#2a2e28" stroke-width="0"/>
    <path d="m316.825,152.518l5.066-.121c1.29-.031,2.35,1.644,2.428,3.788.014.395.036.788.055,1.181.111,2.311-.985,4.282-2.378,4.296-1.63.017-3.259.048-4.89.063-1.06.01-1.991-1.15-2.308-2.834-.073-.387-.147-.778-.223-1.17-.49-2.55.641-5.164,2.25-5.203Z" fill="#2a2e28" stroke-width="0"/>
    <path d="m321.075,170.3h2.166c1.109,0,1.75,2.093,1.101,3.59-.527,1.216-1.048,2.425-1.579,3.627-.222.502-.559.834-.931.905-.006.001-.012.002-.018.004-.694.135-1.33-.605-1.491-1.736-.167-1.172-.38-2.361-.566-3.551-.224-1.435.426-2.838,1.317-2.838Z" fill="#2a2e28" stroke-width="0"/>
    <path d="m320.949,185.324l1.073.123c.997.115,1.538,2.05.919,3.355-.353.745-.838,1.348-1.365,1.615-.375.19-.765.249-1.156.213-.962-.088-1.535-1.826-1.03-3.192.132-.357.262-.712.375-1.044.24-.708.696-1.127,1.184-1.071Z" fill="#2a2e28" stroke-width="0"/>
  </g>
  <g>
    <path d="m207.369,135.41c1.105-.023,2.241-.041,3.274.401s1.954,1.456,2.031,2.701c.081,1.312-.8,2.505-1.854,3.063s-2.254.619-3.417.669c-4.065.176-33.609,3.502-32.761-2.216.725-4.884,10.078-4.143,12.747-4.199,6.66-.14,13.32-.279,19.98-.419Z" fill="#ef9437" stroke-width="0"/>
    <path d="m205.703,150.945c.955.038,1.984.107,2.725.787s.911,2.215.081,2.749c-8.006,1.505-16.13,2.208-24.246,2.099-3.694-.05-7.556-.323-10.734-2.45-.844-.565-1.681-1.356-1.851-2.451-.546-3.591,13.33-1.559,15.557-1.47,6.156.246,12.312.491,18.468.737Z" fill="#ef9437" stroke-width="0"/>
    <path d="m194.681,162.167c1.692-.044,3.669.065,4.645,1.626,1.064,1.703.173,4.236-1.366,5.385s-3.482,1.289-5.325,1.393c-4.498.255-8.995.51-13.493.765-1.818.103-3.694.197-5.404-.509-5.168-2.135-3.326-7.838,1.24-8.249,6.484-.584,13.188-.241,19.702-.411Z" fill="#ef9437" stroke-width="0"/>
    <path d="m197.253,178.632c.82,1.713-.076,3.955-1.503,5.047s-3.219,1.328-4.933,1.532c-4.274.51-8.548,1.02-12.822,1.53-1.26.15-2.541.3-3.785.032-2.196-.472-4.72-3.425-3.048-6.035,1.238-1.932,3.417-.951,5.206-.884,6.897.258,13.994-.781,20.886-1.222Z" fill="#ef9437" stroke-width="0"/>
    <path d="m176.01,191.938l11.503-.426c1.067-.04,2.161-.075,3.173.308s1.943,1.276,2.135,2.462c.235,1.449-.712,2.877-1.887,3.516s-2.527.672-3.832.692c-2.165.034-4.331.069-6.496.103-.962.015-1.94.028-2.866-.268s-1.809-.95-2.206-1.94c-.457-1.139-.136-2.609.736-3.378s2.213-.762,3.08.015" fill="#ef9437" stroke-width="0"/>
    <path d="m188.947,206.175c.827.129,1.763.413,2.123,1.265.313.741.037,1.665-.477,2.245s-1.218.886-1.909,1.14c-1.658.609-3.375,1.013-5.111,1.202-1.423.155-3.073.059-3.969-1.2-3.909-5.493,7.767-4.897,9.342-4.652Z" fill="#ef9437" stroke-width="0"/>
  </g>
  <g>
    <path d="m216.77,84.155l-16.064-.364c-2.195-.05-3.748,3.555-3.013,6.998.367,1.72.739,3.469,1.081,5.052.452,2.091,1.65,3.507,2.984,3.471,6.461-.17,12.746-1.454,19.101-1.692,1.726-.065,3.059-2.483,3.049-5.356-.009-2.442-.256-4.851-1.062-6.955-1.118-2.918-3.019-3.865-4.111-2.252-.532.785-1.254,1.113-1.965,1.097Z" fill="#2a2e28" stroke-width="0"/>
    <path d="m209.973,105.988l-16.468.606c-1.351.05-2.25,2.338-1.741,4.421.416,1.706.841,3.364,1.249,5.153.294,1.289,1.06,2.089,1.887,2.02,4.836-.402,9.763-.275,14.547-.655.927-.074,1.658-1.266,1.807-2.79.17-1.738.443-3.292.654-4.947.255-1.997-.709-3.853-1.935-3.808Z" fill="#2a2e28" stroke-width="0"/>
    <path d="m206.367,123.408l-11.453,1.057c-1.962.181-3.073,3.824-2.003,6.566.325.832.643,1.666.932,2.505.473,1.373,1.342,2.222,2.293,2.169,3.252-.182,7.095-.065,10.401-.207,1.353-.058,2.429-1.879,2.478-4.131.026-1.2.029-2.388.047-3.58.038-2.494-1.199-4.517-2.695-4.379Z" fill="#2a2e28" stroke-width="0"/>
    <path d="m198.757,140.74l-5.363.393c-.978.072-1.712,1.556-1.534,3.158.223,2.01.17,4.027.484,6.047.197,1.271.902,2.139,1.689,2.058,1.595-.164,3.187-.299,4.776-.458.841-.085,1.507-1.228,1.529-2.63.03-1.899.088-3.875.122-5.776.028-1.579-.756-2.861-1.704-2.791Z" fill="#2a2e28" stroke-width="0"/>
    <path d="m195.374,159.913l-2.733.331c-.843.102-1.303,1.678-.834,2.85.953,2.387,1.894,4.779,2.863,7.179.181.448.473.754.796.802.411.062.822.214,1.231.161-.173-3.159-.059-6.433-.136-9.604-.025-1.022-.573-1.793-1.186-1.719Z" fill="#2a2e28" stroke-width="0"/>
    <path d="m195.689,177.748l-3.065.991c-.019,2.721,1.275,6.2,2.518,6.978,1,.626,1.952-.11,2.708-1.205-.367-1.699-1.797-5.075-2.161-6.764Z" fill="#2a2e28" stroke-width="0"/>
  </g>
  <path d="m253.047,267.441c1.2,49.926,2.4,89.539,3.601,139.465,4.344-51.066,7.582-90.408,11.926-141.474-3.943-.28-11.583,2.29-15.527,2.01Z" fill="#4380af" stroke-width="0"/>
  <path d="m243.825,428.853c9.394,1.778,18.433,6.483,26.095,13.583,1.458,1.351,2.894,2.807,4.585,3.613,1.953.932,4.095.927,6.182.911,9.517-.075,19.035-.149,28.552-.224,1.288-5.899-1.961-12.299-5.964-15.74s-8.919-4.624-13.683-5.705c-7.524-1.707-15.105-3.361-22.749-3.296s-16.442,1.933-23.019,6.859Z" fill="#4380af" stroke-width="0"/>
  <path d="m254.624,434.948c.469,0,.913.01,1.376.013.463-.003.907-.013,1.376-.013h-2.752Z" fill="#fff" stroke-width="0"/>
  <path d="m358.279,181.812c1.359-6.714,1.623-21.902-.807-40.626.406-.819.241-1.47-.284-2.112-3.34-24.069-11.11-53.529-26.583-78.326h-157.076c-28.129,45.082-30.807,105.585-27.673,121.064,8.935,44.135,33.697,71.192,62.506,82.249,21.912,8.409,36.765,28.949,38.793,52.331,2.646,30.504,2.037,59.641-3.769,92.677-1.037,5.902-5.676,10.488-11.572,11.555-12.225,2.213-48.257,9.152-71.172,30.628h187.692c-22.916-21.477-55.926-28.416-68.151-30.628-5.961-1.079-10.565-5.797-11.607-11.764-4.672-26.752-3.615-65.49-1.675-95.3,1.44-22.127,14.571-42.011,34.67-51.379,26.295-12.257,48.379-39.224,56.709-80.368Zm-125.629,73.086c.16.131.322.306.457.537-.121-.206-.276-.387-.457-.537Zm13.8,15.663l1.936.898.335.425c2.084,2.644,4.415,4.105,6.776,4.414.004.1.009.201.019.3.095,1.016.419,1.637.753,1.462l6.986-3.835-7.088,8.09c-.32.365-.498,1.419-.41,2.425.087,1.002.409,1.626.741,1.449l6.38-3.434c-.007.098-.014.191-.021.289l-3.656,5.812c-.286.455-.426,1.461-.33,2.371.095.904.396,1.442.708,1.282l2.688-1.42c-.02.276-.041.563-.061.842l-3.631,5.048c-.291.405-.441,1.379-.352,2.276.089.894.39,1.427.701,1.276l2.77-1.436c-.005.075-.01.147-.016.222l-5.039,6.166c-.293.36-.449,1.298-.362,2.179.087.877.386,1.422.696,1.26l4.184-2.13c-.025.364-.05.724-.075,1.09l-2.18,3.782c-.255.443-.368,1.332-.271,2.117.097.781.376,1.233.665,1.096l1.357-.679c-.061.902-.121,1.812-.182,2.724l-.991,1.414c-.27.385-.404,1.257-.318,2.049.086.79.367,1.259.66,1.121l.36-.177c-.006.092-.012.185-.018.277l-3.528,4.877c-.263.365-.391,1.202-.301,1.965.089.76.368,1.212.655,1.082l2.751-1.328c-.046.735-.093,1.468-.139,2.206l-1.107,1.73c-.247.386-.36,1.19-.269,1.906.091.713.357,1.13.634,1.005l.468-.222c-.03.494-.061.983-.091,1.478l-2.182,2.782c-.259.33-.388,1.115-.304,1.836.084.719.354,1.155.634,1.025l1.557-.727c-.152,2.558-.3,5.115-.445,7.675l-1.492,2.233c-.233.348-.337,1.073-.248,1.719.089.644.345,1.018.606.906l.887-.401c-.042.775-.085,1.547-.126,2.32l-.761.973c-.242.31-.361,1.02-.28,1.667.081.644.336,1.03.601.917l.257-.114c-.022.418-.044.836-.065,1.253l-1.855,2.4c-.235.305-.346.989-.263,1.611.083.619.333.985.594.878l1.305-.571c-.299,6.008-.566,11.913-.791,17.634l-.867.876c-.235.237-.357.85-.285,1.422.072.57.314.914.564.819l.476-.196c-.024.652-.048,1.301-.071,1.947l-.739.776c-.228.239-.344.832-.271,1.382.073.548.31.878.555.785l.358-.146c-.328,9.783-.512,18.917-.496,27.013h-.131c.112-43.227-3.52-108.127-9.509-146.439Zm30.149,159.069l-2.26,1.605c-.504.358-.731,1.124-.536,1.812s.753,1.096,1.323.973l5.93-1.322-2.742,1.686c-.532.327-.792,1.1-.61,1.812.182.712.751,1.138,1.335,1.015l9.889-2.205-1.797,1.551c-.462.398-.641,1.15-.43,1.805.211.655.758,1.032,1.305.912l7.313-1.631-3.575,1.847c-.561.29-.859,1.068-.691,1.805.168.736.747,1.194,1.346,1.062l11.426-2.547s0,0,0,0l-2.106,1.584c-.492.37-.705,1.132-.506,1.812,0,.003.003.005.004.008h-96.992s1.447-1.743,4.893-4.053l31.165-6.948c.138.779.733,1.296,1.36,1.152l19.172-4.275h2.203l-1.416.905c-.525.336-.776,1.107-.591,1.812.186.705.754,1.128,1.332,1.004l14.258-3.179Zm-12.703-155.805l-1.581.048c.542-.479,1.075-1.016,1.592-1.633-.041.339-.061.705-.048,1.08.006.179.019.348.037.505Zm-8.717-17.826c-6.906,1.347-13.573,1.589-19.958.925l1.611-.938c-.29-.497-.561-.735-1.126-.896l.017-.059c-.192-.056-.393-.08-.604-.068-.381-.065-.857-.125-1.468-.203-.519-.065-1.354-.17-1.665-.223-.002,0-.005-.002-.008-.002-.333-.104-.636-.109-.896-.068-.355-.087-.791-.184-1.334-.303-.54-.12-1.061-.232-1.304-.295-.073-.028-.149-.051-.227-.07-.163-.04-.317-.058-.462-.06-.103-.074-.215-.155-.338-.244-.372-.268-.735-.528-.882-.64-.237-.203-.521-.351-.83-.426-.536-.13-.974-.023-1.318.134-.28-.056-.605-.115-.984-.185-.541-.1-1.078-.196-1.328-.251-.053-.018-.106-.034-.162-.047-.13-.032-.254-.05-.372-.057,1.137-1.407,1.409-2.021.798-3.072-1.009-1.73-2.577-.822-3.962-.021l-2.651,1.539c-.479.279-.936.544-1.37.796-.372-.166-.744-.334-1.113-.506.005-1.344-.024-1.499-.28-1.944-.271-.47-.722-.811-1.248-.943-.831-.206-1.318.09-2.131.582-.045.027-.089.054-.132.08-.156.012-.325.03-.502.05-.014-.008-.028-.016-.043-.023.371-.93.336-1.313-.031-1.954-.268-.466-.712-.806-1.231-.941-.234-.061-.438-.082-.643-.067-.023-.052-.049-.097-.083-.157-.267-.473-.716-.818-1.242-.954-.592-.153-1.01-.051-1.514.212.046-.233.027-.458-.049-.699,1.614-1.958,1.905-2.507,1.252-3.648-.27-.468-.72-.808-1.243-.941-.645-.164-1.062-.046-1.745.338-.062-.101-.104-.167-.113-.181-.267-.468-.711-.81-1.232-.947-.423-.111-.638-.166-1.233.095-.028-.052-.059-.106-.09-.162-.067-.116-.146-.225-.233-.324.539-.792.439-1.254.005-2.008-.267-.462-.708-.799-1.223-.935-.86-.227-1.045-.114-3.33,1.251-.371.222-.73.438-.992.591-.286.01-.617.034-.994.066-.517-.462-1.029-.93-1.536-1.404.653-1.034.719-1.546.245-2.37-.268-.468-.716-.809-1.238-.943-.061-.016-.119-.029-.176-.04-.03-.234-.117-.441-.263-.694-.27-.469-.719-.811-1.243-.944-.478-.122-.808-.106-1.275.096-.335-.55-.929-.918-1.57-.968-.074-.005-.16-.008-.254-.003-.062-.068-.124-.136-.185-.205.765-1.112.86-1.645.353-2.518-.27-.467-.719-.806-1.241-.939-.502-.127-.825-.11-1.334.126.626-.883.563-1.357.102-2.153-.271-.465-.721-.804-1.242-.936-.01-.002-.02-.005-.028-.007-.028-.249-.122-.484-.281-.761-.166-.29-.4-.53-.679-.704-.031-.166-.095-.335-.187-.521,1.155-1.148,1.161-1.695.587-2.685-.266-.466-.709-.807-1.228-.944-.22-.059-.39-.103-.578-.092.579-.819.558-1.285.171-2.006.417-.601.55-1.276.076-2.096-.27-.47-.723-.814-1.248-.947-.327-.083-.587-.106-.882-.039-.271-.428-.694-.739-1.186-.868-.535-.14-.739-.194-2.005.486-.032-.06-.066-.122-.104-.185-.171-.296-.414-.541-.702-.714.195-.512.035-.896-.3-1.475-.193-.335-.478-.605-.816-.78.032-.167.035-.323.011-.477,2.218-1.919,2.415-2.441,1.69-3.698-.269-.463-.715-.801-1.233-.935-.625-.162-.815-.208-2.125.528.158-.457.136-.971-.203-1.558-.228-.392-.586-.696-1.004-.861-.004-.034-.009-.066-.014-.097.072-.06.142-.117.208-.173,1.165-.978,2.369-1.989,1.494-3.504-.269-.46-.712-.796-1.228-.93-.632-.164-.811-.209-2.532.771-.084-.109-.18-.208-.283-.297.105-.44-.009-.823-.295-1.315-.172-.298-.417-.544-.708-.719.572-.425,1.101-.819,1.554-1.163,1.748-1.326,3.011-2.283,2.08-3.885-.267-.464-.712-.803-1.229-.939-.018-.005-.035-.009-.053-.014-.029-.062-.062-.124-.1-.188-.192-.338-.479-.61-.82-.786.071-.403-.004-.833-.281-1.313-.113-.193-.258-.365-.425-.509.404-.764.341-1.194-.05-1.869-.053-.092-.111-.179-.177-.26.627-.737.854-1.469.309-2.414-.227-.394-.582-.699-1.002-.865-.06-.144-.137-.293-.231-.456-.022-.04-.047-.078-.071-.116.118-.432.064-.905-.249-1.445-.269-.462-.716-.801-1.234-.935-.407-.104-.635-.165-1.187.055.662-.732.966-1.5.392-2.491-.269-.463-.714-.802-1.232-.937-.024-.006-.049-.013-.071-.019.389-.581.506-1.239.042-2.049-.268-.463-.712-.801-1.229-.936-.204-.053-.385-.087-.545-.09,1.764-1.451,2.913-2.425,2.01-3.986-.269-.463-.715-.801-1.233-.935-.549-.143-.78-.186-1.911.421-.017-.315-.044-.633-.059-.948,1.253-.95,2.459-1.869,3.386-2.601,1.917-1.511,3.184-2.509,2.245-4.128-.169-.294-.409-.538-.694-.711.145-.465.083-.952-.244-1.518-.269-.463-.715-.802-1.232-.936-.223-.058-.391-.106-.604-.086-.028-.059-.061-.119-.095-.18-.268-.465-.716-.807-1.234-.942-.343-.089-.56-.146-.971-.02.165-.135.322-.264.47-.386,1.58-1.305,2.725-2.25,1.87-3.779.959-1.135,1.012-1.686.473-2.615-.045-.077-.094-.151-.147-.221.069-.29.061-.597-.05-.929,1.761-1.309,2.938-2.328,2.033-3.892-.268-.464-.711-.802-1.229-.938-.292-.075-.489-.128-.83-.04.059-.047.116-.094.173-.141,1.84-1.497,3.055-2.486,2.137-4.072-.225-.39-.575-.691-.989-.858.291-.233.567-.455.821-.662,1.714-1.396,2.953-2.405,2.039-3.986-.268-.461-.713-.799-1.229-.933-.565-.147-.79-.205-2.499.731.228-.508.205-1.048-.171-1.698-.185-.32-.46-.574-.78-.75.086-.464.165-.933.254-1.395,1.582-1.726,1.873-2.286,1.429-3.211.451-.371.87-.718,1.236-1.026,1.594-1.34,2.746-2.308,1.862-3.847-.01-.017-.02-.033-.03-.049.208-.508.085-.952-.267-1.562-.015-.025-.029-.05-.045-.075.125-.286.175-.587.127-.911.531-.388,1.026-.753,1.459-1.078,1.738-1.307,3.111-2.339,2.158-3.994-.269-.463-.716-.802-1.234-.936-.672-.173-.866-.219-3.008,1.016.044-.159.09-.314.135-.473.743-.765,1.136-1.514.706-2.474.368-1.259.743-2.505,1.125-3.731.714-.683,1.303-1.412,1.11-2.325.062-.045.122-.089.182-.132,1.912-1.39,3.294-2.394,2.33-4.062-.136-.236-.317-.441-.532-.603.586-.457,1.181-.918,1.691-1.314,1.099-.852,2.177-1.687,2.973-2.324,1.359-1.088,2.541-2.035,1.851-3.484.886-.849,1.455-1.736.772-2.917-.269-.463-.714-.801-1.232-.935-.481-.124-.708-.184-1.615.27,1.324-1.048,2.229-1.914,1.824-3.115.562-.402,1.091-.784,1.571-1.135,2.816-2.057,4.103-2.996,3.114-4.708-.009-.015-.018-.029-.026-.043.456-.639.572-1.317.095-2.146-.27-.466-.719-.806-1.239-.94-.122-.031-.228-.058-.329-.076.595-.449,1.144-.867,1.615-1.23,1.856-1.433,3.083-2.379,2.16-3.976-.268-.464-.714-.804-1.232-.939-.334-.087-.557-.132-.98.005.062-.138.124-.277.184-.413.743-.781,1.216-1.334,1.475-1.767h137.255c.396.888.822,1.842,1.261,2.825-.076.09-.148.185-.208.289-.907,1.57.267,2.513,2.07,3.906.243.551.486,1.103.736,1.677-.241.167-.45.381-.599.64-.478.83-.361,1.507.095,2.146-.009.014-.018.029-.026.043-.988,1.712.298,2.651,3.114,4.708.275.201.569.413.872.632.434,1.063.872,2.154,1.312,3.267-.129.013-.254.043-.404.081-.519.134-.964.472-1.232.935-.683,1.182-.113,2.069.772,2.917-.69,1.45.491,2.396,1.851,3.484.69.552,1.594,1.255,2.538,1.987,1.595,4.509,3.148,9.306,4.576,14.351-.128.013-.253.045-.402.083-.519.134-.966.473-1.234.936-.953,1.654.42,2.687,2.158,3.994.311.233.661.492,1.026.76.13.517.257,1.038.384,1.559-.24.482-.313.874-.136,1.307-.011.016-.021.033-.03.049-.766,1.334,0,2.24,1.255,3.33.579,2.647,1.112,5.344,1.586,8.087-.842-.391-1.079-.335-1.51-.222-.516.134-.961.472-1.229.933-.914,1.582.325,2.59,2.039,3.986.254.207.53.429.821.662-.414.167-.765.468-.989.858-.918,1.586.297,2.575,2.137,4.072.057.046.114.093.173.141-.341-.088-.538-.035-.83.04-.518.135-.961.474-1.229.938-.904,1.564.272,2.583,2.033,3.892-.11.333-.119.64-.05.929-.054.07-.103.144-.147.221-.539.929-.486,1.48.473,2.615-.604,1.081-.2,1.871.642,2.701.023.601.035,1.206.051,1.809-.225.164-.417.372-.558.616-.034.061-.066.121-.095.18-.214-.021-.382.028-.604.086-.518.134-.964.473-1.232.936-.327.566-.389,1.053-.244,1.518-.285.173-.525.417-.694.711-.938,1.619.328,2.617,2.245,4.128.346.273.739.577,1.149.893-.027.788-.055,1.576-.096,2.367-.361.173-.667.451-.87.802-.634,1.096-.245,1.904.647,2.79-.049.63-.119,1.265-.177,1.898-.088.1-.167.208-.235.325-.45.787-.347,1.428.015,1.996-.002.02-.003.041-.006.061-.013.003-.025.007-.038.01-.519.135-.964.473-1.232.937-.574.992-.271,1.759.392,2.491-.552-.22-.779-.16-1.187-.055-.519.133-.966.472-1.234.935-.313.541-.367,1.014-.249,1.445-.024.038-.049.076-.071.116-.095.163-.172.312-.231.456-.42.166-.775.471-1.002.865-.545.945-.318,1.677.309,2.414-.065.082-.124.168-.177.26-.391.675-.454,1.105-.05,1.869-.167.144-.312.315-.425.509-.277.48-.353.91-.281,1.313-.341.176-.628.448-.82.786-.037.063-.07.126-.1.188-.018.005-.035.009-.053.014-.518.136-.963.475-1.229.939-.931,1.602.332,2.56,2.08,3.885.383.29.827.622,1.298.972-.06.185-.121.37-.182.555-.101.109-.195.224-.27.354-.285.491-.4.873-.295,1.312,0,.002-.001.003-.002.005-.103.088-.198.187-.281.295-1.722-.979-1.9-.934-2.532-.771-.516.134-.959.47-1.228.93-.875,1.516.329,2.527,1.494,3.504.066.056.136.114.208.173-.005.031-.01.063-.014.097-.418.166-.776.47-1.004.861-.339.587-.361,1.101-.203,1.558-1.31-.736-1.5-.69-2.125-.528-.519.134-.965.472-1.233.935-.725,1.257-.527,1.779,1.69,3.698-.024.154-.021.31.011.477-.339.175-.623.445-.816.78-.335.579-.495.963-.3,1.475-.288.173-.531.418-.702.714-.037.063-.071.125-.104.185-1.266-.68-1.47-.625-2.005-.486-.491.129-.915.44-1.186.868-.295-.067-.555-.045-.882.039-.525.133-.979.477-1.248.947-.474.82-.341,1.495.076,2.096-.387.722-.408,1.187.171,2.006-.188-.011-.358.034-.578.092-.519.137-.962.479-1.228.944-.574.99-.568,1.537.587,2.685-.092.186-.155.355-.187.521-.278.174-.513.415-.679.704-.159.277-.253.512-.281.761-.009.002-.019.004-.028.007-.521.132-.972.47-1.242.936-.462.796-.524,1.27.102,2.153-.509-.236-.832-.253-1.334-.126-.522.133-.972.472-1.241.939-.537.925-.407,1.461.489,2.717-.011.014-.022.027-.033.041-.211-.041-.399-.042-.543-.031-.642.05-1.235.418-1.57.968-.468-.202-.798-.218-1.275-.096-.524.134-.974.476-1.243.944-.146.252-.232.459-.263.694-.057.011-.115.024-.176.04-.522.134-.971.476-1.238.943-.549.954-.376,1.489.599,2.904-.318.322-.639.64-.962.956-.794-.078-1.425-.135-1.922-.153-.262-.153-.621-.369-.992-.591-2.285-1.365-2.47-1.478-3.33-1.251-.515.136-.956.473-1.223.935-.435.754-.534,1.215.005,2.008-.088.099-.166.208-.233.324-.031.055-.062.109-.09.162-.596-.261-.811-.206-1.233-.095-.521.137-.966.479-1.232.947-.009.014-.051.081-.113.181-.683-.385-1.101-.502-1.745-.338-.523.133-.974.473-1.243.941-.653,1.141-.362,1.691,1.252,3.648-.076.241-.095.466-.049.699-.504-.263-.922-.365-1.514-.212-.526.136-.976.48-1.242.954-.034.06-.06.105-.083.157-.204-.014-.408.007-.643.067-.52.136-.964.476-1.231.941-.371.648-.406,1.029-.021,1.983-.198-.023-.383-.042-.555-.056-.043-.026-.087-.053-.132-.08-.812-.492-1.3-.788-2.131-.582-.526.132-.978.473-1.248.943-.282.49-.289.611-.278,2.374-.114.119-.274.285-.448.464-.583-.338-1.303-.756-2.036-1.183l-2.651-1.539c-1.385-.801-2.953-1.709-3.962.021-.611,1.05-.339,1.665.798,3.072-.118.007-.242.025-.372.057-.056.013-.109.029-.162.047-.25.056-.787.152-1.328.251-.379.07-.704.129-.984.185-.345-.157-.782-.264-1.318-.134-.31.076-.593.223-.83.426-.146.112-.51.372-.882.64-.123.088-.235.169-.338.244-.145.001-.299.02-.462.06-.077.019-.153.042-.227.07-.243.063-.764.176-1.304.295-.543.12-.979.216-1.334.303-.26-.042-.562-.037-.896.068-.003,0-.006.001-.008.002-.312.053-1.146.158-1.665.223-.61.077-1.087.137-1.468.203-.211-.011-.411.013-.604.068l.017.059c-.565.161-.836.399-1.126.896l1.661.967-.154.263c-5.077.236-10.388-.137-15.925-1.217Zm51.985-12.399c-.009-.012-.015-.022-.025-.034.013.008.026.015.039.023-.005.004-.01.007-.014.011Zm-33.842,11.834c.135-.231.297-.405.457-.537-.181.149-.336.331-.457.537Z" fill="#2a2e28" stroke-width="0"/>
</svg>