<?xml version="1.0" encoding="UTF-8"?>
<svg id="Layer_1" data-name="Layer 1" xmlns="http://www.w3.org/2000/svg" viewBox="0 0 512 512">
  <defs>
    <style>
      .cls-1 {
        fill: #4380af;
      }

      .cls-1, .cls-2, .cls-3 {
        stroke-width: 0px;
      }

      .cls-2 {
        fill: #2a2e28;
      }

      .cls-3 {
        fill: #ef9437;
      }
    </style>
  </defs>
  <path class="cls-1" d="m237.05,412.5c6.74-.84,13.78.99,19.26,5,5.48,4.01,9.35,10.17,10.59,16.85,17.2-.47,34.83-.55,52.03-1.02,2.64-4.73,1.21-11.47-2.14-15.73-3.35-4.26-8.34-6.9-13.37-8.91-21.45-8.59-45.69-6.49-66.37,3.82Z"/>
  <path class="cls-1" d="m259.47,272.08c-58.87-67.48-50.08-196.56-50.08-196.56h-36.87l43.71,180.48,31.89,21.84,11.35-5.76Z"/>
  <path class="cls-3" d="m324.03,145.08c-14.64-.1-29.29-.2-43.93-.3-1.89-.01-3.87,0-5.53,1.01-1.65,1.01-2.79,3.38-1.95,5.25.9,1.98,3.29,2.29,5.29,2.35,14.4.39,28.8.77,43.2,1.16"/>
  <path class="cls-3" d="m318.81,159.31c-12.39.42-24.77.83-37.16,1.25-2.39.08-5.36.62-6.06,3.16-.52,1.89.7,3.94,2.29,4.84s3.45.92,5.24.93c10.31.05,20.62.11,30.93.16"/>
  <path class="cls-3" d="m312.1,172.87c-8.89-.24-17.77-.48-26.66-.72-1.77-.05-3.64-.06-5.15.95s-2.35,3.48-1.23,4.99c9.13,1.56,18.4,2.07,27.63,1.5"/>
  <path class="cls-3" d="m321.08,184.82l-40.36-.57c-2.42-.03-5.28.11-6.56,1.67-1.11,1.36-.36,3.24,1.16,4.34s3.61,1.6,5.64,2c9.25,1.81,18.95,2.29,28.43,1.41"/>
  <path class="cls-3" d="m310.96,199.19l-26.24-.14c-4.07-.02-8.37,0-11.86,1.43s-5.64,4.83-3.35,7.15c2.02,2.05,6.2,2.28,9.79,2.31,8.7.06,24.1.15,32.8.22"/>
  <path class="cls-3" d="m301.42,215.65c-7.98-.14-17.73.18-25.71.04-3.57-.06-7.25-.12-10.58.47s-6.27,1.98-6.27,3.63c0,1.36,2.02,2.6,4.55,3.3s5.52.97,8.45,1.14c6.58.4,24.38,1.55,30.98,1.23"/>
  <path class="cls-3" d="m305.49,233.56c-7.66-.38-29.51-1.31-37.07-.24-2.17.31-4.39.69-6.19,1.7s-3.11,2.77-2.66,4.48c.36,1.37,1.76,2.46,3.34,3.07s3.37.82,5.11,1.02c6.05.69,24.85,1.38,30.9,2.08"/>
  <path class="cls-3" d="m180.12,131.18c48.91-.31,97.82-.62,146.73-.93-1.39,2.96-2.04,6.12-3.43,9.08-45.79.7-92.12,1.16-137.91,1.85-1.01-3.44-4.38-6.56-5.39-10Z"/>
  <g>
    <path class="cls-2" d="m288.22,94.57l19.13-1.47c3.53-.27,6.11,5.49,4.95,11.05-.01.06-.03.12-.04.19-.69,3.3-2.54,5.54-4.65,5.6-7.45.21-14.84-.56-22.28-.37-2.53.06-4.72-3-5.04-7.18-.16-2.09-.07-4.16.49-6.07.99-3.39,3.27-4.64,4.9-2.97.77.79,1.62,1.3,2.52,1.23Z"/>
    <path class="cls-2" d="m285.93,117.6l15.87-.54c2.24-.08,3.82,3.65,3.01,7.13-.03.11-.05.22-.08.34-.47,2.03-1.64,3.35-2.94,3.36-5.21.04-10.49.49-15.7.53-1.21,0-2.32-1.15-2.83-2.97-.03-.1-.06-.2-.09-.31-1.01-3.44.47-7.46,2.77-7.53Z"/>
    <path class="cls-2" d="m284.88,137.46h11.85c2.15,0,3.45,3.94,2.31,6.98-.01.03-.02.06-.03.09-.49,1.31-1.34,2.1-2.26,2.13-3.65.11-8,.54-11.69.67-1.21.04-2.31-1.25-2.66-3.18-.05-.29-.1-.59-.15-.88-.49-2.91.81-5.81,2.63-5.81Z"/>
    <path class="cls-2" d="m285.27,156.53l4.38-.11c1.12-.03,2.03,1.42,2.1,3.28.01.34.03.68.05,1.02.1,2-.85,3.7-2.06,3.72-1.41.01-2.82.04-4.23.05-.92,0-1.72-.99-2-2.45-.06-.34-.13-.67-.19-1.01-.42-2.21.55-4.47,1.95-4.5Z"/>
    <path class="cls-2" d="m284.88,171.92h1.87c.96,0,1.51,1.81.95,3.11-.46,1.05-.91,2.1-1.37,3.14-.19.43-.48.72-.81.78,0,0-.01,0-.02,0-.6.12-1.15-.52-1.29-1.5-.14-1.01-.33-2.04-.49-3.07-.19-1.24.37-2.46,1.14-2.46Z"/>
    <path class="cls-2" d="m284.13,184.92l.93.11c.86.1,1.33,1.77.8,2.9-.31.64-.72,1.17-1.18,1.4-.32.16-.66.22-1,.18-.83-.08-1.33-1.58-.89-2.76.11-.31.23-.62.32-.9.21-.61.6-.98,1.02-.93Z"/>
  </g>
  <g>
    <path class="cls-3" d="m232.14,145.26c.87-.02,1.76-.03,2.58.32s1.54,1.15,1.6,2.13c.06,1.03-.63,1.97-1.46,2.41s-1.77.49-2.69.53c-3.2.14-26.46,2.76-25.79-1.74.57-3.85,7.94-3.26,10.04-3.31,5.24-.11,10.49-.22,15.73-.33Z"/>
    <path class="cls-3" d="m237.87,157.49c.75.03,1.56.08,2.15.62s.72,1.74.06,2.16c-6.3,1.19-12.7,1.74-19.09,1.65-2.91-.04-5.95-.25-8.45-1.93-.66-.44-1.32-1.07-1.46-1.93-.43-2.83,10.5-1.23,12.25-1.16,4.85.19,9.69.39,14.54.58Z"/>
    <path class="cls-3" d="m237.7,166.33c1.33-.03,2.89.05,3.66,1.28.84,1.34.14,3.33-1.08,4.24s-2.74,1.01-4.19,1.1c-3.54.2-7.08.4-10.62.6-1.43.08-2.91.15-4.25-.4-4.07-1.68-2.62-6.17.98-6.5,5.11-.46,10.38-.19,15.51-.32Z"/>
    <path class="cls-3" d="m243.55,179.29c.65,1.35-.06,3.11-1.18,3.97s-2.53,1.05-3.88,1.21c-3.37.4-6.73.8-10.1,1.2-.99.12-2,.24-2.98.03-1.73-.37-3.72-2.7-2.4-4.75.97-1.52,2.69-.75,4.1-.7,5.43.2,11.02-.62,16.44-.96Z"/>
    <path class="cls-3" d="m230.88,189.77l9.06-.34c.84-.03,1.7-.06,2.5.24s1.53,1.01,1.68,1.94c.19,1.14-.56,2.27-1.49,2.77s-1.99.53-3.02.55c-1.7.03-3.41.05-5.11.08-.76.01-1.53.02-2.26-.21s-1.42-.75-1.74-1.53c-.36-.9-.11-2.05.58-2.66s1.74-.6,2.42.01"/>
    <path class="cls-3" d="m242.89,200.98c.65.1,1.39.33,1.67,1,.25.58.03,1.31-.38,1.77s-.96.7-1.5.9c-1.31.48-2.66.8-4.02.95-1.12.12-2.42.05-3.13-.94-3.08-4.32,6.12-3.86,7.36-3.66Z"/>
  </g>
  <g>
    <path class="cls-2" d="m217.06,93.81l-10.22-.23c-1.4-.03-2.38,2.26-1.92,4.45.23,1.09.47,2.21.69,3.21.29,1.33,1.05,2.23,1.9,2.21,4.11-.11,8.11-.92,12.15-1.08,1.1-.04,1.95-1.58,1.94-3.41,0-1.55-.16-3.09-.68-4.42-.71-1.86-1.92-2.46-2.61-1.43-.34.5-.8.71-1.25.7Z"/>
    <path class="cls-2" d="m221.07,106.1l-10.47.39c-.86.03-1.43,1.49-1.11,2.81.26,1.08.53,2.14.79,3.28.19.82.67,1.33,1.2,1.28,3.08-.26,6.21-.17,9.25-.42.59-.05,1.05-.81,1.15-1.77.11-1.1.28-2.09.42-3.15.16-1.27-.45-2.45-1.23-2.42Z"/>
    <path class="cls-2" d="m222.24,119.91l-7.28.67c-1.25.12-1.95,2.43-1.27,4.18.21.53.41,1.06.59,1.59.3.87.85,1.41,1.46,1.38,2.07-.12,4.51-.04,6.61-.13.86-.04,1.54-1.2,1.58-2.63.02-.76.02-1.52.03-2.28.02-1.59-.76-2.87-1.71-2.78Z"/>
    <path class="cls-2" d="m223.9,135.2l-3.41.25c-.62.05-1.09.99-.98,2.01.14,1.28.11,2.56.31,3.85.13.81.57,1.36,1.07,1.31,1.01-.1,2.03-.19,3.04-.29.54-.05.96-.78.97-1.67.02-1.21.06-2.46.08-3.67.02-1-.48-1.82-1.08-1.77Z"/>
    <path class="cls-2" d="m225.28,149.24l-1.74.21c-.54.06-.83,1.07-.53,1.81.61,1.52,1.2,3.04,1.82,4.57.12.28.3.48.51.51.26.04.52.14.78.1-.11-2.01-.04-4.09-.09-6.11-.02-.65-.36-1.14-.75-1.09Z"/>
    <path class="cls-2" d="m227.47,162.35l-1.95.63c-.01,1.73.81,3.94,1.6,4.44.64.4,1.24-.07,1.72-.77-.23-1.08-1.14-3.23-1.37-4.3Z"/>
  </g>
  <path class="cls-1" d="m252.95,381.06c-.06.25-.13.51-.19.76-.07,1.91-.16,3.84-.28,5.79-.13,2.16,1.48,3.99,3.51,3.99s3.64-1.83,3.51-3.99c-3.05-50.49,10.62-91.05,10.62-91.05,0,0-5.32,5.76-14.14,5.76-1.23,0-2.38-.12-3.46-.31.62,5.04,2.77,10.49,3.43,14.95,3.17,21.29,2.18,43.21-3.01,64.11Z"/>
  <path class="cls-2" d="m240.15,399.54s-37.56-2.42-80.35,39.93h192.4c-42.8-42.35-80.35-39.93-80.35-39.93h-.49c-2.16-43.62-4.42-82.24,10.37-104.07,38.38-56.67,54.7-154.98,62.74-222.95h-176.91c8.04,67.97,24.35,166.29,62.74,222.95,14.79,21.83,12.52,60.45,10.37,104.07h-.49Zm29.97-102.95h-.03s.04-.04.04-.04c0,0,0,.01-.01.04Zm-33.33-30.14l4.24-1.77c.71-.29,1.08-1.07.86-1.81s-.95-1.19-1.7-1.06l-4.33.76,4.11-1.78c.7-.3,1.06-1.08.84-1.81s-.95-1.17-1.7-1.05l-10.08,1.78c-.13-.15-.26-.3-.39-.46l1.97-.88c.69-.31,1.04-1.09.82-1.81-.18-.57-.66-.97-1.23-1.04l5.69-2.12c.73-.27,1.13-1.05.92-1.8-.2-.75-.95-1.22-1.71-1.08l-10.34,1.82,3.93-1.75c.69-.31,1.04-1.08.82-1.81-.22-.72-.95-1.16-1.69-1.04l-5.28.93s-.03-.07-.05-.11l3.87-1.62c.71-.29,1.08-1.07.86-1.81s-.95-1.19-1.7-1.06l-4.07.72,6.35-2.15c.74-.25,1.17-1.03.97-1.79-.19-.76-.94-1.24-1.71-1.1l-7.57,1.34s-.02-.06-.03-.09l3.83-1.64c.7-.3,1.06-1.08.85-1.81-.22-.73-.95-1.18-1.7-1.05l-4.4.77c-.02-.06-.04-.12-.06-.17l2.85-1.39c.67-.33,1-1.1.77-1.81s-.95-1.14-1.69-1.01l-3.27.58c-.04-.11-.08-.21-.12-.32l3.5-1.32c.72-.27,1.12-1.05.92-1.8-.2-.75-.95-1.22-1.71-1.08l-2.46.43,4.98-1.92c.72-.28,1.11-1.06.91-1.8-.21-.74-.95-1.21-1.71-1.07l-6.99,1.23c-.04-.12-.08-.24-.12-.35l3.56-1.29c.73-.27,1.14-1.05.94-1.8-.2-.75-.95-1.23-1.71-1.09l-1.82.32,4.47-1.84c.71-.29,1.08-1.07.87-1.81-.21-.74-.95-1.2-1.7-1.06l-6.68,1.18,6.9-2.25c.75-.24,1.18-1.03.99-1.79-.19-.76-.94-1.25-1.72-1.11l-7.69,1.36c-.06-.21-.13-.41-.19-.62l2.1-.76c.73-.26,1.14-1.04.94-1.8-.19-.7-.84-1.16-1.54-1.11l5.68-2.05c.73-.26,1.14-1.04.94-1.8-.2-.75-.95-1.23-1.71-1.09l-8.25,1.45,4.28-1.81c.7-.3,1.07-1.07.85-1.81-.22-.73-.95-1.19-1.7-1.05l-4.35.77,6.2-2.13c.74-.25,1.16-1.04.97-1.79-.2-.76-.94-1.24-1.71-1.1l-6.96,1.23c-.06-.21-.11-.43-.17-.64l1.31-.64c.67-.33,1-1.1.77-1.81-.13-.41-.43-.72-.79-.9l7.83-2.69c.74-.25,1.16-1.04.96-1.79-.2-.76-.94-1.24-1.71-1.1l-9.99,1.76,5.87-2.07c.74-.26,1.15-1.04.95-1.8-.2-.75-.95-1.23-1.71-1.1l-6.37,1.12c-.05-.18-.09-.37-.14-.55l2.22-.86c.72-.28,1.11-1.06.9-1.8-.17-.61-.69-1.03-1.29-1.09l6.45-2.23c.74-.26,1.16-1.04.96-1.79-.2-.76-.95-1.24-1.71-1.1l-5.69,1,6.61-2.2c.75-.25,1.17-1.03.98-1.79-.19-.76-.94-1.24-1.71-1.11l-10.39,1.83c-.04-.15-.07-.3-.11-.46l2.09-.96c.69-.31,1.03-1.09.81-1.81-.22-.72-.95-1.16-1.69-1.03l-1.2.21,7.26-2.31c.75-.24,1.19-1.02,1-1.79-.19-.77-.94-1.26-1.72-1.12l-8.2,1.45s-.01-.05-.02-.08l5.15-1.86c.73-.26,1.14-1.04.94-1.8-.2-.75-.94-1.23-1.71-1.09l-4.73.83,7.06-2.27c.75-.24,1.19-1.02,1-1.79-.19-.77-.94-1.25-1.72-1.12l-7.32,1.29,4.82-1.9c.72-.28,1.1-1.06.9-1.8-.21-.74-.95-1.21-1.7-1.07l-5.14.91c-.01-.06-.03-.12-.04-.19l4.11-1.58c.72-.28,1.11-1.06.91-1.8-.21-.74-.95-1.21-1.71-1.08l-3.04.54,4.42-1.83c.71-.29,1.08-1.07.87-1.81-.21-.73-.95-1.19-1.7-1.06l-5.37.95c-.01-.06-.02-.12-.04-.19l4.99-1.72c.74-.25,1.16-1.04.96-1.79-.2-.76-.94-1.24-1.71-1.1l-1.95.34,6.59-2.19c.75-.25,1.17-1.03.98-1.79-.19-.76-.94-1.25-1.71-1.11l-4.65.82,6.17-2.12c.74-.25,1.16-1.04.96-1.79-.2-.76-.94-1.24-1.71-1.1l-10.57,1.86,4.7-1.88c.71-.29,1.1-1.06.89-1.8-.21-.74-.95-1.2-1.7-1.07l-3.68.65,5.54-2.02c.73-.27,1.14-1.05.94-1.8-.2-.75-.95-1.23-1.71-1.09l-6.32,1.11,5.44-2c.73-.27,1.13-1.05.93-1.8-.2-.75-.95-1.22-1.71-1.09l-1.63.29,5.38-1.99c.73-.27,1.13-1.05.93-1.8-.2-.75-.95-1.22-1.71-1.09l-6.67,1.18,4.94-1.92c.72-.28,1.11-1.06.9-1.8-.21-.74-.95-1.21-1.71-1.07l-7.55,1.33c-.01-.08-.03-.16-.04-.24l3.76-1.46c.72-.28,1.11-1.06.9-1.8-.21-.74-.95-1.21-1.71-1.07l-.99.18,5.11-1.94c.72-.27,1.12-1.05.91-1.8-.21-.75-.95-1.22-1.71-1.08l-5.6.99,5.43-2c.73-.27,1.13-1.05.93-1.8-.2-.75-.95-1.22-1.71-1.09l-7.1,1.25c-.02-.15-.04-.31-.07-.47l2.58-1.02c.72-.28,1.1-1.06.89-1.8-.21-.74-.95-1.2-1.7-1.07l-2.27.4c-.02-.14-.04-.27-.06-.41l3.62-1.25c.74-.26,1.16-1.04.96-1.79-.2-.76-.95-1.24-1.71-1.1l-3.36.59c-.02-.13-.04-.27-.06-.4l2.88-1.14c.72-.28,1.1-1.06.89-1.8-.21-.74-.95-1.21-1.7-1.07l-.13.02,5.11-1.94c.72-.27,1.68-1.75.91-1.8-2.37-.17-4.38-.87-6.08-1.8.83-.07,1.66-.15,2.49-.22,1.05-.09,2.29-.3,2.76-1.25-2.46.03-4.92.06-7.38.09-.6-.46-1.14-.93-1.63-1.41,1.53-.09,3.06-.19,4.6-.28.84-.05,1.68-.1,2.48-.35.8-.25,1.56-.71,2.01-1.42l-10.87.11c-1.05-1.28-1.66-2.24-1.87-2.25h144.77c-3.88.85-7.66,2.14-11.24,3.86-.37.18-.8.45-.79.87.02.5.64.71,1.14.75,3.34.28,6.58-.99,9.72-2.14,1.18-.43,2.39-.85,3.62-1.17l.92,1.34c-2.22.68-4.44,1.36-6.7,2.12-.61.2-1.3.51-1.43,1.13-.11.53.27,1.05.76,1.29.48.24,1.04.25,1.58.27.28,0,.56.01.84.02-2,.82-3.67,1.62-3.61,1.97.14.82.92,1.36,1.74,1.22l4.48-.79-4.55,1.85c-.71.29-1.09,1.07-.88,1.8.21.74.94,1.19,1.7,1.06l4.25-.75c0,.06-.02.11-.02.17l-6.38,1.98c-.76.23-1.2,1.02-1.01,1.79.19.77.94,1.26,1.72,1.12l5.12-.9c-.04.32-.09.63-.13.95l-.52.22c-.7.3-1.07,1.08-.85,1.81.14.47.5.82.94.97,0,.04-.01.09-.02.13l-8.62,2.63c-.76.23-1.21,1.01-1.02,1.78.19.77.94,1.27,1.72,1.13l7.3-1.29c-.03.22-.07.44-.1.67l-1.91.73c-.72.28-1.12,1.06-.91,1.8.21.74.94,1.21,1.71,1.08l.58-.1c-.04.27-.08.54-.12.81l-1.17.46c-.72.28-1.1,1.06-.89,1.8.19.67.81,1.12,1.49,1.09l-6.31,2.16c-.74.25-1.16,1.04-.97,1.79s.94,1.24,1.71,1.1l4.96-.87s0,.03,0,.05l-6.09,2.05c-.74.25-1.17,1.03-.97,1.79.19.76.94,1.24,1.71,1.11l3.6-.63-7.1,2.28c-.75.24-1.19,1.02-1,1.79.19.77.95,1.25,1.72,1.12l6.75-1.19c-.01.09-.03.18-.04.26l-3.93,1.48c-.73.27-1.12,1.05-.92,1.8s.95,1.22,1.71,1.08l2.47-.44c-.05.27-.09.53-.14.8l-1.54.53c-.74.26-1.16,1.04-.96,1.79.17.66.75,1.1,1.4,1.12l-6.9,2.28c-.75.25-1.18,1.03-.98,1.79.19.76.94,1.25,1.71,1.11l5.91-1.04c-.05.26-.09.53-.14.79l-1.25.51c-.71.29-1.09,1.07-.88,1.8.19.67.82,1.09,1.5,1.06-.05.27-.1.54-.15.8l-1.64.59c-.73.26-1.14,1.04-.94,1.8.2.75.95,1.23,1.71,1.09l.2-.04-7.8,2.4c-.76.23-1.2,1.02-1.02,1.79.19.77.94,1.27,1.72,1.13l6.29-1.11c-.07.37-.15.74-.22,1.11-.66.3-1.03,1.03-.84,1.74.06.25.2.45.36.63-.05.27-.11.54-.16.81l-5.44,1.92c-.74.26-1.15,1.04-.95,1.8s.95,1.24,1.71,1.1l3.82-.67c-.03.16-.07.33-.1.49l-3.9,1.24c-.75.24-1.19,1.02-1,1.79.19.77.94,1.26,1.72,1.12l1.43-.25-8.13,2.46c-.76.23-1.21,1.01-1.02,1.78.18.77.94,1.27,1.72,1.13l7.48-1.32c-.02.11-.05.22-.07.33l-5.24,1.64c-.76.24-1.2,1.02-1.01,1.79.19.77.94,1.26,1.72,1.12l3.65-.64c-.03.14-.06.29-.1.43l-3.69,1.27c-.74.25-1.16,1.04-.96,1.79s.95,1.24,1.71,1.1l2.06-.36c-.02.09-.04.18-.06.27l-4.91,1.64c-.75.25-1.17,1.03-.98,1.79.19.76.95,1.25,1.71,1.11l3.22-.57s-.02.09-.03.13l-6.87,2.12c-.76.23-1.2,1.02-1.02,1.79.19.77.94,1.27,1.72,1.13l5.15-.91s0,0,0,0l-6.06,2.1c-.74.26-1.16,1.04-.96,1.79.2.76.95,1.24,1.71,1.1l4.24-.75s0,.03-.01.05l-6.08,2.06c-.74.25-1.17,1.03-.97,1.79.19.76.94,1.24,1.71,1.1l3.91-.69-8.1,2.46c-.76.23-1.21,1.01-1.02,1.78.18.77.94,1.27,1.72,1.13l6.59-1.16c-.12.43-.24.86-.36,1.29-.45.37-.67.98-.49,1.57,0,.03.03.05.04.07-.17.6-.34,1.21-.51,1.81l-3.39,1.19c-.74.26-1.15,1.04-.96,1.79.2.76.95,1.24,1.71,1.1l1.54-.27c-.02.08-.05.16-.07.24l-4.74,1.64c-.74.26-1.16,1.04-.96,1.79.2.76.94,1.24,1.71,1.1l2.78-.49s-.02.07-.03.11l-6.57,2.08c-.75.24-1.19,1.02-1,1.79.19.77.94,1.26,1.72,1.12l4.57-.81c-.02.06-.04.12-.06.18l-5.02,1.75c-.74.26-1.16,1.04-.96,1.79.2.76.95,1.24,1.71,1.1l2.95-.52c-.04.12-.08.24-.12.36l-4.23,1.44c-.74.25-1.17,1.03-.97,1.79.19.76.94,1.24,1.71,1.1l2.19-.39c-.07.22-.14.43-.22.65l-2.15.81c-.72.27-1.12,1.05-.92,1.8s.95,1.22,1.71,1.08l.1-.02c-.1.28-.2.57-.3.86l-1.38.47c-.74.25-1.16,1.03-.97,1.79.15.57.6.98,1.15,1.09-.07.2-.14.4-.21.6l-4.23,1.33c-.75.24-1.2,1.02-1.01,1.79.19.77.94,1.26,1.72,1.12l1.89-.33-5.95,2.08c-.74.26-1.15,1.04-.96,1.8.2.76.94,1.23,1.71,1.1l3.72-.66c-.14.35-.27.68-.41,1.03l-.47.16c-.74.25-1.16,1.04-.96,1.79.07.26.2.49.38.67-.21.52-.43,1.03-.64,1.55l-1.58.55c-.74.26-1.15,1.04-.96,1.79.14.54.56.94,1.07,1.07,0,0,0,0,0,0l-9.02,2.75c-.76.23-1.21,1.01-1.02,1.78.19.77.94,1.27,1.72,1.13l5.76-1.01s-.04.06-.06.09l-6.29,2.06c-.75.25-1.18,1.03-.99,1.79.19.76.94,1.25,1.72,1.11h.06s-8.11,2.45-8.11,2.45c-.76.23-1.21,1.01-1.02,1.78.18.77.94,1.27,1.72,1.13h.08s-8.68,2.54-8.68,2.54c-.76.22-1.22,1.01-1.04,1.78.04.19.13.35.23.5-2.37.5-4.82.77-7.31.77h0c-2.32,0-4.59-.25-6.81-.68l3.17-.56c.82-.14,1.36-.92,1.22-1.74-.14-.82-.92-1.36-1.74-1.22l-4.63.82,3.04-1.63c.65-.35.95-1.12.71-1.81-.24-.7-.95-1.11-1.68-.99l-12.44,2.2s-.02-.01-.03-.02Zm5.07,30.11s4.64,5.01,12.42,5.68c-.03.18-.02.37.02.56.18.77.94,1.27,1.72,1.13l12.56-2.21s0,0,0,0l-5.04,1.93c-.72.28-1.12,1.06-.91,1.8s.95,1.22,1.71,1.08l3.1-.55c-.04.16-.08.31-.12.47l-3.42,1.19c-.74.26-1.16,1.04-.96,1.79s.94,1.24,1.71,1.1l1.38-.24-6.74,2.22c-.75.25-1.18,1.03-.99,1.79.19.76.94,1.25,1.71,1.11l4.34-.77-5.58,2.02c-.73.27-1.14,1.05-.94,1.8s.95,1.22,1.71,1.09l4.99-.88c-.58,2.87-1.16,5.99-1.71,9.31l-.9.31c-.74.25-1.16,1.04-.96,1.79.16.63.72,1.07,1.35,1.12-.26,1.7-.52,3.45-.76,5.25l-.19.07c-.73.27-1.13,1.05-.92,1.8.11.41.4.73.75.92-.05.43-.11.87-.16,1.31l-.54.19c-.74.26-1.16,1.04-.96,1.79.15.57.6.98,1.15,1.09-.99,9.1-1.64,19.15-1.61,29.84l-.17.08c-.7.3-1.06,1.08-.84,1.81.15.5.56.86,1.04,1,0,.22,0,.45.01.67l-2.9,1.04c-.73.26-1.14,1.04-.94,1.8.2.75.95,1.23,1.71,1.09l2.21-.39c0,.2.02.41.02.61l-1.65.73c-.69.31-1.05,1.08-.83,1.81.22.72.95,1.17,1.69,1.04l.92-.16c.05,1.01.1,2.02.16,3.03.13,2.16-1.48,3.99-3.51,3.99s-3.64-1.83-3.51-3.99c3.05-50.49-10.62-91.05-10.62-91.05Zm24.5,112.32l-3.28,2.52c-.66.51-.98,1.68-.75,2.75.24,1.07.95,1.71,1.68,1.52l18.03-4.82-2.86,2.43c-.64.54-.92,1.7-.68,2.75s.95,1.66,1.67,1.47l7.5-2.01-3.47,2.56c-.67.5-1,1.67-.77,2.75.23,1.08.95,1.73,1.69,1.54l12.5-3.34-2.27,2.35c-.58.6-.81,1.74-.54,2.74.27.99.96,1.57,1.65,1.38l9.25-2.47-4.52,2.8c-.71.44-1.09,1.62-.87,2.74.21,1.12.94,1.81,1.7,1.61l14.45-3.86s0,0,0,0l-2.66,2.4c-.62.56-.89,1.72-.64,2.75,0,0,0,0,0,.01h-122.63s1.83-2.64,6.19-6.15l39.4-10.54c.17,1.18.93,1.97,1.72,1.75l28.52-7.63Z"/>
</svg>