<?xml version="1.0" encoding="UTF-8"?>
<svg id="Layer_1" data-name="Layer 1" xmlns="http://www.w3.org/2000/svg" viewBox="0 0 512 512">
  <defs>
    <style>
      .cls-1 {
        fill: #4380af;
      }

      .cls-1, .cls-2, .cls-3 {
        stroke-width: 0px;
      }

      .cls-2 {
        fill: #2a2e28;
      }

      .cls-3 {
        fill: #ef9437;
      }
    </style>
  </defs>
  <path class="cls-1" d="m207.25,397.24c-2.83,11.14,1.68,25.78,10.82,35.11,2.31,2.36,4.94,4.43,7.75,5.52,2.81,1.09,5.83,1.12,7.96-.4-6.29,6.59-15.15,9.76-24.86,8.37s-19.75-7.17-27.35-15.74c-3.69-4.16-7-9.53-6.85-14.67.15-5.11,3.63-8.49,7.16-11,6.94-4.94,16.81-5.55,25.38-7.18Z"/>
  <path class="cls-1" d="m304.44,394.88c3.87,5.86,4.3,15.23,1.08,23.54s-9.95,15.19-16.91,17.3c4.81,5.36,11.79,7.45,19.15,5.73,7.36-1.72,14.79-7.27,20.01-14.97,4.16-6.12,6.91-14.72,4.23-20.23-1.45-2.97-4.18-4.46-6.86-5.73-6.23-2.95-13.98-3.94-20.7-5.64Z"/>
  <path class="cls-1" d="m208.84,331.94c-3.47-23.18-1.97-47.02-.46-70.53,2.04-31.73,4.08-63.45,6.12-95.18,2.2-34.24,4.4-68.74,1.2-102.85l-43.3-3.63c-2.58,103.17,1.64,215.01,9.32,317.78,17.26,9.89,36.41,14.59,55.38,13.59-15.68-13.15-24.78-35.99-28.26-59.17Z"/>
  <path class="cls-3" d="m335.36,263.03c-10.3-.84-20.71-.36-30.88,1.42-1.1.19-2.24.42-3.12,1.1s-1.36,1.95-.78,2.88c.49.79,1.52,1.06,2.44,1.25,10.01,2.09,26.77,3.31,37.01,3.66"/>
  <path class="cls-3" d="m336.21,276.74c-11.69.04-23.39.08-35.08.12-1.77,0-3.58.02-5.25.58s-3.21,1.79-3.64,3.45c-.54,2.08.83,4.28,2.69,5.43s4.13,1.49,6.32,1.76c12.12,1.5,24.39,1.79,36.57.86"/>
  <path class="cls-3" d="m335.1,295.26c-15.27-.64-30.78.57-45.18,3.52-3.15.65-6.84,1.93-6.31,3.8.47,1.69,4.04,2.38,7.01,2.68,14.82,1.48,30.09,1.55,44.94.18"/>
  <path class="cls-3" d="m171.88,133.62c55.48-.31,110.96-.62,166.44-.93-1.58,2.96-2.31,6.12-3.89,9.08-51.95.7-104.49,1.16-156.44,1.85-1.15-3.44-4.97-6.56-6.11-10Z"/>
  <path class="cls-3" d="m340.89,147.56c-23.57-.11-47.13-.22-70.7-.33-3.04-.01-6.23,0-8.89,1.11s-4.49,3.72-3.13,5.78c1.44,2.18,5.29,2.52,8.51,2.58,23.17.42,46.35.85,69.52,1.27"/>
  <path class="cls-3" d="m338.55,163.21c-19.93.46-45.92.91-65.86,1.37-3.85.09-8.63.68-9.75,3.48-.83,2.08,1.13,4.33,3.69,5.32s5.56,1.02,8.43,1.03c16.59.06,47.67.12,64.27.18"/>
  <path class="cls-3" d="m337.56,178.13c-14.3-.26-28.6-.53-42.9-.79-2.84-.05-5.86-.07-8.29,1.05s-3.79,3.83-1.98,5.49c14.69,1.72,40.8,2.28,55.65,1.65"/>
  <path class="cls-3" d="m338.55,191.27c-14.89-.21-29.78-.42-44.67-.63-2.67-.04-5.84.12-7.26,1.84-1.23,1.49-.4,3.56,1.28,4.77,1.68,1.21,4,1.76,6.25,2.2,10.24,1.99,36.24,2.52,46.74,1.55"/>
  <path class="cls-3" d="m339.33,207.08c-8.77-.05-23.88-.1-32.66-.16-4.08-.02-8.39,0-11.9,1.58-3.51,1.58-5.66,5.31-3.36,7.87,2.03,2.25,6.22,2.51,9.82,2.54,8.73.07,24.18.17,32.91.24"/>
  <path class="cls-3" d="m335.96,225.19c-8.79-.16-19.52.2-28.31.04-3.93-.07-7.98-.13-11.65.51s-6.9,2.18-6.9,3.99c0,1.5,2.22,2.86,5.01,3.63,2.79.78,6.08,1.06,9.3,1.26,7.24.44,26.84,1.71,34.1,1.35"/>
  <path class="cls-3" d="m330.37,312.91c-10.89-.29-21.78-.57-32.68-.86-2.16-.06-4.47-.08-6.31,1.14s-2.89,4.15-1.5,5.95c11.19,1.86,31.08,2.47,42.38,1.79"/>
  <path class="cls-3" d="m331.13,327.15c-11.34-.23-22.68-.46-34.02-.68-2.04-.04-4.45.13-5.53,1.99-.93,1.62-.31,3.86.97,5.17s3.04,1.91,4.76,2.38c7.8,2.16,27.6,2.73,35.59,1.67"/>
  <path class="cls-3" d="m331.72,344.27c-6.68-.06-18.19-.11-24.87-.17-3.11-.03-6.39,0-9.07,1.71-2.67,1.71-4.31,5.76-2.56,8.52,1.55,2.44,4.73,2.72,7.48,2.75,6.65.08,18.42.18,25.06.26"/>
  <path class="cls-3" d="m329.15,363.89c-6.69-.17-14.87.21-21.56.05-2.99-.08-6.07-.14-8.87.56s-5.25,2.36-5.25,4.32c0,1.62,1.69,3.09,3.82,3.93,2.12.84,4.63,1.15,7.09,1.36,5.52.47,20.44,1.85,25.97,1.46"/>
  <path class="cls-3" d="m343,244.89c-10.4-.42-40.07-1.44-50.32-.26-2.94.34-5.96.76-8.41,1.87s-4.22,3.04-3.62,4.93c.48,1.51,2.38,2.7,4.54,3.37s4.57.9,6.94,1.12c8.22.76,40.54,1.52,48.76,2.28"/>
  <g>
    <path class="cls-2" d="m281.76,80.13l28.11-1.38c5.19-.25,8.98,5.16,7.28,10.39-.02.06-.04.12-.06.17-1.01,3.11-3.74,5.21-6.83,5.26-10.94.2-21.81-.52-32.74-.35-3.72.06-6.94-2.82-7.4-6.75-.23-1.97-.1-3.91.72-5.71,1.46-3.18,4.81-4.36,7.2-2.79,1.13.74,2.39,1.22,3.71,1.16Z"/>
    <path class="cls-2" d="m279.11,104.5l30.44-.66c4.3-.09,7.33,4.49,5.77,8.75-.05.14-.1.27-.15.41-.9,2.49-3.14,4.11-5.64,4.12-10,.05-20.14.6-30.13.64-2.32.01-4.44-1.41-5.44-3.64-.06-.13-.11-.25-.17-.38-1.94-4.22.91-9.15,5.32-9.25Z"/>
    <path class="cls-2" d="m305.25,200.57l8.41-.13c2.14-.03,3.9,1.75,4.03,4.02.02.42.06.84.09,1.25.18,2.46-1.64,4.55-3.95,4.56-2.71.02-5.41.05-8.12.07-1.76.01-3.31-1.22-3.83-3.01-.12-.41-.24-.83-.37-1.24-.81-2.71,1.06-5.49,3.73-5.53Z"/>
    <path class="cls-2" d="m289.17,132.26l20.69-1.22c3.82-.23,6.61,4.57,5.36,9.21-.01.05-.03.1-.04.15-.75,2.75-2.75,4.62-5.02,4.67-8.05.18-16.05-.46-24.1-.31-2.74.05-5.11-2.5-5.45-5.98-.17-1.74-.07-3.47.53-5.06,1.08-2.82,3.54-3.86,5.3-2.48.83.65,1.76,1.08,2.73,1.02Z"/>
    <path class="cls-2" d="m290.66,154.13l20.67-.45c2.92-.06,4.97,3.05,3.92,5.94-.03.09-.07.19-.1.28-.61,1.69-2.13,2.79-3.83,2.8-6.79.04-13.67.4-20.45.44-1.57,0-3.02-.96-3.69-2.47-.04-.09-.08-.17-.12-.25-1.32-2.86.61-6.21,3.61-6.28Z"/>
    <path class="cls-2" d="m296.52,170.68h15.44c2.8,0,4.5,3.28,3.01,5.81-.01.03-.03.05-.04.08-.63,1.09-1.74,1.75-2.95,1.78-4.76.09-10.43.45-15.23.56-1.58.04-3.01-1.04-3.46-2.65-.07-.24-.13-.49-.2-.73-.64-2.43,1.06-4.84,3.43-4.84Z"/>
    <path class="cls-2" d="m303.96,186.25l7.75-.09c1.97-.02,3.6,1.19,3.72,2.73.02.28.05.57.08.85.17,1.67-1.51,3.09-3.64,3.1-2.5.01-4.99.03-7.48.05-1.62,0-3.05-.83-3.53-2.04-.11-.28-.23-.56-.34-.84-.75-1.84.98-3.72,3.44-3.75Z"/>
    <path class="cls-2" d="m311.52,215.06h3.6c1.84,0,2.91,2.22,1.83,3.81-.87,1.29-1.74,2.58-2.62,3.85-.37.53-.93.89-1.55.96-.01,0-.02,0-.03,0-1.15.14-2.21-.64-2.48-1.84s-.63-2.51-.94-3.77c-.37-1.52.71-3.01,2.19-3.01Z"/>
    <path class="cls-2" d="m313.64,231.02l1.78.13c1.65.12,2.55,2.18,1.53,3.56-.59.79-1.39,1.43-2.27,1.72-.62.2-1.27.26-1.92.23-1.6-.09-2.55-1.94-1.71-3.39.22-.38.44-.76.62-1.11.4-.75,1.16-1.2,1.96-1.14Z"/>
  </g>
  <g>
    <path class="cls-3" d="m242.76,153.97c1.6-.04,3.24-.06,4.74.62s2.83,2.27,2.94,4.2c.12,2.04-1.16,3.9-2.68,4.77s-3.26.96-4.94,1.04c-5.88.27-48.6,5.45-47.37-3.45,1.05-7.6,14.57-6.45,18.43-6.54,9.63-.22,19.26-.44,28.89-.65Z"/>
    <path class="cls-3" d="m244.63,178.16c1.38.06,2.87.17,3.94,1.23s1.32,3.45.12,4.28c-11.58,2.34-23.33,3.44-35.06,3.27-5.34-.08-10.93-.5-15.52-3.81-1.22-.88-2.43-2.11-2.68-3.82-.79-5.59,19.28-2.43,22.5-2.29,8.9.38,17.8.76,26.71,1.15Z"/>
    <path class="cls-3" d="m230.2,195.63c2.45-.07,5.31.1,6.72,2.53,1.54,2.65.25,6.59-1.98,8.38s-5.04,2.01-7.7,2.17c-6.5.4-13.01.79-19.51,1.19-2.63.16-5.34.31-7.81-.79-7.47-3.32-4.81-12.2,1.79-12.84,9.38-.91,19.07-.37,28.49-.64Z"/>
    <path class="cls-3" d="m226.95,263.44c.97,2.67-.09,6.16-1.78,7.86s-3.81,2.07-5.84,2.39c-5.06.79-10.12,1.59-15.19,2.38-1.49.23-3.01.47-4.48.05-2.6-.73-5.59-5.33-3.61-9.4,1.47-3.01,4.05-1.48,6.17-1.38,8.17.4,16.57-1.22,24.74-1.9Z"/>
    <path class="cls-3" d="m196.39,284.15c5.54-.22,11.09-.44,16.63-.66,1.54-.06,3.12-.12,4.59.48s2.81,1.99,3.09,3.83c.34,2.26-1.03,4.48-2.73,5.47s-3.65,1.05-5.54,1.08c-3.13.05-6.26.11-9.39.16-1.39.02-2.81.04-4.14-.42s-2.62-1.48-3.19-3.02c-.66-1.77-.2-4.06,1.06-5.26s3.2-1.19,4.45.02"/>
    <path class="cls-3" d="m233.94,221.12c1.14,2.67-.11,6.16-2.08,7.86s-4.46,2.07-6.84,2.39c-5.93.79-11.85,1.59-17.78,2.38-1.75.23-3.52.47-5.25.05-3.04-.73-6.54-5.33-4.23-9.4,1.72-3.01,4.74-1.48,7.22-1.38,9.56.4,19.4-1.22,28.95-1.9Z"/>
    <path class="cls-3" d="m198.33,241.84c7.37-.22,14.75-.44,22.12-.66,2.05-.06,4.16-.12,6.1.48s3.74,1.99,4.11,3.83c.45,2.26-1.37,4.48-3.63,5.47-2.26.99-4.86,1.05-7.37,1.08-4.16.05-8.33.11-12.49.16-1.85.02-3.73.04-5.51-.42s-3.48-1.48-4.24-3.02c-.88-1.77-.26-4.06,1.42-5.26s4.26-1.19,5.92.02"/>
    <path class="cls-3" d="m210.07,306.32c1.2.2,2.55.64,3.07,1.97.45,1.15.05,2.59-.69,3.5s-1.76,1.38-2.76,1.77c-2.4.95-4.88,1.58-7.39,1.87-2.06.24-4.44.09-5.74-1.87-5.65-8.55,11.23-7.62,13.51-7.24Z"/>
  </g>
  <g>
    <path class="cls-2" d="m221.31,85.12l-21.24-.2c-2.9-.03-4.96,2.62-4,5.14.48,1.26.97,2.54,1.42,3.7.59,1.53,2.17,2.56,3.94,2.53,8.54-.15,16.86-1.11,25.26-1.31,2.28-.05,4.05-1.83,4.04-3.93,0-1.79-.33-3.55-1.39-5.09-1.47-2.13-3.98-2.82-5.43-1.63-.7.58-1.66.82-2.6.81Z"/>
    <path class="cls-2" d="m224.07,101.54l-21.78.51c-1.79.04-2.98,1.72-2.31,3.24.55,1.25,1.1,2.46,1.64,3.77.39.94,1.4,1.53,2.49,1.47,6.4-.31,12.91-.24,19.24-.54,1.23-.06,2.2-.93,2.4-2.05.23-1.27.59-2.41.88-3.62.34-1.46-.93-2.82-2.55-2.78Z"/>
    <path class="cls-2" d="m218.1,117.47l-15.15.82c-2.59.14-4.07,2.81-2.66,4.82.43.61.85,1.22,1.23,1.83.62,1,1.77,1.62,3.03,1.58,4.3-.15,9.38-.08,13.75-.19,1.79-.05,3.22-1.39,3.29-3.03.04-.88.04-1.75.07-2.62.06-1.83-1.58-3.3-3.55-3.2Z"/>
    <path class="cls-2" d="m215.22,134.16l-13.31-.47c-1.82-.06-3.08,2.46-2.44,4.9.32,1.22.64,2.46.94,3.58.39,1.48,1.39,2.5,2.5,2.49,5.35-.04,10.55-.86,15.81-.95,1.43-.02,2.52-1.71,2.48-3.74-.03-1.72-.25-3.43-.93-4.92-.95-2.07-2.53-2.77-3.42-1.64-.43.55-1.03.77-1.62.75Z"/>
    <path class="cls-2" d="m214.66,151.48l-13.64.21c-1.12.02-1.85,1.62-1.41,3.1.36,1.21.72,2.39,1.07,3.65.25.91.89,1.49,1.58,1.45,4-.22,8.09-.07,12.05-.27.77-.04,1.36-.87,1.48-1.95.13-1.22.34-2.32.5-3.48.2-1.41-.62-2.73-1.63-2.71Z"/>
    <path class="cls-2" d="m211.11,166.77l-9.48.6c-1.62.1-2.52,2.66-1.61,4.61.28.59.55,1.18.79,1.78.4.98,1.13,1.59,1.92,1.56,2.69-.09,5.88.05,8.62-.01,1.12-.02,2-1.3,2.02-2.88.01-.85,0-1.69.01-2.53.01-1.76-1.03-3.2-2.27-3.13Z"/>
    <path class="cls-2" d="m208.7,181.23l-7.09.31c-1.29.06-2.27,1.15-2.04,2.32.29,1.47.22,2.95.63,4.43.26.93,1.19,1.56,2.23,1.5,2.11-.13,4.22-.23,6.32-.35,1.11-.07,2-.91,2.03-1.93.04-1.39.13-2.84.18-4.23.04-1.16-.99-2.09-2.25-2.04Z"/>
    <path class="cls-2" d="m204.46,197.4l-3.61.25c-1.12.08-1.73,1.23-1.11,2.09,1.26,1.74,2.49,3.49,3.77,5.25.24.33.62.55,1.05.58.54.04,1.09.15,1.63.11-.22-2.31-.06-4.71-.16-7.03-.03-.75-.75-1.31-1.56-1.25Z"/>
    <path class="cls-2" d="m203.5,212.51c-1.35.25-2.7.49-4.06.74-.03,1.99,1.67,4.54,3.31,5.1,1.32.45,2.58-.09,3.58-.89-.48-1.24-2.36-3.71-2.84-4.94Z"/>
  </g>
  <path class="cls-2" d="m328.22,67.45l2.18-.39v-3.13l-2.7.49c-.82.15-1.36.95-1.22,1.78.15.84.93,1.4,1.74,1.25Z"/>
  <path class="cls-2" d="m166.2,57.52c1.36,73.81,2.73,307.93,4.09,381.74,27.21,9.22,56.98,16.12,85.7,15.13,28.72.99,58.49-5.91,85.7-15.13,1.36-73.81,2.73-307.93,4.09-381.74h-179.59Zm160.11,353.83l-1.82.14c-.63.05-1.12.74-1.09,1.56.03.82.56,1.45,1.19,1.44h.39c-1.57,3.46-3.41,6.77-5.49,9.86-2.17,3.2-5.11,5.38-8.35,6.18-18.07,4.42-36.19,7.23-54.6,7.02-18.4.21-36.53-2.59-54.6-7.02-3.24-.79-6.18-2.97-8.35-6.18-2.72-4.02-5.01-8.42-6.84-13.06l18.02.54c.63.02,1.16-.62,1.19-1.44.03-.82-.46-1.51-1.09-1.56l-19.56-1.55s0-.03-.01-.04l37.59,1.13c10.36,2.02,20.85,2.8,31.29,1.91l.09-.5c.75.1,4.61.5,4.61.5,12,1.03,24.07-.15,35.93-2.9l30.59-.92-25.86,1.78c-.64.04-1.13.74-1.1,1.56.02.82.55,1.46,1.19,1.44l27.02-.81c-.12.31-.24.62-.36.92Zm-103.2-24.41l1.68-.31-.24.52c-.48-.07-.96-.14-1.44-.22Zm107.28-312.34v-2.73l-2.26.83c-.73.27-1.14,1.07-.95,1.85.2.77.94,1.26,1.71,1.12l1.48-.27c-.02,1.38-.04,2.8-.05,4.24l-3.88,1.73c-.7.31-1.06,1.11-.84,1.86.22.75.94,1.21,1.7,1.07l2.98-.54s0,.02,0,.03l-5.25,1.99c-.73.28-1.13,1.08-.93,1.85.2.77.94,1.26,1.71,1.12l4.43-.8c0,.11,0,.22,0,.34l-3.55,1.38c-.72.28-1.12,1.08-.92,1.85.2.77.94,1.25,1.71,1.11l2.71-.49c0,.09,0,.19,0,.28l-2.54,1.28c-.67.34-1,1.13-.76,1.86.23.73.95,1.17,1.69,1.04l1.57-.28c0,.26,0,.53,0,.79l-1.36.53c-.72.28-1.12,1.08-.91,1.85.21.77.94,1.25,1.71,1.11l.52-.09c-.02,1.69-.04,3.4-.05,5.13l-.47.25c-.66.35-.97,1.14-.73,1.86.18.55.64.91,1.18,1-.03,3.11-.06,6.28-.1,9.51l-.2.09c-.7.31-1.06,1.11-.84,1.86.15.51.54.88,1.02,1.02,0,.29,0,.58,0,.87l-1.46.66c-.69.32-1.05,1.11-.83,1.86s.94,1.21,1.7,1.07l.55-.1s0,.01,0,.02l-5.39,2.02c-.73.27-1.14,1.08-.93,1.85.2.77.94,1.26,1.71,1.12l4.57-.83c0,.06,0,.12,0,.18l-5.17,1.82c-.74.26-1.16,1.06-.97,1.84.19.78.94,1.27,1.71,1.13l4.39-.79c-.03,2.91-.06,5.86-.08,8.84l-2.05.99c-.68.33-1.02,1.12-.79,1.86.23.74.95,1.19,1.69,1.05l1.11-.2c-.02,1.95-.04,3.92-.05,5.89-.16.34-.2.74-.08,1.12.02.06.04.11.07.16,0,.35,0,.71,0,1.06l-4.62,2.04c-.7.31-1.06,1.11-.84,1.86.22.75.94,1.21,1.7,1.08l1.71-.31-4.48,1.89c-.71.3-1.08,1.1-.87,1.85.21.76.94,1.23,1.7,1.09l5.63-1.02c0,.27,0,.53,0,.8l-1.33.52c-.72.28-1.12,1.08-.92,1.85.14.54.56.94,1.06,1.08l-4.93,2.12c-.71.3-1.08,1.1-.86,1.86.22.75.94,1.22,1.7,1.08l5.21-.94c0,.06,0,.12,0,.18l-4.7,1.73c-.73.27-1.14,1.07-.94,1.85.2.77.94,1.26,1.71,1.12l3.89-.71s0,.09,0,.13l-3.89,1.66c-.71.3-1.08,1.1-.87,1.86.21.75.94,1.22,1.7,1.09l3.02-.55c-.01,1.48-.03,2.96-.04,4.45l-2.83,1.34c-.68.32-1.03,1.12-.8,1.86.22.74.95,1.19,1.69,1.06l1.91-.35c-.01,1.43-.02,2.86-.04,4.29l-4.16,1.72c-.71.29-1.09,1.1-.88,1.85.21.76.94,1.23,1.7,1.09l3.31-.6c-.01,1.34-.02,2.69-.03,4.04l-4.79,2.09c-.7.31-1.07,1.11-.85,1.86.22.75.94,1.22,1.7,1.08l3.9-.71c0,.43,0,.85-.01,1.28-.45.4-.66,1.03-.47,1.63.09.27.25.48.45.66,0,.44,0,.88-.01,1.33l-1.69.66c-.72.28-1.12,1.08-.92,1.85s.94,1.25,1.71,1.11l.87-.16c0,.26,0,.52,0,.78l-1.17.51c-.7.31-1.07,1.11-.85,1.86.22.75.94,1.21,1.7,1.08l.29-.05c0,.07,0,.14,0,.21l-4.23,1.63c-.73.28-1.12,1.08-.92,1.85.2.77.94,1.25,1.71,1.11l3.41-.62c0,.17,0,.34,0,.51l-3.13,1.12c-.74.27-1.15,1.07-.96,1.84.2.78.94,1.27,1.71,1.13l2.34-.42c0,.23,0,.45,0,.68l-1.97.75c-.73.28-1.13,1.08-.93,1.85.2.77.94,1.25,1.71,1.12l1.16-.21s0,.08,0,.13l-4.57,1.77c-.72.28-1.12,1.08-.92,1.85.2.77.94,1.25,1.71,1.11l3.75-.68c0,.42,0,.84-.01,1.25-.48.39-.71,1.04-.52,1.66.09.3.28.53.5.71-.02,1.8-.03,3.59-.05,5.37l-2.31.85c-.73.27-1.14,1.07-.94,1.85.2.77.94,1.26,1.71,1.12l1.51-.27c0,.28,0,.56,0,.83l-.84.43c-.67.34-.99,1.13-.76,1.86.22.69.88,1.11,1.57,1.04-.01,1.44-.03,2.86-.04,4.25l-4.03,1.76c-.7.31-1.07,1.11-.85,1.86.22.75.95,1.22,1.7,1.08l2.28-.41-4.37,1.87c-.71.3-1.08,1.1-.86,1.86.21.75.94,1.22,1.7,1.08l4.36-.79c0,.72-.01,1.42-.02,2.13-.01.09,0,.17,0,.26,0,.9-.02,1.78-.03,2.66l-.78.37c-.69.32-1.03,1.12-.81,1.86.21.69.86,1.12,1.56,1.06-.02,1.89-.04,3.74-.06,5.55-.37.39-.52.98-.36,1.53.07.22.19.41.33.57-.02,1.54-.03,3.05-.05,4.53l-5.76,2.52c-.7.31-1.07,1.11-.85,1.86.22.75.95,1.21,1.7,1.08l4.86-.88c0,.22,0,.45,0,.67l-2,.76c-.73.28-1.13,1.08-.92,1.85.2.77.94,1.26,1.71,1.11l1.17-.21c-.02,1.65-.04,3.26-.06,4.84l-1.55.71c-.69.32-1.05,1.11-.82,1.86s.94,1.2,1.7,1.07l.64-.12c-.02,1.73-.05,3.42-.07,5.08l-.71.32c-.69.32-1.05,1.11-.83,1.86.2.68.82,1.09,1.49,1.07,0,.27,0,.53-.01.8l-1.48.59c-.72.28-1.12,1.09-.91,1.85.21.77.94,1.25,1.71,1.11l.63-.12s0,.03,0,.05l-5,1.93c-.73.28-1.12,1.08-.92,1.85.2.77.94,1.25,1.71,1.11l4.15-.75c0,.25,0,.51-.01.76l-1.12.55c-.68.33-1.01,1.13-.78,1.86.22.71.9,1.14,1.61,1.06l-5.04,1.99c-.72.28-1.12,1.09-.91,1.85.21.76.94,1.25,1.71,1.11l4.41-.8c0,.06,0,.12,0,.17l-4.81,1.76c-.73.27-1.15,1.07-.95,1.85.2.77.94,1.27,1.71,1.12l3.98-.72c-.03,1.6-.06,3.17-.08,4.73l-2.74,1.02c-.73.27-1.14,1.07-.94,1.85.2.77.94,1.26,1.71,1.12l1.9-.34c0,.09,0,.18,0,.26l-4.2,1.56c-.73.27-1.14,1.07-.94,1.85.2.77.94,1.26,1.71,1.12l3.36-.61c0,.22,0,.44-.01.67l-1.73.73c-.71.3-1.08,1.1-.87,1.85.21.76.94,1.23,1.7,1.09l.83-.15c0,.26,0,.53-.01.79l-1.21.51c-.71.3-1.08,1.1-.87,1.85.17.59.65,1.01,1.21,1.09l-5.05,2.07c-.71.29-1.1,1.09-.89,1.85.21.76.94,1.23,1.7,1.1l4.96-.9c0,.07,0,.13,0,.2l-4.72,1.72c-.74.27-1.15,1.07-.95,1.85.2.77.94,1.27,1.71,1.12l3.89-.7s0,.04,0,.06l-5.91,2.07c-.74.26-1.16,1.06-.97,1.84.2.78.94,1.27,1.71,1.13l5.09-.92c-.03,1.49-.05,3-.08,4.53l-2.75,1.24c-.7.31-1.05,1.11-.83,1.86.22.75.95,1.21,1.7,1.07l.97-.18-5.12,2c-.53.21-.89.7-.96,1.24l-51.43,12.39c-.5.12-.88.49-1.06.95-2.03.08-4.04.12-6.02.12,0,0,0,0,0,0-1.68,0-3.37-.03-5.01-.08l-.51-.02-.51.02c-1.65.06-3.33.08-5.01.08-4.37,0-8.84-.2-13.42-.57l4-.72c.82-.15,1.36-.95,1.22-1.79-.14-.84-.92-1.4-1.74-1.25l-12.62,2.29.86-1.86c.24-.52.18-1.14-.16-1.59-.34-.46-.9-.68-1.45-.58l-12.79,2.32c-1.03-.2-2.06-.4-3.1-.62l.26-.6c.22-.52.15-1.12-.19-1.57-.34-.45-.89-.66-1.44-.57l-5.98,1.08c-.84-.2-1.68-.41-2.52-.62l.24-.19c.54-.43.73-1.19.45-1.84-.28-.65-.95-1.01-1.63-.89l-4.57.83,3.76-1.78c.69-.32,1.03-1.12.81-1.86-.22-.74-.95-1.19-1.69-1.06l-10.48,1.9,1.8-1.59c.51-.45.67-1.2.38-1.83-.29-.63-.95-.97-1.62-.86l-3.77.68c0-.33-.01-.66-.02-.98l.37-.22c.63-.38.9-1.16.65-1.86-.18-.5-.59-.84-1.07-.96,0-.2,0-.41-.01-.61l2.85-1.12c.72-.28,1.12-1.08.91-1.85-.21-.76-.94-1.25-1.71-1.11l-2.11.38c0-.2,0-.4-.01-.6l1.8-.81c.69-.32,1.05-1.11.83-1.86-.16-.54-.58-.93-1.09-1.05l4.35-2.01c.69-.32,1.04-1.11.82-1.86-.22-.74-.94-1.2-1.69-1.07l-3.91.71,6.21-2.19c.74-.26,1.16-1.06.97-1.84-.2-.78-.94-1.28-1.71-1.13l-5.71,1.03,5.76-2.11c.73-.27,1.15-1.07.95-1.85-.2-.77-.94-1.27-1.71-1.12l-6.14,1.11c0-.26,0-.52-.01-.78l1.27-.52c.71-.29,1.09-1.09.88-1.85-.2-.71-.87-1.17-1.56-1.11l4.47-1.9c.71-.3,1.08-1.1.87-1.86-.21-.75-.94-1.23-1.7-1.09l-4.28.78,4.42-1.88c.71-.3,1.08-1.1.87-1.86-.21-.75-.94-1.21-1.7-1.09l-2.81.51,5.54-2.07c.73-.27,1.14-1.07.94-1.85-.2-.77-.94-1.26-1.71-1.12l-3.31.6,5.56-2.07c.73-.27,1.14-1.08.94-1.85s-.94-1.26-1.71-1.12l-4.46.81,3.86-1.79c.69-.32,1.04-1.12.82-1.86-.22-.74-.95-1.19-1.69-1.06l-5.03.91,5.71-2.1c.73-.27,1.14-1.07.95-1.85-.2-.77-.94-1.27-1.71-1.12l-5.9,1.07c0-.12,0-.25,0-.37l3.25-1.29c.72-.28,1.11-1.09.91-1.85-.21-.76-.94-1.25-1.71-1.11l-2.51.46c0-.21,0-.42,0-.63l1.5-.74c.67-.33,1.01-1.13.78-1.86s-.94-1.17-1.69-1.05l-.64.12c0-.06,0-.11,0-.17l4.39-1.7c.72-.28,1.12-1.08.92-1.85-.2-.77-.94-1.25-1.71-1.11l-1.61.29,5-1.98c.72-.28,1.11-1.09.91-1.85-.21-.76-.94-1.24-1.71-1.11l-6.3,1.14s0-.06,0-.08l3.65-1.67c.69-.32,1.05-1.11.83-1.86-.22-.74-.94-1.21-1.7-1.07l-2.83.51c0-.06,0-.13,0-.19l2.32-1.36c.63-.37.91-1.16.67-1.86-.25-.71-.95-1.12-1.67-.99l-1.37.25c0-.12,0-.23,0-.35l2.64-1.21c.69-.32,1.04-1.12.82-1.86-.22-.74-.95-1.2-1.69-1.07l-1.7.31,3.42-1.72c.67-.34,1-1.13.76-1.86-.23-.73-.95-1.17-1.69-1.04l-.22.04,5.3-2.03c.73-.28,1.13-1.08.92-1.85-.2-.77-.94-1.26-1.71-1.11l-7,1.27c0-.42,0-.85-.01-1.28.43-.39.62-1,.45-1.59-.09-.3-.26-.54-.48-.73,0-.04,0-.08,0-.12l4.71-2.41c.67-.34.99-1.13.76-1.86-.23-.73-.95-1.16-1.69-1.04l-3.48.63,3.79-1.78c.69-.32,1.03-1.12.81-1.86-.22-.74-.94-1.19-1.69-1.06l-.09.02,3.97-1.81c.69-.32,1.05-1.11.83-1.86-.22-.74-.94-1.2-1.7-1.07l-6.35,1.15c0-.09,0-.18,0-.26l2.86-1.35c.69-.32,1.03-1.12.81-1.86-.15-.49-.52-.86-.97-1.01l5.51-2.26c.71-.29,1.1-1.09.89-1.85-.21-.76-.94-1.23-1.7-1.1l-7.47,1.35c0-.3,0-.61,0-.91l.69-.3c.71-.3,1.08-1.1.86-1.86-.2-.71-.87-1.17-1.58-1.09,0-.25,0-.49,0-.74l1.39-.61c.7-.31,1.07-1.11.85-1.86-.22-.75-.94-1.22-1.7-1.08l-.57.1c0-.24,0-.48,0-.73l.95-.6c.61-.39.87-1.17.62-1.86-.25-.67-.91-1.06-1.6-.97,0-.24,0-.49,0-.73l1.17-.6c.67-.34.99-1.13.76-1.86-.12-.37-.37-.67-.68-.85l7.62-2.81c.73-.27,1.14-1.07.94-1.85-.2-.77-.94-1.26-1.71-1.12l-8.17,1.48c0-.05,0-.11,0-.16l2.82-1.46c.66-.34.98-1.14.75-1.86-.23-.72-.95-1.17-1.68-1.03l-1.91.35s0-.09,0-.14l3.13-1.53c.68-.33,1.01-1.13.79-1.86-.23-.73-.95-1.19-1.69-1.05l-2.26.41s0-.08,0-.12l4.58-1.78c.72-.28,1.12-1.08.92-1.85-.21-.77-.94-1.25-1.71-1.11l-1.18.21,5.37-2.04c.73-.28,1.13-1.08.93-1.85-.2-.77-.94-1.26-1.71-1.11l-4.05.73,5.94-2.14c.74-.27,1.15-1.07.96-1.84-.2-.78-.94-1.27-1.71-1.13l-8.43,1.53s0,0,0,0l5.19-2c.73-.28,1.12-1.08.92-1.85-.21-.77-.94-1.25-1.71-1.11l-4.43.8s0-.02,0-.03l4.05-1.79c.7-.31,1.06-1.11.85-1.86-.22-.75-.94-1.22-1.7-1.08l-1.03.19,5.12-2c.72-.28,1.12-1.08.91-1.85-.21-.77-.94-1.25-1.71-1.11l-6.58,1.19c0-.1,0-.2,0-.3l2.48-1.25c.67-.34,1-1.13.76-1.86-.23-.73-.95-1.17-1.69-1.04l-1.59.29c0-.31,0-.62,0-.94l.57-.25c.7-.31,1.07-1.11.85-1.86-.08-.28-.24-.52-.43-.71l7.05-2.96c.71-.3,1.09-1.1.88-1.85-.21-.76-.94-1.23-1.7-1.09l-7.27,1.32c0-.14,0-.28,0-.42l2.8-1.16c.71-.29,1.09-1.1.88-1.85-.21-.76-.94-1.23-1.7-1.09l-2.01.36c0-.29,0-.57,0-.86l.65-.4c.62-.38.89-1.16.63-1.86-.21-.58-.74-.94-1.32-.98,0-.33,0-.66,0-.98l.59-.28c.68-.33,1.03-1.12.8-1.86-.07-.24-.2-.45-.37-.62l6.44-2.93c.69-.32,1.05-1.11.83-1.86-.22-.74-.94-1.21-1.7-1.07l-6.66,1.21c0-.18,0-.35,0-.53l2.23-.95c.71-.3,1.08-1.1.86-1.86-.21-.75-.94-1.23-1.7-1.09l-.65.12,5.65-2.09c.73-.27,1.14-1.07.94-1.85-.2-.77-.93-1.26-1.71-1.12l-5.7,1.03c0-.41,0-.82-.01-1.22.5-.38.75-1.03.57-1.66-.09-.31-.27-.58-.5-.77l7.71-3c.72-.28,1.12-1.08.92-1.85s-.94-1.25-1.71-1.11l-7.05,1.28c0-.39,0-.77-.01-1.15.6-.35.91-1.06.71-1.75-.12-.41-.39-.73-.74-.92,0-.44,0-.88-.01-1.31l.45-.2c.7-.31,1.06-1.11.84-1.86-.18-.62-.7-1.04-1.32-1.08,0-.03,0-.07,0-.1l3.43-1.68c.68-.33,1.01-1.13.78-1.86-.23-.73-.95-1.18-1.69-1.05l-2.33.42,3.22-1.7c.66-.35.97-1.14.74-1.86-.24-.72-.94-1.16-1.68-1.03l-2.55.46c0-.28,0-.56,0-.84l.85-.41c.68-.33,1.01-1.13.79-1.86-.22-.73-.93-1.17-1.67-1.05,0-.23,0-.45,0-.68l1.17-.66c.64-.36.93-1.15.69-1.86-.16-.46-.52-.81-.95-.95l4.45-2.08c.69-.32,1.03-1.12.81-1.86-.22-.74-.94-1.2-1.69-1.06l-2.69.49,6.19-2.18c.74-.26,1.16-1.06.96-1.84-.2-.78-.94-1.27-1.71-1.13l-7.35,1.33s0-.06,0-.09l5-1.88c.73-.27,1.13-1.08.93-1.85-.2-.77-.94-1.26-1.71-1.12l-4.27.77c0-.1,0-.21,0-.31l2.81-1.29c.69-.32,1.05-1.11.82-1.86-.22-.74-.95-1.21-1.7-1.07l-1.33.24,4.12-1.83c.7-.31,1.06-1.11.84-1.86-.22-.75-.94-1.21-1.7-1.07l-3.96.72c0-.11,0-.23,0-.34l2.35-1.19c.67-.34.99-1.13.76-1.86-.23-.73-.95-1.17-1.69-1.04l-1.46.26s0-.05,0-.07l3.08-1.6c.66-.34.98-1.14.75-1.86-.23-.73-.95-1.17-1.68-1.03l-2.18.4c0-.29,0-.58,0-.86l.71-.38c.66-.35.97-1.14.73-1.86-.08-.24-.21-.44-.37-.61l6.63-2.94c.7-.31,1.06-1.11.84-1.86-.22-.75-.95-1.22-1.7-1.08l-4.7.85,5.04-1.99c.72-.28,1.12-1.09.91-1.85-.21-.77-.94-1.25-1.71-1.11l-6.51,1.18c0-.48-.01-.96-.02-1.44.31-.4.43-.93.27-1.44-.06-.2-.17-.37-.29-.52,0-.23,0-.46,0-.69l5.52-2.15c.72-.28,1.12-1.08.92-1.85-.21-.77-.94-1.25-1.71-1.11l-4.77.86s0-.09,0-.13l4.74-1.8c.73-.28,1.13-1.08.93-1.85-.2-.77-.94-1.25-1.71-1.12l-4.01.73c0-.28,0-.57-.01-.86l.86-.39c.7-.31,1.05-1.11.83-1.86-.22-.75-.94-1.21-1.7-1.07h-.04c0-.24,0-.48,0-.72l1.05-.59c.65-.36.94-1.15.7-1.86-.12-.35-.35-.63-.64-.81l7.74-2.85c.73-.27,1.14-1.07.94-1.85-.2-.77-.94-1.26-1.71-1.12l-5.49,1,3.54-1.5h142.83c-.05,3.33-.1,6.93-.15,10.72Z"/>
</svg>