<?xml version="1.0" encoding="UTF-8" standalone="no"?>
<svg
   id="Layer_1"
   data-name="Layer 1"
   viewBox="0 0 512 512"
   version="1.1"
   sodipodi:docname="nick nora glass.svg"
   inkscape:version="1.3.2 (091e20e, 2023-11-25)"
   xmlns:inkscape="http://www.inkscape.org/namespaces/inkscape"
   xmlns:sodipodi="http://sodipodi.sourceforge.net/DTD/sodipodi-0.dtd"
   xmlns="http://www.w3.org/2000/svg"
   xmlns:svg="http://www.w3.org/2000/svg">
  <defs
     id="defs26">
    <clipPath
       clipPathUnits="userSpaceOnUse"
       id="clipPath27">
      <rect
         style="fill:#fffffe;fill-opacity:1;stroke:#7f7f7f;stroke-width:0.467336;stroke-opacity:0"
         id="rect28"
         width="231.21884"
         height="262.90173"
         x="132.50395"
         y="203.83569"
         rx="4.6147981"
         ry="4.6147981" />
    </clipPath>
  </defs>
  <sodipodi:namedview
     id="namedview26"
     pagecolor="#ffffff"
     bordercolor="#000000"
     borderopacity="0.25"
     inkscape:showpageshadow="2"
     inkscape:pageopacity="0.0"
     inkscape:pagecheckerboard="0"
     inkscape:deskcolor="#d1d1d1"
     inkscape:zoom="0.66935431"
     inkscape:cx="127.73504"
     inkscape:cy="242.77128"
     inkscape:window-width="1728"
     inkscape:window-height="972"
     inkscape:window-x="0"
     inkscape:window-y="38"
     inkscape:window-maximized="0"
     inkscape:current-layer="Layer_1" />
  <g
     id="g4"
     transform="matrix(0.7914098,0,0,1,54.065097,-2.3163148)">
    <path
       d="m 255.592,432.75 c 0,0 18.529,7.714 15.637,22.5 h 47.25 v -16.393 z"
       fill="#4f7097"
       stroke-width="0"
       id="path1" />
    <path
       d="m 248.728,205.286 c 0,0 11.029,52.155 9.745,99.797 l 4.398,-17.619 4.821,-31.464 7.714,-48.571 -13.339,-10.929 z"
       fill="#4f7097"
       stroke-width="0"
       id="path2" />
    <path
       d="m 253.781,428.144 c 0.469,0 0.913,0.01 1.376,0.013 0.463,-0.003 0.907,-0.013 1.376,-0.013 z"
       fill="#ffffff"
       stroke-width="0"
       id="path3" />
    <path
       d="m 362.441,454.72 c -23.96,-17.04 -68.76,-22.82 -79.48,-24.77 -5.61,-1.01 -9.98,-5.39 -10.96,-11.01 -5.7,-32.45 -6.09,-103.28 -3.24,-159.01 1.61,-31.33 23.73,-58.04 54.36,-64.85 3.97,-0.89 7.73,-1.88 11.28,-2.95 h -158.51 c 3.56,1.07 7.32,2.06 11.3,2.95 30.63,6.81 52.75,33.52 54.36,64.85 2.85,55.73 2.46,126.56 -3.24,159.01 -0.98,5.62 -5.35,10 -10.96,11.01 -10.72,1.95 -55.52,7.73 -79.48,24.77 -1.83,1.3 -0.94,4.19 1.32,4.19 h 211.94 c 2.25,0 3.15,-2.89 1.31,-4.19 z M 243.101,207.43 c 0,0 6.73,6.09 11.99,6.09 h 0.05 c 4.07,0 8.98,-3.61 11.03,-5.27 -0.04,0.24 0.03,0.44 0.17,0.69 -0.31,0.47 -0.63,0.96 -0.91,1.36 -2.27,3.44 -2.31,3.5 -1.81,4.39 0.2,0.36 0.53,0.61 0.92,0.72 0.06,0.01 0.12,0.02 0.17,0.04 -0.27,0.86 -0.38,1.3 -0.37,1.6 -0.39,0.44 -0.82,0.91 -1.19,1.32 -3.31,3.64 -3.37,3.71 -2.78,4.76 0.2,0.36 0.54,0.62 0.93,0.72 0.48,0.12 0.78,0.03 1.26,-0.23 0.03,0.04 0.07,0.09 0.11,0.14 0.31,0.4 0.61,0.78 0.69,0.89 l 0.04,0.04 c -0.27,1.43 -0.52,2.87 -0.76,4.31 -3.99,3.61 -3.99,3.74 -3.39,4.8 -0.04,0.08 -0.08,0.17 -0.11,0.25 -1.33,2.92 -1.36,2.98 -0.94,3.71 0.2,0.35 0.53,0.61 0.92,0.71 0.43,0.12 0.73,0.06 1.13,-0.16 0.36,0.65 0.73,1.32 0.86,1.55 -0.05,0.46 -0.1,0.91 -0.15,1.37 -0.38,1.09 -0.4,1.38 -0.21,1.78 -0.07,0.71 -0.12,1.43 -0.19,2.15 -0.28,0.97 -0.29,1.25 -0.14,1.58 -0.24,2.85 -0.42,5.7 -0.55,8.56 -2,3.18 -2.02,3.3 -1.54,4.14 0.11,0.21 0.28,0.38 0.47,0.51 -2.45,2.9 -2.39,3.01 -1.87,3.93 0.21,0.35 0.56,0.61 0.95,0.7 0.23,0.06 0.43,0.05 0.6,0.02 0.16,0.12 0.34,0.26 0.55,0.42 0.18,0.14 0.35,0.28 0.51,0.4 l -0.09,3.52 c -0.3,0.39 -0.6,0.8 -0.88,1.16 q -3.03,4.01 -2.47,4.99 c 0.21,0.36 0.43,0.58 0.67,0.69 -0.66,0.7 -0.93,1.3 -0.47,2.12 0.2,0.35 0.53,0.61 0.92,0.71 0.54,0.14 0.84,0.02 1.49,-0.36 0.17,0.21 0.33,0.43 0.47,0.61 v 0.03 c -0.19,0.25 -0.37,0.51 -0.54,0.74 -3.04,4.18 -3.1,4.26 -2.53,5.27 0.47,0.79 1.08,0.84 1.73,0.61 -0.26,0.56 -0.15,0.84 0.13,1.33 0.28,0.48 0.61,0.69 0.97,0.73 l -0.17,6.29 c -0.22,0.37 -0.44,0.74 -0.64,1.07 q -2.03,3.36 -1.53,4.23 c 0.55,0.94 1.35,0.81 2.02,0.51 l -0.14,5.07 c -0.03,0.12 -0.03,0.24 -0.01,0.34 l -0.2,7.4 c -0.23,0.33 -0.47,0.67 -0.69,0.97 -2.96,4.14 -3.02,4.22 -2.47,5.19 0.2,0.35 0.53,0.6 0.92,0.7 0.55,0.15 0.61,0.17 2.02,-0.67 0.02,0.11 0.03,0.21 0.05,0.3 l -0.11,4.01 c -0.39,0.49 -0.81,1.02 -1.18,1.48 q -3.44,4.26 -2.87,5.27 c 0.21,0.36 0.54,0.62 0.93,0.72 0.63,0.16 0.95,-0.03 1.79,-0.55 0.07,-0.04 0.13,-0.08 0.19,-0.11 0.26,-0.01 0.59,-0.03 0.96,-0.05 l -0.11,4 c -0.01,0.06 -0.01,0.12 0,0.18 l -0.01,0.34 c -0.21,0.27 -0.43,0.55 -0.62,0.81 -2.82,3.72 -2.87,3.79 -2.31,4.78 0.73,1.25 1.85,0.66 2.77,0.11 l -0.45,16.64 c -2.79,3.02 -2.79,3.2 -2.23,4.18 0.04,0.07 0.09,0.15 0.14,0.21 -0.04,0.08 -0.09,0.15 -0.14,0.22 -0.65,0.98 -1.11,1.69 -1.44,2.23 l -2.8,-103.71 c -0.4,-14.76 -2.26,-29.44 -5.56,-43.84 z m 11.55,168.02 c 0.2,0.35 0.52,0.61 0.9,0.71 0.34,0.09 0.52,0.12 1.01,-0.11 l -0.45,16.63 c -0.73,0.74 -1.34,1.35 -1.86,1.88 l -0.77,-28.37 c 0.14,0.09 0.3,0.17 0.46,0.21 0.54,0.14 0.88,-0.01 1.41,-0.33 0.23,0.16 0.51,0.36 0.85,0.6 0.21,0.15 0.41,0.3 0.6,0.43 l -0.1,3.65 c -0.13,0.2 -0.28,0.41 -0.4,0.59 -2.05,3.03 -2.17,3.21 -1.65,4.11 z m 0.21,41.55 -0.15,-5.26 c 0.27,0.24 0.57,0.31 0.88,0.29 l -0.11,4.18 c -0.26,0.31 -0.46,0.57 -0.62,0.79 z m 0.5,3.55 -0.14,5.25 c -0.04,0.08 -0.08,0.16 -0.12,0.24 l -0.18,-6.75 c 0.03,0.02 0.05,0.05 0.08,0.08 0.05,0.16 0.1,0.33 0.15,0.49 0.09,0.29 0.15,0.51 0.21,0.69 z m -0.72,-11.47 -0.03,-1.02 c 0.12,0.13 0.24,0.24 0.39,0.32 -0.14,0.26 -0.26,0.49 -0.36,0.7 z m 0.82,-4.89 c -0.41,0.76 -0.7,1.32 -0.9,1.75 l -0.19,-6.98 c 0.34,-0.18 0.78,-0.44 1.44,-0.84 0.05,0.35 0.1,0.62 0.13,0.84 l -0.12,4.54 c -0.13,0.24 -0.25,0.48 -0.36,0.69 z m 52.73,42.96 q -0.98,3.06 -0.6,3.72 c 0.13,0.21 0.3,0.39 0.51,0.52 h -117.23 c 2.19,-0.95 4.89,-2.07 7.99,-3.27 0.41,0.05 0.77,0.09 0.95,0.13 0.04,0.01 0.08,0.02 0.12,0.03 0.72,0.19 0.76,0.19 5.44,-2.57 2.74,-0.96 5.68,-1.94 8.78,-2.89 0.75,-0.05 1.44,-0.09 1.75,-0.09 0.14,0.03 0.26,0.05 0.39,0.05 0.45,0 0.9,-0.27 2.33,-1.14 0.11,-0.07 0.25,-0.15 0.37,-0.23 0.43,-0.12 0.86,-0.24 1.3,-0.35 0.29,0.07 0.63,0.15 1.03,0.25 0.71,0.17 1.42,0.33 1.7,0.41 0.07,0.03 0.14,0.06 0.21,0.08 q 0.73,0.19 4.34,-1.95 c 0.57,-0.34 1.22,-0.72 1.66,-0.97 0.33,-0.08 0.67,-0.15 1.01,-0.22 0.72,-0.09 1.66,-0.22 2.94,-0.41 1.58,-0.22 3.91,-0.56 4.6,-0.6 0.46,0.1 0.67,0.05 1.96,-0.69 1.02,-0.15 2.04,-0.28 3.06,-0.41 0.02,0.03 0.05,0.07 0.07,0.09 0.22,0.28 0.53,0.49 0.89,0.58 0.55,0.14 0.85,0.05 1.57,-0.37 0.37,1.21 0.38,1.23 0.49,1.41 0.21,0.36 0.56,0.62 0.97,0.73 q 0.69,0.19 4.9,-2.27 c 0.58,-0.33 1.2,-0.69 1.76,-1.01 0.78,-0.03 1.56,-0.05 2.35,-0.05 0.01,0 0.02,0 0.03,0.01 0.59,0.23 1.39,0.54 1.65,0.66 0.13,0.08 0.28,0.14 0.43,0.18 0.49,0.12 0.82,0.05 1.35,-0.24 0.57,1.33 0.58,1.34 0.64,1.44 0.21,0.37 0.57,0.64 0.98,0.75 0.5,0.13 0.63,0.16 2.38,-0.82 -0.21,0.51 -0.11,0.82 0.16,1.28 0.22,0.38 0.58,0.65 1,0.76 0.68,0.17 1,-0.03 2.06,-0.66 0.17,-0.1 0.33,-0.2 0.47,-0.29 0.61,0.07 1.48,0.14 2.76,0.24 1.06,0.08 2.49,0.18 2.9,0.24 0.02,0 0.03,0.01 0.04,0.01 0.54,0.14 0.65,0.17 2.14,-0.69 -0.19,0.71 -0.11,0.91 0.14,1.33 0.21,0.37 0.57,0.64 0.99,0.75 0.67,0.17 0.81,0.09 2.48,-0.89 0.29,-0.17 0.58,-0.34 0.81,-0.48 0.49,0.07 1.16,0.15 2.09,0.26 0.53,0.06 1.19,0.13 1.65,0.19 -0.83,1.57 -0.85,1.83 -0.45,2.51 0.22,0.37 0.58,0.64 0.99,0.75 0.69,0.18 1.04,-0.03 2.08,-0.65 0.02,-0.02 0.05,-0.04 0.08,-0.06 0.49,0.07 1.15,0.12 2.06,0.2 0.69,0.06 1.71,0.14 2.05,0.19 0.02,0 0.04,0.01 0.06,0.01 0.4,0.11 0.73,0.05 1.02,-0.07 0.18,0.13 0.38,0.29 0.62,0.47 0.59,0.45 1.17,0.9 1.36,1.05 0.21,0.2 0.47,0.34 0.75,0.4 0.06,0.02 0.12,0.03 0.18,0.03 0.13,0.16 0.28,0.35 0.46,0.57 0.36,0.45 0.71,0.87 0.83,1.03 0.82,1.25 2.05,0.53 3.05,-0.04 l 1.99,-1.15 c 0.39,-0.22 0.77,-0.44 1.12,-0.65 0.84,0.3 1.66,0.6 2.47,0.91 0.21,0.15 0.38,0.29 0.46,0.35 0.2,0.19 0.44,0.32 0.71,0.39 0.3,0.07 0.54,0.06 0.78,0 0.78,0.3 1.54,0.6 2.28,0.9 0.13,0.09 0.25,0.18 0.32,0.23 -0.01,0.03 -0.02,0.06 -0.03,0.09 z"
       fill="#2a2e28"
       stroke-width="0"
       id="path4"
       clip-path="url(#clipPath27)" />
  </g>
  <g
     id="g26"
     transform="matrix(0.51986092,0,0,1.1153862,123.35281,-17.305019)">
    <path
       d="M 107.949,76.983 H 78.182 V 94.031 C 91.983,208.498 250.288,189.826 250.288,189.826 114.714,189.014 107.949,76.983 107.949,76.983 Z"
       fill="#4f7097"
       stroke-width="0"
       id="path5" />
    <path
       d="m 426.847,121.065 c -33.661,-0.09 -67.322,-0.18 -100.983,-0.27 -4.688,-0.012 -9.611,0 -13.715,0.983 -4.104,0.984 -6.931,3.291 -4.829,5.111 2.227,1.928 8.16,2.232 13.126,2.284 33.359,0.351 66.719,0.702 100.078,1.053 2.313,-2.892 4.427,-5.943 6.323,-9.162 z"
       fill="#ef9437"
       stroke-width="0"
       id="path6"
       style="fill:#fffffe;fill-opacity:1" />
    <path
       d="m 416.405,135.007 c -28.893,0.38 -57.785,0.76 -86.678,1.14 -5.936,0.078 -13.311,0.606 -15.033,3.074 -1.286,1.842 1.737,3.834 5.689,4.706 3.952,0.872 8.57,0.899 13.002,0.909 24.135,0.05 48.271,0.1 72.406,0.15 3.777,-3.125 7.341,-6.434 10.615,-9.978 z"
       fill="#ef9437"
       stroke-width="0"
       id="path7" />
    <path
       d="m 390.737,155.61 3.327,-1.459 c 2.675,-1.656 5.289,-3.364 7.838,-5.125 -23.266,-0.221 -46.531,-0.442 -69.797,-0.663 -4.874,-0.046 -10.054,-0.062 -14.216,0.929 -4.163,0.991 -6.498,3.39 -3.387,4.856 25.189,1.523 50.786,2.013 76.236,1.462 z"
       fill="#ef9437"
       stroke-width="0"
       id="path8" />
    <path
       d="m 385.15,159.517 c -21.737,-0.107 -43.474,-0.215 -65.21,-0.322 -6.772,-0.033 -14.797,0.103 -18.374,1.624 -3.105,1.32 -1.017,3.15 3.238,4.222 4.255,1.073 10.121,1.556 15.815,1.943 15.285,1.039 31.007,1.615 46.781,1.747 5.958,-2.984 11.921,-6.028 17.749,-9.214 z"
       fill="#ef9437"
       stroke-width="0"
       id="path9" />
    <path
       d="m 360.707,173.648 c -9.991,-0.017 -19.982,-0.033 -29.974,-0.05 -12.958,-0.022 -26.654,-0.003 -37.792,1.394 -11.138,1.397 -17.974,4.7 -10.672,6.958 6.449,1.994 19.737,2.217 31.182,2.243 6.93,0.016 15.196,0.033 24.13,0.051 7.37,-3.617 15.173,-7.101 23.127,-10.596 z"
       fill="#ef9437"
       stroke-width="0"
       id="path10" />
    <path
       d="m 433.314,106.675 c -118.517,0.294 -237.033,0.588 -355.55,0.883 2.505,3.347 10.865,6.385 13.37,9.733 112.453,-0.67 226.192,-1.118 338.672,-1.784 1.343,-2.811 2.514,-5.754 3.507,-8.831 z"
       fill="#ef9437"
       stroke-width="0"
       id="path11" />
    <g
       id="g15">
      <path
         d="m 356.486,94.194 35.656,-1.428 c 6.586,-0.264 11.396,5.337 9.235,10.749 -0.024,0.06 -0.048,0.12 -0.072,0.18 -1.284,3.215 -4.743,5.389 -8.659,5.448 -13.881,0.208 -27.668,-0.541 -41.527,-0.358 -4.715,0.063 -8.801,-2.923 -9.391,-6.988 -0.295,-2.035 -0.128,-4.049 0.918,-5.909 1.854,-3.295 6.098,-4.511 9.133,-2.891 1.431,0.764 3.028,1.263 4.706,1.196 z"
         fill="#2a2e28"
         stroke-width="0"
         id="path12" />
      <path
         d="m 352.219,116.596 29.572,-0.526 c 4.176,-0.074 7.116,3.555 5.603,6.938 -0.049,0.109 -0.097,0.217 -0.145,0.326 -0.872,1.972 -3.051,3.256 -5.482,3.267 -9.715,0.042 -19.56,0.472 -29.267,0.511 -2.251,0.009 -4.318,-1.12 -5.281,-2.888 -0.054,-0.1 -0.109,-0.199 -0.165,-0.297 -1.885,-3.344 0.879,-7.254 5.164,-7.331 z"
         fill="#2a2e28"
         stroke-width="0"
         id="path13" />
      <path
         d="m 350.265,135.926 h 22.093 c 4.011,0 6.437,3.831 4.314,6.787 -0.021,0.029 -0.042,0.059 -0.063,0.088 -0.906,1.275 -2.494,2.047 -4.218,2.074 -6.811,0.108 -14.919,0.527 -21.797,0.653 -2.257,0.041 -4.303,-1.217 -4.951,-3.095 -0.098,-0.285 -0.193,-0.57 -0.285,-0.856 -0.917,-2.836 1.516,-5.652 4.907,-5.652 z"
         fill="#2a2e28"
         stroke-width="0"
         id="path14" />
      <path
         d="m 322.366,182.098 2.184,0.104 c 2.028,0.096 3.129,1.726 1.87,2.825 -0.718,0.627 -1.704,1.135 -2.778,1.36 -0.763,0.16 -1.557,0.209 -2.353,0.179 -1.958,-0.074 -3.123,-1.537 -2.095,-2.687 0.269,-0.3 0.534,-0.599 0.764,-0.879 0.489,-0.596 1.417,-0.949 2.408,-0.902 z"
         fill="#2a2e28"
         stroke-width="0"
         id="path15" />
    </g>
    <g
       id="g21">
      <path
         d="m 181.357,121.26 c 2.159,-0.018 4.378,-0.031 6.398,0.307 2.02,0.338 3.818,1.115 3.968,2.069 0.158,1.005 -1.564,1.919 -3.623,2.347 -2.059,0.428 -4.403,0.474 -6.676,0.513 -7.943,0.135 -65.669,2.683 -64.011,-1.698 1.416,-3.742 19.692,-3.174 24.905,-3.217 13.013,-0.107 26.026,-0.214 39.039,-0.321 z"
         fill="#ef9437"
         stroke-width="0"
         id="path16" />
      <path
         d="m 188.231,133.162 c 1.866,0.029 3.876,0.082 5.325,0.603 1.449,0.521 1.781,1.697 0.158,2.106 -15.643,1.153 -31.517,1.692 -47.374,1.608 -7.218,-0.038 -14.764,-0.247 -20.974,-1.877 -1.648,-0.433 -3.285,-1.039 -3.616,-1.878 -1.067,-2.751 26.045,-1.195 30.396,-1.127 12.028,0.188 24.056,0.376 36.084,0.564 z"
         fill="#ef9437"
         stroke-width="0"
         id="path17" />
      <path
         d="m 179.871,141.759 c 3.305,-0.034 7.17,0.05 9.077,1.246 2.08,1.304 0.339,3.245 -2.669,4.125 -3.008,0.88 -6.804,0.987 -10.405,1.067 -8.788,0.195 -17.576,0.391 -26.364,0.586 -3.553,0.079 -7.218,0.151 -10.558,-0.39 -10.097,-1.636 -6.499,-6.004 2.423,-6.32 12.67,-0.448 25.767,-0.185 38.496,-0.315 z"
         fill="#ef9437"
         stroke-width="0"
         id="path18" />
      <path
         d="m 197.644,154.373 c 1.602,1.312 -0.149,3.03 -2.938,3.866 -2.789,0.836 -6.289,1.017 -9.639,1.174 -8.351,0.391 -16.702,0.781 -25.052,1.172 -2.461,0.115 -4.965,0.23 -7.396,0.025 -4.291,-0.362 -9.223,-2.624 -5.955,-4.623 2.418,-1.48 6.676,-0.729 10.171,-0.678 13.477,0.197 27.344,-0.599 40.808,-0.936 z"
         fill="#ef9437"
         stroke-width="0"
         id="path19" />
      <path
         d="m 159.591,164.567 22.476,-0.327 c 2.085,-0.03 4.221,-0.057 6.2,0.236 1.979,0.293 3.797,0.978 4.172,1.887 0.459,1.11 -1.391,2.204 -3.688,2.693 -2.296,0.489 -4.938,0.515 -7.487,0.531 -4.231,0.026 -8.461,0.053 -12.692,0.079 -1.88,0.012 -3.791,0.022 -5.6,-0.205 -1.809,-0.227 -3.534,-0.728 -4.31,-1.487 -0.892,-0.872 -0.266,-1.999 1.439,-2.588 1.705,-0.589 4.324,-0.584 6.017,0.011"
         fill="#ef9437"
         stroke-width="0"
         id="path20" />
      <path
         d="m 195.098,173.154 c 1.617,0.099 3.445,0.317 4.147,0.969 0.611,0.568 0.073,1.276 -0.931,1.72 -1.004,0.445 -2.379,0.679 -3.729,0.873 -3.24,0.467 -6.595,0.776 -9.986,0.921 -2.78,0.118 -6.004,0.045 -7.755,-0.919 -7.638,-4.208 15.176,-3.752 18.254,-3.564 z"
         fill="#ef9437"
         stroke-width="0"
         id="path21" />
    </g>
    <g
       id="g25">
      <path
         d="m 154.668,93.448 -24.023,-0.225 c -3.283,-0.031 -5.605,2.2 -4.506,4.33 0.549,1.064 1.105,2.146 1.617,3.126 0.675,1.294 2.467,2.17 4.463,2.148 9.662,-0.105 19.061,-0.9 28.564,-1.047 2.581,-0.04 4.575,-1.537 4.559,-3.314 -0.014,-1.511 -0.383,-3.002 -1.588,-4.303 -1.672,-1.806 -4.514,-2.391 -6.148,-1.393 -0.795,0.486 -1.875,0.689 -2.938,0.679 z"
         fill="#2a2e28"
         stroke-width="0"
         id="path22" />
      <path
         d="m 160.302,105.405 -24.627,0.375 c -2.02,0.031 -3.364,1.447 -2.604,2.736 0.623,1.055 1.257,2.082 1.868,3.188 0.44,0.797 1.585,1.292 2.822,1.25 7.232,-0.248 14.6,-0.17 21.754,-0.405 1.386,-0.046 2.48,-0.784 2.703,-1.727 0.254,-1.075 0.663,-2.037 0.978,-3.061 0.381,-1.235 -1.06,-2.384 -2.894,-2.356 z"
         fill="#2a2e28"
         stroke-width="0"
         id="path23" />
      <path
         d="m 164.151,118.851 -17.127,0.654 c -2.934,0.112 -4.596,2.366 -2.995,4.063 0.486,0.515 0.962,1.031 1.394,1.55 0.708,0.85 2.007,1.375 3.429,1.342 4.864,-0.113 10.611,-0.04 15.555,-0.128 2.024,-0.036 3.633,-1.163 3.706,-2.556 0.039,-0.743 0.043,-1.477 0.07,-2.215 0.057,-1.543 -1.793,-2.795 -4.031,-2.71 z"
         fill="#2a2e28"
         stroke-width="0"
         id="path24" />
      <path
         d="m 167.16,133.722 -8.02,0.243 c -1.463,0.044 -2.56,0.963 -2.294,1.954 0.333,1.244 0.255,2.492 0.724,3.742 0.295,0.787 1.349,1.324 2.526,1.273 2.385,-0.102 4.767,-0.185 7.142,-0.283 1.258,-0.052 2.254,-0.76 2.287,-1.628 0.045,-1.175 0.132,-2.398 0.183,-3.574 0.043,-0.977 -1.13,-1.77 -2.549,-1.727 z"
         fill="#2a2e28"
         stroke-width="0"
         id="path25" />
    </g>
    <path
       d="m 273.936,200.161 c 133.844,0 161.735,-55.478 167.129,-98.119 1.359,-10.741 1.284,-21.574 0.323,-32.365 H 68.93 c -0.961,10.791 -1.036,21.625 0.323,32.365 5.393,42.641 33.285,98.119 167.13,98.119 M 422.728,84.935 c -1.163,-0.627 -1.496,-0.594 -2.022,-0.455 -0.497,0.132 -0.942,0.485 -1.198,0.953 -0.556,1.016 -0.391,1.75 0.47,2.643 -0.041,0.059 -0.079,0.12 -0.114,0.183 -0.868,1.588 0.019,2.514 2.573,4.428 -0.021,0.537 -0.042,1.074 -0.06,1.605 -0.325,0.177 -0.603,0.447 -0.787,0.782 -0.552,1.01 -0.725,1.468 0.7,2.87 -0.008,0.575 -0.017,1.151 -0.017,1.721 10e-4,1.072 -0.043,2.12 -0.089,3.166 -3.233,-2.012 -3.435,-1.957 -4.173,-1.758 -0.493,0.135 -0.924,0.479 -1.178,0.945 -0.891,1.629 0.254,2.617 2.536,4.585 0.674,0.581 1.473,1.253 2.317,1.959 -0.029,0.218 -0.067,0.43 -0.098,0.647 -1.682,-0.996 -1.903,-0.941 -2.475,-0.787 -0.493,0.133 -0.918,0.474 -1.173,0.939 -0.322,0.588 -0.354,1.094 -0.193,1.565 -0.155,0.143 -0.289,0.314 -0.393,0.504 -0.339,0.619 -0.376,1.145 -0.166,1.68 -0.141,0.008 -0.271,0.044 -0.429,0.087 -0.491,0.134 -0.917,0.474 -1.171,0.937 -0.765,1.398 -0.721,1.599 3.45,5.854 -0.018,0.054 -0.038,0.106 -0.056,0.16 -2.956,-1.808 -3.164,-1.754 -3.832,-1.572 -0.491,0.135 -0.917,0.477 -1.17,0.941 -0.858,1.565 0.198,2.476 2.114,4.13 0.066,0.057 0.134,0.115 0.202,0.174 -0.44,0.81 -0.549,1.206 0.285,2.316 -0.739,1.574 -1.557,3.099 -2.423,4.592 -2.311,-1.4 -2.506,-1.352 -3.128,-1.182 -0.49,0.134 -0.912,0.472 -1.165,0.934 -0.647,1.19 -0.631,1.514 1.811,4.199 -1.554,2.267 -3.253,4.437 -5.089,6.51 -1.085,-0.632 -1.333,-0.608 -1.904,-0.455 -0.491,0.132 -0.918,0.47 -1.173,0.932 -1.75,-1.059 -1.947,-1.006 -2.579,-0.832 -0.493,0.134 -0.921,0.477 -1.175,0.942 -0.094,0.171 -0.172,0.325 -0.231,0.472 -1.685,-0.997 -1.894,-0.939 -2.481,-0.781 -0.492,0.135 -0.918,0.476 -1.171,0.941 -0.503,0.917 -0.654,1.388 0.345,2.491 -0.046,0.065 -0.089,0.133 -0.128,0.204 -0.491,0.893 -0.684,1.245 0.423,2.583 -0.336,0.174 -0.62,0.452 -0.809,0.798 -0.135,0.245 -0.226,0.453 -0.266,0.668 -0.781,-0.434 -1.073,-0.433 -1.604,-0.292 -0.496,0.133 -0.926,0.475 -1.181,0.943 -0.144,0.262 -0.221,0.421 -0.244,0.727 -0.468,-0.222 -0.845,-0.271 -1.32,-0.152 -0.507,0.127 -0.955,0.478 -1.216,0.954 -0.264,0.483 -0.446,0.816 -0.384,1.226 -4.334,-2.68 -4.473,-2.642 -5.178,-2.445 -0.49,0.136 -0.91,0.474 -1.162,0.937 -0.447,0.819 -0.565,1.261 0.161,2.256 -0.134,0.133 -0.25,0.286 -0.343,0.457 -0.54,0.983 -0.628,1.361 0.715,2.932 -0.205,0.161 -0.379,0.366 -0.509,0.602 -0.111,0.202 -0.205,0.38 -0.274,0.546 -4.081,-2.528 -4.209,-2.492 -4.921,-2.292 -0.49,0.135 -0.91,0.474 -1.162,0.937 -0.737,1.349 -0.565,1.621 2.71,5.104 -0.067,0.035 -0.136,0.069 -0.203,0.104 -5.236,-3.27 -5.333,-3.253 -6.127,-3.032 -0.49,0.135 -0.911,0.474 -1.164,0.937 -0.283,0.518 -0.354,0.965 -0.253,1.397 -0.491,-0.188 -0.697,-0.131 -1.018,-0.041 -0.49,0.135 -0.911,0.474 -1.164,0.937 -0.1,0.181 -0.175,0.345 -0.223,0.505 -0.211,-0.024 -0.416,0.006 -0.659,0.071 -0.499,0.132 -0.934,0.478 -1.19,0.95 -0.027,0.048 -0.052,0.095 -0.075,0.141 -0.334,-0.094 -0.588,-0.067 -0.916,0.02 -0.497,0.132 -0.931,0.477 -1.188,0.945 -0.489,0.885 -0.385,1.26 0.575,3.331 -1.415,0.57 -2.843,1.122 -4.279,1.658 -0.516,-0.325 -1.029,-0.648 -1.502,-0.947 q -5.903,-3.723 -6.786,-3.479 c -0.491,0.135 -0.914,0.475 -1.168,0.939 -0.385,0.702 -0.387,1.285 -0.091,1.86 -0.118,0.123 -0.221,0.262 -0.305,0.416 -0.445,0.807 -0.466,1.261 0.232,2.423 -0.194,0.158 -0.359,0.356 -0.483,0.582 -0.171,0.315 -0.252,0.496 -0.255,0.924 -0.34,-0.112 -0.645,-0.118 -1.015,-0.023 -0.504,0.128 -0.95,0.477 -1.209,0.951 -0.023,0.042 -0.045,0.084 -0.066,0.124 -1.447,-0.85 -1.646,-0.796 -2.214,-0.641 -0.491,0.135 -0.914,0.474 -1.168,0.939 -0.002,-0.006 -0.121,0.17 -0.334,0.485 -0.489,-0.308 -1.032,-0.654 -1.471,-0.936 q -3.3,-2.106 -4.148,-1.875 c -0.494,0.135 -0.919,0.476 -1.172,0.943 -0.448,0.818 -0.481,1.291 0.215,2.336 -0.161,0.145 -0.299,0.319 -0.407,0.516 -0.02,0.036 -0.038,0.072 -0.055,0.107 -2.293,-1.45 -2.43,-1.453 -3.182,-1.251 -0.492,0.133 -0.917,0.472 -1.172,0.936 -0.051,0.092 -0.097,0.181 -0.138,0.266 -0.782,-0.397 -0.994,-0.338 -1.423,-0.219 -0.491,0.134 -0.913,0.472 -1.166,0.935 -0.456,0.833 -0.512,1.297 0.222,2.356 -0.321,-0.092 -0.636,-0.183 -0.934,-0.268 -2.534,-0.727 -4.075,-1.169 -5.063,-1.346 -0.089,-0.061 -0.189,-0.13 -0.29,-0.2 -0.84,-0.578 -1.394,-0.96 -2.243,-0.748 -0.506,0.127 -0.947,0.472 -1.207,0.947 -0.293,0.539 -0.369,0.846 -0.164,1.596 -0.431,0.155 -0.799,0.47 -1.03,0.887 -0.22,0.402 -0.335,0.705 -0.3,1.081 -3.856,-2.379 -3.936,-2.358 -4.668,-2.153 -0.484,0.137 -0.897,0.471 -1.149,0.928 -0.259,0.47 -0.367,0.757 -0.236,1.36 -1.757,-1.069 -1.886,-1.031 -2.524,-0.854 -0.483,0.135 -0.897,0.465 -1.15,0.919 -0.004,0 -0.194,0.284 -0.429,0.634 -0.923,-0.581 -1.307,-0.742 -2.003,-0.552 -0.405,0.109 -0.762,0.357 -1.017,0.698 -0.065,0.08 -0.208,0.25 -0.379,0.45 -0.999,-0.639 -1.404,-0.845 -2.145,-0.647 -0.348,0.093 -0.662,0.288 -0.906,0.558 -0.138,0.138 -0.537,0.513 -0.951,0.905 -0.076,0.072 -0.149,0.141 -0.218,0.205 -0.385,-0.192 -0.79,-0.285 -1.297,-0.157 -0.009,0.003 -0.018,0.005 -0.027,0.007 -0.371,0.036 -1.403,0.089 -2.176,0.128 -1.163,0.059 -1.992,0.101 -2.6,0.163 -0.583,-0.353 -1.604,-0.991 -2.342,-1.452 q -2.985,-1.865 -3.785,-1.647 c -0.493,0.135 -0.913,0.474 -1.167,0.94 -0.343,0.63 -0.381,0.951 -0.004,2.151 -0.44,0.155 -0.814,0.476 -1.046,0.904 -0.006,0.01 -0.033,0.071 -0.075,0.167 -1.287,-0.824 -1.653,-0.984 -2.393,-0.789 -0.495,0.133 -0.922,0.472 -1.178,0.938 -0.11,0.201 -0.196,0.379 -0.252,0.548 -3.702,-2.293 -3.791,-2.267 -4.52,-2.068 -0.495,0.137 -0.918,0.481 -1.17,0.951 -0.157,0.293 -0.229,0.465 -0.242,0.865 -1.085,-0.672 -1.388,-0.738 -2.038,-0.563 -0.343,0.092 -0.652,0.283 -0.895,0.547 -0.084,0.082 -0.259,0.245 -0.458,0.427 -0.429,-0.269 -0.924,-0.582 -1.344,-0.848 q -3.925,-2.484 -4.788,-2.25 c -0.492,0.135 -0.915,0.474 -1.169,0.938 -0.207,0.374 -0.305,0.685 -0.29,1.021 -0.328,0.174 -0.606,0.448 -0.792,0.787 -0.117,0.217 -0.199,0.403 -0.242,0.591 -1.422,-0.88 -1.639,-0.883 -2.295,-0.707 -0.494,0.133 -0.919,0.473 -1.175,0.939 -0.012,0.023 -0.025,0.046 -0.036,0.068 -0.092,-0.058 -0.183,-0.115 -0.271,-0.171 q -4.847,-3.064 -5.726,-2.825 c -0.491,0.134 -0.914,0.474 -1.168,0.937 -0.524,0.956 -0.215,2.178 0.691,2.73 0.117,0.072 0.239,0.128 0.362,0.171 0.154,0.085 0.418,0.243 0.741,0.44 -1.326,0.004 -2.049,-0.006 -2.049,-0.006 0,0 -1.513,0.023 -4.24,-0.012 0.31,-0.189 0.562,-0.34 0.711,-0.422 0.123,-0.043 0.245,-0.1 0.362,-0.171 0.906,-0.552 1.215,-1.775 0.691,-2.73 -0.254,-0.463 -0.678,-0.803 -1.168,-0.937 q -0.881,-0.24 -5.726,2.825 c -0.088,0.056 -0.179,0.113 -0.271,0.171 -0.012,-0.022 -0.024,-0.045 -0.036,-0.068 -0.255,-0.466 -0.681,-0.806 -1.175,-0.939 -0.656,-0.176 -0.873,-0.174 -2.295,0.707 -0.043,-0.188 -0.125,-0.374 -0.242,-0.591 -0.186,-0.339 -0.464,-0.612 -0.792,-0.787 0.015,-0.336 -0.083,-0.647 -0.29,-1.021 -0.254,-0.465 -0.677,-0.803 -1.169,-0.938 q -0.864,-0.234 -4.788,2.25 c -0.42,0.267 -0.914,0.579 -1.344,0.848 -0.199,-0.183 -0.373,-0.345 -0.458,-0.427 -0.243,-0.264 -0.552,-0.455 -0.895,-0.547 -0.65,-0.174 -0.953,-0.109 -2.038,0.563 -0.014,-0.4 -0.085,-0.572 -0.242,-0.865 -0.252,-0.47 -0.675,-0.814 -1.17,-0.951 -0.729,-0.199 -0.818,-0.225 -4.52,2.068 -0.056,-0.169 -0.142,-0.347 -0.252,-0.548 -0.256,-0.466 -0.683,-0.805 -1.178,-0.938 -0.74,-0.195 -1.106,-0.035 -2.393,0.789 -0.042,-0.096 -0.07,-0.156 -0.075,-0.167 -0.232,-0.427 -0.606,-0.749 -1.046,-0.904 0.377,-1.2 0.339,-1.521 -0.004,-2.151 -0.253,-0.466 -0.674,-0.805 -1.167,-0.94 q -0.8,-0.221 -3.785,1.647 c -0.738,0.461 -1.759,1.099 -2.342,1.452 -0.608,-0.061 -1.437,-0.103 -2.6,-0.163 -0.773,-0.039 -1.805,-0.092 -2.176,-0.128 -0.009,-0.003 -0.018,-0.005 -0.027,-0.007 -0.507,-0.128 -0.912,-0.035 -1.297,0.157 -0.068,-0.064 -0.141,-0.133 -0.218,-0.205 -0.414,-0.392 -0.813,-0.767 -0.951,-0.905 -0.244,-0.27 -0.558,-0.465 -0.906,-0.558 -0.741,-0.198 -1.146,0.008 -2.145,0.647 -0.171,-0.2 -0.314,-0.37 -0.379,-0.45 -0.256,-0.342 -0.613,-0.589 -1.017,-0.698 -0.696,-0.19 -1.08,-0.029 -2.003,0.552 -0.234,-0.35 -0.425,-0.634 -0.429,-0.634 -0.253,-0.454 -0.667,-0.785 -1.15,-0.919 -0.638,-0.177 -0.767,-0.215 -2.524,0.854 0.131,-0.603 0.023,-0.889 -0.236,-1.36 -0.252,-0.457 -0.665,-0.791 -1.149,-0.928 -0.733,-0.206 -0.813,-0.226 -4.668,2.153 0.035,-0.376 -0.081,-0.679 -0.3,-1.081 -0.231,-0.417 -0.599,-0.733 -1.03,-0.887 0.205,-0.751 0.129,-1.058 -0.164,-1.596 -0.261,-0.474 -0.701,-0.82 -1.207,-0.947 -0.85,-0.211 -1.403,0.17 -2.243,0.748 -0.101,0.07 -0.2,0.139 -0.29,0.2 -0.988,0.177 -2.529,0.619 -5.063,1.346 -0.063,0.018 -0.134,0.038 -0.199,0.057 -0.174,-0.04 -0.348,-0.079 -0.522,-0.119 0.501,-0.834 0.415,-1.286 0.009,-2.026 -0.253,-0.463 -0.675,-0.801 -1.166,-0.935 -0.429,-0.119 -0.641,-0.178 -1.423,0.219 -0.041,-0.085 -0.087,-0.174 -0.138,-0.266 -0.255,-0.464 -0.68,-0.803 -1.172,-0.936 -0.752,-0.202 -0.89,-0.198 -3.182,1.251 -0.017,-0.035 -0.036,-0.07 -0.055,-0.107 -0.108,-0.196 -0.246,-0.371 -0.407,-0.516 0.696,-1.045 0.663,-1.518 0.215,-2.336 -0.253,-0.466 -0.678,-0.808 -1.172,-0.943 q -0.845,-0.228 -4.148,1.875 c -0.44,0.281 -0.982,0.627 -1.471,0.936 -0.213,-0.314 -0.331,-0.491 -0.334,-0.485 -0.253,-0.465 -0.676,-0.804 -1.168,-0.939 -0.532,-0.145 -0.754,-0.192 -1.969,0.501 -0.138,-0.043 -0.274,-0.088 -0.412,-0.131 -0.266,-0.395 -0.66,-0.69 -1.108,-0.804 -0.37,-0.094 -0.675,-0.088 -1.015,0.023 -0.003,-0.429 -0.084,-0.61 -0.255,-0.924 -0.124,-0.226 -0.289,-0.424 -0.483,-0.582 0.697,-1.163 0.676,-1.617 0.232,-2.423 -0.084,-0.154 -0.187,-0.293 -0.305,-0.416 0.296,-0.574 0.294,-1.158 -0.091,-1.86 -0.253,-0.465 -0.676,-0.805 -1.168,-0.939 q -0.883,-0.245 -6.786,3.479 c -0.214,0.135 -0.437,0.276 -0.664,0.419 -1.603,-0.613 -3.19,-1.249 -4.765,-1.906 0.623,-1.408 0.643,-1.793 0.223,-2.555 -0.257,-0.468 -0.691,-0.813 -1.188,-0.945 -0.328,-0.087 -0.583,-0.114 -0.916,-0.02 -0.023,-0.046 -0.049,-0.093 -0.075,-0.141 -0.256,-0.472 -0.691,-0.818 -1.19,-0.95 -0.244,-0.064 -0.448,-0.095 -0.659,-0.071 -0.048,-0.16 -0.123,-0.324 -0.223,-0.505 -0.253,-0.463 -0.674,-0.802 -1.164,-0.937 -0.321,-0.09 -0.527,-0.147 -1.018,0.041 0.101,-0.431 0.03,-0.879 -0.253,-1.397 -0.253,-0.463 -0.675,-0.802 -1.164,-0.937 -0.739,-0.206 -0.877,-0.232 -5.111,2.399 -0.161,-0.086 -0.317,-0.177 -0.477,-0.263 2.548,-2.736 2.645,-3.075 1.969,-4.312 -0.252,-0.463 -0.673,-0.802 -1.162,-0.937 -0.712,-0.2 -0.84,-0.236 -4.921,2.292 -0.068,-0.167 -0.163,-0.344 -0.274,-0.546 -0.129,-0.237 -0.304,-0.441 -0.509,-0.602 1.344,-1.571 1.255,-1.949 0.715,-2.932 -0.093,-0.17 -0.209,-0.324 -0.343,-0.457 0.726,-0.995 0.608,-1.437 0.161,-2.256 -0.253,-0.463 -0.673,-0.801 -1.162,-0.937 -0.705,-0.196 -0.844,-0.234 -5.178,2.445 0.063,-0.41 -0.12,-0.744 -0.384,-1.226 -0.261,-0.476 -0.709,-0.827 -1.216,-0.954 -0.475,-0.119 -0.852,-0.07 -1.32,0.152 -0.023,-0.306 -0.1,-0.465 -0.244,-0.727 -0.255,-0.468 -0.685,-0.81 -1.181,-0.943 -0.531,-0.141 -0.823,-0.142 -1.604,0.292 -0.04,-0.215 -0.131,-0.423 -0.266,-0.668 -0.189,-0.346 -0.473,-0.623 -0.809,-0.798 1.107,-1.338 0.914,-1.69 0.423,-2.583 -0.039,-0.071 -0.082,-0.139 -0.128,-0.204 0.998,-1.103 0.847,-1.574 0.345,-2.491 -0.253,-0.465 -0.679,-0.807 -1.171,-0.941 -0.587,-0.159 -0.797,-0.217 -2.481,0.781 -0.059,-0.146 -0.137,-0.301 -0.231,-0.472 -0.254,-0.465 -0.681,-0.808 -1.175,-0.942 -0.632,-0.174 -0.829,-0.226 -2.579,0.832 -0.256,-0.461 -0.682,-0.8 -1.173,-0.932 -0.042,-0.011 -0.077,-0.019 -0.116,-0.029 -2.055,-2.364 -3.922,-4.861 -5.611,-7.476 1.15,-1.416 1.051,-1.818 0.545,-2.749 -0.253,-0.462 -0.676,-0.8 -1.165,-0.934 -0.419,-0.115 -0.646,-0.172 -1.457,0.231 -1.169,-2.102 -2.215,-4.283 -3.131,-6.544 1.603,-1.4 2.422,-2.29 1.639,-3.717 -0.253,-0.465 -0.679,-0.806 -1.17,-0.941 -0.49,-0.134 -0.733,-0.198 -1.994,0.49 -0.083,-0.261 -0.151,-0.53 -0.231,-0.793 2.51,-2.639 2.433,-2.957 1.786,-4.139 -0.254,-0.463 -0.68,-0.803 -1.171,-0.937 -0.157,-0.043 -0.287,-0.079 -0.429,-0.087 0.21,-0.535 0.173,-1.061 -0.166,-1.68 -0.104,-0.19 -0.237,-0.36 -0.393,-0.504 0.161,-0.471 0.129,-0.976 -0.193,-1.565 -0.255,-0.464 -0.68,-0.805 -1.173,-0.939 -0.142,-0.038 -0.261,-0.07 -0.387,-0.082 -0.063,-0.49 -0.114,-0.986 -0.166,-1.482 0.097,-0.083 0.205,-0.174 0.298,-0.254 2.281,-1.968 3.427,-2.956 2.536,-4.585 -0.254,-0.466 -0.686,-0.811 -1.178,-0.945 -0.516,-0.14 -0.774,-0.205 -1.99,0.457 -0.016,-0.623 -0.053,-1.233 -0.052,-1.865 0.004,-2.861 -0.111,-5.791 -0.235,-8.803 0.802,-0.875 0.966,-1.613 0.425,-2.603 -0.035,-0.064 -0.073,-0.125 -0.114,-0.183 0.861,-0.893 1.025,-1.627 0.47,-2.643 -0.224,-0.408 -0.593,-0.719 -1.013,-0.882 -0.06,-2.156 -0.094,-1.245 -0.06,-3.505 H 422.8 c 0,0.009 0,0.014 0,0.022 -0.229,0.544 -0.228,1.02 -0.016,1.482 -0.014,0.802 -0.032,1.597 -0.055,2.385 z"
       fill="#2a2e28"
       stroke-width="0"
       id="path26" />
  </g>
</svg>
