<?xml version="1.0" encoding="UTF-8" standalone="no"?>
<svg
   width="512pt"
   height="512pt"
   version="1.1"
   viewBox="0 0 512 512"
   id="svg5"
   sodipodi:docname="noun-strainer-369951.svg"
   inkscape:version="1.3.2 (091e20e, 2023-11-25)"
   xmlns:inkscape="http://www.inkscape.org/namespaces/inkscape"
   xmlns:sodipodi="http://sodipodi.sourceforge.net/DTD/sodipodi-0.dtd"
   xmlns="http://www.w3.org/2000/svg"
   xmlns:svg="http://www.w3.org/2000/svg">
  <defs
     id="defs5" />
  <sodipodi:namedview
     id="namedview5"
     pagecolor="#ffffff"
     bordercolor="#000000"
     borderopacity="0.25"
     inkscape:showpageshadow="2"
     inkscape:pageopacity="0.0"
     inkscape:pagecheckerboard="0"
     inkscape:deskcolor="#d1d1d1"
     inkscape:document-units="pt"
     inkscape:zoom="0.34570313"
     inkscape:cx="341.33333"
     inkscape:cy="341.33333"
     inkscape:window-width="1312"
     inkscape:window-height="449"
     inkscape:window-x="0"
     inkscape:window-y="38"
     inkscape:window-maximized="0"
     inkscape:current-layer="svg5" />
  <path
     d="m 318.73457,179.92717 c 0,0 -25.23257,23.58797 -54.85467,55.40323 -24.684,-9.32452 -53.21006,-14.81105 -83.92927,-14.81105 -93.802239,-0.54826 -169.506371,49.92086 -169.506371,112.45426 0,23.03941 10.421091,44.9817 28.526055,63.08303 0,0 -18.101321,17.0042 -14.811048,30.17065 2.19305,8.22804 11.521847,23.03941 30.719211,23.03941 10.969005,0 24.68401,-4.39028 42.789613,-17.55277 24.13546,8.77628 52.11403,14.26249 81.73613,14.26249 93.80223,0 169.50636,-50.46834 169.50636,-113.00067 0,-30.71922 -18.10132,-58.69671 -48.27198,-78.99119 l 53.75862,-58.14815 z M 57.076993,432.80998 c -3.289523,0 -6.583224,-0.54826 -9.872747,-2.19306 -15.908164,-7.6798 3.289523,-25.23256 3.289523,-25.23256 h -0.548258 c 9.324511,7.13145 19.750208,13.71501 31.815256,19.20165 -5.486752,3.28534 -15.359606,8.22386 -24.68401,8.22386 z M 324.22014,333.52109 c 0,51.56546 -66.37651,83.92928 -144.27487,83.92928 -77.89836,0 -144.274871,-31.81526 -144.274871,-83.92928 0,-51.56546 66.376511,-93.80223 144.274871,-93.80223 77.89836,0 144.27487,42.23677 144.27487,93.80223 z"
     id="path1"
     style="fill:#ffffff;fill-opacity:1;stroke:#ffffff;stroke-width:1.0714;stroke-opacity:1" />
  <path
     d="M 502.50128,36.203003 C 488.23879,6.0323475 433.93162,-12.61646 325.31297,158.53558 c -2.19305,3.28953 -1.64481,7.67981 1.64482,9.87275 l 38.94757,18.64881 c 3.28953,2.74128 8.22804,2.74128 10.96901,-0.54827 12.0704,-13.16644 41.68822,-32.3638 59.24526,-50.46834 17.55705,-19.19308 78.99441,-71.854587 66.37651,-99.833156 z m -45.53025,21.942294 c -8.77627,0 -15.35961,-3.841937 -15.35961,-9.324511 0,-4.938516 7.13146,-9.324511 15.35961,-9.324511 8.77627,0 15.3596,3.841938 15.3596,9.324511 0,4.934338 -7.13145,9.324511 -15.3596,9.324511 z"
     id="path2"
     style="fill:#ffffff;fill-opacity:1;stroke:#ffffff;stroke-width:1.0714;stroke-opacity:1" />
  <path
     d="m 316.54891,334.61607 c 0,0 -15.90816,-86.12244 -136.59293,-86.12244 -120.684758,0 -134.942964,86.12244 -134.942964,86.12244 0,0 1.644815,-3.84194 5.486753,-9.87276 0.548257,3.28953 1.644815,9.32452 3.841936,17.55278 -3.841936,8.22803 -4.938515,13.715 -4.938515,14.26248 -0.548258,2.19305 1.096472,4.39029 3.289522,4.93852 h 1.096472 c 2.193051,0 3.841938,-1.64482 4.390281,-3.28953 0,0 0,-1.09647 0.548257,-2.74128 1.644815,4.39028 3.841937,9.32451 6.034988,13.71501 -1.096472,2.74128 -1.644815,4.39028 -1.644815,4.93851 -0.548257,2.19305 0.548257,4.93852 3.289523,5.48676 h 1.096472 c 1.096472,0 2.193051,-0.54826 2.741287,-1.09647 0.548257,0.54825 0.548257,1.09647 1.096471,1.64481 1.096472,1.09647 2.193051,1.64482 3.841938,1.64482 1.096472,0 1.644815,0 2.193051,-0.54827 2.19305,-1.09647 2.741286,-3.84193 1.096471,-6.03498 -1.644815,-2.19305 -2.741286,-4.39028 -3.841936,-6.03499 1.644815,-3.28953 3.841936,-7.67981 7.679802,-13.16645 1.644816,4.93852 3.841938,10.4211 6.034991,15.3596 -4.938518,7.67981 -7.679806,13.16645 -7.679806,13.71501 -1.096472,2.19306 0,4.93852 2.193052,5.48675 0.548256,0 1.096472,0.54826 1.644815,0.54826 1.644815,0 3.289525,-1.09647 3.841939,-2.74128 0,0 1.644811,-3.28952 4.390282,-8.22804 3.289519,6.03499 7.131451,12.61789 11.521843,18.10132 1.09647,1.09647 2.19305,1.64482 3.28952,1.64482 1.09647,0 1.64482,-0.54826 2.74129,-1.09647 2.19305,-1.64483 2.19305,-4.39029 1.09648,-6.03499 -4.93852,-6.58323 -9.32452,-14.2625 -13.166454,-21.39482 2.741284,-3.84193 6.034984,-7.13145 9.872744,-10.969 6.58322,16.45565 15.90817,32.91237 29.6221,45.53026 1.09647,0.54826 1.64481,1.09647 2.74128,1.09647 1.09647,0 2.19306,-0.54826 3.28953,-1.64481 1.64481,-1.64481 1.64481,-4.39028 0,-6.03499 -13.16645,-12.0704 -21.9423,-28.52605 -27.9775,-44.9817 4.39028,-3.28953 9.87275,-5.48675 15.3596,-7.13146 2.19306,-0.54826 3.84195,-3.28953 2.7413,-5.48676 -0.54826,-2.19304 -3.28953,-3.84193 -5.48676,-2.74128 -6.03499,1.64481 -10.969,4.39027 -15.90816,7.13146 -1.64481,-5.48675 -3.28952,-11.52185 -4.39028,-17.00421 5.48675,-3.84193 12.0704,-7.6798 19.75021,-10.969 2.19305,-1.09647 3.28952,-3.28953 2.19305,-5.48675 -1.09648,-2.19306 -3.28952,-3.28953 -5.48676,-2.19306 -6.58322,2.74129 -13.16644,6.03499 -18.10131,9.87275 -1.09648,-6.58322 -2.19306,-12.61789 -2.7413,-18.10132 7.67981,-4.39029 17.00422,-8.77628 27.43001,-12.07041 2.19306,-0.54825 3.28953,-3.28952 2.7413,-5.48675 -0.54826,-2.19305 -3.28953,-3.28952 -5.48676,-2.74128 -9.87275,3.28952 -18.10132,7.13146 -25.78005,10.969 -0.54826,-4.93852 -0.54826,-9.32451 -0.54826,-12.0704 19.75021,-9.32451 44.9817,-16.45565 78.44263,-16.45565 34.00842,0 59.79383,7.13146 80.09152,17.0042 0,2.74128 0,6.58323 -0.54825,11.52185 -7.67981,-3.84194 -15.90817,-7.6798 -25.78006,-10.969 -2.19305,-0.54826 -4.93851,0.54825 -5.48675,2.74128 -0.54826,2.19305 0.54826,4.93852 2.74128,5.48675 10.42109,3.28952 19.75021,7.6798 27.43001,12.07041 -0.54825,5.48675 -1.64481,11.52184 -2.74128,18.10132 -5.48675,-3.28953 -11.52184,-6.58322 -18.10132,-9.87275 -2.19305,-1.09647 -4.93852,0 -5.48676,2.19306 -1.09647,2.19304 0,4.93851 2.19306,5.48675 7.6798,3.28952 14.26249,7.13146 19.7502,10.969 -1.09647,5.48675 -2.74128,10.42109 -4.39028,15.90816 -10.969,-7.6798 -20.29769,-9.87274 -20.84625,-9.87274 -2.19305,-0.54826 -4.93851,1.09647 -4.93851,3.28952 -0.54827,2.19306 1.09647,4.93852 3.28952,4.93852 0,0 9.32451,2.19304 19.75021,9.87274 -6.03499,17.00421 -15.35961,33.45986 -28.52606,45.53027 -1.64481,1.64481 -1.64481,4.39028 0,6.03498 1.09647,1.09648 2.19306,1.64482 3.28953,1.64482 1.09647,0 2.19305,-0.54826 2.74128,-1.09648 13.71501,-12.61788 23.03941,-29.0746 29.6221,-46.07882 3.28952,3.28953 6.58323,7.13146 9.87274,11.52186 -3.84193,7.13145 -7.6798,14.26249 -13.16645,21.39481 -1.64481,2.19304 -1.09647,4.39028 1.09648,6.03498 0.54826,0.54826 1.64482,1.09648 2.74129,1.09648 1.09647,0 2.74128,-0.54826 3.28952,-1.64482 4.39028,-5.48676 8.22804,-11.52185 11.52184,-17.55277 1.09647,2.19305 2.19306,4.93852 3.28953,7.13147 0.54826,1.64481 2.19305,2.74128 3.84193,2.74128 0.54826,0 1.09648,0 1.64483,-0.54826 2.19304,-1.09647 3.28951,-3.28952 2.19304,-5.48675 -2.19304,-4.93852 -4.39028,-9.32451 -6.58322,-13.71501 2.19305,-5.48675 4.39028,-10.42108 6.58322,-15.90815 3.28953,4.9385 6.03499,9.3245 7.6798,13.16644 -1.09647,2.19305 -2.74128,4.39028 -3.84193,6.03499 -1.09647,2.19305 -1.09647,4.93851 1.09647,6.03499 0.54826,0.54825 1.64481,0.54825 2.19305,0.54825 1.64482,0 2.74129,-0.54825 3.84194,-1.64481 0.54826,-0.54826 0.54826,-1.09647 1.09647,-1.64482 0.54826,0.54826 1.64481,1.09647 2.74128,1.09647 h 1.09648 c 2.19305,-0.54825 3.84194,-2.74128 3.28953,-5.48674 0,-0.54827 -0.54826,-2.19306 -1.64483,-4.93852 2.19306,-4.39028 4.39029,-9.32452 6.03499,-13.71501 0.54826,1.64482 0.54826,2.74129 0.54826,2.74129 0.54826,2.19305 2.19306,3.28953 4.39028,3.28953 h 1.09647 c 2.19306,-0.54826 3.84195,-2.7413 3.28953,-4.93852 0,-0.54826 -1.09647,-6.58323 -4.93852,-14.2625 2.19305,-7.6798 3.28952,-13.715 3.84194,-17.00421 2.2223,7.12729 3.86711,10.96472 3.86711,10.96472 z M 59.273366,321.99817 c 0,-2.19304 -1.644816,-3.28951 -3.841938,-3.84193 3.841938,-4.93852 8.776275,-10.42109 14.811049,-15.90816 0,3.28951 0.548257,8.22803 1.644815,14.26248 -4.39028,4.93852 -8.228039,9.87275 -10.969005,14.26249 -1.096472,-5.48256 -1.644815,-8.77627 -1.644815,-8.77627 z m 9.872746,36.75442 c -2.19305,-5.48675 -4.39028,-10.96901 -5.486752,-15.90817 2.193051,-4.39028 5.486752,-9.87274 9.872746,-15.3596 1.096472,5.48675 2.741287,11.52185 4.390281,18.10132 -3.289523,4.93852 -6.579046,9.32869 -8.776275,13.16645 z m 35.657298,-6.03081 c -4.39028,3.28952 -7.679801,7.13146 -10.968999,10.96901 -2.193057,-5.48675 -4.390282,-10.42109 -5.486754,-15.35961 3.289519,-3.84193 7.131461,-7.6798 12.070403,-11.52185 1.09647,4.39028 2.19306,9.87704 4.3861,15.91245 z m -7.131462,-26.33289 c -4.938517,3.84193 -9.324507,7.6798 -12.617887,11.52185 -1.644815,-6.58323 -2.741287,-12.6179 -3.841937,-18.10133 3.841937,-3.84193 8.228043,-7.6798 13.715003,-11.52185 0.552445,5.48258 1.649,11.51757 2.745471,18.10133 z m -3.837754,-27.97751 c -5.486753,3.28953 -9.872748,7.13146 -14.262492,10.96901 -0.548257,-6.58322 -1.096473,-10.42109 -1.096473,-10.42109 0,-1.09647 -0.548256,-1.64481 -1.096471,-2.74128 4.39028,-3.28953 9.872747,-7.13146 15.359604,-10.4211 0.544068,3.28952 0.544068,7.6798 1.096472,12.61361 z M 268.26901,286.34526 c 5.48675,3.28953 10.42108,6.58323 14.81104,9.87276 -0.54825,0.54825 -0.54825,1.09647 -0.54825,2.19304 0,0 0,3.84195 -1.09647,10.4211 -4.39029,-3.84195 -8.77628,-7.13146 -14.26249,-10.96901 1.09647,-3.83776 1.09647,-8.22804 1.09647,-11.51756 z m -1.64482,21.9423 c 5.48675,3.84194 9.87275,7.6798 13.715,11.52185 -1.09647,5.48675 -2.19304,11.52184 -3.84193,18.10133 -3.84194,-3.84195 -7.6798,-7.67982 -12.61789,-10.96901 1.10065,-7.13575 2.19723,-13.17074 2.74547,-18.65309 z m 1.09647,54.85466 c -3.28952,-4.39027 -7.13146,-8.22803 -10.969,-11.52184 1.64481,-5.48676 3.28952,-10.42109 4.39028,-15.90816 4.93852,3.84193 8.77627,7.6798 12.0704,11.52185 -1.10065,5.48675 -3.29369,10.969 -5.49093,15.90815 z m 24.6883,-4.39027 c -2.19305,-3.84194 -4.93852,-8.77628 -8.77628,-13.16645 1.64481,-6.58322 3.28952,-12.61789 4.39029,-18.10133 4.39028,5.48676 7.6798,10.4211 9.87274,15.35961 -1.64899,4.93852 -3.2937,10.42528 -5.48675,15.90817 z m 9.87275,-36.75442 c 0,0 -0.54826,3.84194 -1.64482,8.77628 -2.74128,-4.39029 -6.58323,-9.32451 -10.969,-14.26249 1.09647,-6.03499 1.09647,-10.4211 1.64481,-13.71501 6.03499,5.48675 10.42109,10.42109 14.26249,15.3596 -1.64899,0.55245 -2.74546,1.649 -3.2937,3.84194 z"
     id="path3"
     style="fill:#ffffff;fill-opacity:1;stroke:#ffffff;stroke-width:1.0714;stroke-opacity:1" />
  <path
     d="m 49.398262,421.83883 c 0,0 0.548256,0.54825 1.644814,1.09647 1.096472,0.54826 2.193051,0.54826 3.289523,1.09647 -1.644815,-1.09647 -3.289523,-2.19305 -4.390281,-3.28952 -0.544068,0.54826 -0.544068,1.09647 -0.544068,1.09647 z"
     id="path4"
     style="fill:#ffffff;fill-opacity:1;stroke:#ffffff;stroke-width:1.0714;stroke-opacity:1" />
  <path
     d="m 179.95598,457.49506 c -35.10981,0 -63.08303,-6.03499 -84.477831,-13.16645 -8.776273,5.48675 -17.552762,9.87275 -25.780051,12.07041 21.942296,21.39481 57.047832,41.68821 110.257882,41.68821 110.2579,0 143.71775,-88.86736 143.71775,-88.86736 0,0.004 -41.6925,48.27626 -143.71775,48.27626 z"
     id="path5"
     style="fill:#ffffff;fill-opacity:1;stroke:#ffffff;stroke-width:1.0714;stroke-opacity:1" />
</svg>
