<?xml version="1.0" encoding="UTF-8"?>
<svg width="512pt" height="512pt" version="1.1" viewBox="0 0 512 512" xmlns="http://www.w3.org/2000/svg">
 <path d="m313.34 183.81s-23.551 22.016-51.199 51.711c-23.039-8.7031-49.664-13.824-78.336-13.824-87.551-0.51172-158.21 46.594-158.21 104.96 0 21.504 9.7266 41.984 26.625 58.879 0 0-16.895 15.871-13.824 28.16 2.0469 7.6797 10.754 21.504 28.672 21.504 10.238 0 23.039-4.0977 39.938-16.383 22.527 8.1914 48.641 13.312 76.289 13.312 87.551 0 158.21-47.105 158.21-105.47 0-28.672-16.895-54.785-45.055-73.727l50.176-54.273zm-244.22 236.03c-3.0703 0-6.1445-0.51172-9.2148-2.0469-14.848-7.168 3.0703-23.551 3.0703-23.551h-0.51172c8.7031 6.6562 18.434 12.801 29.695 17.922-5.1211 3.0664-14.336 7.6758-23.039 7.6758zm249.34-92.672c0 48.129-61.953 78.336-134.66 78.336s-134.66-29.695-134.66-78.336c0-48.129 61.953-87.551 134.66-87.551s134.66 39.422 134.66 87.551z"/>
 <path d="m484.86 49.664c-13.312-28.16-64-45.566-165.38 114.18-2.0469 3.0703-1.5352 7.168 1.5352 9.2148l36.352 17.406c3.0703 2.5586 7.6797 2.5586 10.238-0.51172 11.266-12.289 38.91-30.207 55.297-47.105 16.387-17.914 73.73-67.066 61.953-93.18zm-42.496 20.48c-8.1914 0-14.336-3.5859-14.336-8.7031 0-4.6094 6.6562-8.7031 14.336-8.7031 8.1914 0 14.336 3.5859 14.336 8.7031 0 4.6055-6.6562 8.7031-14.336 8.7031z"/>
 <path d="m311.3 328.19s-14.848-80.383-127.49-80.383-125.95 80.383-125.95 80.383 1.5352-3.5859 5.1211-9.2148c0.51172 3.0703 1.5352 8.7031 3.5859 16.383-3.5859 7.6797-4.6094 12.801-4.6094 13.312-0.51172 2.0469 1.0234 4.0977 3.0703 4.6094h1.0234c2.0469 0 3.5859-1.5352 4.0977-3.0703 0 0 0-1.0234 0.51172-2.5586 1.5352 4.0977 3.5859 8.7031 5.6328 12.801-1.0234 2.5586-1.5352 4.0977-1.5352 4.6094-0.51172 2.0469 0.51172 4.6094 3.0703 5.1211h1.0234c1.0234 0 2.0469-0.51172 2.5586-1.0234 0.51172 0.51172 0.51172 1.0234 1.0234 1.5352 1.0234 1.0234 2.0469 1.5352 3.5859 1.5352 1.0234 0 1.5352 0 2.0469-0.51172 2.0469-1.0234 2.5586-3.5859 1.0234-5.6328-1.5352-2.0469-2.5586-4.0977-3.5859-5.6328 1.5352-3.0703 3.5859-7.168 7.168-12.289 1.5352 4.6094 3.5859 9.7266 5.6328 14.336-4.6094 7.168-7.168 12.289-7.168 12.801-1.0234 2.0469 0 4.6094 2.0469 5.1211 0.51172 0 1.0234 0.51172 1.5352 0.51172 1.5352 0 3.0703-1.0234 3.5859-2.5586 0 0 1.5352-3.0703 4.0977-7.6797 3.0703 5.6328 6.6562 11.777 10.754 16.895 1.0234 1.0234 2.0469 1.5352 3.0703 1.5352 1.0234 0 1.5352-0.51172 2.5586-1.0234 2.0469-1.5352 2.0469-4.0977 1.0234-5.6328-4.6094-6.1445-8.7031-13.312-12.289-19.969 2.5586-3.5859 5.6328-6.6562 9.2148-10.238 6.1445 15.359 14.848 30.719 27.648 42.496 1.0234 0.51172 1.5352 1.0234 2.5586 1.0234s2.0469-0.51172 3.0703-1.5352c1.5352-1.5352 1.5352-4.0977 0-5.6328-12.289-11.266-20.48-26.625-26.113-41.984 4.0977-3.0703 9.2148-5.1211 14.336-6.6562 2.0469-0.51172 3.5859-3.0703 2.5586-5.1211-0.51172-2.0469-3.0703-3.5859-5.1211-2.5586-5.6328 1.5352-10.238 4.0977-14.848 6.6562-1.5352-5.1211-3.0703-10.754-4.0977-15.871 5.1211-3.5859 11.266-7.168 18.434-10.238 2.0469-1.0234 3.0703-3.0703 2.0469-5.1211-1.0234-2.0469-3.0703-3.0703-5.1211-2.0469-6.1445 2.5586-12.289 5.6328-16.895 9.2148-1.0234-6.1445-2.0469-11.777-2.5586-16.895 7.168-4.0977 15.871-8.1914 25.602-11.266 2.0469-0.51172 3.0703-3.0703 2.5586-5.1211-0.51172-2.0469-3.0703-3.0703-5.1211-2.5586-9.2148 3.0703-16.895 6.6562-24.062 10.238-0.51172-4.6094-0.51172-8.7031-0.51172-11.266 18.434-8.7031 41.984-15.359 73.215-15.359 31.742 0 55.809 6.6562 74.754 15.871 0 2.5586 0 6.1445-0.51172 10.754-7.168-3.5859-14.848-7.168-24.062-10.238-2.0469-0.51172-4.6094 0.51172-5.1211 2.5586-0.51172 2.0469 0.51172 4.6094 2.5586 5.1211 9.7266 3.0703 18.434 7.168 25.602 11.266-0.51172 5.1211-1.5352 10.754-2.5586 16.895-5.1211-3.0703-10.754-6.1445-16.895-9.2148-2.0469-1.0234-4.6094 0-5.1211 2.0469-1.0234 2.0469 0 4.6094 2.0469 5.1211 7.168 3.0703 13.312 6.6562 18.434 10.238-1.0234 5.1211-2.5586 9.7266-4.0977 14.848-10.238-7.168-18.945-9.2148-19.457-9.2148-2.0469-0.51172-4.6094 1.0234-4.6094 3.0703-0.51172 2.0469 1.0234 4.6094 3.0703 4.6094 0 0 8.7031 2.0469 18.434 9.2148-5.6328 15.871-14.336 31.23-26.625 42.496-1.5352 1.5352-1.5352 4.0977 0 5.6328 1.0234 1.0234 2.0469 1.5352 3.0703 1.5352s2.0469-0.51172 2.5586-1.0234c12.801-11.777 21.504-27.137 27.648-43.008 3.0703 3.0703 6.1445 6.6562 9.2148 10.754-3.5859 6.6562-7.168 13.312-12.289 19.969-1.5352 2.0469-1.0234 4.0977 1.0234 5.6328 0.51172 0.51172 1.5352 1.0234 2.5586 1.0234 1.0234 0 2.5586-0.51172 3.0703-1.5352 4.0977-5.1211 7.6797-10.754 10.754-16.383 1.0234 2.0469 2.0469 4.6094 3.0703 6.6562 0.51172 1.5352 2.0469 2.5586 3.5859 2.5586 0.51172 0 1.0234 0 1.5352-0.51172 2.0469-1.0234 3.0703-3.0703 2.0469-5.1211-2.0469-4.6094-4.0977-8.7031-6.1445-12.801 2.0469-5.1211 4.0977-9.7266 6.1445-14.848 3.0703 4.6094 5.6328 8.7031 7.168 12.289-1.0234 2.0469-2.5586 4.0977-3.5859 5.6328-1.0234 2.0469-1.0234 4.6094 1.0234 5.6328 0.51172 0.51172 1.5352 0.51172 2.0469 0.51172 1.5352 0 2.5586-0.51172 3.5859-1.5352 0.51172-0.51172 0.51172-1.0234 1.0234-1.5352 0.51172 0.51172 1.5352 1.0234 2.5586 1.0234h1.0234c2.0469-0.51172 3.5859-2.5586 3.0703-5.1211 0-0.51172-0.51172-2.0469-1.5352-4.6094 2.0469-4.0977 4.0977-8.7031 5.6328-12.801 0.51172 1.5352 0.51172 2.5586 0.51172 2.5586 0.51172 2.0469 2.0469 3.0703 4.0977 3.0703h1.0234c2.0469-0.51172 3.5859-2.5586 3.0703-4.6094 0-0.51172-1.0234-6.1445-4.6094-13.312 2.0469-7.168 3.0703-12.801 3.5859-15.871 2.0742 6.6523 3.6094 10.234 3.6094 10.234zm-240.13-11.777c0-2.0469-1.5352-3.0703-3.5859-3.5859 3.5859-4.6094 8.1914-9.7266 13.824-14.848 0 3.0703 0.51172 7.6797 1.5352 13.312-4.0977 4.6094-7.6797 9.2148-10.238 13.312-1.0234-5.1172-1.5352-8.1914-1.5352-8.1914zm9.2148 34.305c-2.0469-5.1211-4.0977-10.238-5.1211-14.848 2.0469-4.0977 5.1211-9.2148 9.2148-14.336 1.0234 5.1211 2.5586 10.754 4.0977 16.895-3.0703 4.6094-6.1406 8.707-8.1914 12.289zm33.281-5.6289c-4.0977 3.0703-7.168 6.6562-10.238 10.238-2.0469-5.1211-4.0977-9.7266-5.1211-14.336 3.0703-3.5859 6.6562-7.168 11.266-10.754 1.0234 4.0977 2.0469 9.2188 4.0938 14.852zm-6.6562-24.578c-4.6094 3.5859-8.7031 7.168-11.777 10.754-1.5352-6.1445-2.5586-11.777-3.5859-16.895 3.5859-3.5859 7.6797-7.168 12.801-10.754 0.51563 5.1172 1.5391 10.75 2.5625 16.895zm-3.582-26.113c-5.1211 3.0703-9.2148 6.6562-13.312 10.238-0.51172-6.1445-1.0234-9.7266-1.0234-9.7266 0-1.0234-0.51172-1.5352-1.0234-2.5586 4.0977-3.0703 9.2148-6.6562 14.336-9.7266 0.50781 3.0703 0.50781 7.168 1.0234 11.773zm162.81-11.262c5.1211 3.0703 9.7266 6.1445 13.824 9.2148-0.51172 0.51172-0.51172 1.0234-0.51172 2.0469 0 0 0 3.5859-1.0234 9.7266-4.0977-3.5859-8.1914-6.6562-13.312-10.238 1.0234-3.582 1.0234-7.6797 1.0234-10.75zm-1.5352 20.48c5.1211 3.5859 9.2148 7.168 12.801 10.754-1.0234 5.1211-2.0469 10.754-3.5859 16.895-3.5859-3.5859-7.168-7.168-11.777-10.238 1.0273-6.6602 2.0508-12.293 2.5625-17.41zm1.0234 51.199c-3.0703-4.0977-6.6562-7.6797-10.238-10.754 1.5352-5.1211 3.0703-9.7266 4.0977-14.848 4.6094 3.5859 8.1914 7.168 11.266 10.754-1.0273 5.1211-3.0742 10.238-5.125 14.848zm23.043-4.0977c-2.0469-3.5859-4.6094-8.1914-8.1914-12.289 1.5352-6.1445 3.0703-11.777 4.0977-16.895 4.0977 5.1211 7.168 9.7266 9.2148 14.336-1.5391 4.6094-3.0742 9.7305-5.1211 14.848zm9.2148-34.305s-0.51172 3.5859-1.5352 8.1914c-2.5586-4.0977-6.1445-8.7031-10.238-13.312 1.0234-5.6328 1.0234-9.7266 1.5352-12.801 5.6328 5.1211 9.7266 9.7266 13.312 14.336-1.5391 0.51562-2.5625 1.5391-3.0742 3.5859z"/>
 <path d="m61.953 409.6s0.51172 0.51172 1.5352 1.0234c1.0234 0.51172 2.0469 0.51172 3.0703 1.0234-1.5352-1.0234-3.0703-2.0469-4.0977-3.0703-0.50781 0.51172-0.50781 1.0234-0.50781 1.0234z"/>
 <path d="m183.81 442.88c-32.77 0-58.879-5.6328-78.848-12.289-8.1914 5.1211-16.383 9.2148-24.062 11.266 20.48 19.969 53.246 38.91 102.91 38.91 102.91 0 134.14-82.945 134.14-82.945 0 0.003907-38.914 45.059-134.14 45.059z"/>
</svg>
