<?xml version="1.0" encoding="UTF-8" standalone="no"?>
<svg
   id="Layer_1"
   data-name="Layer 1"
   viewBox="0 0 512 512"
   version="1.1"
   sodipodi:docname="Port wine glass colors_v5.svg"
   inkscape:version="1.3.2 (091e20e, 2023-11-25)"
   xmlns:inkscape="http://www.inkscape.org/namespaces/inkscape"
   xmlns:sodipodi="http://sodipodi.sourceforge.net/DTD/sodipodi-0.dtd"
   xmlns="http://www.w3.org/2000/svg"
   xmlns:svg="http://www.w3.org/2000/svg">
  <defs
     id="defs33" />
  <sodipodi:namedview
     id="namedview33"
     pagecolor="#ffffff"
     bordercolor="#000000"
     borderopacity="0.25"
     inkscape:showpageshadow="2"
     inkscape:pageopacity="0.0"
     inkscape:pagecheckerboard="0"
     inkscape:deskcolor="#d1d1d1"
     inkscape:zoom="0.58198709"
     inkscape:cx="326.46772"
     inkscape:cy="335.9181"
     inkscape:window-width="1728"
     inkscape:window-height="972"
     inkscape:window-x="0"
     inkscape:window-y="38"
     inkscape:window-maximized="0"
     inkscape:current-layer="Layer_1" />
  <path
     d="m227,57.429s-54.643,186.643,22.929,223.929h-35.571l-28.929-45.643v-82.286l14.786-80.357,2.571-19.983,24.214,4.34Z"
     fill="#4f7097"
     stroke-width="0"
     id="path1"
     style="fill:#7ebcc4;fill-opacity:1" />
  <path
     d="m253.406,430.982s8.201,14.464,5.308,23.625h29.893v-9.643l-29.25-15.911-5.951,1.929Z"
     fill="#4f7097"
     stroke-width="0"
     id="path2"
     style="fill:#7ebcc4;fill-opacity:1" />
  <path
     d="m249.929,291.214s11.797,39.651,9.429,66,6.857-31.286,6.857-31.286l3.214-36.214-19.5,1.5Z"
     fill="#4f7097"
     stroke-width="0"
     id="path3"
     style="fill:#7ebcc4;fill-opacity:1" />
  <path
     d="m322.202,132.669l-39.911-.294c-1.716-.013-3.518,0-5.021.992s-2.537,3.32-1.768,5.156c.815,1.946,2.987,2.252,4.805,2.305,13.081.379,26.162.758,39.243,1.138"
     fill="#ef9437"
     stroke-width="0"
     id="path4"
     style="fill:#c36b70;fill-opacity:1" />
  <path
     d="m329.415,146.641c-14.707.408-29.414.816-44.121,1.223-2.84.079-6.369.611-7.193,3.101-.615,1.859.831,3.868,2.722,4.748s4.101.907,6.221.917c12.244.054,24.488.107,36.732.161"
     fill="#ef9437"
     stroke-width="0"
     id="path5"
     style="fill:#c36b70;fill-opacity:1" />
  <path
     d="m328.593,159.949c-12.705-.235-25.41-.47-38.115-.705-2.525-.047-5.209-.063-7.366.937s-3.367,3.42-1.755,4.9c13.051,1.536,26.313,2.031,39.499,1.475"
     fill="#ef9437"
     stroke-width="0"
     id="path6"
     style="fill:#c36b70;fill-opacity:1" />
  <path
     d="m324.783,171.681c-13.73-.188-27.459-.376-41.189-.564-2.466-.034-5.388.104-6.69,1.638-1.13,1.332-.37,3.178,1.179,4.26s3.685,1.57,5.758,1.96c9.442,1.778,27.699,2.249,37.375,1.38"
     fill="#ef9437"
     stroke-width="0"
     id="path7"
     style="fill:#c36b70;fill-opacity:1" />
  <path
     d="m318.478,236.95c-7.781.424-15.562.848-23.343,1.272-1.503.082-3.37.635-3.806,3.224-.325,1.932.44,4.021,1.44,4.935s2.169.943,3.291.953c6.478.056,12.955.112,19.433.167"
     fill="#ef9437"
     stroke-width="0"
     id="path8"
     style="fill:#c36b70;fill-opacity:1" />
  <path
     d="m318.044,250.784c-6.722-.244-13.444-.489-20.165-.733-1.336-.049-2.756-.065-3.897.974s-1.781,3.556-.928,5.093c6.905,1.597,13.921,2.111,20.897,1.533"
     fill="#ef9437"
     stroke-width="0"
     id="path9"
     style="fill:#c36b70;fill-opacity:1" />
  <path
     d="m316.028,262.979c-7.264-.195-14.528-.391-21.791-.586-1.305-.035-2.85.108-3.539,1.703-.598,1.385-.196,3.303.624,4.428s1.95,1.632,3.047,2.038c4.995,1.849,14.654,2.338,19.773,1.434"
     fill="#ef9437"
     stroke-width="0"
     id="path10"
     style="fill:#c36b70;fill-opacity:1" />
  <path
     d="m321.216,185.788c-7.57-.047-27.678-.093-35.248-.14-3.521-.022-7.243-.003-10.27,1.406s-4.884,4.742-2.9,7.02c1.752,2.012,5.364,2.237,8.473,2.263,7.531.063,33.4.152,40.93.215"
     fill="#ef9437"
     stroke-width="0"
     id="path11"
     style="fill:#c36b70;fill-opacity:1" />
  <path
     d="m324.997,202.269c-6.911-.139-28.588.177-35.499.037-3.087-.062-6.272-.117-9.159.458s-5.425,1.948-5.424,3.562c0,1.338,1.748,2.549,3.94,3.24s4.778.948,7.317,1.122c5.697.39,34.345,1.526,40.057,1.204"
     fill="#ef9437"
     stroke-width="0"
     id="path12"
     style="fill:#c36b70;fill-opacity:1" />
  <path
     d="m327.325,219.844c-6.629-.372-25.547-1.284-32.086-.236-1.877.301-3.8.681-5.362,1.665s-2.691,2.716-2.307,4.398c.308,1.348,1.519,2.412,2.895,3.01s2.914.801,4.426.997c5.239.68,21.509,1.359,26.748,2.039"
     fill="#ef9437"
     stroke-width="0"
     id="path13"
     style="fill:#c36b70;fill-opacity:1" />
  <path
     d="m188.66,120.881c46.031-.268,92.061-.536,138.092-.804-1.313,2.56-1.917,5.297-3.229,7.858-43.097.603-86.695,1.003-129.792,1.606-.95-2.978-4.121-5.681-5.071-8.659Z"
     fill="#ef9437"
     stroke-width="0"
     id="path14"
     style="fill:#c36b70;fill-opacity:1" />
  <g
     id="g20"
     inkscape:label="black">
    <path
       d="m271.297,80.813l21.2-1.627c3.916-.3,6.776,6.079,5.491,12.243-.014.069-.029.137-.043.205-.763,3.661-2.82,6.138-5.148,6.205-8.253.237-16.451-.617-24.691-.407-2.803.071-5.233-3.329-5.584-7.959-.176-2.318-.076-4.612.546-6.73,1.103-3.753,3.626-5.138,5.43-3.293.851.87,1.8,1.439,2.798,1.362Z"
       fill="#2a2e28"
       stroke-width="0"
       id="path15"
       style="fill:#b8b8b8;fill-opacity:1" />
    <path
       d="m275.802,106.329l17.583-.599c2.483-.085,4.231,4.05,3.332,7.902-.029.124-.058.247-.086.372-.519,2.246-1.814,3.709-3.259,3.721-5.776.047-11.63.538-17.401.582-1.338.01-2.567-1.276-3.14-3.289-.032-.113-.065-.226-.098-.339-1.12-3.809.523-8.263,3.071-8.349Z"
       fill="#2a2e28"
       stroke-width="0"
       id="path16"
       style="fill:#b8b8b8;fill-opacity:1" />
    <path
       d="m283.406,128.345h13.136c2.385,0,3.827,4.363,2.565,7.731-.013.034-.025.067-.038.101-.539,1.452-1.483,2.331-2.508,2.362-4.05.123-8.871.6-12.96.744-1.342.047-2.558-1.386-2.944-3.526-.059-.325-.115-.65-.169-.975-.545-3.23.901-6.438,2.917-6.438Z"
       fill="#2a2e28"
       stroke-width="0"
       id="path17"
       style="fill:#b8b8b8;fill-opacity:1" />
    <path
       d="m294.468,149.479l4.857-.116c1.237-.03,2.253,1.577,2.328,3.632.014.378.034.755.052,1.132.106,2.216-.945,4.106-2.28,4.119-1.563.016-3.125.046-4.688.061-1.017.01-1.909-1.102-2.213-2.717-.07-.371-.141-.746-.214-1.122-.469-2.445.615-4.952,2.157-4.989Z"
       fill="#2a2e28"
       stroke-width="0"
       id="path18"
       style="fill:#b8b8b8;fill-opacity:1" />
    <path
       d="m298.543,166.529h2.077c1.063,0,1.678,2.007,1.056,3.442-.505,1.166-1.005,2.325-1.514,3.477-.212.482-.536.8-.893.868-.006.001-.012.002-.018.003-.665.13-1.275-.58-1.43-1.665-.16-1.124-.364-2.264-.543-3.405-.215-1.376.409-2.721,1.263-2.721Z"
       fill="#2a2e28"
       stroke-width="0"
       id="path19"
       style="fill:#b8b8b8;fill-opacity:1" />
    <path
       d="m298.423,180.934l1.029.118c.956.11,1.475,1.965.881,3.217-.339.714-.803,1.293-1.309,1.549-.359.182-.734.239-1.109.204-.923-.085-1.472-1.751-.987-3.061.127-.342.251-.682.36-1.001.231-.679.668-1.081,1.135-1.027Z"
       fill="#2a2e28"
       stroke-width="0"
       id="path20"
       style="fill:#b8b8b8;fill-opacity:1" />
  </g>
  <g
     id="g26"
     inkscape:label="pink">
    <path
       d="m236.274,138.227c1.164-.024,2.361-.043,3.45.422s2.059,1.534,2.14,2.845c.085,1.382-.843,2.639-1.954,3.228s-2.374.652-3.6.705c-4.283.186-35.41,3.69-34.516-2.334.764-5.146,10.618-4.365,13.43-4.424,7.017-.147,14.034-.294,21.051-.442Z"
       fill="#ef9437"
       stroke-width="0"
       id="path21"
       style="fill:#c36b70;fill-opacity:1" />
    <path
       d="m234.519,154.595c1.006.04,2.09.112,2.871.829s.96,2.333.085,2.897c-8.435,1.586-16.994,2.327-25.545,2.211-3.892-.053-7.961-.34-11.309-2.581-.889-.595-1.771-1.429-1.95-2.583-.575-3.783,14.044-1.643,16.39-1.549,6.486.259,12.972.517,19.457.776Z"
       fill="#ef9437"
       stroke-width="0"
       id="path22"
       style="fill:#c36b70;fill-opacity:1" />
    <path
       d="m222.906,166.418c1.782-.046,3.866.069,4.894,1.714,1.121,1.794.183,4.463-1.439,5.673s-3.669,1.358-5.61,1.468c-4.739.269-9.477.537-14.216.806-1.916.109-3.892.207-5.693-.537-5.445-2.249-3.504-8.258,1.307-8.691,6.832-.616,13.894-.254,20.758-.433Z"
       fill="#ef9437"
       stroke-width="0"
       id="path23"
       style="fill:#c36b70;fill-opacity:1" />
    <path
       d="m225.616,183.765c.864,1.804-.081,4.167-1.584,5.317s-3.391,1.399-5.197,1.614c-4.503.537-9.006,1.074-13.509,1.612-1.327.158-2.677.316-3.988.034-2.314-.497-4.973-3.608-3.211-6.358,1.304-2.035,3.6-1.002,5.485-.932,7.267.271,14.744-.823,22.005-1.287Z"
       fill="#ef9437"
       stroke-width="0"
       id="path24"
       style="fill:#c36b70;fill-opacity:1" />
    <path
       d="m203.235,197.785l12.119-.449c1.124-.042,2.276-.079,3.343.324s2.047,1.345,2.25,2.594c.248,1.527-.75,3.031-1.988,3.704s-2.663.708-4.037.73c-2.281.036-4.563.073-6.844.109-1.014.016-2.044.03-3.02-.282s-1.906-1.001-2.324-2.044c-.481-1.2-.144-2.748.776-3.559s2.332-.803,3.245.016"
       fill="#ef9437"
       stroke-width="0"
       id="path25"
       style="fill:#c36b70;fill-opacity:1" />
    <path
       d="m216.865,212.785c.872.136,1.858.436,2.236,1.333.329.781.039,1.754-.502,2.366s-1.283.934-2.011,1.201c-1.747.642-3.556,1.067-5.384,1.266-1.499.163-3.238.062-4.182-1.264-4.118-5.787,8.183-5.159,9.843-4.901Z"
       fill="#ef9437"
       stroke-width="0"
       id="path26"
       style="fill:#c36b70;fill-opacity:1" />
  </g>
  <g
     id="g32"
     inkscape:label="black">
    <path
       d="m231.266,83.928l-15.403-.349c-2.105-.048-3.594,3.409-2.889,6.71.352,1.649.709,3.326,1.037,4.845.433,2.004,1.582,3.362,2.862,3.328,6.195-.163,12.221-1.394,18.315-1.622,1.655-.062,2.933-2.381,2.923-5.136-.009-2.341-.246-4.652-1.018-6.668-1.072-2.798-2.894-3.706-3.942-2.159-.51.753-1.202,1.067-1.884,1.052Z"
       fill="#2a2e28"
       stroke-width="0"
       id="path27"
       style="fill:#b8b8b8;fill-opacity:1" />
    <path
       d="m224.748,104.863l-15.79.581c-1.295.048-2.157,2.242-1.669,4.239.399,1.635.806,3.226,1.198,4.941.282,1.236,1.016,2.003,1.809,1.937,4.637-.385,9.361-.264,13.948-.628.889-.071,1.59-1.214,1.733-2.676.163-1.666.425-3.156.627-4.743.244-1.915-.68-3.695-1.856-3.651Z"
       fill="#2a2e28"
       stroke-width="0"
       id="path28"
       style="fill:#b8b8b8;fill-opacity:1" />
    <path
       d="m221.291,121.566l-10.982,1.013c-1.881.174-2.947,3.667-1.921,6.296.311.798.617,1.598.894,2.402.454,1.317,1.287,2.131,2.198,2.08,3.119-.175,6.803-.062,9.973-.199,1.298-.056,2.329-1.802,2.376-3.961.025-1.151.028-2.289.045-3.432.036-2.391-1.15-4.331-2.585-4.199Z"
       fill="#2a2e28"
       stroke-width="0"
       id="path29"
       style="fill:#b8b8b8;fill-opacity:1" />
    <path
       d="m213.994,138.185l-5.142.377c-.938.069-1.641,1.492-1.471,3.028.213,1.927.163,3.861.464,5.798.189,1.219.865,2.051,1.62,1.973,1.529-.157,3.056-.286,4.58-.439.807-.081,1.445-1.178,1.467-2.522.029-1.821.085-3.716.117-5.538.027-1.514-.725-2.743-1.634-2.676Z"
       fill="#2a2e28"
       stroke-width="0"
       id="path30"
       style="fill:#b8b8b8;fill-opacity:1" />
    <path
       d="m210.75,156.569l-2.62.317c-.809.098-1.249,1.609-.8,2.733.914,2.288,1.816,4.582,2.745,6.883.174.43.453.723.763.769.394.059.789.205,1.181.155-.166-3.029-.056-6.169-.131-9.209-.024-.98-.55-1.719-1.138-1.648Z"
       fill="#2a2e28"
       stroke-width="0"
       id="path31"
       style="fill:#b8b8b8;fill-opacity:1" />
    <path
       d="m211.053,173.67l-2.939.95c-.019,2.609,1.223,5.945,2.414,6.691.959.6,1.871-.106,2.597-1.156-.352-1.629-1.723-4.866-2.072-6.485Z"
       fill="#2a2e28"
       stroke-width="0"
       id="path32"
       style="fill:#b8b8b8;fill-opacity:1" />
  </g>
  <path
     d="m333.333,451.022c-7.541-.372-24.79-2.14-39.789-10.383-14.487-7.962-26.473-23.419-26.473-39.949v-37.266c0-22.741,2.251-39.05,4.877-50.339,2.658-11.428,10.892-20.91,21.957-24.813,82.939-29.251,21.203-235.184,21.203-235.184h-118.218s-61.736,205.933,21.203,235.184c10.954,3.863,19.42,12.675,22.312,23.925,2.909,11.316,5.451,27.883,5.451,51.227v37.266c0,16.53-12.915,31.987-27.401,39.949-14.999,8.243-32.248,10.012-39.789,10.383-1.835.09-3.455,1.373-3.794,3.179-.473,2.515,1.444,4.71,3.872,4.71h154.51c2.429,0,4.345-2.195,3.872-4.71-.339-1.806-1.959-3.089-3.794-3.179Zm-100.602-176.48c.134.104.262.243.367.423-.095-.164-.22-.308-.367-.423Zm12.062-.072c-.615-.147-.946.055-1.889.63l-.009.006c-.202-.13-.443-.284-.73-.467-.562-.359-1.127-.717-1.328-.858,0,0-.001,0-.002-.002-.119-.135-.26-.225-.485-.274-.173-.06-.355-.087-.546-.081-.097.004-.192.018-.286.04-.686.029-1.74.154-3.427.354-1.378.163-3.417.404-4.014.425-.253-.052-.466-.038-.688.031-.42-1.379-.425-1.387-.524-1.559-.2-.344-.529-.595-.915-.696q-.629-.163-3.163,1.323c-.324.19-.644.379-.917.539-.159-.112-.342-.242-.555-.391-.61-.429-1.259-.883-1.473-1.048-.183-.169-.407-.291-.653-.353-.624-.157-.996.071-1.61.447-.004.002-.007.004-.011.007-.347-.087-.791-.188-1.367-.321-.602-.138-1.197-.272-1.505-.353q-.421-1.531-.535-1.728c-.188-.325-.49-.567-.847-.681,1.182-1.657,1.124-1.847.703-2.581-.769-1.298-1.468-.89-4.064.632-.282.165-.556.326-.79.463-.264-.139-.591-.308-1-.519-.376-.194-.879-.454-1.226-.638.019-.056.037-.11.054-.163,1.004-3.032,1.023-3.09.642-3.748-.668-1.132-1.312-.949-3.086.063.155-.946.104-1.067-.115-1.449-.203-.354-.542-.61-.937-.709-.067-.018-.131-.029-.193-.037-.304-1.076-.313-1.092-.417-1.269-.203-.347-.537-.599-.925-.697-.062-.016-.122-.027-.18-.035-.388-1.424-.392-1.431-.502-1.623-.203-.354-.542-.61-.937-.709-.529-.132-.887.015-1.337.277-.114-.037-.249-.079-.386-.122-.351-.591-.697-1.188-1.031-1.802,1.067-2.24,1.044-2.371.659-3.036-.194-.336-.511-.583-.882-.691,0-.006-.002-.012-.002-.018-.155-1.114-.215-1.548-.277-1.783.22-.353.448-.715.642-1.022,1.894-3.007,1.93-3.065,1.446-3.898-.198-.341-.523-.591-.903-.694-.61-.164-.885-.017-1.832.545-.19-.142-.415-.309-.682-.508-.334-.248-.67-.497-.934-.694.157-.291.312-.579.449-.831,1.678-3.099,1.744-3.219,1.287-4.01-.199-.344-.527-.596-.911-.699-.515-.138-.605-.16-3.114,1.286.663-1.159.574-1.377.239-1.959-.039-.068-.083-.133-.132-.193.695-2.163.714-2.264.372-2.86-.199-.346-.528-.598-.913-.701-.188-.05-.319-.082-.472-.075.202-.611.152-.853-.064-1.242.156-.319.313-.641.449-.918q1.541-3.145,1.114-3.889c-.2-.347-.531-.601-.918-.703-.504-.134-.596-.158-1.76.51.132-.824.073-.954-.137-1.319-.203-.352-.541-.608-.935-.707-.151-.038-.29-.058-.417-.049-.013-.031-.025-.062-.038-.094q-.659-1.644-.732-1.771c-.028-.047-.058-.093-.09-.137.119-.295.238-.587.343-.843q1.203-2.952.807-3.636c-.204-.352-.542-.606-.936-.705-.413-.103-.723-.032-1.04.122-.085-.732-.163-1.471-.24-2.212,1.852-3.077,1.873-3.218,1.451-3.956.057-.062.113-.122.167-.18,3.502-3.779,3.569-3.851,2.959-4.91-.759-1.295-2.033-.557-2.717-.16l-.742.433c.212-.896.154-1.063-.086-1.478-.081-.14-.184-.264-.302-.37.439-1.872.432-1.938.129-2.465-.27-.461-.598-.669-.945-.724,1.302-1.675,1.263-1.94.828-2.693-.073-.125-.162-.238-.265-.336.47-1.79.492-1.999.211-2.499.035-.068.068-.134.101-.198,1.32-2.599,1.399-2.754.965-3.508-.198-.344-.525-.596-.91-.7-.552-.149-.626-.157-2.033.663-.004-.68-.01-1.358-.01-2.042,1.873-2.335,2.234-2.852,2.026-3.422.322-.414.666-.851.969-1.236q3.517-4.478,2.943-5.471c-.198-.343-.524-.594-.907-.697-.344-.094-.498-.134-1.463.368.375-.606.213-.885-.091-1.409-.199-.343-.526-.594-.909-.697-.204-.054-.346-.09-.507-.073.198-.628.25-.934.189-1.196.299-.392.615-.803.895-1.166,2.789-3.625,2.842-3.695,2.292-4.651-.345-.589-.748-.78-1.231-.743,1.211-1.357,1.073-1.597.645-2.338-.616-1.051-1.51-.799-2.333-.371.515-.891.421-1.162.102-1.714-.075-.128-.167-.244-.273-.344.032-.11.064-.217.094-.316.673-2.271.795-2.682.611-3.112.149-.225.299-.448.436-.653,2.213-3.313,2.431-3.639,2.023-4.406.147-.279.295-.558.424-.8,1.556-2.929,1.585-2.984,1.14-3.754-.201-.348-.534-.601-.924-.702-.61-.157-.981.054-1.574.414-.386-.114-.895-.254-1.575-.441-.266-.074-.582-.161-.885-.245.004-.043.009-.087.013-.13,2.604-2.755,2.654-2.972,2.133-3.882.168-.311.336-.62.483-.89,1.721-3.161,1.832-3.364,1.47-4.014.099-.229.197-.456.283-.655,1.082-2.5,1.125-2.598.728-3.288-.108-.189-.255-.35-.429-.474,1.988-3.152,1.966-3.19,1.5-4-.2-.347-.53-.6-.917-.702-.447-.117-.573-.15-1.865.573.864-1.41.816-1.623.492-2.192.026-.045.052-.09.078-.133,1.994-3.402,2.032-3.467,1.545-4.31-.264-.446-.546-.674-.877-.738.765-1.329.734-1.585.371-2.215-.105-.184-.248-.34-.416-.463,1.528-2.53,1.494-2.589,1.06-3.344-.049-.085-.105-.164-.168-.237.009-.023.018-.046.026-.069,1.129-2.934,1.167-3.031.814-3.645.089-.157.175-.31.254-.449,1.529-2.696,1.62-2.857,1.162-3.649-.034-.059-.071-.114-.112-.167.892-2.45.922-2.554.55-3.199-.2-.346-.529-.598-.916-.7-.073-.02-.137-.037-.197-.049.792-1.542.754-1.75.398-2.368-.059-.102-.129-.196-.208-.28.009-.03.018-.06.027-.089.706-2.329.752-2.481.406-3.082.097-.105.192-.208.285-.309q4.632-5.015,4-6.11c-.201-.347-.532-.6-.919-.702-.177-.046-.324-.073-.47-.06.021-.554.027-.869.007-1.081.471-.549.992-1.148,1.418-1.638q3.373-3.88,2.788-4.892c-.2-.345-.529-.597-.915-.699-.467-.124-.685-.097-1.34.266-.21-1.77-.218-1.783-.384-2.071-.039-.068-.083-.132-.132-.192.039-.089.077-.174.112-.256,1.323-3.016,1.375-3.134.955-3.859-.033-.057-.069-.11-.108-.162.028-.062.056-.123.083-.181.987-2.161,1.264-2.766,1.164-3.242.473-.56,1-1.176,1.456-1.709q3.8-4.447,3.216-5.458c-.199-.344-.527-.596-.911-.699-.518-.139-.609-.162-1.766.505.076-1.276.036-1.345-.17-1.701-.014-.024-.029-.048-.044-.071.015-.028.029-.057.043-.084,1.195-2.323,1.293-2.512.865-3.259-.117-.204-.279-.376-.472-.504.56-2.353.547-2.375.235-2.915-.06-.104-.135-.196-.217-.282h95.349c.118.442.238.9.358,1.353-1.475,2.713-1.47,2.851-1.045,3.588.129.224.313.409.532.539-.117,1.654-.1,1.683.135,2.087.148.255.368.459.628.589,0,.023,0,.047-.001.07q-.054,2.223.183,2.633c.141.244.346.44.59.571q-.09,2.097.149,2.507c.124.213.298.39.503.518-.146,1.589-.138,1.679.105,2.102.204.355.544.611.942.709.38.093.674.042.967-.089.07.067.162.154.242.231.383,1.683.767,3.409,1.15,5.165-1.63,2.642-1.631,2.771-1.18,3.549.142.245.349.443.594.574-.002.043-.004.085-.006.126q-.114,2.308.134,2.737c.14.242.344.438.586.569-.081,1.607-.109,2.169-.051,2.483-.259.371-.528.753-.755,1.077-2.288,3.254-2.332,3.316-1.82,4.205.2.348.532.601.92.703.569.149.726.1,1.928-.607q.642,1.694.726,1.838c.198.343.524.593.906.696.414.112.56.145,1.579-.409.039.209.079.418.118.628-.338.783-.243.995.029,1.466.013.021.025.043.039.064-1.413,2.825-1.462,2.948-1.028,3.696.112.194.265.358.446.483-.231,1.751-.227,1.801.037,2.255.134.23.326.418.553.549-.004.046-.007.092-.011.136q-.188,2.44.072,2.892c.021.037.044.073.068.108-.037.095-.074.188-.109.276-1.17,2.957-1.216,3.072-.813,3.767.199.343.526.594.91.697.321.085.478.127.879-.043-.241.707-.167.937.083,1.369.126.218.304.398.514.527-.001.02-.003.039-.005.057q-.238,2.398.031,2.861c.201.345.533.596.919.697.416.11.73.037,1.064-.125.112.742.222,1.487.332,2.232-1.743,2.861-1.803,3.011-1.335,3.819.123.211.293.387.496.516-.002.021-.004.041-.006.062q-.271,2.465-.006,2.928c.12.208.286.383.484.512q-.298,2.476-.021,2.956c.106.185.25.343.42.466-.316,2.052-.308,2.065-.034,2.54.202.348.536.602.926.702.397.102.703.038,1.015-.106.084.691.165,1.383.247,2.076-1.895,2.837-1.904,2.942-1.459,3.718-.053.107-.104.21-.151.306-1.315,2.654-1.395,2.813-.963,3.563.199.346.529.599.916.702.401.106.544.145,1.453-.342-.188.482-.141.733.043,1.081q-4.687,4.446-4.029,5.589c.758,1.296,1.877.647,3.059-.038l2.058-1.195c-.814,1.757-.756,1.935-.409,2.532.041.071.088.139.14.202-.105.109-.208.217-.308.322q-4.526,4.732-3.896,5.824c.2.347.531.6.918.701.549.144.727.091,1.757-.51.435,1.367.441,1.378.539,1.547.198.342.523.592.905.695.033.009.064.018.095.025-2.035,2.496-1.96,2.626-1.472,3.472.092.158.186.289.283.396-1.531,1.911-1.559,2.184-1.083,3.006.744,1.26,1.868.646,2.871.065-.739,1.292-.642,1.46-.296,2.058.157.271.393.483.673.612-.069,2.092-.06,2.109.176,2.514.15.258.374.464.638.594-1.604,2.297-1.701,2.571-1.328,3.253-.126.218-.25.432-.36.622-1.497,2.579-1.586,2.734-1.122,3.532.101.174.235.324.394.443-2.365,2.371-2.276,2.524-1.751,3.436.199.345.528.597.913.7.515.137.602.162,2.712-1.054-.931,1.831-.865,1.946-.504,2.572.035.062.075.12.118.175-.002.004-.004.008-.006.012-1.393,2.662-1.477,2.822-1.033,3.589.184.318.477.556.823.672-.449,1.413-.431,1.596-.128,2.12.085.148.195.278.322.387-.047.182-.092.358-.133.519q-.678,2.636-.348,3.209c.109.189.257.351.432.474-.484,2.625-.477,2.638-.174,3.159.07.12.155.229.253.323-1.059,1.632-1.309,2.13-1.174,2.613-.25.313-.504.628-.722.9-2.565,3.189-2.665,3.314-2.112,4.27.2.345.529.597.914.699.292.077.479.099.747.011-.087.705-.023.84.177,1.189.213.358.417.588.658.699-.868,1.199-.777,1.43-.396,2.091.058.1.126.192.205.276-.062.171-.121.337-.176.489-.622,1.731-.846,2.355-.823,2.759-.394.451-.821.936-1.193,1.36q-3.97,4.509-3.366,5.557c.202.349.535.602.925.703.492.128.764.058,1.394-.299q.616,1.318.664,1.402c.2.344.527.595.912.698.021.006.041.011.06.016-2.182,2.517-2.146,2.723-1.643,3.595.203.353.541.608.936.707.188.047.351.051.508.035-.112.421-.229.834-.345,1.249-.402.405-.825.827-1.2,1.202-4.184,4.174-4.264,4.254-3.612,5.387.292.494.633.706,1.012.738-1.812,1.964-1.806,2.267-1.397,2.991-.006.009-.012.018-.019.027-1.731,2.536-2.124,3.11-1.942,3.703-.566.607-1.183,1.26-1.692,1.798-3.904,4.134-4.05,4.287-3.506,5.242-.2.32-.4.641-.575.918-2.255,3.593-2.298,3.661-1.796,4.533.107.184.254.34.424.462-.332.331-.672.649-1.012.964-.148-.103-.311-.185-.487-.23q-.789-.2-7.595,3.911c-2.08,1.258-4.761,2.878-6.125,3.644-.09-.102-.19-.214-.302-.338-.389-.436-.767-.858-.875-.985-.201-.258-.483-.444-.803-.528q-.641-.171-3.896,1.75c-.79.465-1.796,1.059-2.362,1.383-.36-.074-.824-.16-1.431-.271-.692-.128-1.713-.316-2.042-.396-.063-.026-.129-.048-.196-.064-.648-.167-.976.033-2.06.695-.053.032-.105.064-.156.096-.387-.085-.893-.184-1.564-.314-.685-.134-1.695-.331-2.014-.411-.065-.026-.132-.049-.202-.066-.525-.136-.831-.033-1.485.354-.085-.14-.172-.28-.257-.418-.349-.564-.662-1.071-.69-1.118-.201-.344-.531-.595-.916-.695q-.633-.169-2.878,1.163c-.434.257-1.018.603-1.404.826-.44-.072-1.032-.151-1.845-.261-.749-.101-1.854-.249-2.196-.313-.039-.014-.078-.025-.118-.035-.606-.154-.901,0-1.778.532-.038-.042-.077-.086-.119-.132-.324-.357-.634-.7-.729-.811-.203-.255-.484-.438-.803-.521-.636-.163-.738-.1-2.486.945-.369.22-.745.446-1.015.604-.674-.05-1.697-.061-3.307-.078-.909-.01-2.13-.022-2.51-.048Zm19.74,1.931c.034-.02.064-.038.099-.059.154-.091.308-.183.455-.27.067.109.135.219.203.328h-.757Zm.723,20.76c-.005.015-.009.032-.014.047-.002-.035-.012-.074-.012-.107l.025.06Zm-1.51,4.52c.038.073.081.143.129.206-.037.101-.073.198-.106.29-.819,2.235-.97,2.647-.814,3.081-.138.217-.275.43-.395.618-1.727,2.698-1.831,2.86-1.412,3.681.301.583.668.734,1.093.646-.258.455-.257.712-.132,1.026-.092.142-.182.282-.267.413-2.089,3.229-2.17,3.355-1.741,4.196.131.258.334.458.575.57-2.814,3-2.742,3.14-2.277,4.054.6,1.164,1.417.627,2.548-.115l.326-.215c-.073.643-.146,1.293-.217,1.949-.099.121-.205.25-.298.364q-3.149,3.832-2.665,4.782c.151.297.395.516.683.614-.914,1.118-.793,1.356-.461,2.009.076.149.176.279.293.383-.13.128-.252.249-.367.364-1.099,1.094-1.704,1.698-1.182,2.723.606,1.164,1.388.643,2.681-.22.081.277.142.485.191.652-.147,1.711-.288,3.442-.424,5.186-1.288,2.71-1.308,2.79-.958,3.481.144.283.379.483.65.588-.042.581-.084,1.162-.126,1.744-.252.351-.508.706-.741,1.028q-2.526,3.497-2.068,4.4c.602,1.139,1.454.579,2.444-.068-.123,1.883-.24,3.765-.352,5.639-1.621,1.986-1.631,2.221-1.225,3.017.158.311.42.537.726.628.112.033.198.053.284.06-.095,1.669-.185,3.325-.271,4.967-1.878,2.901-1.913,2.972-1.5,3.781.157.306.413.53.714.623.185.058.305.088.561-.011-.062,1.261-.122,2.509-.18,3.741-.22.645-.201.86-.055,1.176-.02.433-.04.867-.059,1.296-1.82,2.149-1.756,2.293-1.345,3.102.141.271.295.448.462.551-.629.706-.934,1.126-1.051,1.451-1.921-38.167-6.72-83.134-6.72-83.134,5.189,2.955,11.234,2.981,16.441.088-.176.42-.466,1.073-.681,1.559-.99,2.232-1.05,2.366-.71,3.034Zm-8.095,83.415c-.062-1.404-.128-2.82-.199-4.247.04.093.086.19.142.3.385.742.858.786,1.471.512-.026.642-.052,1.277-.077,1.903-.561.626-1,1.127-1.337,1.531Zm1.17,2.808c-.019.51-.038,1.017-.056,1.513-.378.576-.669,1.027-.886,1.387-.031-.87-.064-1.746-.099-2.629.332.052.582-.06.98-.326.019.017.041.037.061.055Zm-34.999,62.847c9.983-3.614,19.815-9.509,26.354-13.853.137.09.286.164.446.206q.736.189,6.458-3.236c.634-.379,1.346-.805,2.03-1.212-.325,1.187-.285,1.341-.014,1.808.199.345.528.597.913.699.255.067.472.068.678.022l.543.964c.201.353.538.609.931.71.418.109.705.053,1.088-.137.319.519.627,1.019.658,1.07.202.35.538.603.929.702.191.049.362.061.521.044.503,1.16.508,1.168.568,1.271.198.338.521.585.9.688.5.139.648.139,1.571-.387.097,1.577.12,1.618.3,1.929.203.35.538.603.928.702.086.022.168.036.248.043.08.109.169.232.269.37.366.503.722.992.746,1.021.328.556.736.738,1.181.728-.973,1.528-.904,1.728-.52,2.394.199.346.528.598.913.7.604.162.626.167,3.636-1.59-.091.771-.039.91.166,1.267.763,1.292,1.811.684,3.262-.155l2.236-1.3c.128.064.255.128.384.192-.342,1.279-.29,1.429-.023,1.89.201.348.534.601.923.7.462.119.795.024,1.172-.178.11.098.233.206.371.326.474.418.951.836,1.096.973.194.202.443.349.72.418.194.05.363.062.523.043.023.064.04.114.06.17h-63.167Z"
     fill="#2a2e28"
     stroke-width="0"
     id="path33"
     style="fill:#b8b8b8;fill-opacity:1" />
</svg>
