<?xml version="1.0" encoding="UTF-8" standalone="no"?>
<svg
   id="Layer_1"
   data-name="Layer 1"
   viewBox="0 0 512 512"
   version="1.1"
   sodipodi:docname="Rounded cocktail glass colors_2.svg"
   inkscape:version="1.3.2 (091e20e, 2023-11-25)"
   xmlns:inkscape="http://www.inkscape.org/namespaces/inkscape"
   xmlns:sodipodi="http://sodipodi.sourceforge.net/DTD/sodipodi-0.dtd"
   xmlns="http://www.w3.org/2000/svg"
   xmlns:svg="http://www.w3.org/2000/svg">
  <defs
     id="defs26" />
  <sodipodi:namedview
     id="namedview26"
     pagecolor="#ffffff"
     bordercolor="#000000"
     borderopacity="0.25"
     inkscape:showpageshadow="2"
     inkscape:pageopacity="0.0"
     inkscape:pagecheckerboard="0"
     inkscape:deskcolor="#d1d1d1"
     inkscape:zoom="0.94763497"
     inkscape:cx="224.24246"
     inkscape:cy="275.95014"
     inkscape:window-width="1728"
     inkscape:window-height="972"
     inkscape:window-x="0"
     inkscape:window-y="38"
     inkscape:window-maximized="0"
     inkscape:current-layer="Layer_1" />
  <g
     id="g4">
    <path
       d="m255.592,432.75s18.529,7.714,15.637,22.5h47.25v-16.393l-62.887-6.107Z"
       fill="#4f7097"
       stroke-width="0"
       id="path1"
       style="fill:#7ebcc4;fill-opacity:1" />
    <path
       d="m248.728,205.286s11.029,52.155,9.745,99.797l4.398-17.619,4.821-31.464,7.714-48.571-13.339-10.929-13.339,8.786Z"
       fill="#4f7097"
       stroke-width="0"
       id="path2"
       style="fill:#7ebcc4;fill-opacity:1" />
    <path
       d="m253.781,428.144c.469,0,.913.01,1.376.013.463-.003.907-.013,1.376-.013h-2.752Z"
       fill="#fff"
       stroke-width="0"
       id="path3"
       style="fill:#d2d2d2;fill-opacity:1" />
    <path
       d="m362.441,454.72c-23.96-17.04-68.76-22.82-79.48-24.77-5.61-1.01-9.98-5.39-10.96-11.01-5.7-32.45-6.09-103.28-3.24-159.01,1.61-31.33,23.73-58.04,54.36-64.85,3.97-.89,7.73-1.88,11.28-2.95h-158.51c3.56,1.07,7.32,2.06,11.3,2.95,30.63,6.81,52.75,33.52,54.36,64.85,2.85,55.73,2.46,126.56-3.24,159.01-.98,5.62-5.35,10-10.96,11.01-10.72,1.95-55.52,7.73-79.48,24.77-1.83,1.3-.94,4.19,1.32,4.19h211.94c2.25,0,3.15-2.89,1.31-4.19Zm-119.34-247.29s6.73,6.09,11.99,6.09h.05c4.07,0,8.98-3.61,11.03-5.27-.04.24.03.44.17.69-.31.47-.63.96-.91,1.36-2.27,3.44-2.31,3.5-1.81,4.39.2.36.53.61.92.72.06.01.12.02.17.04-.27.86-.38,1.3-.37,1.6-.39.44-.82.91-1.19,1.32-3.31,3.64-3.37,3.71-2.78,4.76.2.36.54.62.93.72.48.12.78.03,1.26-.23.03.04.07.09.11.14.31.4.61.78.69.89l.04.04c-.27,1.43-.52,2.87-.76,4.31-3.99,3.61-3.99,3.74-3.39,4.8-.04.08-.08.17-.11.25-1.33,2.92-1.36,2.98-.94,3.71.2.35.53.61.92.71.43.12.73.06,1.13-.16.36.65.73,1.32.86,1.55-.05.46-.1.91-.15,1.37-.38,1.09-.4,1.38-.21,1.78-.07.71-.12,1.43-.19,2.15-.28.97-.29,1.25-.14,1.58-.24,2.85-.42,5.7-.55,8.56-2,3.18-2.02,3.3-1.54,4.14.11.21.28.38.47.51-2.45,2.9-2.39,3.01-1.87,3.93.21.35.56.61.95.7.23.06.43.05.6.02.16.12.34.26.55.42.18.14.35.28.51.4l-.09,3.52c-.3.39-.6.8-.88,1.16q-3.03,4.01-2.47,4.99c.21.36.43.58.67.69-.66.7-.93,1.3-.47,2.12.2.35.53.61.92.71.54.14.84.02,1.49-.36.17.21.33.43.47.61v.03c-.19.25-.37.51-.54.74-3.04,4.18-3.1,4.26-2.53,5.27.47.79,1.08.84,1.73.61-.26.56-.15.84.13,1.33.28.48.61.69.97.73l-.17,6.29c-.22.37-.44.74-.64,1.07q-2.03,3.36-1.53,4.23c.55.94,1.35.81,2.02.51l-.14,5.07c-.03.12-.03.24-.01.34l-.2,7.4c-.23.33-.47.67-.69.97-2.96,4.14-3.02,4.22-2.47,5.19.2.35.53.6.92.7.55.15.61.17,2.02-.67.02.11.03.21.05.3l-.11,4.01c-.39.49-.81,1.02-1.18,1.48q-3.44,4.26-2.87,5.27c.21.36.54.62.93.72.63.16.95-.03,1.79-.55.07-.04.13-.08.19-.11.26-.01.59-.03.96-.05l-.11,4c-.01.06-.01.12,0,.18l-.01.34c-.21.27-.43.55-.62.81-2.82,3.72-2.87,3.79-2.31,4.78.73,1.25,1.85.66,2.77.11l-.45,16.64c-2.79,3.02-2.79,3.2-2.23,4.18.04.07.09.15.14.21-.04.08-.09.15-.14.22-.65.98-1.11,1.69-1.44,2.23l-2.8-103.71c-.4-14.76-2.26-29.44-5.56-43.84l-1.95-8.46Zm11.55,168.02c.2.35.52.61.9.71.34.09.52.12,1.01-.11l-.45,16.63c-.73.74-1.34,1.35-1.86,1.88l-.77-28.37c.14.09.3.17.46.21.54.14.88-.01,1.41-.33.23.16.51.36.85.6.21.15.41.3.6.43l-.1,3.65c-.13.2-.28.41-.4.59-2.05,3.03-2.17,3.21-1.65,4.11Zm.21,41.55l-.15-5.26c.27.24.57.31.88.29l-.11,4.18c-.26.31-.46.57-.62.79Zm.5,3.55l-.14,5.25c-.04.08-.08.16-.12.24l-.18-6.75c.03.02.05.05.08.08.05.16.1.33.15.49.09.29.15.51.21.69Zm-.72-11.47l-.03-1.02c.12.13.24.24.39.32-.14.26-.26.49-.36.7Zm.82-4.89c-.41.76-.7,1.32-.9,1.75l-.19-6.98c.34-.18.78-.44,1.44-.84.05.35.1.62.13.84l-.12,4.54c-.13.24-.25.48-.36.69Zm52.73,42.96q-.98,3.06-.6,3.72c.13.21.3.39.51.52h-117.23c2.19-.95,4.89-2.07,7.99-3.27.41.05.77.09.95.13.04.01.08.02.12.03.72.19.76.19,5.44-2.57,2.74-.96,5.68-1.94,8.78-2.89.75-.05,1.44-.09,1.75-.09.14.03.26.05.39.05.45,0,.9-.27,2.33-1.14.11-.07.25-.15.37-.23.43-.12.86-.24,1.3-.35.29.07.63.15,1.03.25.71.17,1.42.33,1.7.41.07.03.14.06.21.08q.73.19,4.34-1.95c.57-.34,1.22-.72,1.66-.97.33-.08.67-.15,1.01-.22.72-.09,1.66-.22,2.94-.41,1.58-.22,3.91-.56,4.6-.6.46.1.67.05,1.96-.69,1.02-.15,2.04-.28,3.06-.41.02.03.05.07.07.09.22.28.53.49.89.58.55.14.85.05,1.57-.37.37,1.21.38,1.23.49,1.41.21.36.56.62.97.73q.69.19,4.9-2.27c.58-.33,1.2-.69,1.76-1.01.78-.03,1.56-.05,2.35-.05.01,0,.02,0,.03.01.59.23,1.39.54,1.65.66.13.08.28.14.43.18.49.12.82.05,1.35-.24.57,1.33.58,1.34.64,1.44.21.37.57.64.98.75.5.13.63.16,2.38-.82-.21.51-.11.82.16,1.28.22.38.58.65,1,.76.68.17,1-.03,2.06-.66.17-.1.33-.2.47-.29.61.07,1.48.14,2.76.24,1.06.08,2.49.18,2.9.24.02,0,.03.01.04.01.54.14.65.17,2.14-.69-.19.71-.11.91.14,1.33.21.37.57.64.99.75.67.17.81.09,2.48-.89.29-.17.58-.34.81-.48.49.07,1.16.15,2.09.26.53.06,1.19.13,1.65.19-.83,1.57-.85,1.83-.45,2.51.22.37.58.64.99.75.69.18,1.04-.03,2.08-.65.02-.02.05-.04.08-.06.49.07,1.15.12,2.06.2.69.06,1.71.14,2.05.19.02,0,.04.01.06.01.4.11.73.05,1.02-.07.18.13.38.29.62.47.59.45,1.17.9,1.36,1.05.21.2.47.34.75.4.06.02.12.03.18.03.13.16.28.35.46.57.36.45.71.87.83,1.03.82,1.25,2.05.53,3.05-.04l1.99-1.15c.39-.22.77-.44,1.12-.65.84.3,1.66.6,2.47.91.21.15.38.29.46.35.2.19.44.32.71.39.3.07.54.06.78,0,.78.3,1.54.6,2.28.9.13.09.25.18.32.23-.01.03-.02.06-.03.09Z"
       fill="#2a2e28"
       stroke-width="0"
       id="path4"
       style="fill:#d2d2d2;fill-opacity:1" />
  </g>
  <g
     id="g26">
    <path
       d="m107.949,76.983h-29.767v17.048c13.801,114.467,172.106,95.795,172.106,95.795-135.574-.812-142.339-112.843-142.339-112.843Z"
       fill="#4f7097"
       stroke-width="0"
       id="path5"
       style="fill:#7ebcc4;fill-opacity:1" />
    <path
       d="m426.847,121.065c-33.661-.09-67.322-.18-100.983-.27-4.688-.012-9.611,0-13.715.983-4.104.984-6.931,3.291-4.829,5.111,2.227,1.928,8.16,2.232,13.126,2.284,33.359.351,66.719.702,100.078,1.053,2.313-2.892,4.427-5.943,6.323-9.162Z"
       fill="#ef9437"
       stroke-width="0"
       id="path6"
       style="fill:#f3cacc;fill-opacity:1" />
    <path
       d="m416.405,135.007c-28.893.38-57.785.76-86.678,1.14-5.936.078-13.311.606-15.033,3.074-1.286,1.842,1.737,3.834,5.689,4.706,3.952.872,8.57.899,13.002.909,24.135.05,48.271.1,72.406.15,3.777-3.125,7.341-6.434,10.615-9.978Z"
       fill="#ef9437"
       stroke-width="0"
       id="path7"
       style="fill:#f3cacc;fill-opacity:1" />
    <path
       d="m390.737,155.61l3.327-1.459c2.675-1.656,5.289-3.364,7.838-5.125-23.266-.221-46.531-.442-69.797-.663-4.874-.046-10.054-.062-14.216.929-4.163.991-6.498,3.39-3.387,4.856,25.189,1.523,50.786,2.013,76.236,1.462Z"
       fill="#ef9437"
       stroke-width="0"
       id="path8"
       style="fill:#f3cacc;fill-opacity:1" />
    <path
       d="m385.15,159.517c-21.737-.107-43.474-.215-65.21-.322-6.772-.033-14.797.103-18.374,1.624-3.105,1.32-1.017,3.15,3.238,4.222,4.255,1.073,10.121,1.556,15.815,1.943,15.285,1.039,31.007,1.615,46.781,1.747,5.958-2.984,11.921-6.028,17.749-9.214Z"
       fill="#ef9437"
       stroke-width="0"
       id="path9"
       style="fill:#f3cacc;fill-opacity:1" />
    <path
       d="m360.707,173.648c-9.991-.017-19.982-.033-29.974-.05-12.958-.022-26.654-.003-37.792,1.394-11.138,1.397-17.974,4.7-10.672,6.958,6.449,1.994,19.737,2.217,31.182,2.243,6.93.016,15.196.033,24.13.051,7.37-3.617,15.173-7.101,23.127-10.596Z"
       fill="#ef9437"
       stroke-width="0"
       id="path10"
       style="fill:#f3cacc;fill-opacity:1" />
    <path
       d="m433.314,106.675c-118.517.294-237.033.588-355.55.883,2.505,3.347,10.865,6.385,13.37,9.733,112.453-.67,226.192-1.118,338.672-1.784,1.343-2.811,2.514-5.754,3.507-8.831Z"
       fill="#ef9437"
       stroke-width="0"
       id="path11"
       style="fill:#f3cacc;fill-opacity:1" />
    <g
       id="g15"
       inkscape:label="black_2">
      <path
         d="m356.486,94.194l35.656-1.428c6.586-.264,11.396,5.337,9.235,10.749-.024.06-.048.12-.072.18-1.284,3.215-4.743,5.389-8.659,5.448-13.881.208-27.668-.541-41.527-.358-4.715.063-8.801-2.923-9.391-6.988-.295-2.035-.128-4.049.918-5.909,1.854-3.295,6.098-4.511,9.133-2.891,1.431.764,3.028,1.263,4.706,1.196Z"
         fill="#2a2e28"
         stroke-width="0"
         id="path12"
         style="fill:#d2d2d2;fill-opacity:1" />
      <path
         d="m352.219,116.596l29.572-.526c4.176-.074,7.116,3.555,5.603,6.938-.049.109-.097.217-.145.326-.872,1.972-3.051,3.256-5.482,3.267-9.715.042-19.56.472-29.267.511-2.251.009-4.318-1.12-5.281-2.888-.054-.1-.109-.199-.165-.297-1.885-3.344.879-7.254,5.164-7.331Z"
         fill="#2a2e28"
         stroke-width="0"
         id="path13"
         style="fill:#d2d2d2;fill-opacity:1" />
      <path
         d="m350.265,135.926h22.093c4.011,0,6.437,3.831,4.314,6.787-.021.029-.042.059-.063.088-.906,1.275-2.494,2.047-4.218,2.074-6.811.108-14.919.527-21.797.653-2.257.041-4.303-1.217-4.951-3.095-.098-.285-.193-.57-.285-.856-.917-2.836,1.516-5.652,4.907-5.652Z"
         fill="#2a2e28"
         stroke-width="0"
         id="path14"
         style="fill:#d2d2d2;fill-opacity:1" />
      <path
         d="m322.366,182.098l2.184.104c2.028.096,3.129,1.726,1.87,2.825-.718.627-1.704,1.135-2.778,1.36-.763.16-1.557.209-2.353.179-1.958-.074-3.123-1.537-2.095-2.687.269-.3.534-.599.764-.879.489-.596,1.417-.949,2.408-.902Z"
         fill="#2a2e28"
         stroke-width="0"
         id="path15"
         style="fill:#d2d2d2;fill-opacity:1" />
    </g>
    <g
       id="g21"
       inkscape:label="color1_1">
      <path
         d="m181.357,121.26c2.159-.018,4.378-.031,6.398.307s3.818,1.115,3.968,2.069c.158,1.005-1.564,1.919-3.623,2.347-2.059.428-4.403.474-6.676.513-7.943.135-65.669,2.683-64.011-1.698,1.416-3.742,19.692-3.174,24.905-3.217,13.013-.107,26.026-.214,39.039-.321Z"
         fill="#ef9437"
         stroke-width="0"
         id="path16"
         style="fill:#f3cacc;fill-opacity:1" />
      <path
         d="m188.231,133.162c1.866.029,3.876.082,5.325.603s1.781,1.697.158,2.106c-15.643,1.153-31.517,1.692-47.374,1.608-7.218-.038-14.764-.247-20.974-1.877-1.648-.433-3.285-1.039-3.616-1.878-1.067-2.751,26.045-1.195,30.396-1.127,12.028.188,24.056.376,36.084.564Z"
         fill="#ef9437"
         stroke-width="0"
         id="path17"
         style="fill:#f3cacc;fill-opacity:1" />
      <path
         d="m179.871,141.759c3.305-.034,7.17.05,9.077,1.246,2.08,1.304.339,3.245-2.669,4.125-3.008.88-6.804.987-10.405,1.067-8.788.195-17.576.391-26.364.586-3.553.079-7.218.151-10.558-.39-10.097-1.636-6.499-6.004,2.423-6.32,12.67-.448,25.767-.185,38.496-.315Z"
         fill="#ef9437"
         stroke-width="0"
         id="path18"
         style="fill:#f3cacc;fill-opacity:1" />
      <path
         d="m197.644,154.373c1.602,1.312-.149,3.03-2.938,3.866s-6.289,1.017-9.639,1.174c-8.351.391-16.702.781-25.052,1.172-2.461.115-4.965.23-7.396.025-4.291-.362-9.223-2.624-5.955-4.623,2.418-1.48,6.676-.729,10.171-.678,13.477.197,27.344-.599,40.808-.936Z"
         fill="#ef9437"
         stroke-width="0"
         id="path19"
         style="fill:#f3cacc;fill-opacity:1" />
      <path
         d="m159.591,164.567l22.476-.327c2.085-.03,4.221-.057,6.2.236s3.797.978,4.172,1.887c.459,1.11-1.391,2.204-3.688,2.693-2.296.489-4.938.515-7.487.531-4.231.026-8.461.053-12.692.079-1.88.012-3.791.022-5.6-.205s-3.534-.728-4.31-1.487c-.892-.872-.266-1.999,1.439-2.588s4.324-.584,6.017.011"
         fill="#ef9437"
         stroke-width="0"
         id="path20"
         style="fill:#f3cacc;fill-opacity:1" />
      <path
         d="m195.098,173.154c1.617.099,3.445.317,4.147.969.611.568.073,1.276-.931,1.72-1.004.445-2.379.679-3.729.873-3.24.467-6.595.776-9.986.921-2.78.118-6.004.045-7.755-.919-7.638-4.208,15.176-3.752,18.254-3.564Z"
         fill="#ef9437"
         stroke-width="0"
         id="path21"
         style="fill:#f3cacc;fill-opacity:1" />
    </g>
    <g
       id="g25"
       inkscape:label="black">
      <path
         d="m154.668,93.448l-24.023-.225c-3.283-.031-5.605,2.2-4.506,4.33.549,1.064,1.105,2.146,1.617,3.126.675,1.294,2.467,2.17,4.463,2.148,9.662-.105,19.061-.9,28.564-1.047,2.581-.04,4.575-1.537,4.559-3.314-.014-1.511-.383-3.002-1.588-4.303-1.672-1.806-4.514-2.391-6.148-1.393-.795.486-1.875.689-2.938.679Z"
         fill="#2a2e28"
         stroke-width="0"
         id="path22"
         style="fill:#d2d2d2;fill-opacity:1" />
      <path
         d="m160.302,105.405l-24.627.375c-2.02.031-3.364,1.447-2.604,2.736.623,1.055,1.257,2.082,1.868,3.188.44.797,1.585,1.292,2.822,1.25,7.232-.248,14.6-.17,21.754-.405,1.386-.046,2.48-.784,2.703-1.727.254-1.075.663-2.037.978-3.061.381-1.235-1.06-2.384-2.894-2.356Z"
         fill="#2a2e28"
         stroke-width="0"
         id="path23"
         style="fill:#d2d2d2;fill-opacity:1" />
      <path
         d="m164.151,118.851l-17.127.654c-2.934.112-4.596,2.366-2.995,4.063.486.515.962,1.031,1.394,1.55.708.85,2.007,1.375,3.429,1.342,4.864-.113,10.611-.04,15.555-.128,2.024-.036,3.633-1.163,3.706-2.556.039-.743.043-1.477.07-2.215.057-1.543-1.793-2.795-4.031-2.71Z"
         fill="#2a2e28"
         stroke-width="0"
         id="path24"
         style="fill:#d2d2d2;fill-opacity:1" />
      <path
         d="m167.16,133.722l-8.02.243c-1.463.044-2.56.963-2.294,1.954.333,1.244.255,2.492.724,3.742.295.787,1.349,1.324,2.526,1.273,2.385-.102,4.767-.185,7.142-.283,1.258-.052,2.254-.76,2.287-1.628.045-1.175.132-2.398.183-3.574.043-.977-1.13-1.77-2.549-1.727Z"
         fill="#2a2e28"
         stroke-width="0"
         id="path25"
         style="fill:#d2d2d2;fill-opacity:1" />
    </g>
    <path
       d="m273.936,200.161c133.844,0,161.735-55.478,167.129-98.119,1.359-10.741,1.284-21.574.323-32.365H68.93c-.961,10.791-1.036,21.625.323,32.365,5.393,42.641,33.285,98.119,167.13,98.119m186.345-115.226c-1.163-.627-1.496-.594-2.022-.455-.497.132-.942.485-1.198.953-.556,1.016-.391,1.75.47,2.643-.041.059-.079.12-.114.183-.868,1.588.019,2.514,2.573,4.428-.021.537-.042,1.074-.06,1.605-.325.177-.603.447-.787.782-.552,1.01-.725,1.468.7,2.87-.008.575-.017,1.151-.017,1.721.001,1.072-.043,2.12-.089,3.166-3.233-2.012-3.435-1.957-4.173-1.758-.493.135-.924.479-1.178.945-.891,1.629.254,2.617,2.536,4.585.674.581,1.473,1.253,2.317,1.959-.029.218-.067.43-.098.647-1.682-.996-1.903-.941-2.475-.787-.493.133-.918.474-1.173.939-.322.588-.354,1.094-.193,1.565-.155.143-.289.314-.393.504-.339.619-.376,1.145-.166,1.68-.141.008-.271.044-.429.087-.491.134-.917.474-1.171.937-.765,1.398-.721,1.599,3.45,5.854-.018.054-.038.106-.056.16-2.956-1.808-3.164-1.754-3.832-1.572-.491.135-.917.477-1.17.941-.858,1.565.198,2.476,2.114,4.13.066.057.134.115.202.174-.44.81-.549,1.206.285,2.316-.739,1.574-1.557,3.099-2.423,4.592-2.311-1.4-2.506-1.352-3.128-1.182-.49.134-.912.472-1.165.934-.647,1.19-.631,1.514,1.811,4.199-1.554,2.267-3.253,4.437-5.089,6.51-1.085-.632-1.333-.608-1.904-.455-.491.132-.918.47-1.173.932-1.75-1.059-1.947-1.006-2.579-.832-.493.134-.921.477-1.175.942-.094.171-.172.325-.231.472-1.685-.997-1.894-.939-2.481-.781-.492.135-.918.476-1.171.941-.503.917-.654,1.388.345,2.491-.046.065-.089.133-.128.204-.491.893-.684,1.245.423,2.583-.336.174-.62.452-.809.798-.135.245-.226.453-.266.668-.781-.434-1.073-.433-1.604-.292-.496.133-.926.475-1.181.943-.144.262-.221.421-.244.727-.468-.222-.845-.271-1.32-.152-.507.127-.955.478-1.216.954-.264.483-.446.816-.384,1.226-4.334-2.68-4.473-2.642-5.178-2.445-.49.136-.91.474-1.162.937-.447.819-.565,1.261.161,2.256-.134.133-.25.286-.343.457-.54.983-.628,1.361.715,2.932-.205.161-.379.366-.509.602-.111.202-.205.38-.274.546-4.081-2.528-4.209-2.492-4.921-2.292-.49.135-.91.474-1.162.937-.737,1.349-.565,1.621,2.71,5.104-.067.035-.136.069-.203.104-5.236-3.27-5.333-3.253-6.127-3.032-.49.135-.911.474-1.164.937-.283.518-.354.965-.253,1.397-.491-.188-.697-.131-1.018-.041-.49.135-.911.474-1.164.937-.1.181-.175.345-.223.505-.211-.024-.416.006-.659.071-.499.132-.934.478-1.19.95-.027.048-.052.095-.075.141-.334-.094-.588-.067-.916.02-.497.132-.931.477-1.188.945-.489.885-.385,1.26.575,3.331-1.415.57-2.843,1.122-4.279,1.658-.516-.325-1.029-.648-1.502-.947q-5.903-3.723-6.786-3.479c-.491.135-.914.475-1.168.939-.385.702-.387,1.285-.091,1.86-.118.123-.221.262-.305.416-.445.807-.466,1.261.232,2.423-.194.158-.359.356-.483.582-.171.315-.252.496-.255.924-.34-.112-.645-.118-1.015-.023-.504.128-.95.477-1.209.951-.023.042-.045.084-.066.124-1.447-.85-1.646-.796-2.214-.641-.491.135-.914.474-1.168.939-.002-.006-.121.17-.334.485-.489-.308-1.032-.654-1.471-.936q-3.3-2.106-4.148-1.875c-.494.135-.919.476-1.172.943-.448.818-.481,1.291.215,2.336-.161.145-.299.319-.407.516-.02.036-.038.072-.055.107-2.293-1.45-2.43-1.453-3.182-1.251-.492.133-.917.472-1.172.936-.051.092-.097.181-.138.266-.782-.397-.994-.338-1.423-.219-.491.134-.913.472-1.166.935-.456.833-.512,1.297.222,2.356-.321-.092-.636-.183-.934-.268-2.534-.727-4.075-1.169-5.063-1.346-.089-.061-.189-.13-.29-.2-.84-.578-1.394-.96-2.243-.748-.506.127-.947.472-1.207.947-.293.539-.369.846-.164,1.596-.431.155-.799.47-1.03.887-.22.402-.335.705-.3,1.081-3.856-2.379-3.936-2.358-4.668-2.153-.484.137-.897.471-1.149.928-.259.47-.367.757-.236,1.36-1.757-1.069-1.886-1.031-2.524-.854-.483.135-.897.465-1.15.919-.004,0-.194.284-.429.634-.923-.581-1.307-.742-2.003-.552-.405.109-.762.357-1.017.698-.065.08-.208.25-.379.45-.999-.639-1.404-.845-2.145-.647-.348.093-.662.288-.906.558-.138.138-.537.513-.951.905-.076.072-.149.141-.218.205-.385-.192-.79-.285-1.297-.157-.009.003-.018.005-.027.007-.371.036-1.403.089-2.176.128-1.163.059-1.992.101-2.6.163-.583-.353-1.604-.991-2.342-1.452q-2.985-1.865-3.785-1.647c-.493.135-.913.474-1.167.94-.343.63-.381.951-.004,2.151-.44.155-.814.476-1.046.904-.006.01-.033.071-.075.167-1.287-.824-1.653-.984-2.393-.789-.495.133-.922.472-1.178.938-.11.201-.196.379-.252.548-3.702-2.293-3.791-2.267-4.52-2.068-.495.137-.918.481-1.17.951-.157.293-.229.465-.242.865-1.085-.672-1.388-.738-2.038-.563-.343.092-.652.283-.895.547-.084.082-.259.245-.458.427-.429-.269-.924-.582-1.344-.848q-3.925-2.484-4.788-2.25c-.492.135-.915.474-1.169.938-.207.374-.305.685-.29,1.021-.328.174-.606.448-.792.787-.117.217-.199.403-.242.591-1.422-.88-1.639-.883-2.295-.707-.494.133-.919.473-1.175.939-.012.023-.025.046-.036.068-.092-.058-.183-.115-.271-.171q-4.847-3.064-5.726-2.825c-.491.134-.914.474-1.168.937-.524.956-.215,2.178.691,2.73.117.072.239.128.362.171.154.085.418.243.741.44-1.326.004-2.049-.006-2.049-.006,0,0-1.513.023-4.24-.012.31-.189.562-.34.711-.422.123-.043.245-.1.362-.171.906-.552,1.215-1.775.691-2.73-.254-.463-.678-.803-1.168-.937q-.881-.24-5.726,2.825c-.088.056-.179.113-.271.171-.012-.022-.024-.045-.036-.068-.255-.466-.681-.806-1.175-.939-.656-.176-.873-.174-2.295.707-.043-.188-.125-.374-.242-.591-.186-.339-.464-.612-.792-.787.015-.336-.083-.647-.29-1.021-.254-.465-.677-.803-1.169-.938q-.864-.234-4.788,2.25c-.42.267-.914.579-1.344.848-.199-.183-.373-.345-.458-.427-.243-.264-.552-.455-.895-.547-.65-.174-.953-.109-2.038.563-.014-.4-.085-.572-.242-.865-.252-.47-.675-.814-1.17-.951-.729-.199-.818-.225-4.52,2.068-.056-.169-.142-.347-.252-.548-.256-.466-.683-.805-1.178-.938-.74-.195-1.106-.035-2.393.789-.042-.096-.07-.156-.075-.167-.232-.427-.606-.749-1.046-.904.377-1.2.339-1.521-.004-2.151-.253-.466-.674-.805-1.167-.94q-.8-.221-3.785,1.647c-.738.461-1.759,1.099-2.342,1.452-.608-.061-1.437-.103-2.6-.163-.773-.039-1.805-.092-2.176-.128-.009-.003-.018-.005-.027-.007-.507-.128-.912-.035-1.297.157-.068-.064-.141-.133-.218-.205-.414-.392-.813-.767-.951-.905-.244-.27-.558-.465-.906-.558-.741-.198-1.146.008-2.145.647-.171-.2-.314-.37-.379-.45-.256-.342-.613-.589-1.017-.698-.696-.19-1.08-.029-2.003.552-.234-.35-.425-.634-.429-.634-.253-.454-.667-.785-1.15-.919-.638-.177-.767-.215-2.524.854.131-.603.023-.889-.236-1.36-.252-.457-.665-.791-1.149-.928-.733-.206-.813-.226-4.668,2.153.035-.376-.081-.679-.3-1.081-.231-.417-.599-.733-1.03-.887.205-.751.129-1.058-.164-1.596-.261-.474-.701-.82-1.207-.947-.85-.211-1.403.17-2.243.748-.101.07-.2.139-.29.2-.988.177-2.529.619-5.063,1.346-.063.018-.134.038-.199.057-.174-.04-.348-.079-.522-.119.501-.834.415-1.286.009-2.026-.253-.463-.675-.801-1.166-.935-.429-.119-.641-.178-1.423.219-.041-.085-.087-.174-.138-.266-.255-.464-.68-.803-1.172-.936-.752-.202-.89-.198-3.182,1.251-.017-.035-.036-.07-.055-.107-.108-.196-.246-.371-.407-.516.696-1.045.663-1.518.215-2.336-.253-.466-.678-.808-1.172-.943q-.845-.228-4.148,1.875c-.44.281-.982.627-1.471.936-.213-.314-.331-.491-.334-.485-.253-.465-.676-.804-1.168-.939-.532-.145-.754-.192-1.969.501-.138-.043-.274-.088-.412-.131-.266-.395-.66-.69-1.108-.804-.37-.094-.675-.088-1.015.023-.003-.429-.084-.61-.255-.924-.124-.226-.289-.424-.483-.582.697-1.163.676-1.617.232-2.423-.084-.154-.187-.293-.305-.416.296-.574.294-1.158-.091-1.86-.253-.465-.676-.805-1.168-.939q-.883-.245-6.786,3.479c-.214.135-.437.276-.664.419-1.603-.613-3.19-1.249-4.765-1.906.623-1.408.643-1.793.223-2.555-.257-.468-.691-.813-1.188-.945-.328-.087-.583-.114-.916-.02-.023-.046-.049-.093-.075-.141-.256-.472-.691-.818-1.19-.95-.244-.064-.448-.095-.659-.071-.048-.16-.123-.324-.223-.505-.253-.463-.674-.802-1.164-.937-.321-.09-.527-.147-1.018.041.101-.431.03-.879-.253-1.397-.253-.463-.675-.802-1.164-.937-.739-.206-.877-.232-5.111,2.399-.161-.086-.317-.177-.477-.263,2.548-2.736,2.645-3.075,1.969-4.312-.252-.463-.673-.802-1.162-.937-.712-.2-.84-.236-4.921,2.292-.068-.167-.163-.344-.274-.546-.129-.237-.304-.441-.509-.602,1.344-1.571,1.255-1.949.715-2.932-.093-.17-.209-.324-.343-.457.726-.995.608-1.437.161-2.256-.253-.463-.673-.801-1.162-.937-.705-.196-.844-.234-5.178,2.445.063-.41-.12-.744-.384-1.226-.261-.476-.709-.827-1.216-.954-.475-.119-.852-.07-1.32.152-.023-.306-.1-.465-.244-.727-.255-.468-.685-.81-1.181-.943-.531-.141-.823-.142-1.604.292-.04-.215-.131-.423-.266-.668-.189-.346-.473-.623-.809-.798,1.107-1.338.914-1.69.423-2.583-.039-.071-.082-.139-.128-.204.998-1.103.847-1.574.345-2.491-.253-.465-.679-.807-1.171-.941-.587-.159-.797-.217-2.481.781-.059-.146-.137-.301-.231-.472-.254-.465-.681-.808-1.175-.942-.632-.174-.829-.226-2.579.832-.256-.461-.682-.8-1.173-.932-.042-.011-.077-.019-.116-.029-2.055-2.364-3.922-4.861-5.611-7.476,1.15-1.416,1.051-1.818.545-2.749-.253-.462-.676-.8-1.165-.934-.419-.115-.646-.172-1.457.231-1.169-2.102-2.215-4.283-3.131-6.544,1.603-1.4,2.422-2.29,1.639-3.717-.253-.465-.679-.806-1.17-.941-.49-.134-.733-.198-1.994.49-.083-.261-.151-.53-.231-.793,2.51-2.639,2.433-2.957,1.786-4.139-.254-.463-.68-.803-1.171-.937-.157-.043-.287-.079-.429-.087.21-.535.173-1.061-.166-1.68-.104-.19-.237-.36-.393-.504.161-.471.129-.976-.193-1.565-.255-.464-.68-.805-1.173-.939-.142-.038-.261-.07-.387-.082-.063-.49-.114-.986-.166-1.482.097-.083.205-.174.298-.254,2.281-1.968,3.427-2.956,2.536-4.585-.254-.466-.686-.811-1.178-.945-.516-.14-.774-.205-1.99.457-.016-.623-.053-1.233-.052-1.865.004-2.861-.111-5.791-.235-8.803.802-.875.966-1.613.425-2.603-.035-.064-.073-.125-.114-.183.861-.893,1.025-1.627.47-2.643-.224-.408-.593-.719-1.013-.882-.06-2.156-.094-1.245-.06-3.505h335.281c0,.009,0,.014,0,.022-.229.544-.228,1.02-.016,1.482-.014.802-.032,1.597-.055,2.385Z"
       fill="#2a2e28"
       stroke-width="0"
       id="path26"
       style="fill:#d2d2d2;fill-opacity:1"
       inkscape:label="path26" />
  </g>
</svg>
