<?xml version="1.0" encoding="UTF-8" standalone="no"?>
<svg
   id="Layer_1"
   data-name="Layer 1"
   viewBox="0 0 512 512"
   version="1.1"
   sodipodi:docname="Sherry glass colors_v5.svg"
   inkscape:version="1.3.2 (091e20e, 2023-11-25)"
   xmlns:inkscape="http://www.inkscape.org/namespaces/inkscape"
   xmlns:sodipodi="http://sodipodi.sourceforge.net/DTD/sodipodi-0.dtd"
   xmlns="http://www.w3.org/2000/svg"
   xmlns:svg="http://www.w3.org/2000/svg">
  <defs
     id="defs35" />
  <sodipodi:namedview
     id="namedview35"
     pagecolor="#ffffff"
     bordercolor="#000000"
     borderopacity="0.25"
     inkscape:showpageshadow="2"
     inkscape:pageopacity="0.0"
     inkscape:pagecheckerboard="0"
     inkscape:deskcolor="#d1d1d1"
     inkscape:zoom="0.9809999"
     inkscape:cx="179.40878"
     inkscape:cy="287.97149"
     inkscape:window-width="1728"
     inkscape:window-height="972"
     inkscape:window-x="-1"
     inkscape:window-y="43"
     inkscape:window-maximized="0"
     inkscape:current-layer="Layer_1" />
  <path
     d="m249.043,249.097c8.4,13.596,8.773,10.828,8.895,26.809.128,16.744.254,33.54-1.685,50.172-2.989,25.639,3.674,51.534,6.429,77.2.213,1.982.522,4.152,2.006,5.482.91.816,2.157,1.202,3.004,2.083.676.703,1.028,1.651,1.309,2.586,2.805,9.33-.994,20.988-9.999,24.71,2.598,1.781,5.944,1.924,9.093,2.003,19.745.493,19.965.851,39.715,1.072.419-2.81.45-5.783-.71-8.376-1.84-4.114-6.194-6.399-10.243-8.378-11.839-5.787-6.46-5.247-18.298-11.035-2.378-1.162-4.431-8.545-6.524-10.165-2.702-2.091-2.848-4.987-4.505-7.975-5.102-9.198-5.936-20.193-5.082-30.677.677-8.311,2.858-17.376,9.677-22.175.811-.571,1.686-1.079,2.344-1.822.987-1.115,1.376-2.638,1.546-4.118,1.242-10.818-7.377-20.732-7.003-31.615.431-12.52-3.935-24.297-6-36.653-.59-3.533.046,12.495-.315,8.932-.226-2.232-.453-4.474-.336-6.714.404-7.704,4.812-14.709,5.627-22.381-6.885-.633-12.079.213-18.945,1.034Z"
     fill="#4380af"
     stroke-width="0"
     id="path1"
     style="fill:#7ebcc4;fill-opacity:1" />
  <path
     d="m260.464,239.958c-58.873-49.06-49.935-161.268-49.935-161.268h-32.263l39.019,148.667,21.675,18.098,21.504-5.497Z"
     fill="#4380af"
     stroke-width="0"
     id="path2"
     style="fill:#7ebcc4;fill-opacity:1" />
  <path
     d="m324.75,122.595c-16.566-.083-33.132-.166-49.698-.25-2.137-.011-4.381,0-6.252.844-1.871.844-3.159,2.824-2.202,4.386,1.015,1.655,3.72,1.916,5.984,1.96,16.289.323,32.578.645,48.866.968"
     fill="#ef9437"
     stroke-width="0"
     id="path3"
     style="fill:#c36b70;fill-opacity:1" />
  <path
     d="m317.388,134.479c-13.819.347-27.638.694-41.457,1.041-2.669.067-5.985.52-6.759,2.638-.578,1.581.781,3.29,2.558,4.038s3.853.772,5.846.78c11.505.046,23.009.091,34.514.137"
     fill="#ef9437"
     stroke-width="0"
     id="path4"
     style="fill:#c36b70;fill-opacity:1" />
  <path
     d="m314.132,145.799c-11.225-.2-22.451-.4-33.676-.6-2.231-.04-4.602-.054-6.508.797s-2.975,2.909-1.551,4.168c11.531,1.307,23.248,1.728,34.899,1.254"
     fill="#ef9437"
     stroke-width="0"
     id="path5"
     style="fill:#c36b70;fill-opacity:1" />
  <path
     d="m314.982,155.778c-13.488-.16-26.975-.32-40.463-.48-2.422-.029-5.293.088-6.572,1.393-1.111,1.133-.364,2.703,1.158,3.623s3.62,1.335,5.657,1.667c9.275,1.513,21.795,1.913,31.301,1.174"
     fill="#ef9437"
     stroke-width="0"
     id="path6"
     style="fill:#c36b70;fill-opacity:1" />
  <path
     d="m304.935,167.777l-25.979-.119c-4.028-.018-8.285-.003-11.747,1.196s-5.587,4.033-3.317,5.971c2.005,1.712,6.135,1.903,9.692,1.925,8.614.054,23.864.129,32.479.183"
     fill="#ef9437"
     stroke-width="0"
     id="path7"
     style="fill:#c36b70;fill-opacity:1" />
  <path
     d="m294.465,213.107l-24.11-.11c-3.738-.017-7.689-.002-10.902,1.11s-5.185,3.743-3.079,5.542c1.86,1.588,5.694,1.766,8.995,1.786,7.994.05,22.148.12,30.142.17"
     fill="#ef9437"
     stroke-width="0"
     id="path8"
     style="fill:#c36b70;fill-opacity:1" />
  <path
     d="m305.121,181.523c-9.731-.119-21.612.15-31.343.032-4.347-.053-8.832-.099-12.897.39s-7.638,1.657-7.637,3.03c.001,1.138,2.462,2.168,5.548,2.756,3.087.588,6.728.806,10.303.954,8.021.332,29.718,1.298,37.762,1.024"
     fill="#ef9437"
     stroke-width="0"
     id="path9"
     style="fill:#c36b70;fill-opacity:1" />
  <path
     d="m299.875,196.473c-7.658-.316-29.512-1.092-37.066-.201-2.168.256-4.389.58-6.195,1.416s-3.108,2.31-2.665,3.741c.355,1.146,1.755,2.052,3.344,2.56s3.367.681,5.112.848c6.052.578,24.847,1.156,30.899,1.734"
     fill="#ef9437"
     stroke-width="0"
     id="path10"
     style="fill:#c36b70;fill-opacity:1" />
  <path
     d="m179.284,111.767c50.504-.241,101.007-.482,151.511-.722-1.44,2.299-2.103,4.758-3.543,7.057-47.285.541-95.119.901-142.404,1.442-1.042-2.675-4.521-5.102-5.563-7.777Z"
     fill="#ef9437"
     stroke-width="0"
     id="path11"
     style="fill:#c36b70;fill-opacity:1" />
  <g
     id="g17"
     inkscape:label="black">
    <path
       d="m284.518,92.893l24.529-1.463c4.531-.27,7.84,5.469,6.353,11.014-.017.062-.033.123-.05.185-.883,3.294-3.263,5.522-5.957,5.582-9.549.213-19.034-.555-28.568-.366-3.243.064-6.055-2.995-6.46-7.16-.203-2.085-.088-4.149.632-6.054,1.276-3.376,4.195-4.623,6.283-2.963.985.783,2.083,1.294,3.238,1.225Z"
       fill="#2a2e28"
       stroke-width="0"
       id="path12"
       style="fill:#b8b8b8;fill-opacity:1" />
    <path
       d="m281.582,115.846l20.344-.539c2.873-.076,4.896,3.643,3.855,7.109-.033.111-.067.223-.1.334-.6,2.02-2.099,3.336-3.771,3.347-6.684.043-13.456.484-20.134.523-1.549.009-2.97-1.148-3.633-2.959-.037-.102-.075-.204-.113-.305-1.296-3.427.605-7.433,3.553-7.511Z"
       fill="#2a2e28"
       stroke-width="0"
       id="path13"
       style="fill:#b8b8b8;fill-opacity:1" />
    <path
       d="m280.238,135.652h15.199c2.759,0,4.428,3.925,2.968,6.955-.015.03-.029.06-.043.091-.623,1.306-1.715,2.097-2.902,2.125-4.685.11-10.264.54-14.995.669-1.553.042-2.96-1.247-3.406-3.172-.068-.292-.132-.584-.196-.877-.631-2.906,1.043-5.791,3.375-5.791Z"
       fill="#2a2e28"
       stroke-width="0"
       id="path14"
       style="fill:#b8b8b8;fill-opacity:1" />
    <path
       d="m280.742,154.663l5.62-.105c1.432-.027,2.607,1.418,2.694,3.268.016.34.04.68.061,1.018.123,1.994-1.093,3.694-2.639,3.706-1.809.014-3.616.041-5.425.055-1.176.009-2.209-.992-2.56-2.445-.081-.334-.163-.671-.247-1.009-.543-2.2.712-4.454,2.496-4.488Z"
       fill="#2a2e28"
       stroke-width="0"
       id="path15"
       style="fill:#b8b8b8;fill-opacity:1" />
    <path
       d="m280.241,170.002h2.404c1.23,0,1.941,1.805,1.222,3.097-.584,1.049-1.163,2.091-1.751,3.128-.246.433-.621.719-1.033.781-.007.001-.014.002-.02.003-.77.117-1.475-.522-1.654-1.498-.185-1.011-.422-2.037-.628-3.063-.249-1.238.473-2.448,1.461-2.448Z"
       fill="#2a2e28"
       stroke-width="0"
       id="path16"
       style="fill:#b8b8b8;fill-opacity:1" />
    <path
       d="m279.275,182.961l1.191.106c1.106.099,1.706,1.768,1.02,2.894-.392.643-.929,1.163-1.515,1.393-.416.164-.849.215-1.283.184-1.067-.076-1.703-1.575-1.142-2.753.146-.308.291-.614.416-.901.267-.61.772-.972,1.313-.924Z"
       fill="#2a2e28"
       stroke-width="0"
       id="path17"
       style="fill:#b8b8b8;fill-opacity:1" />
  </g>
  <g
     id="g23"
     inkscape:label="pink">
    <path
       d="m223.229,124.699c.985-.02,1.998-.035,2.92.348s1.743,1.264,1.811,2.344c.072,1.139-.714,2.174-1.653,2.659s-2.009.537-3.047.581c-3.625.153-29.969,3.04-29.213-1.923.646-4.24,8.987-3.596,11.366-3.645,5.939-.121,11.877-.243,17.816-.364Z"
       fill="#ef9437"
       stroke-width="0"
       id="path18"
       style="fill:#c36b70;fill-opacity:1" />
    <path
       d="m229.713,138.185c.851.033,1.769.093,2.43.683s.813,1.922.072,2.387c-7.139,1.307-14.383,1.917-21.62,1.822-3.294-.043-6.738-.28-9.572-2.127-.752-.49-1.499-1.177-1.65-2.128-.487-3.117,11.886-1.354,13.872-1.276,5.489.213,10.978.426,16.468.639Z"
       fill="#ef9437"
       stroke-width="0"
       id="path19"
       style="fill:#c36b70;fill-opacity:1" />
    <path
       d="m225.129,147.926c1.508-.038,3.272.057,4.142,1.412.949,1.478.155,3.677-1.218,4.674s-3.105,1.119-4.748,1.21c-4.011.221-8.021.443-12.032.664-1.621.089-3.294.171-4.819-.442-4.608-1.853-2.966-6.804,1.106-7.161,5.782-.507,11.759-.209,17.568-.356Z"
       fill="#ef9437"
       stroke-width="0"
       id="path20"
       style="fill:#c36b70;fill-opacity:1" />
    <path
       d="m232.807,162.755c.731,1.487-.068,3.433-1.341,4.381s-2.87,1.152-4.399,1.33c-3.811.443-7.622.885-11.433,1.328-1.123.13-2.266.26-3.375.028-1.958-.41-4.209-2.973-2.718-5.239,1.104-1.677,3.047-.826,4.642-.768,6.15.224,12.479-.678,18.624-1.061Z"
       fill="#ef9437"
       stroke-width="0"
       id="path21"
       style="fill:#c36b70;fill-opacity:1" />
    <path
       d="m213.984,173.77l10.257-.37c.951-.034,1.927-.065,2.829.267s1.733,1.108,1.904,2.138c.21,1.258-.635,2.497-1.683,3.052s-2.254.583-3.417.601c-1.931.03-3.862.06-5.792.09-.858.013-1.73.025-2.556-.232s-1.613-.825-1.967-1.684c-.407-.988-.122-2.265.657-2.932s1.973-.662,2.746.013"
       fill="#ef9437"
       stroke-width="0"
       id="path22"
       style="fill:#c36b70;fill-opacity:1" />
    <path
       d="m225.72,186.129c.738.112,1.572.359,1.893,1.098.279.643.033,1.445-.425,1.949s-1.086.769-1.702.99c-1.478.529-3.01.879-4.557,1.043-1.269.134-2.74.051-3.539-1.042-3.486-4.768,6.926-4.251,8.33-4.038Z"
       fill="#ef9437"
       stroke-width="0"
       id="path23"
       style="fill:#c36b70;fill-opacity:1" />
  </g>
  <g
     id="g29"
     inkscape:label="black">
    <path
       d="m210.49,92.254l-12.842-.226c-1.755-.031-2.996,2.21-2.409,4.35.293,1.069.591,2.156.864,3.141.361,1.299,1.319,2.18,2.386,2.158,5.165-.106,10.19-.904,15.27-1.052,1.38-.04,2.446-1.544,2.437-3.329-.007-1.518-.205-3.016-.849-4.323-.894-1.814-2.413-2.402-3.287-1.4-.425.488-1.003.692-1.571.682Z"
       fill="#2a2e28"
       stroke-width="0"
       id="path24"
       style="fill:#b8b8b8;fill-opacity:1" />
    <path
       d="m215.527,104.266l-13.166.377c-1.08.031-1.799,1.453-1.392,2.748.333,1.06.672,2.091.998,3.203.235.801.847,1.298,1.509,1.256,3.866-.25,7.805-.171,11.63-.407.741-.046,1.326-.787,1.445-1.735.136-1.08.354-2.046.523-3.075.203-1.241-.567-2.395-1.547-2.367Z"
       fill="#2a2e28"
       stroke-width="0"
       id="path25"
       style="fill:#b8b8b8;fill-opacity:1" />
    <path
       d="m217.006,117.773l-9.156.657c-1.568.112-2.457,2.377-1.601,4.082.26.517.514,1.036.745,1.557.378.854,1.073,1.381,1.833,1.348,2.6-.113,5.673-.04,8.315-.129,1.082-.036,1.942-1.168,1.981-2.568.021-.746.023-1.484.038-2.225.03-1.55-.959-2.808-2.155-2.722Z"
       fill="#2a2e28"
       stroke-width="0"
       id="path26"
       style="fill:#b8b8b8;fill-opacity:1" />
    <path
       d="m219.093,132.713l-4.287.244c-.782.045-1.368.967-1.226,1.963.178,1.249.136,2.503.387,3.759.158.79.721,1.33,1.35,1.279,1.275-.102,2.548-.186,3.818-.285.673-.053,1.205-.763,1.223-1.635.024-1.181.071-2.409.098-3.59.023-.982-.604-1.778-1.362-1.735Z"
       fill="#2a2e28"
       stroke-width="0"
       id="path27"
       style="fill:#b8b8b8;fill-opacity:1" />
    <path
       d="m220.82,146.434l-2.185.206c-.674.064-1.041,1.043-.667,1.771.762,1.483,1.514,2.97,2.289,4.462.145.278.378.468.636.499.328.038.658.133.984.1-.138-1.963-.047-3.999-.109-5.97-.02-.636-.458-1.115-.948-1.068Z"
       fill="#2a2e28"
       stroke-width="0"
       id="path28"
       style="fill:#b8b8b8;fill-opacity:1" />
    <path
       d="m223.577,159.252l-2.45.616c-.016,1.692,1.019,3.854,2.013,4.338.799.389,1.56-.069,2.165-.749-.293-1.056-1.437-3.155-1.728-4.204Z"
       fill="#2a2e28"
       stroke-width="0"
       id="path29"
       style="fill:#b8b8b8;fill-opacity:1" />
  </g>
  <g
     id="g34">
    <path
       d="m260.907,309.797c.45-4.68-.025-13.711-.379-15.679-.848-4.715-.859-9.536-.867-14.327-.015-8.456.497,8.871.482.416-.008-4.42-.011-8.885.965-13.195,1.067-4.711,2.515-12.653,5.677-16.305-5.15,2.235-17.1,1.286-22.714,1.286,0,0,13.73,10.851,9.51,57.722.42-.005.842-.011,1.257-.011,1.99.002,4.043.078,6.07.093Z"
       fill="none"
       stroke-width="0"
       id="path30" />
    <path
       d="m243.466,316.521c.903.453,1.923.857,3.093,1.064,1.041.184,2.153.204,3.248.219,7.942.107,13.758,1.773,20.781-3.237,1.648-1.176,2.015-4.775-.103-5.847-2.839.957-6.173,1.103-9.579,1.078-.114,1.185-.286,2.096-.536,2.536-1.235,2.18-7.35,2.999-7.086.507.111-1.054.202-2.089.295-3.126-5.093.055-10.505.387-14.643-1.161-.944,2.876.574,5.981,4.528,7.967Z"
       fill="none"
       stroke-width="0"
       id="path31" />
    <path
       d="m245.035,335.718c1.305.21,2.699.234,4.071.25,9.953.122,17.243,2.027,26.044-3.701,2.065-1.344,2.526-5.458-.129-6.684-5.676,1.745-12.927,1.132-19.612,1.125-6.823-.007-14.312.601-19.926-1.315-1.183,3.288.719,6.837,5.675,9.108,1.131.518,2.41.98,3.877,1.216Z"
       fill="none"
       stroke-width="0"
       id="path32" />
    <path
       d="m260.467,351.369h-.165c-2.168,0-4.264-17.854-6.29-17.956-.497-.025-.987-.05-1.471-.073l-3.552,18.743c7.224,14.431,8.599,35.938,2.138,49.891l8.761-2.343c-5.309-13.93-3.708-33.903,3.124-47.549l-2.545-.712Z"
       fill="none"
       stroke-width="0"
       id="path33" />
    <path
       d="m284.213,422.599l3.467-2.556-7.497,2.005c-.721.187-1.427-.431-1.673-1.475s.041-2.205.678-2.748l2.858-2.434-18.027,4.82c-.73.188-1.448-.453-1.684-1.522-.235-1.069.083-2.239.747-2.748l3.282-2.516-28.518,7.626c-.792.219-1.546-.565-1.72-1.747l-21.347,10.535c-4.358,3.502-6.187,6.145-6.187,6.145h85.047s-.003-.008-.005-.012c-.252-1.031.017-2.186.64-2.747l2.663-2.401s0,0,0,0l-14.446,3.862c-.757.201-1.489-.493-1.701-1.61-.213-1.117.164-2.297.874-2.736l4.521-2.8.518,2.473c-.691.182-1.383-.389-1.649-1.383-.267-.992-.04-2.132.543-2.736l2.272-2.352-2.739,3.344c-.738.187-1.457-.459-1.688-1.539-.231-1.079.098-2.251.771-2.747Z"
       fill="none"
       stroke-width="0"
       id="path34" />
  </g>
  <path
     d="m277.481,401.972c-6.838-5.128-8.405-31.143,0-45.103s1.282-15.955,1.282-15.955c0,0,9.117-3.134,5.983-15.67,0,0,9.829-12.821-9.402-20.086,0,0,7.408-6.41-1.709-17.807,0,0-9.117-2.278-7.55-18.517,0,0,12.587-4.274,10.496-14.957,0,0,12.39-1.528,12.001-13.589,0,0,15.84-14.669,18.348-40.097,2.385-24.187,42.57-132.215,42.57-132.215h-187s40.185,108.028,42.57,132.215c2.507,25.428,18.348,40.097,18.348,40.097-.388,12.061,12.001,13.589,12.001,13.589-2.091,10.684,10.496,14.957,10.496,14.957,1.567,16.24-7.55,18.517-7.55,18.517-9.117,11.396-1.709,17.807-1.709,17.807-19.231,7.265-9.402,20.086-9.402,20.086-3.134,12.536,5.983,15.67,5.983,15.67,0,0-7.123,1.994,1.282,15.955s6.838,39.975,0,45.103c-2.96,2.22-4.195,9.436-4.647,10.604-14.041,2.188-22.775,2.511-52.015,31.448h154.815c-29.24-28.937-36.502-29.26-50.544-31.448-.452-1.168-1.687-8.384-4.647-10.604ZM183.067,83.504c-.328.32-.678.66-.986.958-.056.054-.103.1-.157.152-.054-.161-.107-.319-.158-.473.338-.186.761-.425,1.313-.738,0,0,.001,0,.002-.001-.006.036-.011.069-.016.101Zm-1.084-2.344c-.048.027-.096.054-.143.081-.018-.118-.051-.192-.105-.303-.033-.068-.073-.13-.118-.188.222-.167.542-.274.986-.315.21,0,.444-.002.677-.003-.351.195-.776.434-1.297.728Zm26.151,72.626c-.392.512-.72.941-.995,1.309-.067-.205-.134-.41-.201-.615.244-.151.504-.312.782-.484.157-.097.319-.197.482-.297-.023.029-.045.059-.067.088Zm6.479,25.724c-.017-.06-.032-.118-.049-.177.077-.049.152-.095.235-.15.03.003.06.004.092.006-.099.114-.186.216-.278.321Zm27.406,50.504c-.419.286-.852.583-1.141.776-.419-.014-.969.006-1.707.027-.531.016-1.238.036-1.505.032-.513-.112-.857.098-1.446.509-.057-.025-.116-.051-.178-.079-.302-.133-.617-.269-.766-.342-.066-.041-.136-.077-.208-.106-.006-.242-.074-.465-.2-.733-.189-.398-.511-.688-.89-.802-.366-.109-.644-.06-.952.094-.251-.424-.485-.817-.541-.915-.189-.344-.481-.593-.822-.7-.324-.101-.475-.148-1.014.143-.005-.01-.01-.022-.016-.033-.188-.4-.511-.69-.893-.802-.23-.067-.426-.07-.618-.025-.045-.113-.075-.188-.08-.198-.186-.394-.503-.681-.88-.794-.273-.082-.5-.074-.721-.003l-.29-20.261c-.14-.297-.355-.533-.614-.679.011-.508-.031-.674-.169-.968-.182-.389-.493-.672-.864-.786-.415-.128-.542-.167-1.222.248.01-.304-.05-.484-.174-.75-.183-.391-.498-.676-.872-.789-.061-.019-.12-.032-.178-.042-.132-.655-.149-.691-.229-.864-.184-.398-.505-.685-.886-.794-.021-.006-.041-.011-.061-.016-.182-1.172-.195-1.198-.302-1.426-.064-.135-.143-.258-.236-.364.286-1.31.291-1.52.047-2.039-.265-.56-.603-.786-.973-.817.259-.56.156-.868-.084-1.384-.117-.251-.29-.458-.5-.603.043-.471.07-.795.079-1.034.27-.322.549-.651.784-.931,2.119-2.506,2.39-2.827,1.876-3.918-.177-.376-.48-.65-.844-.762-.373-.116-.508-.157-1.322.324.031-.293-.05-.53-.2-.85-.185-.396-.512-.678-.9-.777-.138-.035-.269-.045-.388-.039-.092-.089-.195-.187-.31-.297-.328-.314-.65-.621-.764-.736-.077-.089-.164-.167-.259-.232.043-.467.065-.759.063-.969.101-.138.2-.273.293-.399,2.081-2.832,2.298-3.127,1.81-4.161-.109-.223-.232-.389-.364-.51,1.243-1.537,1.201-1.842.812-2.659-.202-.411-.821-1.271-2.234-.368l-.691.447c-.123.08-.243.158-.349.226-.278-.021-.613-.034-1.019-.05-.249-.01-.495-.019-.695-.028.022-.609.03-.954.018-1.179,1.498-2.168,1.724-2.521,1.286-3.447-.173-.365-.472-.632-.832-.738q-.572-.172-2.666,1.165c-.135.086-.271.173-.404.258,3.222-3.132,3.334-3.29,2.793-4.428-.045-.094-.098-.182-.159-.262.623-.756.55-1.106.224-1.792-.01-.02-.019-.039-.029-.058.983-1.105,1.007-1.492.628-2.284-.17-.356-.464-.615-.817-.721-.299-.089-.442-.133-1.105.222-.015-.033-.032-.068-.048-.102-.042-.088-.091-.171-.148-.247.454-.69.446-1.052.156-1.663-.169-.356-.464-.616-.818-.722-.378-.112-.503-.149-1.477.422-.014-.198-.084-.388-.193-.618-.176-.376-.493-.647-.87-.742-.295-.075-.555-.031-.768.051-.303-.057-.685-.118-1.173-.195-.07-.011-.141-.022-.211-.034.753-1.403,1.005-1.928.967-2.372.223-.296.451-.594.646-.85,2.047-2.69,2.214-2.909,1.767-3.846-.045-.094-.099-.181-.16-.26.319-1.109.346-1.347.103-1.85-.133-.276-.343-.492-.6-.621.07-.315-.046-.583-.229-.967-.09-.184-.184-.331-.286-.446.296-.459.381-.942.095-1.535-.63-1.288-1.627-.678-2.893.095l-1.712,1.051c.102-.373.036-.622-.135-.98-.114-.238-.286-.431-.497-.561.055-.733.04-.891-.071-1.141.036-.073.072-.143.106-.21,1.108-2.19,1.224-2.418.876-3.145-.166-.347-.459-.598-.811-.695-.02-.006-.04-.011-.059-.015.003-.285-.027-.419-.104-.591,2.12-2.1,2.144-2.351,1.702-3.27-.165-.344-.457-.593-.808-.69-.549-.151-.851.037-1.579.491-.128.08-.258.162-.362.226-.531.094-1.265.297-2.319.59-.064.018-.131.036-.199.055.376-.649.527-1.007.529-1.314.115-.136.226-.267.326-.386,1.912-2.261,2.205-2.607,1.745-3.562-.611-1.252-1.657-.625-2.769.042l-.916.551c.069-.317-.002-.543-.152-.86-.111-.234-.282-.423-.491-.55.432-.641.35-.916.094-1.454-.123-.258-.319-.461-.559-.586.009-.235.015-.416.016-.561.251-.274.509-.554.728-.792,1.985-2.155,2.288-2.486,1.823-3.442-.158-.324-.433-.561-.767-.66-.499-.147-.541-.16-3.054,1.337.045-.287-.018-.476-.148-.749-.122-.255-.319-.457-.559-.579.039-.943.018-1.009-.122-1.301-.159-.332-.442-.572-.785-.667-.315-.087-.566-.05-.816.055-.011-.013-.022-.025-.033-.038-.105-.122-.21-.245-.308-.358.101-.102.199-.202.292-.296,3.084-3.125,3.268-3.312,2.782-4.319-.155-.322-.43-.557-.763-.653-.416-.122-.511-.149-1.965.693.497-.392.956-.757,1.339-1.065,1.226-.991,2.034-1.644,1.5-2.748-.595-1.193-1.674-.561-2.542-.053l-1.651.972c-.084.049-.167.099-.249.147-.04-.615-.064-.665-.161-.865-.156-.324-.435-.558-.773-.651-.489-.133-.833.038-1.262.297-.117-.318-.233-.635-.35-.953,1.216-1.425,1.347-1.74.983-2.494-.097-.2-.241-.366-.417-.485.053-.509.024-.657-.105-.927-.122-.257-.322-.458-.569-.576.011-.31.016-.524.013-.682.332-.384.692-.796.988-1.135,2.123-2.428,2.296-2.626,1.871-3.497-.149-.307-.414-.532-.735-.628.104-.31-.002-.555-.18-.921-.151-.311-.42-.537-.747-.63q-.525-.148-3.05,1.313c-.041.023-.081.047-.122.07-.015-.224-.051-.304-.125-.458-.139-.287-.38-.502-.673-.606-.026-.654-.048-.715-.152-.93-.089-.183-.219-.337-.378-.45.193-.671.181-.865.002-1.234-.151-.313-.424-.54-.755-.63-.293-.078-.532-.051-.768.041-.034-.042-.068-.082-.1-.121.099-.101.194-.199.284-.292,2.667-2.745,2.771-2.851,2.332-3.754-.149-.306-.416-.53-.741-.62-.528-.145-.588-.111-2.144.789-.203.117-.401.233-.562.326-.273-.031-.617-.06-1.043-.093-.142-.381-.285-.765-.426-1.144,1.271-1.268,1.361-1.561,1.005-2.302-.11-.228-.286-.411-.504-.526.053-.712.033-.81-.099-1.08-.084-.174-.208-.32-.358-.43.049-.378.023-.543-.102-.8-.035-.072-.077-.139-.124-.201.25-.715.274-.949.075-1.361-.004-.008-.007-.015-.011-.023,2.161-2.117,2.214-2.289,1.815-3.108-.091-.186-.227-.341-.395-.453.24-1.023.261-1.221.139-1.508,26.247-.06,126.976.011,143.005-.003,1.512.043,1.825.626,1.565,1.953-2.317-1.305-2.351-1.298-2.832-1.164-.322.089-.584.307-.73.607-.182.376-.192.472.084,1.64-.167.112-.304.268-.395.455-.399.821-.345.994,1.823,3.119-.004.008-.008.015-.011.023-.197.409-.173.647.071,1.346-.01.026-.019.052-.029.078-.031.047-.063.093-.089.144-.071.148-.107.269-.118.414-.084.227-.169.456-.253.684-.03.045-.064.087-.088.137-.073.15-.11.25-.121.428-.13.351-.259.7-.39,1.053-.029.045-.067.082-.09.131-.105.219-.163.399-.172.577-.317.856-.637,1.719-.959,2.586-1.445-.837-1.526-.872-2.041-.73-.326.091-.593.315-.742.623-.399.823-.342.994,1.679,3.085-.182.491-.365.983-.548,1.478-.05.065-.094.135-.13.211-.09.187-.137.33-.137.511-.317.855-.634,1.712-.954,2.576-.034.05-.081.089-.108.145-.074.154-.11.235-.125.46-.041-.023-.081-.047-.122-.07q-2.532-1.468-3.057-1.318c-.327.093-.597.321-.747.633-.178.367-.284.614-.179.924-.322.096-.586.321-.736.63-.425.875-.251,1.073,1.879,3.51.29.333.642.735.969,1.113-.136.37-.273.74-.409,1.111-.042.059-.092.11-.123.177-.081.171-.118.302-.125.496-.088.24-.177.48-.265.72-.048.064-.096.128-.131.201-.113.236-.174.43-.173.627-.361.983-.723,1.97-1.086,2.961-.054.07-.101.145-.14.227-.074.154-.105.221-.134.52-.037.1-.073.199-.11.299-.055-.033-.11-.065-.166-.098l-1.656-.976c-.87-.51-1.952-1.144-2.546.053-.534,1.108.277,1.764,1.506,2.758.384.31.844.676,1.343,1.069-1.458-.845-1.552-.818-1.969-.695-.334.097-.609.333-.764.656-.438.912-.323,1.161,1.971,3.499-.232.641-.465,1.283-.697,1.926-.05.067-.095.139-.133.217-.084.176-.124.273-.135.525-.144.4-.289.799-.433,1.2-.037.055-.083.101-.112.162-.095.2-.136.365-.143.546-.021.057-.041.114-.062.172-2.46-1.466-2.508-1.454-3.004-1.308-.334.099-.61.337-.767.662-.465.959-.16,1.291,1.831,3.454.203.22.439.477.672.732-.125.352-.249.702-.374,1.054-.036.054-.081.1-.11.16-.134.282-.214.495-.204.723-.229.646-.46,1.295-.689,1.941l-.571-.344c-1.114-.669-2.163-1.299-2.774-.042-.46.958-.166,1.306,1.753,3.576.101.119.212.251.327.387,0,.004.002.009.002.014-.123.353-.245.704-.368,1.056-.694-.191-1.221-.327-1.626-.399-.105-.065-.235-.147-.363-.227-.73-.457-1.033-.645-1.583-.493-.351.097-.643.347-.808.693-.441.923-.417,1.174,1.71,3.282-.077.173-.106.308-.104.594-.019.005-.039.01-.059.016-.352.098-.645.35-.811.698-.348.73-.232.959.882,3.157.034.067.07.137.106.21-.063.141-.092.264-.098.466-.124.365-.249.731-.372,1.096-.032.049-.071.092-.096.147-.116.245-.179.441-.177.66-.028.081-.056.164-.083.245l-1.59-.977c-1.269-.776-2.269-1.388-2.898-.095-.286.595-.2,1.081.097,1.541-.101.115-.196.262-.286.447-.183.385-.299.654-.228.97-.257.129-.467.346-.6.623-.242.505-.215.744.106,1.857-.061.079-.115.167-.16.261-.447.94-.279,1.161,1.775,3.861.196.256.424.556.648.853-.004.048-.003.098,0,.149-.257.795-.513,1.589-.765,2.379-.129-.012-.269-.005-.418.033-.378.096-.695.367-.871.745-.109.23-.179.421-.193.62-.976-.574-1.101-.536-1.48-.424-.355.106-.649.367-.818.724-.29.613-.297.977.158,1.669-.057.076-.106.159-.148.247-.017.035-.033.069-.048.103-.665-.356-.808-.312-1.107-.223-.353.107-.648.367-.817.724-.379.794-.354,1.183.632,2.292-.01.019-.019.038-.029.058-.325.688-.398,1.04.227,1.799-.061.08-.114.168-.159.263-.451.954-.44,1.228,1.454,3.119-.039.131-.077.263-.116.394-1.047-.651-1.159-.633-1.611-.497-.36.107-.66.374-.833.741-.437.929-.211,1.283,1.293,3.46-.004.078-.005.176-.004.288-.085.301-.175.608-.259.908-.132.005-.271.01-.413.016-.407.016-.742.03-1.021.05-.105-.068-.226-.147-.349-.227l-.693-.448c-1.417-.906-2.036-.044-2.238.369-.389.82-.43,1.126.817,2.669-.132.121-.255.288-.364.512-.487,1.037-.27,1.334,1.819,4.177.093.127.193.262.294.401,0,.112.006.25.018.423-.065.257-.129.511-.194.767-.006.006-.013.01-.018.016-.115.116-.437.424-.765.739-.115.11-.218.209-.31.298-.12-.006-.251.003-.389.039-.388.1-.715.383-.9.78-.15.321-.23.559-.199.853-.816-.482-.951-.442-1.325-.325-.364.112-.668.388-.845.765-.513,1.096-.241,1.418,1.885,3.934.237.28.516.611.787.934.007.17.026.406.05.684-.034.159-.065.316-.098.474-.148.133-.28.291-.371.486-.24.518-.343.827-.083,1.389-.371.032-.71.259-.974.821-.241.515-.237.731.041,2.005-.03.063-.056.127-.087.191-.048.071-.102.137-.14.217-.036.076-.061.133-.085.214-.606,1.158-1.365,2.304-2.246,3.419-.017.022-.035.043-.051.065-.216.272-.438.542-.668.809-.387-.193-.547-.159-.876-.056-.371.115-.683,20.059-.865,20.449-.138.296-.18.462-.168.972-.259.146-.474.383-.614.682l-.208.433c-.056.052-.112.104-.169.156-.195-.048-.397-.054-.635.018-.377.114-.695.402-.88.798-.005.01-.035.085-.08.199-.193-.045-.389-.042-.62.026-.382.112-.706.403-.893.805-.005.012-.01.023-.016.033-.54-.292-.691-.245-1.016-.143-.342.108-.634.358-.823.703-.056.099-.29.494-.541.919-.308-.156-.586-.204-.953-.095-.38.114-.702.405-.891.806-.126.269-.194.493-.2.736-.073.03-.142.065-.209.107-.149.073-.464.21-.767.343-.063.027-.122.054-.179.079-.591-.413-.936-.624-1.45-.511-.267.004-.976-.016-1.508-.032-.74-.021-1.291-.041-1.711-.027-.289-.193-.724-.492-1.144-.779-1.786-1.221-1.818-1.249-2.432-1.058-.378.116-.698.406-.888.803-.089.185-.158.348-.201.505-.704-.409-.855-.36-1.193-.256-.375.117-.693.403-.885.797-.028.056-.053.111-.077.165-.293-.112-.44-.065-.68.008-.377.117-.698.406-.89.802-.091.187-.16.351-.202.509-3.746-2.542-3.78-2.53-4.356-2.353-.378.117-.701.406-.895.804-.326.667-.29.891.265,2.802-1.555-.251-3.112-.476-4.673-.576-.018-.001-.036-.002-.053-.003l-.063-.159c.09-.314.188-.652.269-.929.656-2.256.71-2.44.364-3.145-.195-.396-.517-.684-.895-.801-.575-.176-.608-.188-4.344,2.344-.042-.157-.111-.321-.203-.507-.193-.395-.513-.682-.89-.799-.24-.073-.387-.12-.679-.008-.023-.053-.049-.108-.077-.164-.192-.392-.51-.677-.885-.793-.338-.103-.489-.152-1.191.255-.043-.156-.113-.319-.202-.503-.191-.396-.511-.684-.888-.8-.612-.19-.645-.163-2.425,1.054Zm-3.08,78.539c4.138,1.549,9.549,1.217,14.643,1.161,3.611-40.105-5.913-48.553-8.74-55.838h12.774s-.008.008-.011.012c-.448.619-.444,1.63.208,2.028.815.497,2.057-.218,2.755.433-1.015,1.165-2.636,1.546-3.991,2.288-1.356.742-2.579,2.346-1.901,3.734.929,1.903,4.277,1.291,5.295,3.149-.857.233-1.736.476-2.444,1.012-.708.535-1.212,1.439-1.014,2.305.11.481.417.89.715,1.283.888,1.167,1.824,2.37,3.052,3.14-.017.283-.031.566-.044.85-1.732,1.294-3.406,2.495-5.157,3.819-.124.094-.257.2-.293.352-.044.184.069.366.18.52.809,1.12,1.793,2.114,2.907,2.932.234.172.491.362.554.645.074.331-.144.645-.282.955-.533,1.192.319-16.884,1.607-16.672.094.016.196.029.297.047-.018.531-.038,1.047-.059,1.546-1.052,1.089-.992,2.972-.189,4.293-.081,2.009-.142,4.237-.137,7.244.001.757.004,1.514.009,2.272-1.421,4.156-1.321,8.831.37,13.008.24.592.51,1.201.77,1.817.132,1.857.241,4.304.271,6.721-.898,1.296-2.288,2.509-1.737,3.91.599-.002,1.187.34,1.481.861-.61.733-1.779.824-2.341,1.593-.785,1.075.291,2.697,1.601,2.937,1.31.24,2.6-.415,3.766-1.058.116.354.022.769-.236,1.039.673.207,1.375.318,2.08.329.648.271.329,1.33-.296,1.651-.625.322-1.397.293-1.986.676-.758.493-.915,1.394-.814,2.334-3.977.61-7.996-.013-12.79-.078-1.095-.015-2.207-.035-3.248-.219-1.171-.207-2.191-.61-3.093-1.064-3.954-1.987-5.472-5.091-4.528-7.967Zm-3.455,16.84c5.613,1.916,13.103,1.308,19.926,1.315,4.051.004,8.306.224,12.297.014-.492.228-1.025.414-1.508.612-.579.237-1.226.757-1.027,1.35.131.388.567.569.96.683,1.319.384,2.704.537,4.075.453-2.669.576-5.415.796-8.143.654-.209.341.22.712.584.879,2.661,1.221,5.448,2.168,8.303,2.82-.085.144-.18.282-.268.424-2.766,1.106-5.449,1.576-8.194,1.718-.603,2.455-1.152,5.363-1.637,8.571-.443.503-.862,1.019-1.216,1.569-.598.927-1.144,1.95-1.162,3.053-.016,1.008.547,2.075,1.467,2.424-.012.106-.024.212-.035.318-.697.53-1.574.823-2.449.775.652,1.615,1.316,3.293,1.234,5.032-.051,1.08-.389,2.13-.452,3.209-.069,1.176.188,2.29.643,3.349-.792,13.514-.588,35.108,1.006,42.726l-8.761,2.343c6.23-13.453,5.172-58.137-1.388-73.702-.212-.004-.419-.012-.633-.014-1.372-.017-2.766-.04-4.071-.25-1.467-.236-2.746-.698-3.877-1.216-4.956-2.271-6.857-5.82-5.675-9.108Zm47.959,107.665c.225,1.055.917,1.689,1.637,1.544l11.859-3.779s0,0,0,0l-2.663,2.401c-.623.561-.892,1.716-.64,2.747.001.005.003.008.005.012h-85.047s1.829-2.643,6.187-6.145l21.347-2.823c.174,1.181.927,1.966,1.72,1.747l28.518-7.626-3.282,2.516c-.664.509-.981,1.679-.747,2.748.235,1.069.954,1.71,1.684,1.522l18.027-4.82-2.858,2.434c-.637.543-.924,1.704-.678,2.748s.953,1.661,1.673,1.475l7.497-2.005-3.467,2.556c-.673.496-1.002,1.667-.771,2.747Z"
     fill="#2a2e28"
     stroke-width="0"
     id="path35"
     style="fill:#b8b8b8;fill-opacity:1" />
</svg>
