<?xml version="1.0" encoding="UTF-8"?>
<svg id="Layer_1" data-name="Layer 1" xmlns="http://www.w3.org/2000/svg" viewBox="0 0 512 512">
  <defs>
    <style>
      .cls-1 {
        fill: #4380af;
      }

      .cls-1, .cls-2, .cls-3 {
        stroke-width: 0px;
      }

      .cls-2 {
        fill: #2a2e28;
      }

      .cls-3 {
        fill: #ef9437;
      }
    </style>
  </defs>
  <path class="cls-1" d="m186.23,375.89c.59,5.75,3.73,10.99,7.77,15.12,4.04,4.13,8.95,7.28,13.85,10.34-11.16,3.19-23.68,2.29-33.68-3.59-10-5.89-17.05-17.02-16.89-28.62.05-3.53.92-7.36,3.68-9.55,2.88-2.28,6.91-2.15,10.58-1.91,4.18.27,14.71-1.14,16.99,3.3,1.81,3.52-2.31,10.77-2.31,14.91Z"/>
  <path class="cls-1" d="m325.14,367.51c1.33,2.36,1.72,5.14,1.67,7.85-.27,12.71-11.3,24.28-23.98,25.15,13.32,1.42,27.9,2.56,39.04-4.89,8.24-5.51,13.27-15.5,12.79-25.4-.13-2.72-.83-5.71-3.08-7.24-1.8-1.23-4.14-1.21-6.32-1.14-7.96.24-16.74-.47-24.52.94,1.46,1.56,3.09,2.96,4.41,4.73Z"/>
  <path class="cls-1" d="m177.48,313.05c-3.47-18.57-1.97-37.66-.46-56.49,2.04-25.41,4.08-50.83,6.12-76.24,2.2-27.43,4.4-55.06,1.2-82.39l-43.3,2.73c-2.58,82.64,1.64,166.59,9.32,248.91,17.26,7.92,36.41,11.68,55.38,10.88-15.68-10.53-24.78-28.83-28.26-47.4Z"/>
  <path class="cls-3" d="m359.5,287.03c-14.06-.76-28.27-.33-42.15,1.29-1.5.17-3.06.38-4.25,1s-1.85,1.78-1.07,2.62c.67.72,2.07.96,3.33,1.14,13.66,1.9,36.55,3.01,50.52,3.32"/>
  <path class="cls-3" d="m360.65,299.5l-47.89.11c-2.41,0-4.88.02-7.16.53s-4.38,1.63-4.97,3.14c-.73,1.89,1.13,3.89,3.67,4.94s5.63,1.35,8.63,1.6c16.54,1.36,33.3,1.62,49.93.79"/>
  <path class="cls-3" d="m359.15,316.33c-20.85-.58-42.03.51-61.68,3.2-4.29.59-9.34,1.75-8.62,3.45.65,1.53,5.51,2.16,9.58,2.43,20.23,1.35,41.07,1.41,61.35.17"/>
  <path class="cls-3" d="m138.78,168.16c76.46-.31,152.93-.62,229.39-.93-2.18,2.96-3.18,6.12-5.36,9.08-71.59.7-144.01,1.16-215.61,1.85-1.58-3.44-6.85-6.56-8.42-10Z"/>
  <path class="cls-3" d="m367.05,182.06c-32.17-.1-64.34-.2-96.52-.3-4.15-.01-8.51,0-12.14,1.01s-6.14,3.38-4.28,5.25c1.97,1.98,7.22,2.29,11.62,2.35,31.63.39,63.27.77,94.9,1.16"/>
  <path class="cls-3" d="m363.85,196.3c-27.21.42-62.69.83-89.9,1.25-5.26.08-11.78.62-13.31,3.16-1.14,1.89,1.54,3.94,5.04,4.84s7.59.92,11.51.93c22.65.05,65.08.11,87.73.16"/>
  <path class="cls-3" d="m362.5,209.85c-19.52-.24-39.05-.48-58.57-.72-3.88-.05-8-.06-11.32.95s-5.17,3.48-2.7,4.99c20.06,1.56,55.7,2.07,75.96,1.5"/>
  <path class="cls-3" d="m363.86,221.8l-60.98-.57c-3.65-.03-7.98.11-9.9,1.67-1.67,1.36-.55,3.24,1.75,4.34s5.46,1.6,8.53,2c13.98,1.81,49.48,2.29,63.8,1.41"/>
  <path class="cls-3" d="m364.92,236.18c-11.98-.05-32.61-.09-44.58-.14-5.57-.02-11.46,0-16.25,1.43s-7.73,4.83-4.59,7.15c2.77,2.05,8.49,2.28,13.41,2.31,11.92.06,33.01.15,44.93.22"/>
  <path class="cls-3" d="m360.32,252.64c-12-.14-26.65.18-38.64.04-5.36-.06-10.89-.12-15.9.47-5.01.59-9.42,1.98-9.42,3.63,0,1.36,3.03,2.6,6.84,3.3,3.81.7,8.29.97,12.7,1.14,9.89.4,36.64,1.55,46.56,1.23"/>
  <path class="cls-3" d="m369.93,270.54c-14.19-.38-54.7-1.31-68.7-.24-4.02.31-8.14.69-11.48,1.7s-5.76,2.77-4.94,4.48c.66,1.37,3.25,2.46,6.2,3.07s6.24.82,9.48,1.02c11.22.69,55.34,1.38,66.56,2.08"/>
  <g>
    <path class="cls-2" d="m298.65,116.83l36.71-1.69c6.78-.31,11.73,6.32,9.51,12.74-.02.07-.05.14-.07.21-1.32,3.81-4.88,6.39-8.91,6.46-14.29.25-28.48-.64-42.75-.42-4.85.07-9.06-3.46-9.67-8.28-.3-2.41-.13-4.8.95-7,1.91-3.9,6.28-5.35,9.4-3.43,1.47.91,3.12,1.5,4.84,1.42Z"/>
    <path class="cls-2" d="m299.68,147.09l30.44-.62c4.3-.09,7.33,4.21,5.77,8.22-.05.13-.1.26-.15.39-.9,2.34-3.14,3.86-5.64,3.87-10,.05-20.14.56-30.13.61-2.32.01-4.44-1.33-5.44-3.42-.06-.12-.11-.24-.17-.35-1.94-3.96.91-8.6,5.32-8.69Z"/>
    <path class="cls-2" d="m305.64,169.99h22.74c4.13,0,6.63,4.54,4.44,8.04-.02.03-.04.07-.07.1-.93,1.51-2.57,2.43-4.34,2.46-7.01.13-15.36.62-22.44.77-2.32.05-4.43-1.44-5.1-3.67-.1-.34-.2-.68-.29-1.01-.94-3.36,1.56-6.7,5.05-6.7Z"/>
    <path class="cls-2" d="m314.48,191.52l8.41-.12c2.14-.03,3.9,1.64,4.03,3.78.02.39.06.79.09,1.18.18,2.31-1.64,4.27-3.95,4.29-2.71.02-5.41.05-8.12.06-1.76.01-3.31-1.15-3.83-2.83-.12-.39-.24-.78-.37-1.17-.81-2.54,1.06-5.15,3.73-5.19Z"/>
    <path class="cls-2" d="m318.83,209.26h3.6c1.84,0,2.91,2.09,1.83,3.58-.87,1.21-1.74,2.42-2.62,3.62-.37.5-.93.83-1.55.9-.01,0-.02,0-.03,0-1.15.13-2.21-.6-2.48-1.73s-.63-2.36-.94-3.54c-.37-1.43.71-2.83,2.19-2.83Z"/>
    <path class="cls-2" d="m320.2,224.25l1.78.12c1.65.11,2.55,2.04,1.53,3.35-.59.74-1.39,1.34-2.27,1.61-.62.19-1.27.25-1.92.21-1.6-.09-2.55-1.82-1.71-3.18.22-.36.44-.71.62-1.04.4-.71,1.16-1.12,1.96-1.07Z"/>
  </g>
  <g>
    <path class="cls-3" d="m216.13,188.51c1.6-.03,3.24-.05,4.74.51s2.83,1.86,2.94,3.46c.12,1.68-1.16,3.21-2.68,3.92s-3.26.79-4.94.86c-5.88.23-48.6,4.48-47.37-2.84,1.05-6.25,14.57-5.3,18.43-5.38,9.63-.18,19.26-.36,28.89-.54Z"/>
    <path class="cls-3" d="m218,208.4c1.38.05,2.87.14,3.94,1.01s1.32,2.84.12,3.52c-11.58,1.93-23.33,2.83-35.06,2.69-5.34-.06-10.93-.41-15.52-3.14-1.22-.72-2.43-1.74-2.68-3.14-.79-4.6,19.28-2,22.5-1.88,8.9.31,17.8.63,26.71.94Z"/>
    <path class="cls-3" d="m203.58,222.77c2.45-.06,5.31.08,6.72,2.08,1.54,2.18.25,5.42-1.98,6.89s-5.04,1.65-7.7,1.78c-6.5.33-13.01.65-19.51.98-2.63.13-5.34.25-7.81-.65-7.47-2.73-4.81-10.03,1.79-10.56,9.38-.75,19.07-.31,28.49-.53Z"/>
    <path class="cls-3" d="m207.3,243.85c1.19,2.19-.11,5.06-2.17,6.46s-4.65,1.7-7.13,1.96c-6.18.65-12.36,1.31-18.54,1.96-1.82.19-3.67.38-5.47.04-3.18-.6-6.83-4.38-4.41-7.73,1.79-2.47,4.94-1.22,7.53-1.13,9.97.33,20.24-1,30.2-1.56Z"/>
    <path class="cls-3" d="m169.77,260.88c5.54-.18,11.09-.36,16.63-.55,1.54-.05,3.12-.1,4.59.39s2.81,1.63,3.09,3.15c.34,1.86-1.03,3.68-2.73,4.5s-3.65.86-5.54.89c-3.13.04-6.26.09-9.39.13-1.39.02-2.81.04-4.14-.34s-2.62-1.22-3.19-2.48c-.66-1.46-.2-3.34,1.06-4.32s3.2-.98,4.45.02"/>
    <path class="cls-3" d="m183.44,279.11c1.2.16,2.55.53,3.07,1.62.45.95.05,2.13-.69,2.87s-1.76,1.13-2.76,1.46c-2.4.78-4.88,1.3-7.39,1.54-2.06.2-4.44.07-5.74-1.54-5.65-7.03,11.23-6.27,13.51-5.96Z"/>
  </g>
  <g>
    <path class="cls-2" d="m204.31,118.09l-21.24-.29c-2.9-.04-4.96,2.83-3.99,5.56.49,1.37.98,2.76,1.43,4.01.6,1.66,2.18,2.79,3.95,2.76,8.54-.14,16.86-1.16,25.26-1.34,2.28-.05,4.05-1.97,4.03-4.26-.01-1.94-.34-3.86-1.4-5.53-1.48-2.32-3.99-3.07-5.44-1.79-.7.62-1.66.88-2.6.87Z"/>
    <path class="cls-2" d="m203.11,137.59l-21.78.48c-1.79.04-2.98,1.86-2.3,3.51.55,1.36,1.11,2.67,1.65,4.09.39,1.02,1.4,1.66,2.5,1.61,6.4-.32,12.91-.22,19.24-.52,1.23-.06,2.19-1.01,2.39-2.22.22-1.38.59-2.62.86-3.93.34-1.59-.94-3.06-2.56-3.03Z"/>
    <path class="cls-2" d="m197.18,154.86l-15.15.84c-2.59.14-4.06,3.04-2.65,5.22.43.66.85,1.32,1.23,1.99.63,1.09,1.77,1.77,3.03,1.72,4.3-.14,9.38-.05,13.76-.16,1.79-.05,3.21-1.49,3.28-3.28.03-.95.04-1.9.06-2.84.05-1.98-1.59-3.59-3.56-3.48Z"/>
    <path class="cls-2" d="m188,173.96l-7.09.31c-1.29.06-2.26,1.24-2.03,2.51.29,1.6.23,3.2.64,4.81.26,1.01,1.19,1.7,2.23,1.64,2.11-.13,4.22-.24,6.32-.36,1.11-.07,1.99-.98,2.02-2.09.04-1.51.12-3.08.16-4.59.04-1.26-1-2.27-2.25-2.22Z"/>
    <path class="cls-2" d="m183.8,191.5l-3.61.26c-1.12.08-1.72,1.33-1.1,2.26,1.26,1.9,2.5,3.8,3.79,5.7.24.36.62.6,1.05.64.54.05,1.09.17,1.63.13-.23-2.51-.08-5.11-.18-7.63-.03-.81-.76-1.42-1.57-1.37Z"/>
    <path class="cls-2" d="m182.89,207.89l-4.05.79c-.03,2.16,1.69,4.93,3.33,5.55,1.32.5,2.58-.09,3.58-.96-.49-1.35-2.38-4.03-2.86-5.37Z"/>
  </g>
  <path class="cls-2" d="m366.6,94.07v-.87l-4.38.87h-229.43c1.87,101.28,3.75,202.56,5.62,303.84,37.34,12.65,78.19,22.11,117.59,20.76,39.4,1.35,80.25-8.11,117.59-20.76,1.87-101.28,3.75-202.56,5.62-303.84h-12.61Zm-35.11,270.57l-7.11.36c.26-.07.51-.14.77-.21l6.35-.15Zm-5.19,27.75c-23.27,4.42-46.62,7.23-70.33,7.02-23.71.21-47.06-2.59-70.33-7.02-4.18-.79-7.96-2.97-10.75-6.18-3.5-4.02-6.46-8.42-8.81-13.06l23.22.54c.81.02,1.5-.62,1.53-1.44.03-.82-.59-1.51-1.41-1.56l-25.2-1.55s-.01-.03-.02-.04l48.43,1.13c13.35,2.02,26.86,2.8,40.31,1.91l.12-.5c.97.1,5.94.5,5.94.5,15.46,1.03,31.01-.15,46.29-2.9l39.41-.92-33.31,1.78c-.82.04-1.45.74-1.42,1.56.03.82.71,1.46,1.53,1.44l34.8-.81c-.15.31-.31.62-.47.92l-2.34.14c-.82.05-1.44.74-1.41,1.56.03.82.72,1.45,1.53,1.44h.51c-2.02,3.46-4.39,6.77-7.08,9.86-2.79,3.2-6.58,5.38-10.75,6.18Zm37.53-285.26l-1.63.67c-.73.3-1.14,1.18-.94,2.02.16.68.67,1.15,1.26,1.24l-8.84,2.98c-.76.26-1.21,1.14-1.03,2,.18.87.93,1.43,1.72,1.27l9.28-1.84v.24s-5.03,1.92-5.03,1.92c-.74.28-1.16,1.16-.97,2.02.19.85.94,1.4,1.71,1.24l4.18-.83v.11s-6.29,2.3-6.29,2.3c-.75.27-1.18,1.15-.99,2.01.19.86.94,1.41,1.72,1.25l3.65-.72-7.76,2.69c-.76.26-1.2,1.14-1.02,2.01.19.87.94,1.42,1.72,1.26l8.78-1.74v.18s-5.38,2.05-5.38,2.05c-.74.28-1.17,1.16-.97,2.02.2.85.94,1.4,1.71,1.24l4.53-.9-.02.76-2.1.83c-.74.29-1.15,1.17-.96,2.02.2.85.94,1.39,1.71,1.23l1.26-.25v.27s-6.19,2.11-6.19,2.11c-.76.26-1.21,1.14-1.02,2.01.18.87.93,1.43,1.72,1.27l5.4-1.07v.61s-3.55,1.25-3.55,1.25c-.75.27-1.19,1.15-1.01,2.01.19.86.94,1.42,1.72,1.26l2.74-.54v.44s-4.76,1.65-4.76,1.65c-.76.26-1.2,1.14-1.01,2.01.19.86.94,1.42,1.72,1.26l3.73-.74-6.41,2.43c-.74.28-1.17,1.16-.97,2.02.19.85.94,1.4,1.71,1.24l3.95-.78-8.41,2.82c-.76.26-1.21,1.13-1.03,2,.18.87.93,1.43,1.72,1.27l9.46-1.88v.52s-3.29,1.3-3.29,1.3c-.74.29-1.15,1.17-.95,2.02.2.85.94,1.39,1.71,1.23l2.43-.48v.05s-7.12,2.52-7.12,2.52c-.75.27-1.19,1.15-1.01,2.01.19.86.94,1.42,1.72,1.26l6.31-1.25v.47s-4.29,1.53-4.29,1.53c-.75.27-1.19,1.15-1,2.01.19.86.94,1.41,1.72,1.26l3.47-.69v.25s-4.44,1.79-4.44,1.79c-.73.3-1.14,1.17-.94,2.02.2.85.94,1.38,1.71,1.23l1.15-.23-7.65,2.67c-.76.26-1.2,1.14-1.01,2.01.19.86.93,1.42,1.72,1.26l6.39-1.27-7.67,2.68c-.76.26-1.2,1.14-1.01,2.01.19.86.93,1.42,1.72,1.26l9.74-1.93v.17s-5.66,2.11-5.66,2.11c-.75.28-1.17,1.16-.98,2.01.19.86.94,1.4,1.71,1.25l4.82-.96v.4s-3.93,1.55-3.93,1.55c-.74.29-1.15,1.17-.95,2.02.2.85.94,1.39,1.71,1.23l2.99-.59-8.44,2.83c-.76.25-1.21,1.13-1.03,2,.18.87.93,1.43,1.72,1.27l6.8-1.35-6.81,2.51c-.75.28-1.18,1.15-.99,2.01.19.86.94,1.41,1.72,1.25l5.46-1.08-6.45,2.44c-.74.28-1.17,1.16-.97,2.02.19.85.94,1.4,1.71,1.24l6.01-1.19-7.05,2.55c-.75.27-1.19,1.15-1,2.01.19.86.94,1.41,1.72,1.25l7.27-1.44v.62s-3.26,1.18-3.26,1.18c-.75.27-1.18,1.15-.99,2.01.19.86.94,1.41,1.72,1.25l1.47-.29-6.63,2.47c-.75.28-1.17,1.16-.98,2.01.19.86.94,1.41,1.71,1.25l5.64-1.12-7.76,2.69c-.76.26-1.2,1.14-1.02,2.01.19.86.93,1.42,1.72,1.26l8.08-1.6v.1s-6.58,2.36-6.58,2.36c-.75.27-1.19,1.15-1,2.01.19.86.93,1.41,1.72,1.26l5.77-1.14v.08s-7.88,2.64-7.88,2.64c-.76.25-1.21,1.13-1.03,2,.18.87.93,1.43,1.72,1.27l7.09-1.41v.54s-3.22,1.26-3.22,1.26c-.74.29-1.15,1.17-.96,2.02.2.85.94,1.39,1.71,1.24l2.36-.47h0s-8.57,2.85-8.57,2.85c-.76.25-1.22,1.13-1.04,2,.18.87.93,1.43,1.72,1.27l7.69-1.52-5.94,2.34c-.74.29-1.15,1.17-.96,2.02.2.85.94,1.39,1.71,1.23l5.18-1.03v.55s-3.22,1.25-3.22,1.25c-.74.29-1.16,1.17-.96,2.02.2.85.94,1.39,1.71,1.24l2.37-.47v.38s-4.87,1.74-4.87,1.74c-.75.27-1.19,1.15-1,2.01.19.86.93,1.41,1.72,1.26l4.05-.8v.15s-5.92,2.18-5.92,2.18c-.75.28-1.18,1.15-.99,2.01.19.86.94,1.41,1.72,1.25l2.03-.4-7.14,2.57c-.75.27-1.19,1.15-1,2.01.19.86.94,1.41,1.72,1.26l9.38-1.86-.02.74-2.06.84c-.73.3-1.14,1.18-.94,2.02.2.84.94,1.38,1.71,1.23l1.2-.24v.39s-5.12,1.78-5.12,1.78c-.76.26-1.2,1.14-1.01,2.01.19.86.94,1.42,1.72,1.26l4.31-.85v.4s-4.55,1.66-4.55,1.66c-.75.27-1.18,1.15-.99,2.01.19.86.94,1.41,1.72,1.25l1.5-.3-8.23,2.78c-.76.26-1.21,1.14-1.03,2s.93,1.43,1.72,1.27l9.66-1.92-.02.81-1.78.72c-.73.3-1.14,1.17-.94,2.02.2.85.94,1.38,1.71,1.23l.93-.18-.02.69-3.04,1.07c-.75.27-1.2,1.15-1.01,2.01.19.86.94,1.42,1.72,1.26l2.24-.45v.19s-6.57,2.27-6.57,2.27c-.76.26-1.2,1.14-1.02,2.01.19.87.93,1.42,1.72,1.27l5.26-1.04-6.84,2.52c-.75.28-1.18,1.15-.99,2.01.19.86.94,1.41,1.72,1.25l6.52-1.29-.02.94-1.28.48c-.75.28-1.17,1.16-.98,2.01.19.86.94,1.4,1.71,1.25l.47-.09v.27s-4.51,1.79-4.51,1.79c-.74.29-1.15,1.17-.95,2.02.2.85.94,1.39,1.71,1.23l3.65-.72v.24s-6.69,2.24-6.69,2.24c-.76.25-1.21,1.13-1.03,2,.18.87.94,1.43,1.72,1.27l5.9-1.17-.02.76-2.22.84c-.74.28-1.17,1.16-.97,2.01.15.65.62,1.12,1.18,1.24l-8.47,2.94c-.76.26-1.2,1.14-1.01,2.01.19.86.93,1.42,1.72,1.26l9.54-1.89-6.89,2.52c-.75.27-1.18,1.15-.99,2.01.19.86.94,1.41,1.72,1.25l6.11-1.21v.11s-4.97,1.9-4.97,1.9c-33.64,10.27-63.29,15.29-90.25,15.29-2.37,0-4.75-.04-7.07-.12l-.51-.02-.51.02c-2.32.08-4.7.12-7.07.12-26.55,0-55.71-4.86-88.73-14.82.43-.4.63-1.06.49-1.7-.19-.86-.95-1.41-1.72-1.25l-5.07,1c-.06-.02-.12-.04-.19-.06v-.65s2.16-.84,2.16-.84c.74-.29,1.16-1.16.96-2.02-.17-.72-.73-1.22-1.37-1.26l6.95-2.58c.75-.28,1.18-1.16.98-2.01-.19-.86-.94-1.4-1.71-1.25l-8.16,1.62v-.24s6.43-2.19,6.43-2.19c.76-.26,1.21-1.14,1.02-2.01-.18-.87-.95-1.43-1.72-1.27l-3.63.72,6.91-2.53c.75-.27,1.18-1.15.99-2.01-.19-.86-.94-1.41-1.72-1.25l-6.37,1.26,6.77-2.5c.75-.28,1.18-1.16.99-2.01-.19-.86-.94-1.41-1.72-1.25l-6.26,1.24,7.21-2.59c.75-.27,1.19-1.15,1-2.01-.19-.86-.94-1.41-1.72-1.26l-8.55,1.7,6.37-2.42c.74-.28,1.17-1.16.97-2.02-.19-.85-.95-1.4-1.71-1.24l-5.77,1.14v-.17s5.23-2.03,5.23-2.03c.74-.29,1.16-1.17.96-2.02-.2-.85-.95-1.39-1.71-1.24l-4.58.91v-.36s4.45-1.68,4.45-1.68c.74-.28,1.17-1.16.98-2.01-.19-.86-.94-1.4-1.71-1.25l-.47.09,7.14-2.57c.75-.27,1.19-1.15,1-2.01-.19-.86-.94-1.41-1.72-1.26l-9.86,1.96v-.34s5.39-1.88,5.39-1.88c.76-.26,1.2-1.14,1.01-2.01-.19-.87-.94-1.42-1.72-1.26l-4.5.89,8.22-2.78c.76-.26,1.21-1.14,1.03-2-.18-.87-.94-1.43-1.72-1.27l-7.92,1.57v-.17s5.69-2.12,5.69-2.12c.75-.28,1.17-1.16.98-2.01-.19-.86-.94-1.4-1.71-1.25l-3.05.6,6.89-2.52c.75-.27,1.18-1.15.99-2.01-.19-.86-.94-1.41-1.72-1.25l-8.27,1.64v-.13s5.61-2.15,5.61-2.15c.74-.28,1.16-1.16.97-2.02-.19-.85-.94-1.39-1.71-1.24l-2.79.55,6.59-2.47c.75-.28,1.17-1.16.98-2.01-.19-.86-.94-1.4-1.71-1.25l-6.68,1.32,7.31-2.61c.75-.27,1.19-1.15,1-2.01-.19-.86-.94-1.41-1.72-1.26l-8.16,1.62v-.04s7.02-2.51,7.02-2.51c.75-.27,1.19-1.15,1-2.01-.19-.86-.94-1.41-1.72-1.26l-6.41,1.27-.02-.81,1.96-.73c.75-.28,1.17-1.16.98-2.01-.19-.86-.95-1.4-1.71-1.25l-1.3.26-.02-.75,2.44-.88c.75-.27,1.19-1.15.99-2.01-.19-.86-.94-1.41-1.72-1.25l-1.8.36v-.57s3.71-1.32,3.71-1.32c.75-.27,1.19-1.15,1-2.01-.19-.86-.95-1.41-1.72-1.26l-2.96.59,6.77-2.5c.75-.28,1.18-1.15.99-2.01-.19-.86-.94-1.41-1.71-1.25l-6.28,1.24-.02-.87,1.5-.59c.74-.29,1.16-1.17.96-2.02s-.95-1.39-1.71-1.24l-.83.16v-.6s3.35-1.22,3.35-1.22c.75-.27,1.19-1.15.99-2.01-.19-.86-.94-1.41-1.72-1.25l-1.47.29,7.88-2.72c.76-.26,1.2-1.14,1.02-2.01-.19-.87-.94-1.42-1.72-1.27l-6.83,1.35,8.31-2.8c.76-.26,1.21-1.14,1.03-2-.18-.87-.94-1.43-1.72-1.27l-8.45,1.68,8.27-2.79c.76-.26,1.21-1.14,1.03-2-.18-.87-.94-1.43-1.72-1.27l-8.56,1.7,5.88-2.33c.74-.29,1.15-1.17.95-2.02-.2-.85-.94-1.39-1.71-1.23l-5.3,1.05-.02-.7,2.4-.93c.74-.29,1.16-1.17.96-2.02-.2-.85-.95-1.39-1.71-1.24l-1.73.34-.02-.79,1.74-.71c.73-.3,1.14-1.18.93-2.02-.2-.84-.95-1.38-1.71-1.22l-.81.16,6.28-2.41c.74-.28,1.16-1.16.97-2.02-.19-.85-.94-1.39-1.71-1.24l-4.91.97,7.76-2.69c.76-.26,1.2-1.14,1.02-2.01s-.94-1.42-1.72-1.26l-6.89,1.37,6.73-2.49c.75-.28,1.18-1.16.99-2.01-.19-.86-.94-1.4-1.71-1.25l-6.3,1.25,7.72-2.69c.76-.26,1.2-1.14,1.01-2.01-.19-.87-.94-1.42-1.72-1.26l-5.98,1.19,6.8-2.51c.75-.28,1.18-1.15.99-2.01-.19-.86-.95-1.41-1.72-1.25l-8.33,1.65v-.47s4.3-1.54,4.3-1.54c.75-.27,1.19-1.15,1-2.01-.19-.86-.94-1.42-1.72-1.26l-3.69.73v-.36s3.67-1.53,3.67-1.53c.73-.3,1.13-1.18.93-2.02-.2-.84-.95-1.38-1.71-1.22l-2.99.59-.02-.71,2.6-.96c.75-.28,1.18-1.15.99-2.01-.19-.86-.94-1.4-1.71-1.25l-1.96.39v-.34s5.16-1.84,5.16-1.84c.75-.27,1.19-1.15,1-2.01-.19-.86-.95-1.41-1.72-1.26l-4.55.9v-.54s2.72-1.17,2.72-1.17c.72-.31,1.12-1.19.91-2.02-.21-.84-.95-1.37-1.71-1.21l-2.03.4v-.17s4.89-1.96,4.89-1.96c.73-.29,1.15-1.17.95-2.02-.2-.85-.95-1.38-1.71-1.23l-4.22.84-.02-.91,1.34-.52c.74-.29,1.16-1.16.96-2.02-.15-.64-.6-1.1-1.14-1.23l8.91-3.04c.76-.26,1.21-1.14,1.02-2.01-.18-.87-.94-1.42-1.72-1.27l-9.55,1.89v-.33s4.23-1.67,4.23-1.67c.74-.29,1.15-1.17.95-2.02-.2-.85-.95-1.39-1.71-1.23l-3.53.7,5.82-2.32c.74-.29,1.15-1.17.95-2.02-.2-.85-.95-1.39-1.71-1.23l-5.2,1.03v-.44s4.41-1.59,4.41-1.59c.75-.27,1.19-1.15,1-2.01-.19-.86-.94-1.41-1.72-1.26l-3.79.75v-.34s3.48-1.52,3.48-1.52c.72-.31,1.11-1.19.9-2.03-.21-.84-.95-1.36-1.71-1.21l-1.68.33,7.94-2.73c.76-.26,1.21-1.14,1.02-2.01-.18-.87-.94-1.42-1.72-1.27l-8.45,1.67v-.2s6.21-2.19,6.21-2.19c.75-.27,1.2-1.15,1.01-2.01-.19-.86-.94-1.41-1.72-1.26l-5.6,1.11-.02-.71,2.11-.87c.73-.3,1.13-1.18.93-2.02-.2-.84-.95-1.37-1.71-1.22l-1.42.28-.02-.76,1.87-.77c.73-.3,1.13-1.18.93-2.02-.2-.84-.94-1.37-1.71-1.22l-1.17.23-.02-.7,1.99-.83h211.38l-3.91,1.35c-.76.26-1.2,1.14-1.02,2.01.18.87.93,1.42,1.72,1.27l5.6-1.11-.02.83Z"/>
</svg>