<?xml version="1.0" encoding="UTF-8"?>
<svg id="Layer_1" data-name="Layer 1" xmlns="http://www.w3.org/2000/svg" viewBox="0 0 512 512">
  <g>
    <g>
      <path d="m139.675,343.816c-.367.318-.829.603-1.051.973-.439.733.149,1.613.179,2.426.056,1.481-2.031,2.701-4.549,2.661-1.029-.016-2.091-.216-3.095-.152-.763.048-1.437.246-2.142.389-3.014.613-6.796.184-9.655-1.094-.775-.347-1.49-.752-2.333-1.028-1.246-.408-2.646-.494-3.976-.739-3.879-.715-6.887-2.709-9.619-4.591-2.275-1.567-4.728-3.465-4.154-5.294-1.163-.302-2.254.226-2.87.782-1.917,1.729-2.233,4.042-1.48,6.259s2.497,4.36,4.488,6.396c2.855,2.919,6.415,5.776,11.248,7.605,2.945,1.114,6.221,1.792,9.478,2.366,5.592.985,11.247,1.697,16.893,2.407,2.472.311,5.003.624,7.388.436,2.127-.168,4.012-.724,5.83-1.3,2.457-.778,4.863-1.604,7.212-2.477,1.617-.601,3.247-1.247,4.245-2.208,1.093-1.052,1.325-2.379,1.536-3.666.259-1.583.514-3.202-.16-4.823-.734-1.765-2.513-3.396-4.36-4.941-1.086-.909-2.213-1.807-3.511-2.621-3.387-2.125-9.507-4.386-14.3-4.251-2.849.08-2.132,1.004-1.226,2.316,1,1.449,1.392,2.95-.015,4.169Z" fill="#4380af" stroke-width="0"/>
      <path d="m137.607,332.932c-23.215-6.64-46.635-4.641-52.309,4.465-5.674,9.106,8.546,21.87,31.761,28.51,23.215,6.64,46.635,4.641,52.309-4.465,5.674-9.106-8.546-21.87-31.761-28.51Zm21.14,22.978c-2.799,4.663-13.015,6.725-25.422,5.129-3.763-.484-7.561-1.284-11.289-2.378-8.247-2.42-15.164-5.978-19.477-10.018-3.951-3.701-5.17-7.334-3.434-10.228,2.798-4.663,13.014-6.724,25.421-5.128,3.763.484,7.562,1.284,11.289,2.377,16.159,4.741,26.651,14.014,22.911,20.247Z" fill="#2a2e28" stroke-width="0"/>
      <path d="m227.772,179.885l-28.82-2.783c-1.596-.154-3.275-.3-4.732.213-1.457.513-2.557,1.927-1.95,3.177.644,1.325,2.648,1.708,4.337,1.896,11.025,1.232,22.051,2.464,33.076,3.695-.923-1.893-1.549-4.038-1.911-6.199Z" fill="#ef9437" stroke-width="0"/>
      <path d="m230.845,189.301c-10.497-.694-20.994-1.389-31.491-2.083-2.027-.134-4.572-.02-5.305,1.533-.548,1.159.364,2.55,1.658,3.241,1.295.691,2.867.852,4.376.997,8.716.832,17.432,1.663,26.147,2.495" fill="#ef9437" stroke-width="0"/>
      <path d="m224.388,197.37c-7.5-.839-15-1.677-22.501-2.516-1.491-.167-3.077-.322-4.412.207-1.335.529-2.193,2.025-1.327,3.067,7.628,1.697,15.442,2.733,23.274,3.087" fill="#ef9437" stroke-width="0"/>
      <path d="m215.898,205.499c-9.46-.963-18.92-1.927-28.38-2.89-1.699-.173-3.721-.286-4.692.429-.843.62-.406,1.627.611,2.286,1.017.66,2.467,1.048,3.878,1.381,6.427,1.519,13.23,2.387,19.945,2.546" fill="#ef9437" stroke-width="0"/>
      <path d="m196.941,212.043c-4.607-.451-9.215-.903-13.822-1.354-2.143-.21-4.41-.405-6.337.336-1.926.741-3.254,2.788-2.18,4.369.948,1.396,3.134,1.742,5.026,1.932,4.582.46,12.696,1.259,17.278,1.719" fill="#ef9437" stroke-width="0"/>
      <path d="m189.354,223.032c-4.609-.512-10.266-.824-14.875-1.336-2.059-.229-4.184-.458-6.147-.264s-3.739.926-3.834,1.968c-.078.864,1.018,1.752,2.441,2.332s3.136.904,4.823,1.171c3.783.6,14.012,2.274,17.847,2.415" fill="#ef9437" stroke-width="0"/>
      <path d="m180.975,231.832c-3.673-.578-14.162-2.13-17.868-1.787-1.064.099-2.158.246-3.087.801s-1.66,1.616-1.545,2.721c.092.885.704,1.634,1.436,2.09s1.577.665,2.408.869c2.879.705,5.759,1.411,8.638,2.116" fill="#ef9437" stroke-width="0"/>
      <path d="m154.682,167.008c-3.507-11.719-18.582-46.867-18.582-46.867l-14.005-2.799.446,12.94c19.588,29.269,19.134,77.758,31.228,109.674,2.704,7.136,7.007-5.367,9.636,2.055,1.065-26.252-.936-48.978-8.724-75.004Z" fill="#4380af" stroke-width="0"/>
      <path d="m227.836,170.652c.036-.162.095-.298.139-.452-32.078-2.779-64.156-5.558-96.234-8.337.654,2.257,3.322,4.496,3.976,6.753,30.435,2.433,61.132,4.98,91.682,7.463-.061-1.993.093-3.871.436-5.427Z" fill="#ef9437" stroke-width="0"/>
      <g>
        <path d="m210.432,160.418l14.776,5.894c2.729,1.089,3.495,4.591,1.472,6.722-.023.024-.045.047-.067.071-1.202,1.266-3.067,1.645-4.669.952-5.678-2.457-11.116-5.345-16.78-7.809-1.927-.838-2.953-2.985-2.332-4.993.311-1.005.806-1.915,1.624-2.592,1.451-1.198,3.431-.986,4.32.33.419.62.962,1.147,1.657,1.425Z" fill="#2a2e28" stroke-width="0"/>
        <path d="m203.291,171.563l12.115,5.196c1.711.734,2.136,2.971.805,4.273-.043.042-.085.084-.128.126-.772.761-1.928.96-2.917.517-3.952-1.768-8.04-3.379-11.988-5.147-.916-.41-1.515-1.318-1.532-2.321,0-.057-.002-.113-.004-.169-.057-1.909,1.894-3.228,3.649-2.475Z" fill="#2a2e28" stroke-width="0"/>
        <path d="m198.404,180.235l8.968,4.066c1.628.738,1.801,2.974.314,3.965-.015.01-.03.02-.044.03-.638.429-1.446.497-2.151.193-2.787-1.203-6.168-2.499-8.986-3.706-.925-.396-1.489-1.36-1.354-2.357.02-.151.043-.302.066-.452.228-1.494,1.813-2.362,3.189-1.738Z" fill="#2a2e28" stroke-width="0"/>
        <path d="m194.771,189.039l3.338,1.456c.85.371,1.245,1.344.914,2.211-.061.159-.117.321-.175.481-.34.942-1.408,1.392-2.323.984-1.07-.477-2.142-.949-3.212-1.426-.696-.311-1.099-1.043-1.005-1.8.021-.174.042-.35.063-.526.134-1.148,1.341-1.841,2.4-1.379Z" fill="#2a2e28" stroke-width="0"/>
        <path d="m191.304,195.899l1.418.643c.726.329.772,1.342.081,1.739-.562.322-1.119.643-1.68.958-.235.132-.515.162-.771.08-.004-.001-.008-.003-.013-.004-.478-.153-.763-.633-.666-1.125.1-.511.172-1.041.263-1.565.109-.631.785-.99,1.368-.725Z" fill="#2a2e28" stroke-width="0"/>
        <path d="m188.055,201.55l.681.367c.632.341.641,1.263.003,1.592-.364.188-.789.282-1.182.23-.279-.037-.545-.129-.795-.259-.614-.32-.679-1.174-.105-1.561.15-.101.299-.202.432-.299.284-.207.657-.237.966-.07Z" fill="#2a2e28" stroke-width="0"/>
      </g>
      <g>
        <path d="m166.242,174.41c.724.053,1.468.111,2.121.428s1.202.96,1.186,1.686c-.017.765-.656,1.403-1.375,1.664s-1.507.224-2.271.183c-2.669-.141-22.175.018-21.317-3.243.733-2.786,6.813-1.797,8.562-1.67,4.365.317,8.73.635,13.095.952Z" fill="#ef9437" stroke-width="0"/>
        <path d="m170.176,183.844c.623.079,1.292.18,1.741.619s.479,1.337-.093,1.597c-5.318.393-10.671.314-15.975-.234-2.414-.25-4.927-.639-6.893-2.061-.522-.378-1.028-.886-1.081-1.531-.167-2.113,8.804-.106,10.256.079,4.015.51,8.029,1.021,12.044,1.531Z" fill="#ef9437" stroke-width="0"/>
        <path d="m169.441,190.331c1.109.076,2.397.257,2.953,1.22.606,1.05-.111,2.464-1.179,3.038s-2.347.538-3.558.489c-2.956-.121-5.912-.243-8.869-.364-1.195-.049-2.427-.107-3.509-.618-3.268-1.546-1.761-4.739,1.248-4.704,4.273.049,8.641.649,12.913.941Z" fill="#ef9437" stroke-width="0"/>
        <path d="m173.431,200.314c.446,1.041-.259,2.286-1.251,2.834s-2.176.577-3.309.592c-2.823.04-5.647.079-8.47.119-.832.012-1.678.022-2.478-.208-1.412-.405-2.907-2.266-1.674-3.678.912-1.045,2.286-.347,3.453-.201,4.499.562,9.198.384,13.73.542Z" fill="#ef9437" stroke-width="0"/>
        <path d="m159.927,206.945l7.549.441c.7.041,1.418.086,2.06.368s1.204.856,1.267,1.554c.077.854-.618,1.624-1.421,1.924s-1.689.238-2.544.172c-1.419-.11-2.837-.219-4.256-.329-.63-.049-1.271-.1-1.861-.326s-1.133-.659-1.341-1.256c-.239-.687.049-1.519.661-1.913s1.488-.309,2.014.193" fill="#ef9437" stroke-width="0"/>
        <path d="m166.577,215.975c.535.124,1.132.345,1.322.86.165.448-.064.967-.431,1.272s-.844.44-1.309.546c-1.117.254-2.262.385-3.407.39-.939.004-2.014-.15-2.533-.933-2.267-3.416,5.341-2.372,6.359-2.136Z" fill="#ef9437" stroke-width="0"/>
      </g>
      <path d="m129.747,342.902c13.215-39.757,33.977-86.11,33.977-86.11-2.873.901-5.908.649-8.522-.578-.751,2.497-1.285,5.34-1.708,6.667-2.893,9.065-5.786,18.131-8.679,27.196-2.777,8.702-5.564,17.4-8.346,26.1-2.322,9.137-4.911,17.968-7.469,26.634l.746.091Z" fill="#4380af" stroke-width="0"/>
      <path d="m122.734,361.681c.284.09.552.182.832.272.281.087.553.166.837.256l-1.669-.528Z" fill="#fff" stroke-width="0"/>
      <g>
        <path d="m157.914,141.708l-10.052-1.384c-1.374-.189-2.515,1.048-2.215,2.402.15.676.302,1.364.442,1.987.186.822.871,1.449,1.709,1.539,4.058.437,8.057.442,12.052.845,1.085.11,2.033-.698,2.161-1.781.108-.92.066-1.847-.341-2.702-.565-1.186-1.712-1.69-2.472-1.167-.37.254-.838.322-1.283.261Z" fill="#2a2e28" stroke-width="0"/>
        <path d="m160.718,151.443l-10.351-1.05c-.849-.086-1.519.706-1.298,1.53.181.675.37,1.332.543,2.038.124.508.567.869,1.089.907,3.05.224,6.132.654,9.149.882.584.044,1.099-.348,1.263-.911.188-.641.431-1.205.641-1.812.253-.732-.265-1.506-1.035-1.584Z" fill="#2a2e28" stroke-width="0"/>
        <path d="m160.864,159.771l-7.228-.491c-1.238-.084-2.105,1.202-1.562,2.318.165.339.326.678.468,1.016.233.554.737.941,1.336.995,2.047.184,4.451.526,6.53.729.851.083,1.611-.519,1.746-1.364.072-.45.129-.897.196-1.345.14-.936-.541-1.794-1.485-1.859Z" fill="#2a2e28" stroke-width="0"/>
        <path d="m161.38,169.026l-3.38-.268c-.616-.049-1.145.453-1.109,1.07.046.774-.081,1.53.021,2.315.064.494.465.876.963.906,1.007.062,2.012.135,3.015.198.531.033,1.002-.346,1.081-.872.107-.713.236-1.453.346-2.166.091-.593-.34-1.136-.938-1.184Z" fill="#2a2e28" stroke-width="0"/>
        <path d="m161.704,177.508l-1.729-.087c-.533-.027-.895.531-.656,1.009.486.973.964,1.947,1.46,2.926.093.183.261.321.461.364.255.055.506.144.764.156.039-1.203.263-2.428.362-3.628.032-.387-.276-.72-.663-.739Z" fill="#2a2e28" stroke-width="0"/>
        <path d="m162.904,185.543l-1.967.135c-.139,1.023.51,2.434,1.253,2.824.598.313,1.228.11,1.754-.244-.151-.668-.89-2.051-1.039-2.715Z" fill="#2a2e28" stroke-width="0"/>
      </g>
      <path d="m152.288,344.413c-.018-.093-.038-.187-.043-.279-.283-.173-.558-.349-.838-.523-1.496-1.294-3.338-2.56-5.475-3.742-.534-.418-1.057-.841-1.549-1.28-.464-.414-.833-.837-1.107-1.26-.041.008-.086.017-.125.025-.195-.095-.424-.207-.7-.34-.424-.206-.843-.408-1.063-.518-.536-.392-1.296-.366-1.823-.29-.155-.094-.335-.204-.546-.332-.461-.28-.916-.556-1.071-.657-.171-.126-.39-.23-.637-.3-.618-.174-.997-.094-1.753.068-.175.037-.346.075-.43.089l.553.852-.187.039c.032.042.057.074.092.109l-.401.628c.513.15.874.118,1.386.017.133.081.285.173.458.278.482.293.975.59,1.141.699.168.125.384.23.628.3.516.149.88.114,1.372.017.169.082.364.177.592.288.517.251,1.045.505,1.235.605.082.049.171.094.267.134-1.074.755-1.056.881-.714,1.317.174.222.484.407.859.514.513.145.704.145,1.682-.048.215.692.225.704.319.825.174.224.488.411.866.517.216.06.411.087.591.095.145.083.314.18.51.292.533.305,1.099.628,1.286.743.166.118.376.216.611.282.061.017.118.032.175.044.226.681.236.693.328.81.173.221.481.405.854.512.011.004.023.007.034.01q.185.954.31,1.114c.175.225.488.413.87.519.471.133.814.11,1.202.041.05.022.111.048.166.072.222.539.358,1.069.401,1.587-.582.737-.585.866-.321,1.208.019.024.038.047.06.07-4.835,2.073-4.815,2.099-4.261,2.816.109.137.45.477,1.154.568.083.011.171.017.264.02-2.157,1.167-5.312,1.864-9.067,2.024.036-.157-.002-.327-.129-.494-.174-.228-.491-.419-.874-.527-.645-.179-.941-.117-2.362.19-.257.055-.516.112-.723.155-.474-.103-1.132-.231-2.064-.413-.895-.175-2.219-.433-2.619-.527-.045-.015-.091-.03-.138-.043-.622-.173-.992-.095-1.882.096-.018.004-.035.008-.054.012-.297-.11-.671-.246-1.149-.419-.602-.218-1.494-.541-1.756-.646-.118-.058-.246-.107-.385-.146-.524-.147-.884-.107-1.42.002-.076-.047-.158-.098-.246-.153-.418-.26-.849-.526-.995-.623-.171-.127-.39-.232-.638-.303-.582-.164-.606-.172-2.724.254-.166-.917-.173-.926-.291-1.081-.176-.23-.496-.42-.884-.528-.395-.109-.693-.114-1.044-.062-.071-.058-.15-.122-.233-.191-.377-.308-.749-.61-.852-.699-.182-.169-.447-.308-.755-.394-.293-.082-.539-.106-.784-.093-.286-.317-.568-.629-.594-.657-.175-.225-.488-.412-.868-.519-.264-.074-.486-.101-.699-.096-.082-.097-.166-.197-.249-.295-.341-.406-.66-.785-.695-.826-.027-.035-.058-.069-.091-.101.02-.026.04-.052.06-.077,1.256-1.615,1.28-1.646.943-2.08-.638-.793-1.496-.666-3.288-.307-.234-.807-.241-.817-.341-.946-.052-.068-.117-.132-.191-.192-.149-.186-.389-.484-.629-.783-.372-.464-.744-.929-.774-.968-.095-.121-.229-.231-.393-.324.011-.028.021-.055.031-.082.512-1.344.522-1.37.273-1.689-.066-.084-.151-.163-.252-.235.007-.011.015-.021.022-.032.364-.554.556-.846.62-1.046,1.245-.372,2.684-.794,3.915-1.155,1.373-.402,2.752-.807,3.963-1.169.441.043.818-.041,1.293-.155.098-.023.195-.047.276-.065.079-.006.156-.017.232-.032.444-.086.73-.297.816-.551,1.049-.339,1.631-.59,1.772-.898,1.605.027,3.294.144,5.043.356-.098-.013-.196-.031-.294-.044-1.621-.208-3.191-.337-4.711-.405.025-.145-.032-.306-.181-.497-.175-.227-.501-.421-.884-.528-.753-.213-.908-.189-5.406.789-1.26.274-2.952.641-3.504.73-.143,0-.285.013-.423.04-.397.077-.665.256-.779.474-1.819.508-3.332,1.193-4.475,2.036-1.949.603-2.589.883-2.033,1.603.069.09.175.168.284.243-1.485,2.511-.422,5.657,2.999,8.862,3.748,3.511,9.761,6.604,16.929,8.707,3.24.951,6.541,1.646,9.812,2.067,10.784,1.387,19.663-.405,22.096-4.458,1.517-2.528.336-5.63-2.779-8.639Z" fill="#2a2e28" stroke-width="0"/>
    </g>
    <g>
      <path d="m372.115,365.819c.396.267.884.499,1.138.821.504.635-.009,1.454.031,2.186.073,1.331,2.27,2.322,4.79,2.161,1.03-.066,2.077-.298,3.089-.29.769.006,1.461.149,2.181.243,3.074.4,6.828-.172,9.582-1.461.747-.349,1.428-.749,2.249-1.038,1.214-.428,2.609-.575,3.921-.861,3.826-.835,6.667-2.773,9.242-4.597,2.144-1.519,4.438-3.344,3.704-4.956,1.139-.328,2.278.091,2.944.558,2.071,1.455,2.589,3.515,2.027,5.541s-2.124,4.035-3.943,5.961c-2.608,2.761-5.928,5.501-10.613,7.382-2.855,1.146-6.079,1.917-9.294,2.594-5.52,1.162-11.125,2.081-16.723,2.999-2.451.402-4.96.808-7.367.758-2.146-.045-4.084-.45-5.956-.876-2.53-.576-5.013-1.197-7.443-1.863-1.673-.458-3.363-.957-4.446-1.769-1.187-.889-1.535-2.069-1.858-3.212-.397-1.407-.793-2.847-.258-4.335.582-1.62,2.224-3.171,3.941-4.649,1.01-.869,2.061-1.731,3.291-2.526,3.21-2.075,9.148-4.408,13.964-4.524,2.862-.069,2.224.794,1.43,2.017-.876,1.349-1.139,2.716.377,3.74Z" fill="#4380af" stroke-width="0"/>
      <path d="m343.884,383.108c6.478,7.887,30.124,8.516,52.816,1.405,22.692-7.111,35.836-19.269,29.358-27.156-6.478-7.887-30.124-8.516-52.816-1.405-22.692,7.111-35.836,19.269-29.358,27.156Zm31.37-24.794c3.641-1.166,7.379-2.073,11.109-2.694,12.297-2.048,22.715-.707,25.925,3.337,1.992,2.51,1.085,5.83-2.553,9.347-3.972,3.839-10.596,7.375-18.652,9.956-3.641,1.166-7.378,2.073-11.108,2.695-12.297,2.049-22.715.707-25.925-3.337-4.289-5.406,5.422-14.245,21.206-19.302Z" fill="#2a2e28" stroke-width="0"/>
      <path d="m281.069,199.605c12.407-.822,24.814-1.644,37.22-2.466,1.6-.106,3.282-.201,4.723.355s2.498,2.003,1.853,3.234c-.683,1.305-2.698,1.627-4.392,1.765-12.188.991-24.376,1.982-36.564,2.974" fill="#ef9437" stroke-width="0"/>
      <path d="m286.043,208.372c10.513-.378,21.026-.756,31.539-1.134,2.03-.073,4.57.117,5.257,1.692.513,1.175-.44,2.538-1.755,3.19s-2.891.766-4.404.864c-8.737.569-17.474,1.138-26.211,1.707" fill="#ef9437" stroke-width="0"/>
      <path d="m292.254,216.633c7.522-.612,15.044-1.225,22.566-1.837,1.495-.122,3.085-.229,4.403.339s2.131,2.09,1.234,3.106c-7.676,1.466-15.518,2.267-23.356,2.385" fill="#ef9437" stroke-width="0"/>
      <path d="m300.495,225.013c9.485-.678,18.969-1.356,28.454-2.034,1.703-.122,3.728-.174,4.677.57.824.646.357,1.638-.68,2.267-1.037.629-2.497.973-3.918,1.264-6.47,1.324-13.296,1.988-20.012,1.944" fill="#ef9437" stroke-width="0"/>
      <path d="m319.247,232.125c4.619-.313,9.238-.625,13.856-.938,2.148-.145,4.421-.272,6.324.527s3.169,2.885,2.048,4.432c-.99,1.367-3.185,1.647-5.082,1.78-4.594.322-12.728.877-17.322,1.198" fill="#ef9437" stroke-width="0"/>
      <path d="m326.5,243.338c4.623-.373,10.286-.514,14.908-.887,2.065-.167,4.196-.332,6.152-.079s3.71,1.038,3.773,2.082c.052.866-1.07,1.72-2.511,2.257s-3.162.809-4.856,1.025c-3.8.485-14.074,1.851-17.912,1.877" fill="#ef9437" stroke-width="0"/>
      <path d="m334.61,252.386c3.688-.467,14.219-1.703,17.914-1.248,1.06.131,2.149.311,3.061.894s1.61,1.665,1.462,2.766c-.119.882-.753,1.612-1.498,2.046s-1.596.617-2.433.796c-2.899.618-5.799,1.237-8.698,1.855" fill="#ef9437" stroke-width="0"/>
      <path d="m362.842,188.382c3.858-11.608,19.985-46.287,19.985-46.287l14.083-2.376-.836,12.921c-20.46,28.666-21.467,77.146-34.516,108.684-2.918,7.051-6.842-5.575-9.694,1.764-.274-26.272,2.411-48.927,10.978-74.707Z" fill="#4380af" stroke-width="0"/>
      <path d="m385.928,183.931c-41.462,2.337-82.925,4.674-124.387,7.012,1.297,1.806,1.963,3.78,3.26,5.586,38.836-1.93,78.113-4.037,116.949-5.967.722-2.237,3.456-4.394,4.178-6.63Z" fill="#ef9437" stroke-width="0"/>
      <g>
        <path d="m307.316,180.117l-14.946,5.447c-2.761,1.006-3.632,4.483-1.674,6.674.022.024.044.049.065.073,1.164,1.301,3.016,1.737,4.638,1.092,5.75-2.285,11.272-5.007,17.008-7.3,1.951-.78,3.042-2.895,2.481-4.92-.281-1.014-.748-1.939-1.546-2.639-1.414-1.241-3.4-1.088-4.327.2-.438.608-.996,1.118-1.699,1.374Z" fill="#2a2e28" stroke-width="0"/>
        <path d="m314.118,191.472l-12.266,4.829c-1.732.682-2.224,2.905-.933,4.246.041.043.083.086.124.129.749.784,1.898,1.018,2.9.605,4.004-1.649,8.138-3.135,12.137-4.784.928-.382,1.554-1.272,1.601-2.274.003-.056.006-.113.009-.169.114-1.907-1.796-3.283-3.573-2.583Z" fill="#2a2e28" stroke-width="0"/>
        <path d="m318.743,200.287l-9.086,3.794c-1.649.689-1.89,2.919-.433,3.954.015.01.029.021.043.031.625.448,1.43.541,2.145.258,2.822-1.119,6.24-2.312,9.094-3.434.936-.368,1.529-1.315,1.424-2.315-.016-.152-.034-.303-.052-.454-.183-1.5-1.741-2.415-3.135-1.833Z" fill="#2a2e28" stroke-width="0"/>
        <path d="m322.109,209.197l-3.38,1.354c-.861.345-1.285,1.306-.98,2.182.056.161.107.324.16.486.311.952,1.366,1.434,2.292,1.054,1.084-.445,2.17-.884,3.254-1.329.705-.29,1.129-1.01,1.059-1.768-.016-.175-.032-.351-.047-.528-.1-1.152-1.285-1.88-2.358-1.45Z" fill="#2a2e28" stroke-width="0"/>
        <path d="m325.367,216.158l-1.437.6c-.736.307-.812,1.319-.133,1.736.552.339,1.099.676,1.651,1.008.231.139.51.177.768.103.004-.001.008-.002.013-.004.483-.138.781-.609.7-1.105-.084-.513-.141-1.046-.216-1.572-.09-.634-.755-1.013-1.346-.766Z" fill="#2a2e28" stroke-width="0"/>
        <path d="m328.445,221.904l-.691.346c-.642.322-.679,1.243-.051,1.592.358.199.78.305,1.174.266.28-.028.549-.113.802-.235.623-.302.714-1.153.152-1.557-.147-.106-.292-.211-.423-.312-.277-.215-.649-.256-.963-.099Z" fill="#2a2e28" stroke-width="0"/>
      </g>
      <g>
        <path d="m351.066,195.433c-.725.031-1.471.066-2.133.364s-1.23.923-1.236,1.649c-.006.765.614,1.422,1.325,1.704s1.5.269,2.265.252c2.672-.06,22.165.686,21.405-2.6-.649-2.807-6.756-2.001-8.508-1.927-4.372.186-8.745.372-13.118.558Z" fill="#ef9437" stroke-width="0"/>
        <path d="m346.849,204.744c-.625.06-1.297.141-1.759.566s-.519,1.322.044,1.6c5.304.553,10.656.636,15.974.247,2.421-.177,4.944-.49,6.952-1.853.533-.362,1.054-.855,1.127-1.497.231-2.107-8.797-.371-10.254-.23-4.028.389-8.057.779-12.085,1.168Z" fill="#ef9437" stroke-width="0"/>
        <path d="m347.388,211.251c-1.111.042-2.404.185-2.989,1.131-.638,1.031.037,2.466,1.087,3.072s2.329.609,3.542.596c2.959-.032,5.917-.065,8.876-.097,1.196-.013,2.43-.034,3.526-.512,3.313-1.447,1.903-4.684-1.106-4.74-4.273-.079-8.657.389-12.935.551Z" fill="#ef9437" stroke-width="0"/>
        <path d="m343.099,221.109c-.477,1.027.191,2.293,1.165,2.87s2.158.642,3.289.692c2.821.125,5.642.249,8.463.374.831.037,1.677.072,2.483-.133,1.423-.362,2.974-2.178,1.784-3.626-.88-1.072-2.274-.415-3.445-.305-4.514.426-9.205.107-13.74.128Z" fill="#ef9437" stroke-width="0"/>
        <path d="m356.398,228.144l-7.559.214c-.701.02-1.42.043-2.07.306s-1.229.819-1.313,1.515c-.103.851.569,1.642,1.362,1.966s1.681.289,2.537.248c1.421-.067,2.842-.134,4.264-.2.631-.03,1.273-.061,1.87-.27s1.152-.624,1.378-1.215c.259-.679-.003-1.52-.603-1.932s-1.478-.354-2.019.132" fill="#ef9437" stroke-width="0"/>
        <path d="m349.479,236.97c-.538.108-1.142.311-1.347.82-.179.443.035.968.392,1.285s.83.466,1.292.585c1.109.287,2.249.453,3.394.493.939.033,2.017-.089,2.56-.856,2.368-3.346-5.267-2.532-6.292-2.326Z" fill="#ef9437" stroke-width="0"/>
      </g>
      <path d="m382.471,364.948c-12.012-40.136-31.369-87.094-31.369-87.094,2.845.987,5.886.827,8.536-.321.675,2.518,1.123,5.377,1.507,6.716,2.619,9.148,5.237,18.296,7.856,27.445,2.514,8.781,5.037,17.56,7.556,26.34,2.046,9.203,4.368,18.108,6.663,26.847l-.749.069Z" fill="#4380af" stroke-width="0"/>
      <path d="m388.915,383.93c-.287.081-.557.165-.84.247-.284.079-.558.15-.844.231l1.684-.478Z" fill="#fff" stroke-width="0"/>
      <g>
        <path d="m360.374,162.997l10.089-1.081c1.379-.148,2.482,1.123,2.142,2.468-.17.671-.342,1.354-.502,1.973-.21.816-.914,1.422-1.754,1.487-4.069.315-8.067.199-12.072.482-1.088.077-2.012-.759-2.106-1.845-.08-.923-.01-1.848.423-2.69.6-1.168,1.762-1.638,2.506-1.092.362.265.828.347,1.274.299Z" fill="#2a2e28" stroke-width="0"/>
        <path d="m357.278,172.643l10.378-.738c.851-.061,1.497.751,1.251,1.568-.202.669-.41,1.321-.604,2.021-.139.504-.593.851-1.115.874-3.056.132-6.149.469-9.172.607-.585.027-1.088-.381-1.235-.948-.168-.647-.395-1.218-.586-1.831-.23-.74.31-1.498,1.083-1.553Z" fill="#2a2e28" stroke-width="0"/>
        <path d="m356.881,180.963l7.24-.273c1.24-.047,2.068,1.265,1.491,2.364-.175.334-.346.667-.498,1.001-.249.547-.765.919-1.365.954-2.052.122-4.464.392-6.549.532-.853.057-1.594-.568-1.704-1.416-.059-.452-.102-.901-.156-1.35-.112-.94.595-1.777,1.541-1.813Z" fill="#2a2e28" stroke-width="0"/>
        <path d="m356.087,190.199l3.386-.166c.618-.03,1.131.487,1.076,1.103-.069.773.035,1.532-.091,2.314-.079.492-.492.861-.99.877-1.009.032-2.015.074-3.02.107-.532.017-.991-.376-1.055-.904-.086-.716-.192-1.459-.281-2.175-.074-.595.374-1.125.973-1.155Z" fill="#2a2e28" stroke-width="0"/>
        <path d="m355.508,198.667l1.73-.035c.534-.011.878.558.625,1.028-.515.958-1.022,1.917-1.547,2.881-.098.18-.271.313-.472.35-.256.047-.51.129-.769.133-.003-1.204-.19-2.434-.253-3.637-.02-.388.297-.711.685-.719Z" fill="#2a2e28" stroke-width="0"/>
        <path d="m354.066,206.662l1.962.194c.108,1.027-.583,2.418-1.337,2.785-.607.295-1.231.073-1.746-.296.171-.664.951-2.023,1.12-2.683Z" fill="#2a2e28" stroke-width="0"/>
      </g>
      <path d="m238.868,179.076l-.075.005c28.114,20.022,62.315,47.404,85.33,73.126,29.64,33.127,41.202,76.865,50.646,118.164l7.703-5.422c-1.475-4.927-2.74-9.617-4.396-14.659l.437.003c.298-.003.491-.346.448-.811-.043-.465-.307-.904-.616-1.022l-1-.383c-.168-.506-.336-1.011-.505-1.517l.572.004c.3-.004.493-.351.447-.82-.046-.469-.315-.907-.627-1.017l-1.145-.407c-1.442-4.271-2.915-8.518-4.391-12.681l1.475.01c.293-.003.484-.332.45-.786-.034-.455-.282-.893-.586-1.033l-2.373-1.093c-.099-.277-.198-.553-.297-.828l.285.002c.294-.002.485-.335.45-.791-.036-.457-.287-.895-.591-1.031l-.952-.424c-.18-.498-.359-.993-.539-1.487l.969.007c.285-.002.477-.32.451-.764-.026-.444-.261-.882-.557-1.04l-1.885-1.004c-.577-1.577-1.15-3.129-1.718-4.659l1.646.012c.296.002.488-.34.449-.801-.039-.461-.297-.899-.603-1.027l-2.564-1.064c-.107-.286-.213-.567-.319-.851l.486.003c.287-.002.477-.321.451-.765-.026-.444-.261-.882-.557-1.04l-1.321-.702c-.156-.412-.31-.82-.464-1.227l2.809.02c.293-.002.485-.336.449-.793-.036-.457-.288-.895-.593-1.03l-4.029-1.78c-.019-.049-.038-.099-.057-.148l.36.003c.292-.001.484-.333.45-.789-.035-.455-.284-.894-.588-1.032l-1.111-.504c-.182-.474-.363-.945-.543-1.409l1.333.009c.284-.002.474-.315.452-.753-.022-.439-.25-.877-.543-1.043l-2.478-1.404c-.071-.182-.14-.36-.21-.54l4.045.028c.302.004.494-.353.447-.824-.047-.471-.319-.908-.631-1.016l-5.278-1.814c-.014-.036-.028-.07-.042-.106l2.621.018c.295-.003.489-.341.448-.804-.04-.462-.299-.9-.607-1.025l-3.783-1.535c-.051-.128-.103-.259-.153-.386l2.493.017c.29,0,.482-.33.45-.782-.032-.453-.278-.891-.58-1.035l-3.8-1.805c-.017-.043-.034-.084-.051-.127l5.823.04c.306.001.5-.364.445-.844-.055-.48-.339-.915-.656-1.003l-6.87-1.923,6.253.043c.3-.002.494-.353.447-.824-.047-.471-.319-.908-.632-1.016l-7.715-2.648c-.001-.07-.008-.144-.021-.22-.027-.159-.081-.307-.148-.439,4.4,1.273,9.165-.116,12.18-3.613l.215-.249,1.438-.805c1.592,9.292,8.393,55.519,17.542,91.239l9.567.478c-14.091-41.256-27.201-80.243-19.761-124.919.058-.135.082-.282.074-.43.082-.483.162-.965.248-1.45,5.971-33.386,20.29-73.787,33.509-105.355,2.464-2.607,1.038-7.236-2.847-7.684-16.212-1.867-48.512-2.983-89.058,9.028-38.256,11.332-63.217,27.511-76.025,37.47-2.629,2.045-2.135,5.667.096,7.334Zm155.838-46.885c.13-.117.245-.249.331-.404.022-.034.248-.39.514-.81.395.486.46,1.195.098,1.738-.091-.051-.187-.104-.276-.153-.237-.132-.459-.255-.667-.371Zm-123.106,49.349c-.053-.524-.522-.906-1.046-.852l-9.814-2.457c18.174-1.988,42.359-5.546,68.146-11.886,24.091-5.922,43.935-14.433,58.514-22.02l-5.422,4.749c-.474.23-.673.801-.443,1.275.23.475.804.672,1.275.443l6.978-3.379-5.61,4.874c-.361.314-.434.846-.171,1.246.264.4.785.543,1.212.333l2.244-1.086-7.545,5.796c-.388.298-.488.841-.23,1.258.257.416.788.574,1.228.357l5.861-2.838c-.015.041-.031.082-.046.124l-8.726,6.261c-.402.289-.517.837-.264,1.263.253.426.792.588,1.236.371l5.9-2.857c-.02.055-.04.11-.06.166l-7.741,5.752c-.395.293-.502.839-.247,1.26.255.421.791.578,1.232.364l4.638-2.246-8.106,6.065c-.394.295-.499.84-.243,1.26.255.42.789.578,1.231.363l2.959-1.433-7.964,5.997c-.392.295-.496.84-.24,1.26.256.419.792.576,1.23.361l7.945-3.847c-.013.039-.026.077-.039.116l-8.881,6.339c-.403.288-.519.837-.266,1.264.253.426.792.588,1.236.372l4.869-2.358-9.081,6.534c-.402.289-.516.838-.263,1.263.253.425.793.587,1.236.37l6.485-3.14-9.112,6.549c-.402.289-.516.837-.263,1.263.253.426.794.585,1.235.37l7.618-3.689-6.956,5.515c-.381.302-.474.843-.215,1.255.259.412.788.563,1.224.351l4.842-2.345c-.048.165-.096.33-.144.495l-6.353,4.793c-.392.296-.496.84-.24,1.259.256.419.791.576,1.23.361l1.709-.828-8.226,6.123c-.395.294-.501.84-.246,1.26.255.421.789.578,1.232.364l7.044-3.411-8.092,6.059c-.394.294-.499.84-.243,1.26.255.42.79.578,1.231.362l4.778-2.314-7.851,5.943c-.391.296-.494.841-.238,1.259.256.418.789.577,1.229.361l7.905-3.828c-.019.078-.038.156-.057.233l-7.909,5.762c-.399.291-.51.838-.256,1.262.254.424.792.584,1.234.368l3.073-1.488-6.943,5.509c-.381.302-.474.843-.215,1.255.259.412.79.564,1.224.351l7.501-3.633-8.167,6.095c-.394.294-.5.84-.245,1.26.255.421.788.577,1.231.363l6.366-3.083c-.01.052-.02.104-.03.155l-7.362,5.565c-.392.296-.495.841-.238,1.259.256.419.79.574,1.23.361l5.516-2.671c-.003.018-.007.036-.01.054l-5.085,4.576c-.354.318-.419.847-.154,1.242.265.394.783.535,1.207.326l2.298-1.113-8.016,6.022c-.393.295-.497.84-.242,1.26.256.419.789.576,1.23.362l7.374-3.571c-.002.014-.003.028-.005.041l-8.79,6.354c-.401.29-.514.838-.26,1.263.254.425.791.585,1.235.369l5.068-2.454-7.184,5.621-.402.114-9.066-1.011,5.602-.573c.491-.049.864-.468.857-.963-.007-.495-.391-.902-.884-.938l-11.019-.806,8.327-.852c.488-.049.86-.463.857-.954-.003-.491-.378-.901-.867-.945l-9.984-.915,2.54-.26c.47-.046.837-.437.856-.912.019-.475-.315-.891-.783-.976l-6.887-1.252,6.217-.636c.487-.049.859-.462.857-.953-.002-.491-.375-.9-.864-.946l-9.833-.931,7.575-.775c.489-.051.861-.464.857-.956-.003-.492-.38-.9-.87-.944l-10.151-.897,8.291-.848c.481-.047.853-.455.857-.942.004-.486-.359-.898-.842-.955l-8.802-1.042,3.397-.347c.489-.048.863-.467.857-.961-.006-.494-.388-.901-.881-.939l-10.795-.83,9.604-.982c.489-.047.859-.462.857-.952-.002-.491-.375-.9-.864-.946l-9.802-.934,5.281-.54c.488-.048.86-.464.857-.955-.003-.492-.379-.901-.869-.945l-10.068-.906,7.785-.796c.49-.05.861-.464.857-.956-.004-.492-.381-.901-.871-.943l-10.216-.891,1.889-.193c.486-.048.859-.462.857-.953-.002-.491-.376-.9-.865-.946l-9.034-.846c-.055-.05-.111-.1-.166-.15l6.246-.639c.483-.049.853-.455.857-.942.004-.486-.36-.898-.842-.955l-8.816-1.04,8.42-.861c.489-.049.865-.469.857-.964-.008-.495-.393-.902-.887-.937l-11.194-.788,7.168-.733c.49-.048.865-.469.857-.964s-.393-.902-.887-.937l-11.159-.791,5.382-.551c.492-.049.866-.47.857-.966-.009-.496-.396-.902-.891-.936l-11.406-.765,9.207-.942c.485-.048.86-.462.857-.954-.002-.491-.377-.9-.866-.946l-9.927-.921,3.271-.335c.489-.049.86-.464.857-.955-.003-.492-.379-.9-.869-.945l-10.083-.905,5.127-.525c.487-.05.861-.464.857-.957-.004-.492-.382-.901-.872-.943l-10.262-.886,7.037-.72c.491-.049.865-.469.857-.965-.008-.495-.394-.902-.888-.936l-11.246-.782,6.907-.706c.487-.047.857-.46.857-.949,0-.489-.37-.899-.857-.949l-9.465-.97,2.48-.254c.474-.046.842-.442.857-.92.014-.478-.328-.893-.8-.97l-7.334-1.202,7.713-.789c.521-.052.906-.522.852-1.046Zm-20.559-8.543c.124-.131.244-.288.365-.5.258-.471.317-.619.039-1.664.235.052.402.009.671-.069.402-.116.743-.387.947-.753.238-.426.318-.688.146-1.201,1.013-.667,2.072-1.348,3.172-2.042.091-.021.183-.043.263-.062.309.171.719.401,1.141.637q2.642,1.478,3.303,1.289c.405-.117.747-.39.951-.759.431-.783.409-.973-1.094-3.64.161-.079.312-.202.454-.377.235-.171.667-.472,1.088-.766.069-.048.124-.087.187-.131.077-.045.16-.091.237-.136.264.148.564.316.865.485,2.238,1.257,3.163,1.773,3.949.383.257-.462.26-.469.08-2.506.262-.144.481-.362.628-.629.019-.034.251-.527.528-1.115.177-.096.35-.19.529-.286.287.16.587.326.899.5l2.423,1.345c1.362.752,2.538,1.399,3.312.004.422-.768.376-.896-.982-3.792.179-.177.442-.437.71-.7.078-.077.151-.148.219-.215.36.17.692.237,1.134.119.276-.074.523-.221.72-.421.2-.175.828-.677,1.429-1.159.206-.164.384-.308.54-.433.42.218.771.311,1.262.178.291-.08.551-.24.752-.459.192-.181.814-.719,1.393-1.221.139-.121.265-.23.378-.329.177.099.365.205.552.311,1.963,1.105,1.999,1.124,2.658.932.403-.118.744-.39.947-.758.108-.197.112-.204.519-1.733.141.009.254-.022.396-.059.255-.068.487-.199.677-.376.168-.137.661-.511,1.171-.899.25-.19.464-.352.646-.492.464.247.822.35,1.331.208.268-.075.508-.217.701-.41.181-.156.707-.57,1.198-.96.089-.07.172-.136.25-.197,1.478.801,2.268-.513,2.276-.527.182-.334.256-.486.192-1.041.374-.143.749-.285,1.126-.428.998.553,2.225,1.209,3.002-.135.168-.308.227-.42.21-1.053.27-.098.546-.194.817-.291l2.388,1.324c1.353.748,2.522,1.392,3.304.027.402-.729.488-.966-.503-2.313.424-.026.828-.24,1.142-.798.074-.135.111-.204.173-.473,2.189-.72,4.419-1.427,6.707-2.114.093.052.19.106.282.157q4.591,2.553,5.249,2.349c.398-.119.735-.39.936-.755.287-.522.3-.646-.108-2.31.194-.138.356-.319.471-.531.064-.115.082-.154.361-.958.32-.086.641-.175.961-.26.927.502,1.098.504,1.619.351.111-.032.217-.077.317-.132.28-.11,1.159-.406,1.755-.607.416-.14.755-.254,1.033-.351.729.426,1.117.635,1.764.458.038-.01.075-.022.112-.035.28-.06,1.114-.203,1.737-.31.687-.118,1.206-.207,1.607-.286.35.195.852.477,1.349.757,2.272,1.277,3.214,1.811,4.004.409.307-.561.325-.652-.181-2.567.275-.131.881-.394,1.502-.666.524-.23.935-.409,1.26-.556.744.434,1.12.624,1.749.456.056-.015.11-.033.162-.053.348-.077,1.441-.259,2.256-.394,1.176-.195,1.981-.329,2.545-.446.293.163.681.382,1.079.605q2.464,1.385,3.126,1.193c.408-.118.754-.394.957-.767.021-.039.386-.827.761-1.645.034-.073.067-.146.101-.219.263.081.526.092.858,0,.149-.042.291-.105.419-.186.28-.132,1.205-.517,1.831-.776.381-.158.694-.289.952-.398.865.508,1.238.716,1.9.533.131-.036.254-.087.369-.154.257-.107,1.039-.389,1.57-.581.383-.139.698-.253.959-.35.013.008.025.015.038.022.889.52,1.259.737,1.931.549.411-.114.76-.39.967-.763.061-.112.096-.175.148-.375.728-.056,1.455-.105,2.183-.153,3.796,2.12,3.821,2.122,4.474,1.937.236-.067.449-.187.628-.348.231-.175.928-.649,1.605-1.111.323-.22.59-.403.813-.556.909.525,1.257.694,1.892.511.06-.017.119-.038.176-.061.307-.083,1.276-.297,1.934-.443.745-.164,1.3-.287,1.72-.391.075.045.155.091.233.137.859.504,1.241.739,1.787.659.575.057,2.426.358,3.807.583.849.138,1.571.255,2.205.356-.235.643.118,1.141,2.098,3.259-.637.36-1.286.723-1.953,1.091-.611-.322-.895-.377-1.388-.24-.282.079-.534.233-.731.443-.204.186-.844.716-1.46,1.228-.226.188-.42.349-.587.489-.395-.198-.744-.287-1.229-.148-.273.078-.517.227-.71.428-.208.187-.89.745-1.532,1.272-.205.169-.384.315-.539.444-.403-.205-.745-.293-1.22-.168-.425.111-.785.394-.994.78-.031.054-.341.598-.667,1.166-.836-.467-1.106-.55-1.664-.395-.417.114-.769.394-.976.773-.147.27-.2.371-.201,1.024-.292.138-.582.275-.877.413l-2.061-1.144c-1.1-.607-2.346-1.298-3.123.095-.207.377-.213.388-.232,2.188-.376.128-.693.394-.885.745-.015.027-.269.569-.562,1.198-1.271.549-2.572,1.096-3.894,1.642-.93-.522-1.204-.625-1.793-.454-.217.062-.415.169-.584.311-.223.157-.858.555-1.474.945-.273.173-.505.32-.703.446-.493-.274-.868-.41-1.409-.265-.223.06-.428.166-.603.311-.227.152-.831.514-1.428.874-.314.189-.576.347-.795.48-.062-.035-.126-.071-.189-.107-1.607-.91-1.776-1.003-2.437-.816-.406.116-.751.39-.955.76-.315.573-.399.723.223,2.088l-3.094-1.715c-1.843-1.017-2.857-1.58-3.636-.19-.366.664-.486.882.334,2.065l-.4-.221c-1.636-.905-2.718-1.502-3.503-.141-.239.435-.255.464-.169,2.285-.1.036-.195.081-.284.135-.292.129-1.262.503-1.918.755-.43.165-.777.299-1.059.41-.419-.232-.998-.556-1.585-.884q-3.01-1.682-3.676-1.489c-.4.117-.739.388-.942.752-.314.563-.321.575.258,3.044-.016.011-.033.022-.05.035-.233.138-.883.482-1.525.824-.361.192-.659.351-.905.484-.615-.357-1.002-.541-1.614-.37-.194.054-.376.144-.534.264-.171.109-.607.365-1.063.635-.261.154-.484.286-.675.4-.627-.358-.995-.521-1.597-.353-.161.045-.312.115-.45.207-.251.131-.912.435-1.596.751-.58.269-1.027.475-1.374.641-.658-.383-1.049-.583-1.683-.403-.16.046-.311.115-.448.206-.248.13-1.098.531-1.673.802-.422.199-.764.359-1.04.493-.668-.389-1.053-.596-1.696-.417-.159.044-.309.113-.445.202-.263.13-1.122.504-1.702.757-.543.236-.964.42-1.296.57-.725-.421-1.1-.602-1.723-.43-.195.054-.376.144-.534.264-.215.133-.784.45-1.339.761-.244.137-.454.255-.635.358-.186-.105-.391-.22-.595-.336-1.637-.922-2.72-1.532-3.515-.17-.028.036-.376.511-.726.992-.42-.212-.76-.294-1.233-.165-.148.041-.289.102-.417.182-.298.135-1.285.521-1.951.782-.562.22-.999.391-1.34.53-.754-.441-1.139-.662-1.803-.476-.195.055-.377.146-.535.266-.27.161-1.214.658-1.85.994-.368.194-.671.353-.919.487-.504-.289-.894-.452-1.473-.295-.066.018-.129.04-.191.065-.335.087-1.414.311-2.218.477-1.066.221-1.811.376-2.342.503-.017-.009-.032-.019-.049-.028-.872-.504-1.236-.71-1.891-.533-.372.101-.693.334-.905.651-.088.122-.388.517-.728.964-.403.061-.814.125-1.214.184-2.75-1.543-2.771-1.542-3.425-1.353-.195.056-.376.149-.533.27-.238.149-1.075.624-1.64.943-.291.165-.535.304-.744.423-.769-.447-1.128-.621-1.75-.454-.098.026-.191.062-.281.105-.264.091-1.092.338-1.654.506-.561.167-.999.297-1.343.406-.426-.236-1.039-.58-1.658-.926q-2.961-1.657-3.623-1.47c-.408.116-.755.391-.958.764-.268.488-.334.653.029,1.791q-3.978-2.215-4.643-2.016c-.398.119-.734.39-.936.753q-.121.22-.58,2.121c-.246-.065-.481-.062-.779.021-.415.114-.766.392-.973.77-.012.022-.118.243-.268.555-1.211.122-2.386.236-3.523.343-.262.025-.49-.031-.698-.116Z" fill="#2a2e28" stroke-width="0"/>
      <g>
        <path d="m232.991,187.226c-1.578-1.819-2.79-3.887-3.649-6.088l-8.761.547c-.49.031-.877.428-.894.919-.017.491.344.917.828.979l9.175,1.219-11.424.421c-.496.018-.895.413-.918.908-.023.495.337.927.828.991l5.363.712-11.178.455c-.495.02-.892.415-.914.91-.023.495.339.927.827.989l7.142.949-11.213.45c-.495.02-.892.415-.915.91-.023.495.34.925.827.989l8.391,1.114-8.843.774c-.484.042-.86.443-.871.929-.011.487.348.904.828.967l6.224.827c-.057.048-.114.097-.171.145l-9.056.573c-.49.031-.876.429-.893.919-.017.491.343.916.828.979l1.883.25-10.239.583c-.491.028-.881.425-.899.917-.019.492.34.917.828.982l7.758,1.03-10.09.603c-.491.029-.879.427-.897.918-.018.491.341.917.828.98l5.263.699-9.826.639c-.49.032-.875.43-.892.92-.016.49.341.917.828.978l9.57,1.271-10.815.505c-.493.023-.887.419-.909.912-.021.494.34.923.828.987l3.385.45-8.829.776c-.485.042-.86.443-.871.929-.01.486.349.906.828.967l8.262,1.097-10.173.591c-.491.029-.88.426-.898.917-.019.492.341.916.828.981l7.548,1.003-9.856.635c-.49.031-.876.429-.892.92-.017.491.343.914.828.978l6.195.823-6.922,1.044c-.47.071-.816.477-.812.952.004.475.36.878.828.937l2.531.336-10.007.614c-.49.03-.878.428-.895.919-.017.491.342.915.828.979l8.297,1.102-11.038.474c-.494.021-.89.416-.912.911-.022.494.339.924.828.988l5.582.741-9.092.737-.398-.126-7.012-5.835,4.992,2.606c.437.229.979.085,1.245-.332.267-.417.17-.968-.222-1.27l-8.595-6.616c-.001-.014-.002-.028-.003-.042l7.263,3.791c.435.228.973.087,1.241-.325.268-.412.18-.96-.203-1.266l-7.831-6.261,2.263,1.181c.417.221.94.096,1.217-.29.277-.386.228-.917-.116-1.246l-4.945-4.727c-.003-.018-.006-.036-.008-.054l5.433,2.836c.433.227.971.087,1.24-.324.269-.41.182-.958-.2-1.266l-7.191-5.784c-.009-.052-.017-.104-.026-.156l6.271,3.273c.436.227.974.087,1.242-.326.268-.412.179-.961-.207-1.267l-7.98-6.338,7.389,3.857c.427.226.963.09,1.234-.314.271-.404.195-.947-.177-1.261l-6.774-5.715,3.027,1.58c.435.229.978.085,1.245-.331.267-.416.172-.966-.218-1.269l-7.732-5.998c-.017-.078-.033-.157-.05-.235l7.786,4.064c.433.23.971.087,1.24-.323.269-.41.182-.958-.2-1.266l-7.669-6.177,4.707,2.456c.434.229.973.086,1.241-.325.268-.412.18-.961-.205-1.267l-7.906-6.299,6.938,3.622c.436.228.974.086,1.242-.327.268-.413.177-.962-.208-1.267l-8.038-6.368,1.684.879c.433.228.972.087,1.24-.324.269-.411.181-.959-.202-1.266l-6.206-4.982c-.043-.166-.086-.333-.129-.499l4.769,2.489c.43.225.963.09,1.234-.314.271-.404.194-.948-.177-1.261l-6.787-5.722,7.504,3.917c.435.228.98.085,1.246-.333.266-.418.168-.969-.225-1.27l-8.911-6.82,6.387,3.334c.436.23.98.084,1.246-.333.266-.417.168-.969-.224-1.27l-8.88-6.804,4.796,2.503c.438.229.981.084,1.247-.334.265-.419.166-.971-.228-1.271l-8.687-6.604c-.012-.039-.023-.078-.035-.117l7.826,4.085c.431.227.972.087,1.24-.324.269-.411.181-.959-.202-1.266l-7.78-6.234,2.915,1.521c.435.229.974.087,1.241-.326.268-.412.179-.96-.205-1.267l-7.919-6.306,4.568,2.384c.434.227.974.086,1.242-.327.268-.413.177-.962-.209-1.267l-7.564-5.982c-.018-.056-.037-.111-.055-.167l5.811,3.033c.437.23.98.084,1.247-.334.266-.418.168-.97-.226-1.27l-8.534-6.521c-.014-.042-.028-.083-.042-.125l5.773,3.013c.433.229.969.088,1.238-.32.27-.409.186-.955-.193-1.264l-7.367-6.021,2.21,1.154c.421.222.946.095,1.222-.297.275-.391.218-.926-.133-1.25l-5.461-5.041,6.873,3.588c.464.243,1.044.063,1.287-.404.244-.467.063-1.044-.405-1.287l-5.277-4.91c14.343,8.022,33.922,17.127,57.824,23.772,18.746,5.211,36.666,8.9,52.034,11.499,3.688-2.538,7.813-5.192,12.395-7.893-.648-.206-.66-.197-3.658,1.363-.63.328-1.253.653-1.686.876-.341-.119-.774-.263-1.33-.446-.556-.184-1.376-.456-1.638-.555-.089-.046-.181-.084-.278-.113-.617-.186-.98-.022-1.763.401-.205-.125-.445-.272-.731-.445-.556-.337-1.378-.836-1.611-.992-.153-.126-.331-.224-.524-.286-.648-.209-.668-.21-3.464,1.25-.398-.071-.806-.148-1.208-.221-.327-.457-.615-.861-.699-.985-.202-.323-.516-.565-.885-.678-.65-.197-1.02-.002-1.907.475-.017.009-.033.018-.05.027-.526-.143-1.266-.32-2.325-.573-.798-.191-1.871-.447-2.203-.544-.061-.027-.124-.051-.189-.071-.574-.174-.968-.024-1.481.25-.245-.141-.542-.309-.904-.515-.625-.355-1.554-.88-1.819-1.049-.154-.125-.333-.222-.526-.282-.659-.205-1.05.003-1.817.421-.337-.149-.768-.333-1.324-.57-.658-.281-1.633-.697-1.927-.841-.126-.083-.265-.149-.412-.195-.469-.143-.811-.072-1.238.128-.336-.491-.669-.977-.696-1.014-.754-1.386-1.855-.809-3.518.064-.207.109-.416.218-.605.318-.178-.108-.385-.233-.624-.377-.545-.328-1.105-.662-1.316-.801-.154-.124-.332-.22-.526-.28-.617-.19-.997-.021-1.735.378-.328-.159-.743-.356-1.279-.608-.573-.271-1.419-.67-1.679-.808-.133-.094-.281-.167-.439-.216-.637-.198-1.028-.003-1.707.366-.273-.142-.609-.312-1.025-.524-.567-.288-1.405-.715-1.648-.852-.134-.095-.282-.169-.442-.219-.628-.198-1.025-.01-1.694.352-.341-.176-.782-.396-1.354-.682-.674-.337-1.326-.66-1.572-.799-.135-.095-.285-.17-.444-.22-.597-.186-.97-.034-1.607.305-.188-.12-.406-.258-.663-.42-.448-.283-.876-.553-1.044-.667-.154-.124-.333-.22-.526-.28-.607-.189-.999-.017-1.625.321-.241-.141-.535-.308-.89-.511-.631-.362-1.271-.725-1.5-.87-.017-.013-.033-.024-.049-.036.652-2.45.646-2.463.349-3.035-.192-.371-.522-.651-.919-.78q-.659-.216-3.719,1.378c-.597.31-1.186.617-1.611.836-.279-.12-.622-.264-1.047-.442-.648-.272-1.607-.675-1.895-.813-.087-.056-.181-.104-.28-.143.14-1.817.125-1.847-.101-2.289-.744-1.384-1.843-.82-3.505.035l-.406.209c.856-1.158.742-1.379.396-2.054-.737-1.413-1.767-.881-3.64.08l-3.144,1.621c.663-1.346.584-1.498.286-2.081-.193-.376-.529-.66-.932-.789-.656-.207-.827-.119-2.461.742-.065.034-.13.068-.192.102-.216-.14-.473-.306-.781-.504-.586-.378-1.179-.758-1.401-.917-.171-.15-.372-.263-.594-.329-.537-.162-.916-.037-1.417.222-.194-.131-.422-.285-.689-.466-.604-.408-1.226-.826-1.445-.989-.166-.147-.36-.26-.575-.328-.584-.189-.86-.094-1.806.4-1.305-.585-2.588-1.171-3.842-1.759-.274-.638-.511-1.187-.526-1.215-.181-.357-.49-.632-.862-.771.034-1.8.029-1.811-.167-2.194-.735-1.415-2.001-.763-3.118-.189l-2.094,1.082c-.291-.147-.577-.293-.865-.44.018-.652-.032-.755-.17-1.029-.195-.385-.539-.675-.952-.802-.554-.171-.826-.096-1.675.345-.309-.578-.602-1.13-.631-1.185-.198-.392-.549-.685-.97-.809-.471-.14-.815-.062-1.225.131-.152-.133-.326-.285-.526-.46-.625-.546-1.29-1.124-1.493-1.318-.187-.207-.427-.363-.697-.449-.48-.153-.832-.075-1.233.111-.163-.145-.352-.312-.572-.507-.6-.531-1.224-1.08-1.422-1.272-.19-.216-.438-.378-.717-.465-.489-.152-.774-.105-1.395.198-.656-.388-1.293-.77-1.919-1.149,2.043-2.058,2.411-2.544,2.196-3.194.637-.081,1.363-.177,2.215-.289,1.387-.183,3.246-.428,3.822-.468.543.096.932-.128,1.806-.605.08-.044.161-.088.237-.13.417.116.968.256,1.708.443.653.165,1.616.408,1.92.501.056.026.115.048.174.067.63.202.983.044,1.907-.454.219.16.48.351.796.581.662.483,1.345.977,1.571,1.159.174.166.384.293.617.367.647.204.672.203,4.53-1.802.726.07,1.451.141,2.177.219.046.201.079.266.137.379.195.379.536.665.943.791.666.207,1.043.002,1.947-.491.013-.007.026-.014.038-.021.258.105.57.229.948.379.525.208,1.298.514,1.552.628.114.07.235.125.365.165.656.203,1.035.006,1.915-.476.255.117.564.257.94.427.618.279,1.531.69,1.807.831.126.085.266.153.414.199.328.102.592.099.857.026.031.073.063.148.094.222.35.829.691,1.627.711,1.667.192.379.529.666.934.796q.656.211,3.16-1.098c.404-.211.799-.418,1.096-.573.561.133,1.362.292,2.531.522.81.16,1.897.374,2.243.462.052.022.106.041.161.058.624.186,1.005.008,1.762-.404.32.156.726.348,1.243.594.613.291,1.211.572,1.482.711-.563,1.899-.548,1.991-.258,2.56.747,1.425,1.705.92,4.014-.288.505-.265,1.015-.532,1.371-.716.398.091.915.196,1.598.334.619.125,1.449.293,1.727.362.037.014.073.027.111.038.642.197,1.036,0,1.777-.404.274.105.61.229,1.022.382.59.219,1.459.541,1.736.659.099.058.203.106.313.141.517.168.688.172,1.629-.302.318.094.635.193.953.289.255.812.272.851.332.968.109.216.266.401.455.545-.458,1.651-.449,1.776-.178,2.306.189.37.518.652.912.783q.657.219,5.317-2.19c.093-.048.191-.099.286-.148,2.266.755,4.473,1.529,6.64,2.315.054.271.089.341.159.478.297.567.695.793,1.117.832-1.03,1.316-.952,1.556-.572,2.296.74,1.388,1.929.779,3.303.073l2.427-1.251c.269.105.542.21.808.315-.037.632.019.746.178,1.059.736,1.368,1.983.748,2.996.226.373.153.743.307,1.113.461-.081.553-.012.708.16,1.047.008.014.758,1.351,2.259.595.076.063.157.132.244.204.48.405.993.834,1.169.996.187.198.423.348.688.431.505.157.866.065,1.337-.168.178.145.387.314.631.511.498.403.979.791,1.143.934.185.183.413.32.666.396.141.042.253.075.394.071.361,1.541.365,1.548.466,1.748.192.373.524.656.924.786.653.212.689.194,2.685-.851.19-.1.382-.2.562-.294.11.102.233.215.368.34.563.52,1.169,1.076,1.355,1.263.195.225.449.393.738.481.487.148.84.065,1.266-.14.152.13.326.279.526.45.587.501,1.199,1.021,1.394,1.202.191.205.434.359.707.442.439.131.772.074,1.137-.085.066.069.137.143.213.221.26.271.516.538.689.721-1.445,2.854-1.495,2.981-1.096,3.761.732,1.417,1.926.806,3.31.095l2.463-1.271c.318-.164.622-.322.914-.473.176.101.346.201.52.302.259.596.476,1.096.494,1.131.139.272.351.496.609.648-.241,2.031-.238,2.038.005,2.508.744,1.414,1.684.925,3.959-.264.306-.16.611-.319.88-.459.076.047.157.096.233.143.061.046.115.086.183.136.411.306.835.621,1.064.799.136.179.284.307.442.391-.73,1.209-1.126,1.898-1.305,2.37,2.807-1.611,5.778-3.233,8.909-4.853-13.876-9.337-33.875-20.309-60.528-29.085-40.166-13.226-72.486-13.083-88.746-11.705-3.897.33-5.462,4.915-3.077,7.595,12.263,31.952,25.359,72.766,30.322,106.316.072.487.137.971.205,1.456-.013.147.007.295.061.432,6.091,44.88-8.186,83.455-23.513,124.268l9.577-.19c10.22-35.428,18.409-81.43,20.281-90.67l1.413.848.207.256c2.908,3.587,7.629,5.119,12.065,3.979-.071.129-.129.276-.161.434-.015.076-.025.149-.028.219l-7.791,2.414c-.316.098-.6.527-.662.996-.061.469.122.826.422.837l6.251.145-6.925,1.715c-.319.079-.616.505-.686.983-.069.478.113.848.419.857l5.822.136c-.019.043-.036.083-.055.125l-3.852,1.69c-.306.134-.565.565-.611,1.017-.045.451.137.786.427.795l2.492.058c-.054.125-.11.254-.164.381l-3.827,1.42c-.311.115-.584.546-.637,1.006-.054.461.13.805.424.817l2.62.061c-.015.035-.03.069-.045.104l-5.33,1.655c-.315.098-.6.527-.661.996-.061.469.12.831.422.837l4.044.094c-.076.178-.15.354-.227.534l-2.519,1.329c-.298.157-.539.588-.574,1.026-.035.438.146.756.429.767l1.333.031c-.193.459-.388.924-.585,1.392l-1.126.471c-.308.129-.571.56-.619,1.014-.048.454.134.792.426.802l.359.008c-.02.049-.041.098-.061.146l-4.081,1.658c-.308.126-.574.557-.623,1.012-.05.455.133.795.425.806l2.808.065c-.166.403-.333.805-.501,1.213l-1.342.662c-.301.148-.549.579-.588,1.022-.039.443.142.768.428.778l.485.011c-.115.28-.229.559-.344.841l-2.595.987c-.311.118-.581.549-.634,1.008-.053.46.128.807.425.814l1.645.038c-.614,1.512-1.233,3.047-1.858,4.606l-1.915.947c-.301.148-.549.58-.588,1.023-.039.444.143.767.428.777l.969.023c-.194.489-.389.978-.583,1.47l-.964.395c-.308.127-.573.557-.622,1.012-.049.455.132.794.426.805l.285.007c-.107.273-.214.545-.322.819l-2.405,1.021c-.307.131-.569.561-.617,1.015-.047.453.133.788.427.8l1.474.034c-1.6,4.116-3.201,8.317-4.77,12.543l-1.156.372c-.315.101-.597.53-.657.998-.06.467.123.82.422.833l.572.013c-.184.5-.368,1-.551,1.501l-1.011.353c-.313.109-.59.539-.646,1.003-.057.464.125.813.424.824l.437.01c-1.806,4.99-3.213,9.64-4.835,14.52l7.537,5.652c10.683-40.995,23.557-84.366,54.18-116.586,13.094-13.777,29.596-27.953,46.574-41.113-1.673-1.213-3.354-2.424-5.047-3.63Zm-109.144-76.993c-.09.047-.188.097-.281.145-.345-.554-.259-1.261.151-1.735.253.427.468.79.49.825.081.157.193.293.319.414-.212.109-.438.226-.678.351Z" fill="#2a2e28" stroke-width="0"/>
        <path d="m226.444,179.651c-.018.491.34.917.828.98l1.976.262c-.275-.731-.513-1.474-.704-2.232l-1.202.071c-.491.029-.879.427-.897.918Z" fill="#2a2e28" stroke-width="0"/>
      </g>
      <path d="m359.524,366.982c.01-.084.022-.169.019-.252.268-.169.529-.341.795-.511,1.387-1.235,3.124-2.462,5.162-3.629.498-.402.987-.807,1.441-1.225.43-.395.762-.792,1-1.185.042.005.088.011.128.016.187-.095.407-.206.672-.34.408-.206.81-.408,1.02-.518.504-.378,1.267-.393,1.802-.351.147-.092.318-.2.519-.325.438-.275.87-.544,1.017-.642.16-.121.371-.226.612-.3.604-.187.991-.134,1.763-.027.179.024.354.05.439.058l-.48.792.191.026c-.029.039-.051.069-.083.102l.456.544c-.502.16-.866.149-1.388.084-.127.079-.271.169-.435.272-.458.287-.926.578-1.083.684-.157.121-.365.225-.603.301-.504.159-.872.146-1.374.084-.162.082-.35.177-.569.287-.497.251-1.003.505-1.185.604-.078.048-.163.093-.256.133,1.142.624,1.135.738.83,1.146-.155.208-.45.389-.817.504-.502.156-.693.165-1.69.04-.156.631-.165.643-.248.756-.155.209-.453.393-.823.507-.211.065-.404.099-.584.114-.138.082-.299.177-.486.287-.508.3-1.047.618-1.224.73-.156.114-.358.212-.588.283-.059.019-.116.034-.172.048-.168.622-.176.633-.259.743-.155.207-.446.388-.811.502-.011.004-.022.007-.033.011q-.103.865-.214,1.014c-.156.21-.454.394-.826.509-.461.142-.806.139-1.201.096-.048.022-.107.049-.16.073-.175.494-.266.977-.264,1.444.648.632.662.748.427,1.067-.017.022-.034.044-.054.065,5.026,1.619,5.008,1.644,4.515,2.314-.098.128-.409.451-1.107.567-.082.014-.17.024-.263.031,2.263.939,5.486,1.408,9.264,1.365-.049-.139-.027-.293.086-.45.154-.213.455-.4.831-.517.631-.192.933-.151,2.384.053.263.037.527.075.738.103.466-.116,1.115-.264,2.033-.473.882-.202,2.186-.499,2.579-.603.044-.016.088-.031.135-.046.608-.186.986-.135,1.895-.007.019.003.036.005.055.008.288-.114.652-.254,1.116-.433.585-.226,1.45-.56,1.704-.667.113-.058.237-.108.373-.15.512-.158.877-.14,1.423-.069.072-.046.15-.096.233-.149.396-.254.805-.515.943-.608.16-.123.37-.228.614-.303.57-.176.592-.184,2.752.092.086-.83.093-.839.198-.984.157-.215.461-.402.84-.517.386-.118.685-.136,1.041-.108.066-.056.139-.117.217-.183.351-.295.697-.584.794-.669.168-.161.421-.299.722-.391.286-.089.531-.122.777-.122.259-.299.515-.592.538-.619.156-.21.453-.394.825-.509.258-.079.479-.114.693-.121.074-.091.149-.185.224-.277.306-.381.594-.737.625-.776.024-.032.052-.065.083-.095-.022-.023-.045-.045-.067-.066-1.399-1.386-1.426-1.413-1.126-1.819.571-.743,1.441-.672,3.269-.439.164-.735.171-.745.26-.866.047-.064.106-.125.175-.182.133-.175.347-.454.562-.734.332-.435.665-.871.692-.907.084-.113.21-.219.366-.311-.013-.025-.026-.048-.038-.072-.629-1.18-.642-1.203-.421-1.502.059-.079.137-.154.233-.223-.008-.009-.016-.018-.025-.027-.413-.479-.631-.731-.712-.908-1.28-.272-2.759-.579-4.024-.842-1.412-.293-2.828-.587-4.073-.851-.439.061-.823.003-1.309-.074-.1-.016-.2-.033-.283-.045-.079-.002-.158-.007-.235-.017-.453-.055-.758-.23-.866-.454-1.08-.252-1.686-.448-1.854-.718-1.606.104-3.289.293-5.024.57.097-.017.194-.038.291-.054,1.607-.268,3.169-.461,4.686-.597-.038-.129.005-.276.138-.455.155-.212.466-.402.84-.517.737-.228.894-.215,5.486.439,1.287.183,3.014.429,3.575.481.143-.007.287-.002.427.015.404.05.689.196.822.387,1.867.366,3.444.904,4.662,1.604,2.005.444,2.672.663,2.176,1.337-.062.084-.161.159-.263.232,1.707,2.179.914,5.054-2.237,8.099-3.452,3.337-9.21,6.41-16.211,8.653-3.165,1.014-6.413,1.802-9.655,2.342-10.688,1.781-19.743.615-22.533-2.901-1.739-2.192-.825-5.034,2.035-7.889Z" fill="#2a2e28" stroke-width="0"/>
    </g>
  </g>
  <path d="m263.994,110.277c-.012-2.739.113-5.62,1.534-7.962.582-.96,1.598-1.875,2.694-1.631,1.416.314,1.741,2.156,1.767,3.606.076,4.318.152,8.635.228,12.953.027,1.556.046,3.162-.536,4.606-.426,1.058-1.731,2.763-3.074,2.653-1.62-.134-1.531-1.464-1.812-2.922-.712-3.703-.784-7.53-.801-11.301Z" fill="#2a2e28" stroke-width="0"/>
  <path d="m249.068,113.93c-.682-.951-1.366-1.904-2.102-2.777-.862-1.023-1.819-1.951-2.855-2.423-1.036-.471-2.165-.424-2.868.384-.083.095-.162.208-.178.363-.015.145.027.304.069.457.539,1.982,1.111,4.03,2.176,5.711.58.916,1.281,1.681,1.976,2.437,2.1,2.287,4.2,4.574,6.3,6.861.615.669,1.24,1.348,1.934,1.8,1.021.666,2.157.787,3.061.326.138-.07.277-.162.341-.338.054-.151.046-.342.03-.527-.223-2.667-1.41-4.23-2.949-5.901-1.777-1.929-3.323-4.126-4.934-6.373Z" fill="#2a2e28" stroke-width="0"/>
  <path d="m285.422,113.93c.682-.951,1.366-1.904,2.102-2.777.862-1.023,1.819-1.951,2.855-2.423s2.165-.424,2.868.384c.083.095.162.208.178.363.015.145-.027.304-.069.457-.539,1.982-1.111,4.03-2.176,5.711-.58.916-1.281,1.681-1.976,2.437-2.1,2.287-4.2,4.574-6.3,6.861-.615.669-1.24,1.348-1.934,1.8-1.021.666-2.157.787-3.061.326-.138-.07-.277-.162-.341-.338-.054-.151-.046-.342-.03-.527.223-2.667,1.41-4.23,2.949-5.901,1.777-1.929,3.323-4.126,4.934-6.373Z" fill="#2a2e28" stroke-width="0"/>
</svg>