<?xml version="1.0" encoding="UTF-8"?>
<svg id="Layer_1" data-name="Layer 1" xmlns="http://www.w3.org/2000/svg" viewBox="0 0 512 512">
  <defs>
    <style>
      .cls-1 {
        fill: #4380af;
      }

      .cls-1, .cls-2, .cls-3, .cls-4 {
        stroke-width: 0px;
      }

      .cls-2 {
        fill: #2a2e28;
      }

      .cls-3 {
        fill: #fff;
      }

      .cls-4 {
        fill: #ef9437;
      }
    </style>
  </defs>
  <path class="cls-1" d="m217.77,207.05c-8.32-22.8-7.86-48.06-2.82-71.8,5.04-23.74,14.43-46.3,23.78-68.69l-22.93-1.99c-3.49,12.38-6.99,24.77-10.48,37.15-7.05,24.96-14.16,50.76-10.88,76.49,4.11,32.26,26.32,60.11,55.79,73.87-14.5-11.85-26.03-27.43-32.45-45.02Z"/>
  <path class="cls-4" d="m316.8,135.25l-39.66-.27c-1.71-.01-3.5,0-4.99.91s-2.52,3.05-1.76,4.74c.81,1.79,2.97,2.07,4.78,2.12,13,.35,26,.7,39,1.05"/>
  <path class="cls-4" d="m318.08,148.09c-12.89.37-25.79.75-38.68,1.12-2.49.07-5.58.56-6.31,2.85-.54,1.71.73,3.56,2.39,4.37s3.6.83,5.45.84c10.73.05,21.47.1,32.2.15"/>
  <path class="cls-4" d="m318.08,160.33l-33.64-.65c-2.23-.04-4.6-.06-6.5.86s-2.97,3.15-1.55,4.51c11.52,1.41,23.22,1.87,34.86,1.36"/>
  <path class="cls-4" d="m321.8,171.12c-14.32-.17-28.64-.35-42.96-.52-2.57-.03-5.62.1-6.98,1.51-1.18,1.23-.39,2.92,1.23,3.92s3.84,1.44,6.01,1.8c9.85,1.64,28.89,2.07,38.98,1.27"/>
  <path class="cls-4" d="m318.08,184.1c-7.9-.04-28.87-.09-36.76-.13-3.67-.02-7.55,0-10.71,1.29s-5.09,4.36-3.02,6.46c1.83,1.85,5.59,2.06,8.84,2.08,7.85.06,34.83.14,42.69.2"/>
  <path class="cls-4" d="m310.19,198.96c-7.21-.13-29.81.16-37.02.03-3.22-.06-6.54-.11-9.55.42s-5.66,1.79-5.66,3.28c0,1.23,1.82,2.34,4.11,2.98s4.98.87,7.63,1.03c5.94.36,35.82,1.4,41.78,1.11"/>
  <path class="cls-4" d="m300.06,215.12c-6.91-.34-26.64-1.18-33.46-.22-1.96.28-3.96.63-5.59,1.53s-2.81,2.5-2.41,4.04c.32,1.24,1.58,2.22,3.02,2.77s3.04.74,4.62.92c5.46.62,22.43,1.25,27.9,1.87"/>
  <path class="cls-4" d="m193.4,122.69c39.81-.28,79.62-.56,119.42-.84-1.14,2.67-1.66,5.52-2.79,8.19-37.27.63-74.97,1.05-112.25,1.67-.82-3.11-3.56-5.92-4.39-9.03Z"/>
  <g>
    <path class="cls-2" d="m270.43,80.41l17.27-1.33c3.19-.24,5.52,4.95,4.47,9.97-.01.06-.02.11-.03.17-.62,2.98-2.3,5-4.19,5.05-6.72.19-13.4-.5-20.11-.33-2.28.06-4.26-2.71-4.55-6.48-.14-1.89-.06-3.76.44-5.48.9-3.06,2.95-4.19,4.42-2.68.69.71,1.47,1.17,2.28,1.11Z"/>
    <path class="cls-2" d="m274.1,101.2l14.32-.49c2.02-.07,3.45,3.3,2.71,6.44-.02.1-.05.2-.07.3-.42,1.83-1.48,3.02-2.66,3.03-4.71.04-9.47.44-14.18.47-1.09,0-2.09-1.04-2.56-2.68-.03-.09-.05-.18-.08-.28-.91-3.1.43-6.73,2.5-6.8Z"/>
    <path class="cls-2" d="m280.29,119.13h10.7c1.94,0,3.12,3.55,2.09,6.3-.01.03-.02.05-.03.08-.44,1.18-1.21,1.9-2.04,1.92-3.3.1-7.23.49-10.56.61-1.09.04-2.08-1.13-2.4-2.87-.05-.26-.09-.53-.14-.79-.44-2.63.73-5.24,2.38-5.24Z"/>
    <path class="cls-2" d="m289.3,136.35l3.96-.09c1.01-.02,1.84,1.28,1.9,2.96.01.31.03.62.04.92.09,1.81-.77,3.34-1.86,3.36-1.27.01-2.55.04-3.82.05-.83,0-1.56-.9-1.8-2.21-.06-.3-.12-.61-.17-.91-.38-1.99.5-4.03,1.76-4.06Z"/>
    <path class="cls-2" d="m292.62,150.24h1.69c.87,0,1.37,1.63.86,2.8-.41.95-.82,1.89-1.23,2.83-.17.39-.44.65-.73.71,0,0,0,0-.01,0-.54.11-1.04-.47-1.16-1.36s-.3-1.84-.44-2.77c-.18-1.12.33-2.22,1.03-2.22Z"/>
    <path class="cls-2" d="m292.52,161.97l.84.1c.78.09,1.2,1.6.72,2.62-.28.58-.65,1.05-1.07,1.26-.29.15-.6.19-.9.17-.75-.07-1.2-1.43-.8-2.49.1-.28.2-.56.29-.82.19-.55.54-.88.92-.84Z"/>
  </g>
  <g>
    <path class="cls-4" d="m234.67,135.41c.89-.02,1.81-.03,2.65.32s1.58,1.18,1.64,2.18c.07,1.06-.65,2.02-1.5,2.48s-1.82.5-2.76.54c-3.29.14-27.17,2.83-26.49-1.79.59-3.95,8.15-3.35,10.31-3.4,5.38-.11,10.77-.23,16.15-.34Z"/>
    <path class="cls-4" d="m233.32,147.97c.77.03,1.6.09,2.2.64s.74,1.79.07,2.22c-6.47,1.22-13.04,1.79-19.6,1.7-2.99-.04-6.11-.26-8.68-1.98-.68-.46-1.36-1.1-1.5-1.98-.44-2.9,10.78-1.26,12.58-1.19,4.98.2,9.95.4,14.93.6Z"/>
    <path class="cls-4" d="m224.41,157.04c1.37-.04,2.97.05,3.76,1.32.86,1.38.14,3.42-1.1,4.35s-2.82,1.04-4.31,1.13c-3.64.21-7.27.41-10.91.62-1.47.08-2.99.16-4.37-.41-4.18-1.73-2.69-6.34,1-6.67,5.24-.47,10.66-.19,15.93-.33Z"/>
    <path class="cls-4" d="m226.49,170.35c.66,1.38-.06,3.2-1.22,4.08s-2.6,1.07-3.99,1.24c-3.46.41-6.91.82-10.37,1.24-1.02.12-2.05.24-3.06.03-1.78-.38-3.82-2.77-2.46-4.88,1-1.56,2.76-.77,4.21-.72,5.58.21,11.31-.63,16.89-.99Z"/>
    <path class="cls-4" d="m206.78,181.11l9.3-.34c.86-.03,1.75-.06,2.57.25s1.57,1.03,1.73,1.99c.19,1.17-.58,2.33-1.53,2.84s-2.04.54-3.1.56c-1.75.03-3.5.06-5.25.08-.78.01-1.57.02-2.32-.22s-1.46-.77-1.78-1.57c-.37-.92-.11-2.11.6-2.73s1.79-.62,2.49.01"/>
    <path class="cls-4" d="m216.5,192.62c.67.1,1.43.33,1.72,1.02.25.6.03,1.35-.39,1.82s-.98.72-1.54.92c-1.34.49-2.73.82-4.13.97-1.15.13-2.48.05-3.21-.97-3.16-4.44,6.28-3.96,7.55-3.76Z"/>
  </g>
  <g>
    <path class="cls-2" d="m232.76,83.3l-9.22-.21c-1.26-.03-2.15,2.04-1.73,4.02.21.99.42,1.99.62,2.9.26,1.2.95,2.01,1.71,1.99,3.71-.1,7.32-.83,10.97-.97.99-.04,1.76-1.43,1.75-3.08,0-1.4-.15-2.79-.61-3.99-.64-1.68-1.73-2.22-2.36-1.29-.31.45-.72.64-1.13.63Z"/>
    <path class="cls-2" d="m228.86,95.83l-9.45.35c-.78.03-1.29,1.34-1,2.54.24.98.48,1.93.72,2.96.17.74.61,1.2,1.08,1.16,2.78-.23,5.6-.16,8.35-.38.53-.04.95-.73,1.04-1.6.1-1,.25-1.89.38-2.84.15-1.15-.41-2.21-1.11-2.19Z"/>
    <path class="cls-2" d="m226.79,105.83l-6.58.61c-1.13.1-1.76,2.2-1.15,3.77.19.48.37.96.54,1.44.27.79.77,1.28,1.32,1.25,1.87-.1,4.07-.04,5.97-.12.78-.03,1.39-1.08,1.42-2.37.01-.69.02-1.37.03-2.06.02-1.43-.69-2.59-1.55-2.51Z"/>
    <path class="cls-2" d="m222.42,115.78l-3.08.23c-.56.04-.98.89-.88,1.81.13,1.15.1,2.31.28,3.47.11.73.52,1.23.97,1.18.92-.09,1.83-.17,2.74-.26.48-.05.87-.71.88-1.51.02-1.09.05-2.22.07-3.32.02-.91-.43-1.64-.98-1.6Z"/>
    <path class="cls-2" d="m220.48,126.79l-1.57.19c-.48.06-.75.96-.48,1.64.55,1.37,1.09,2.74,1.64,4.12.1.26.27.43.46.46.24.04.47.12.71.09-.1-1.81-.03-3.69-.08-5.51-.01-.59-.33-1.03-.68-.99Z"/>
    <path class="cls-2" d="m220.66,137.03l-1.76.57c-.01,1.56.73,3.56,1.45,4.01.57.36,1.12-.06,1.55-.69-.21-.98-1.03-2.91-1.24-3.88Z"/>
  </g>
  <path class="cls-1" d="m253.05,257.13c1.2,49.93,2.4,99.85,3.6,149.78,4.34-51.07,7.58-100.72,11.93-151.79-3.94-.28-11.58,2.29-15.53,2.01Z"/>
  <path class="cls-1" d="m243.82,428.85c9.39,1.78,18.43,6.48,26.09,13.58,1.46,1.35,2.89,2.81,4.59,3.61,1.95.93,4.1.93,6.18.91,9.52-.07,19.03-.15,28.55-.22,1.29-5.9-1.96-12.3-5.96-15.74s-8.92-4.62-13.68-5.71c-7.52-1.71-15.1-3.36-22.75-3.3s-16.44,1.93-23.02,6.86Z"/>
  <path class="cls-3" d="m254.62,434.95c.47,0,.91.01,1.38.01.46,0,.91-.01,1.38-.01h-2.75Z"/>
  <path class="cls-2" d="m231.81,420.62c-12.23,2.21-33.34,9.15-56.25,30.63h160.88c-22.91-21.47-44.02-28.41-56.25-30.63-5.93-1.07-10.55-5.71-11.59-11.64-8.64-49.23-5.74-100.12,2.27-149.47,31.36-13.22,52.65-43.93,56.92-77.7,1.98-15.67.13-31.59-2.92-47.08-5.04-25.58-13.38-50.51-24.75-73.98h-88.24c-11.37,23.47-19.71,48.4-24.75,73.98-3.05,15.5-4.9,31.42-2.92,47.08,4.27,33.77,25.56,64.48,56.92,77.7,8.01,49.36,10.91,100.25,2.27,149.47-1.04,5.94-5.66,10.57-11.59,11.64Zm17.15-174.94c-26.25-11.07-46.29-37.49-49.87-65.76-1.49-11.77-.61-25.21,2.76-42.3,4.2-21.29,10.78-49.53,19.6-69.35h69.1c8.82,19.81,15.41,48.06,19.6,69.35,3.37,17.09,4.24,30.53,2.76,42.3-3.58,28.27-23.62,54.69-49.87,65.76l-7.04,2.97-7.04-2.97Zm6.56,30.91c.1,1.02.42,1.64.75,1.46l6.99-3.83-7.09,8.09c-.32.37-.5,1.42-.41,2.43.09,1,.41,1.63.74,1.45l6.38-3.43c0,.1-.01.19-.02.29l-3.66,5.81c-.29.46-.43,1.46-.33,2.37.1.9.4,1.44.71,1.28l2.69-1.42c-.02.28-.04.56-.06.84l-3.63,5.05c-.29.4-.44,1.38-.35,2.28.09.89.39,1.43.7,1.28l2.77-1.44c0,.08-.01.15-.02.22l-5.04,6.17c-.29.36-.45,1.3-.36,2.18.09.88.39,1.42.7,1.26l4.18-2.13c-.03.36-.05.72-.08,1.09l-2.18,3.78c-.25.44-.37,1.33-.27,2.12.1.78.38,1.23.67,1.1l1.36-.68c-.06.9-.12,1.81-.18,2.72l-.99,1.41c-.27.38-.4,1.26-.32,2.05.09.79.37,1.26.66,1.12l.36-.18c0,.09-.01.19-.02.28l-3.53,4.88c-.26.36-.39,1.2-.3,1.96.09.76.37,1.21.65,1.08l2.75-1.33c-.05.74-.09,1.47-.14,2.21l-1.11,1.73c-.25.39-.36,1.19-.27,1.91.09.71.36,1.13.63,1.01l.47-.22c-.03.49-.06.98-.09,1.48l-2.18,2.78c-.26.33-.39,1.11-.3,1.84.08.72.35,1.15.63,1.02l1.56-.73c-.15,2.56-.3,5.12-.45,7.67l-1.49,2.23c-.23.35-.34,1.07-.25,1.72.09.64.34,1.02.61.91l.89-.4c-.04.77-.08,1.55-.13,2.32l-.76.97c-.24.31-.36,1.02-.28,1.67.08.64.34,1.03.6.92l.26-.11c-.02.42-.04.84-.07,1.25l-1.85,2.4c-.23.3-.35.99-.26,1.61.08.62.33.98.59.88l1.3-.57c-.3,6.01-.57,11.91-.79,17.63l-.87.88c-.23.24-.36.85-.29,1.42.07.57.31.91.56.82l.48-.2c-.02.65-.05,1.3-.07,1.95l-.74.78c-.23.24-.34.83-.27,1.38.07.55.31.88.55.78l.36-.15c-.33,9.78-.51,18.92-.5,27.01h-.13c.11-43.23-3.52-118.44-9.51-156.75l1.94.9.34.43c4.63,5.88,10.49,5.96,15.18.36-.04.34-.06.71-.05,1.08,0,.18.02.35.04.51l-7.99,10.56c-.32.42-.48,1.51-.39,2.53Zm5.3,152.49h2.2l-1.42.9c-.52.34-.78,1.11-.59,1.81.19.71.75,1.13,1.33,1l14.26-3.18-2.26,1.61c-.5.36-.73,1.12-.54,1.81s.75,1.1,1.32.97l5.93-1.32-2.74,1.69c-.53.33-.79,1.1-.61,1.81.18.71.75,1.14,1.33,1.01l9.89-2.21-1.8,1.55c-.46.4-.64,1.15-.43,1.8.21.66.76,1.03,1.3.91l7.31-1.63-3.58,1.85c-.56.29-.86,1.07-.69,1.8.17.74.75,1.19,1.35,1.06l11.43-2.55s0,0,0,0l-2.11,1.58c-.49.37-.71,1.13-.51,1.81,0,0,0,0,0,0h-96.99s1.45-1.74,4.89-4.05l31.17-6.95c.14.78.73,1.3,1.36,1.15l19.17-4.27Z"/>
</svg>